<svg width="1665" height="420" viewBox="0 0 1665 420" fill="none" xmlns="http://www.w3.org/2000/svg">
<path d="M238.905 234.98C238.905 199.773 230.684 171.431 214.242 149.954C194.738 124.428 165.707 111.665 127.151 111.665C107.276 111.665 85.6241 117.214 62.1943 128.312C38.7644 139.41 27.0601 149.481 27.0806 158.524C27.9459 160.348 29.1366 161.999 30.5948 163.395C32.3622 165.095 33.6672 167.217 34.3867 169.561H50.3874C67.9186 160.353 79.952 154.188 86.4877 151.064C109.609 140.253 125.702 134.838 134.765 134.817C151.092 134.852 166.759 141.269 178.419 152.698C190.34 163.734 196.31 175.11 196.33 186.825C196.33 209.227 179.333 225.484 145.339 235.596L50.6643 262.725C16.8966 278.448 0.0129097 304.365 0.0129097 340.475C-0.180741 350.487 1.80629 360.422 5.8362 369.589C9.86611 378.756 15.8426 386.936 23.3505 393.563C38.373 407.621 58.2702 415.293 78.8422 414.958C93.2813 414.811 107.523 411.584 120.615 405.493C132.635 399.933 143.93 392.924 154.249 384.622C146.295 385.362 138.619 385.979 131.189 386.534C123.76 387.089 117.101 387.335 111.12 387.335C91.225 387.335 75.8106 384.18 64.8767 377.871C50.0378 369.362 42.6185 354.975 42.6185 334.71C42.6185 312.843 57.385 292.167 86.919 272.683C113.37 255.172 137.098 246.407 158.103 246.386C172.49 246.386 182.992 250.363 189.61 258.317C197.05 266.97 200.76 281.058 200.739 300.583V308.969C200.704 317.647 198.867 326.224 195.344 334.156C189.918 346.487 180.063 360.874 165.779 377.316C176.076 380.769 184.585 388.414 191.275 400.345C196.68 410.087 206.165 414.958 219.729 414.958C224.631 414.958 228.978 410.827 233.017 402.626C236.892 394.792 238.937 386.18 238.997 377.439L238.905 234.98Z" fill="#6C98C9"/>
<path d="M431.213 114.563C428.654 113.669 426.218 112.682 423.875 111.48C419.44 110.391 414.874 109.934 410.311 110.123C398.555 110.123 385.452 115.58 371.004 126.493C356.556 137.407 344.974 142.874 336.26 142.894C330.3 142.894 322.253 139.462 312.121 132.597C301.989 125.733 295.576 122.301 292.884 122.301C288.362 122.301 284.159 125.867 280.275 132.998C276.847 138.594 274.847 144.946 274.448 151.495V386.071C274.448 394.919 275.805 400.9 278.518 403.952C283.764 408.081 289.39 411.704 295.319 414.773C299.911 410.646 303.924 405.917 307.25 400.715C310.321 394.969 311.821 388.514 311.597 382.002V283.35C311.055 252.499 320.89 222.361 339.527 197.769C354.283 178.935 372.632 163.216 393.508 151.526C405.963 144.682 418.532 137.725 431.213 130.655V114.563Z" fill="#949698"/>
<path d="M657.867 345.963C640.705 369.085 617.379 380.646 587.886 380.646C562.216 380.646 541.787 374.233 526.598 361.408C514.18 350.508 505.454 336.018 501.627 319.944C498.335 306.573 496.791 292.832 497.033 279.065V262.726C497.033 222.792 503.199 193.258 515.531 174.124C529.321 152.646 552.165 141.908 584.063 141.908C615.262 141.908 639.657 153.643 657.25 177.114C673.692 199.147 681.913 227.684 681.913 262.726C681.913 296.493 673.868 324.239 657.775 345.963H657.867ZM695.478 165.523C682.43 146.181 664.294 130.818 643.07 121.129C627.696 113.915 613.864 110.308 601.573 110.308C589.283 110.308 572.739 114.82 551.94 123.842C543.935 127.541 535.259 129.566 526.444 129.792C511.441 129.792 501.586 122.301 496.879 107.318C494.166 98.6653 492.81 82.7783 492.81 59.6567C492.81 44.8281 492.533 34.5621 492.009 28.828C490.385 11.6872 484.589 3.10649 474.621 3.08594C472.404 3.19671 470.254 3.8796 468.379 5.06815C466.504 6.2567 464.969 7.91045 463.923 9.8683C460.867 14.6233 459.31 20.1868 459.453 25.8376C458.898 40.8614 458.354 58.9682 457.819 80.1578C457.285 101.347 456.74 131.508 456.185 170.64C455.651 209.69 455.384 271.759 455.384 356.846C455.384 378.878 456.556 393.327 458.899 400.191C462.167 409.594 469.288 414.28 480.325 414.28C492.995 414.28 502.644 411.474 509.365 405.894C516.949 399.379 521.604 395.988 523.33 395.721C525.166 395.438 527.022 395.304 528.88 395.32C540.451 399.78 551.847 404.055 563.068 408.145C574.715 412.328 587.01 414.415 599.385 414.311C635.742 414.311 665.4 398.701 688.357 367.482C710.06 338.112 720.912 302.484 720.912 260.598C721.015 222.412 712.568 190.699 695.571 165.461L695.478 165.523Z" fill="#949698"/>
<path d="M790.768 134.632C790.88 128.194 789.193 121.852 785.897 116.32C784.6 113.88 782.658 111.845 780.282 110.436C777.905 109.028 775.187 108.301 772.425 108.335C763.258 108.335 757.38 113.936 754.791 125.137C752.201 136.338 750.896 157.733 750.876 189.322V339.797C750.876 389.987 757.39 415.081 770.42 415.081C775.23 415.081 779.824 411.998 784.202 405.833C788.572 399.62 790.87 392.187 790.768 384.592V134.632ZM792.556 35.9802C794.443 32.0471 795.403 27.7334 795.361 23.3712C795.569 19.8725 794.948 16.3742 793.55 13.1603C792.152 9.94635 790.016 7.10737 787.315 4.87392C783.123 1.75669 778.049 0.0511281 772.825 0.00301918C769.504 -0.0494801 766.207 0.583192 763.142 1.86151C760.076 3.13983 757.306 5.03637 755.006 7.43276C752.605 9.82278 750.713 12.6754 749.447 15.8178C748.18 18.9602 747.565 22.3269 747.638 25.7142C747.466 29.5566 748.259 33.381 749.945 36.8382C751.63 40.2955 754.154 43.2755 757.287 45.5063C761.404 48.0622 766.132 49.4673 770.976 49.5756C775.507 49.6049 779.951 48.3301 783.777 45.903C787.604 43.476 790.651 39.9992 792.556 35.8877V35.9802Z" fill="#949698"/>
<path d="M993.098 257.608L906.377 224.56C875.26 212.228 859.702 196.156 859.702 176.344C859.702 167.321 865.22 157.384 876.257 146.532C882.291 140.401 889.491 135.54 897.433 132.237C905.375 128.933 913.898 127.252 922.5 127.295C933.913 127.736 945.143 130.308 955.61 134.879C966.976 139.421 980.088 144.754 994.948 150.879C997.163 150.394 999.259 149.471 1001.11 148.166C1002.17 147.498 1003.38 147.126 1004.63 147.087V131.364C991.064 121.438 979.174 115.025 968.959 112.127C958.745 109.229 943.238 107.791 922.438 107.811C891.363 107.811 866.638 114.666 848.264 128.374C829.89 142.083 820.714 159.963 820.734 182.016C820.734 208.364 836.652 229.677 868.488 245.955C897.96 257.526 927.525 268.994 957.182 280.36C988.813 293.904 1004.63 310.788 1004.63 331.011C1004.63 342.583 998.03 354.318 984.836 366.218C971.57 378.754 954.009 385.737 935.757 385.732C924.165 385.732 911.053 382.3 896.419 375.436C866.392 361.357 850.114 354.308 847.586 354.287C841.42 354.287 837.012 356.106 834.854 359.713C833.69 361.736 832.857 363.932 832.388 366.218C844.162 382.579 860.491 395.112 879.34 402.257C897.999 409.527 917.891 413.108 937.915 412.8C967.757 412.8 992.214 405.401 1011.29 390.603C1030.36 375.805 1039.9 355.942 1039.9 331.011C1039.9 299.237 1024.26 274.77 992.975 257.608" fill="#6C98C9"/>
<path d="M1268.37 338.317C1251.74 367.584 1227.24 382.207 1194.87 382.186C1172.64 382.186 1152.93 371.982 1135.74 351.573C1115.85 328.103 1105.91 296.688 1105.93 257.33C1105.93 224.98 1114.06 197.347 1130.32 174.431C1147.87 149.768 1170.93 137.437 1199.5 137.437C1229.16 137.437 1251.84 149.542 1267.57 173.753C1281.32 194.861 1288.19 222.216 1288.19 255.819C1288.19 287.799 1281.58 315.339 1268.37 338.44V338.317ZM1297.93 161.298C1283.21 141.209 1263.09 125.709 1239.91 116.597C1226.31 110.507 1211.65 107.105 1196.75 106.577C1165.92 106.577 1139.98 115.425 1118.91 133.121C1100.99 148.104 1087.33 168.327 1077.94 193.792C1070.16 214.958 1066.22 237.339 1066.29 259.889C1066.29 298.692 1075.6 331.103 1094.22 357.123C1108.65 377.294 1128.48 392.981 1151.44 402.379C1166.54 409.266 1182.87 413.04 1199.47 413.478C1229.31 413.478 1254.62 404.804 1275.4 387.458C1292.76 373.071 1306.12 353.3 1315.48 328.143C1323.18 307.619 1327.13 285.88 1327.16 263.958C1327.22 222.175 1317.47 187.914 1297.9 161.175L1297.93 161.298Z" fill="#949698"/>
<path d="M1480.75 8.38798C1477.06 6.85961 1473.09 6.12433 1469.09 6.22993C1449.01 6.22993 1433.83 12.6424 1423.53 25.4671C1416.64 34.1197 1411.39 47.4789 1407.78 65.5445C1403.46 87.4021 1400.99 99.0553 1400.47 100.473C1397.2 107.893 1387.25 117.645 1370.63 129.73C1364.13 134.436 1360.88 139.04 1360.85 143.541C1360.85 148.782 1364.68 154.208 1372.26 159.819C1379.86 164.967 1386.78 171.058 1392.86 177.946C1400.27 188.058 1403.98 201.417 1403.98 218.023V395.289C1403.98 407.024 1407.69 414.063 1415.11 416.406C1417.27 416.961 1420.26 417.855 1424.05 419.119C1429.23 412.91 1433.4 405.917 1436.38 398.402C1438.93 391.135 1440.16 383.473 1440.02 375.774V199.095C1440.02 188.983 1444.82 180.217 1454.42 172.798C1470.7 160.014 1481.54 150.262 1486.94 143.541C1476.83 134.704 1466.8 125.856 1456.86 116.998C1445.63 106.886 1440.02 96.6096 1440.02 86.1689C1440.04 80.4188 1441.28 74.7384 1443.67 69.5071C1446.06 64.2759 1449.53 59.6142 1453.87 55.8335C1476.64 34.1711 1488.85 20.1748 1490.49 13.8446C1488.15 12.5807 1484.88 10.7618 1480.72 8.41884" fill="#949698"/>
<path d="M1635.88 104.019C1626.64 100.464 1618.63 94.2932 1612.85 86.2618C1607.96 78.9451 1605.19 63.8698 1604.55 41.0359C1603.94 18.1918 1597.99 6.75439 1586.8 6.75439C1579.56 6.75439 1574.59 11.6356 1571.88 21.398C1569.77 30.6362 1568.86 40.1057 1569.16 49.5755V61.907C1567.65 73.5035 1562.64 84.3636 1554.8 93.044C1547.19 102.067 1538.6 112.096 1529.02 123.133C1538.25 133.245 1547.5 143.264 1556.77 153.191C1564.99 163.118 1569.1 172.418 1569.1 181.091V342.541C1569.1 362.025 1573.98 378.272 1583.75 391.281C1595.15 406.449 1611.79 414.033 1633.66 414.033C1645.59 414.033 1652.15 413.509 1653.45 412.399C1655.65 407.713 1657.82 402.935 1659.95 398.064C1636.28 379.299 1622.45 367.553 1618.46 362.826C1610.6 353.01 1605.96 341.005 1605.17 328.452C1604.64 322.842 1604.37 298.548 1604.37 255.573C1604.37 206.987 1607.35 175.131 1613.31 160.004C1616.76 151.187 1624.45 145.093 1636.37 141.723C1648.29 138.352 1657.76 130.388 1664.76 117.83C1655.45 112.676 1645.85 108.064 1636 104.019" fill="#949698"/>
</svg>
