<?xml version="1.0" standalone="no"?>
<!DOCTYPE svg PUBLIC "-//W3C//DTD SVG 20010904//EN"
 "http://www.w3.org/TR/2001/REC-SVG-20010904/DTD/svg10.dtd">
<svg version="1.0" xmlns="http://www.w3.org/2000/svg"
 width="442.000000pt" height="114.000000pt" viewBox="0 0 442.000000 114.000000"
 preserveAspectRatio="xMidYMid meet">

<g transform="translate(0.000000,114.000000) scale(0.100000,-0.100000)"
fill="#000000" stroke="none">
<path d="M1375 952 c-213 -112 -366 -223 -513 -376 -136 -141 -243 -318 -276
-459 l-6 -27 322 0 c319 0 323 0 293 19 -198 120 -114 416 234 819 39 45 68
82 64 82 -5 0 -57 -26 -118 -58z"/>
<path d="M302 613 c-32 -116 -50 -227 -62 -378 -5 -72 -10 -133 -10 -137 0 -5
54 -8 120 -8 l120 0 -34 68 c-66 132 -102 286 -109 467 l-2 70 -23 -82z"/>
<path d="M1520 320 l0 -230 113 0 c171 0 226 24 241 104 9 48 -18 106 -57 124
l-29 14 34 28 c29 25 33 33 33 78 0 91 -42 112 -222 112 l-113 0 0 -230z m276
167 c31 -37 31 -81 -1 -112 -23 -23 -31 -25 -130 -25 l-105 0 0 86 0 86 106
-4 c102 -3 107 -5 130 -31z m15 -206 c33 -34 38 -74 13 -110 -26 -37 -74 -51
-174 -51 l-90 0 0 95 0 95 111 0 c109 0 111 0 140 -29z"/>
<path d="M3820 460 c0 -49 -2 -90 -5 -90 -3 0 -16 12 -29 26 -29 34 -107 44
-154 20 -62 -32 -91 -113 -72 -200 25 -118 147 -160 232 -79 l28 27 0 -32 c0
-22 5 -32 15 -32 13 0 15 32 15 225 0 193 -2 225 -15 225 -12 0 -15 -17 -15
-90z m-64 -71 c34 -17 57 -67 57 -123 0 -111 -79 -174 -162 -131 -74 38 -83
186 -15 246 33 29 71 31 120 8z"/>
<path d="M2365 415 c-21 -8 -47 -24 -57 -37 l-18 -23 -1 25 c-1 14 -1 28 0 33
0 4 -8 7 -19 7 -19 0 -20 -7 -20 -160 0 -153 1 -160 20 -160 19 0 20 7 20 103
0 120 14 152 79 181 22 11 41 25 41 33 0 7 -1 13 -2 13 -2 -1 -21 -7 -43 -15z"/>
<path d="M2992 410 c-40 -25 -71 -89 -72 -148 0 -116 94 -193 196 -160 39 13
84 65 84 98 0 25 -30 20 -36 -7 -8 -31 -60 -73 -90 -73 -69 0 -118 60 -118
146 0 81 51 139 121 137 36 -1 83 -35 83 -60 0 -7 9 -13 20 -13 23 0 23 0 10
34 -23 61 -132 86 -198 46z"/>
<path d="M3963 416 c0 -13 12 -16 59 -16 65 0 98 -21 98 -64 0 -32 -16 -43
-80 -51 -87 -12 -127 -32 -140 -69 -34 -105 110 -166 197 -84 l23 21 0 -26 c0
-20 5 -27 20 -27 19 0 20 7 20 113 0 183 -14 206 -131 215 -56 4 -66 2 -66
-12z m147 -236 c-15 -28 -69 -60 -101 -60 -35 0 -79 36 -79 64 0 42 23 58 106
75 l79 16 3 -37 c2 -20 -2 -47 -8 -58z"/>
<path d="M1990 410 c0 -5 17 -10 39 -10 57 0 100 -18 107 -45 14 -56 1 -65
-118 -80 -69 -9 -98 -36 -98 -91 0 -49 22 -79 65 -90 37 -9 91 2 124 25 29 21
29 21 34 1 3 -11 13 -20 22 -20 15 0 16 14 13 136 -3 135 -3 136 -31 160 -23
20 -39 24 -93 24 -36 0 -64 -4 -64 -10z m150 -181 c0 -51 -13 -75 -50 -94 -42
-22 -90 -19 -117 7 -51 47 -18 95 80 114 91 18 87 19 87 -27z"/>
<path d="M2470 260 c0 -136 2 -160 15 -160 12 0 15 17 15 96 0 121 15 159 77
186 24 10 43 23 43 28 0 21 -51 8 -85 -21 l-35 -31 0 31 c0 21 -5 31 -15 31
-13 0 -15 -24 -15 -160z"/>
<path d="M2680 410 c0 -5 17 -10 39 -10 79 0 132 -39 114 -86 -7 -18 -44 -34
-81 -34 -43 0 -102 -20 -123 -41 -27 -27 -26 -89 4 -117 45 -42 123 -41 177 4
l30 26 0 -26 c0 -16 6 -26 15 -26 13 0 15 21 15 131 l0 131 -29 29 c-27 26
-36 29 -95 29 -37 0 -66 -4 -66 -10z m160 -165 c0 -99 -112 -164 -175 -100
-49 48 -20 89 75 109 94 21 100 20 100 -9z"/>
<path d="M3244 394 c-12 -47 2 -232 20 -259 33 -50 131 -52 183 -3 l23 21 0
-26 c0 -17 5 -27 15 -27 13 0 15 24 15 160 0 136 -2 160 -15 160 -12 0 -15
-18 -15 -102 0 -78 -4 -112 -18 -138 -21 -43 -62 -64 -108 -56 -55 11 -64 34
-64 173 0 102 -3 123 -15 123 -8 0 -18 -12 -21 -26z"/>
</g>
</svg>
