<?xml version="1.0" encoding="UTF-8"?>
<svg version="1.1" xmlns="http://www.w3.org/2000/svg" width="500" height="500">
<path d="M0 0 C0.68755371 -0.00287018 1.37510742 -0.00574036 2.08349609 -0.00869751 C3.52897979 -0.01072791 4.97449162 -0.00527001 6.41992188 0.00732422 C8.61912083 0.02339454 10.81648248 0.00744268 13.015625 -0.01171875 C14.42708735 -0.00973613 15.83854856 -0.00589207 17.25 0 C19.15652344 0.00507568 19.15652344 0.00507568 21.1015625 0.01025391 C27.48183111 0.71317984 31.50282111 3.60779717 35.625 8.3984375 C38.15978645 12.72418228 39.00469326 15.8754097 39.02905273 20.87182617 C39.04173691 22.13721725 39.05442108 23.40260834 39.06748962 24.7063446 C39.06543701 26.07636682 39.06244801 27.44638791 39.05859375 28.81640625 C39.06316202 30.23879748 39.0684695 31.66118651 39.07447815 33.08357239 C39.08339478 36.06174695 39.08100575 39.03965322 39.07104492 42.01782227 C39.05960086 45.8059096 39.07970252 49.59305834 39.10896206 53.38102245 C39.12745499 56.31960292 39.12700511 59.25796436 39.12132454 62.19658852 C39.12117268 63.59142682 39.12710327 64.98628128 39.13961601 66.38106346 C39.23230445 78.41337126 37.65454446 88.3683249 29.0703125 97.28515625 C23.33606764 102.24078959 16.6215889 106.08561325 9.71775818 109.18089294 C1.84732283 112.89124563 1.84732283 112.89124563 -2.68869019 119.94338989 C-3.29855214 124.2371737 -3.06613504 128.49291462 -2.83984375 132.80859375 C-2.81182123 134.38746503 -2.79049071 135.96646792 -2.77552795 137.54551697 C-2.71858406 141.67719746 -2.57162633 145.80080544 -2.40496826 149.92932129 C-2.25074647 154.15163915 -2.18285591 158.37527949 -2.10742188 162.59960938 C-1.94714795 170.86956734 -1.69163318 179.13299526 -1.375 187.3984375 C1.41673055 187.42533854 4.20820348 187.44522803 7 187.4609375 C8.19109375 187.47350586 8.19109375 187.47350586 9.40625 187.48632812 C13.64892222 187.62883901 13.64892222 187.62883901 17.625 186.3984375 C17.62864563 185.65785599 17.63229126 184.91727448 17.63604736 184.1542511 C17.67395801 177.16539722 17.73084559 170.17692587 17.80890274 163.18841267 C17.84836531 159.59572368 17.88055934 156.00327932 17.89599609 152.41040039 C17.9111714 148.94119084 17.94563055 145.47265387 17.99330902 142.00374413 C18.01530567 140.04022319 18.01747299 138.0765125 18.01934814 136.11286926 C18.03906677 134.9120018 18.0587854 133.71113434 18.07910156 132.47387695 C18.09242523 130.89169121 18.09242523 130.89169121 18.10601807 129.27754211 C18.75237919 125.69178858 20.12891258 124.00423924 22.625 121.3984375 C25.78296107 119.81945697 29.23170636 119.57915579 32.625 120.3984375 C35.73450586 122.94553284 37.43132665 124.45716778 38.25318909 128.45149231 C38.25415085 129.58874252 38.25511261 130.72599274 38.25610352 131.89770508 C38.26863663 133.19287552 38.28116974 134.48804596 38.29408264 135.82246399 C38.28181004 137.22930912 38.26838938 138.63614464 38.25390625 140.04296875 C38.25473572 141.49639564 38.25719804 142.94982244 38.26121521 144.40324402 C38.26407035 147.44725844 38.24940697 150.49053596 38.22192383 153.53442383 C38.18793138 157.41818773 38.19383081 161.30062673 38.2125864 165.18445301 C38.22320788 168.18644556 38.21417083 171.18813524 38.19920158 174.19009972 C38.19405074 175.62088811 38.19446361 177.05170857 38.20074654 178.48249245 C38.22558681 187.54206331 38.02197958 194.41519397 31.80859375 201.45703125 C31.23238281 201.91207031 30.65617187 202.36710938 30.0625 202.8359375 C29.48371094 203.30902344 28.90492188 203.78210938 28.30859375 204.26953125 C23.22966984 207.6751206 16.5345831 206.73676254 10.6484375 206.8034668 C9.22663955 206.82495533 7.80497059 206.85895013 6.38378906 206.90600586 C-1.6468639 207.16901442 -8.11603658 207.13790737 -14.72021484 202.04956055 C-19.05115095 197.72820899 -21.23335195 192.69281061 -21.49525452 186.60162354 C-21.49303391 185.52684753 -21.49081329 184.45207153 -21.48852539 183.34472656 C-21.48844986 182.12376282 -21.48837433 180.90279907 -21.48829651 179.64483643 C-21.48313522 178.33118103 -21.47797394 177.01752563 -21.47265625 175.6640625 C-21.47079021 174.3021449 -21.46936718 172.94022662 -21.46836853 171.57830811 C-21.46455803 168.00101861 -21.45474032 164.42376998 -21.44366455 160.84649658 C-21.43341884 157.19324293 -21.42886415 153.53998264 -21.42382812 149.88671875 C-21.41311669 142.72393974 -21.39605794 135.56119436 -21.375 128.3984375 C-22.24382812 128.90375 -23.11265625 129.4090625 -24.0078125 129.9296875 C-25.17149759 130.5866065 -26.33558155 131.24281929 -27.5 131.8984375 C-28.63695312 132.548125 -29.77390625 133.1978125 -30.9453125 133.8671875 C-34.49345136 135.45132239 -36.54877961 135.86650998 -40.375 135.3984375 C-43.07490662 133.59849976 -44.9168865 132.3146645 -46.375 129.3984375 C-46.76519559 126.15121661 -46.50489044 123.47396888 -45.375 120.3984375 C-40.74557172 115.61174626 -34.32409079 112.79865025 -28.515625 109.6875 C-27.36094727 109.0682666 -26.20626953 108.4490332 -25.01660156 107.81103516 C-23.70900879 107.11179932 -23.70900879 107.11179932 -22.375 106.3984375 C-22.36913376 105.28645493 -22.36326752 104.17447235 -22.35722351 103.02879333 C-22.29995632 92.53822126 -22.22717362 82.04785568 -22.13928509 71.55749416 C-22.09459935 66.16456541 -22.05533911 60.77171189 -22.02856445 55.37866211 C-22.00251378 50.17193787 -21.96209851 44.96550342 -21.91181374 39.75895882 C-21.89515702 37.77473626 -21.88363531 35.79046359 -21.87738609 33.80618095 C-21.86773211 31.0220912 -21.83965707 28.23874083 -21.80737305 25.45483398 C-21.80880814 24.63843445 -21.81024323 23.82203491 -21.8117218 22.980896 C-21.67978267 14.91083082 -19.11606889 9.27301961 -13.375 3.3984375 C-8.78904238 0.60831574 -5.33497358 0.01420315 0 0 Z M-2.375 21.3984375 C-2.66711622 24.61605624 -2.66711622 24.61605624 -2.60205078 28.34838867 C-2.60234283 29.05108383 -2.60263489 29.75377899 -2.60293579 30.47776794 C-2.60154308 32.79910657 -2.58598487 35.12012373 -2.5703125 37.44140625 C-2.56658216 39.05137456 -2.56373528 40.66134514 -2.56173706 42.27131653 C-2.55410227 46.50790682 -2.53445513 50.7443599 -2.5123291 54.980896 C-2.49186735 59.30430241 -2.48273464 63.627731 -2.47265625 67.95117188 C-2.45120906 76.43365671 -2.41707501 84.91603003 -2.375 93.3984375 C1.90092322 92.02997929 5.4523127 90.49827126 9.25 88.0859375 C10.17039062 87.51230469 11.09078125 86.93867188 12.0390625 86.34765625 C15.75564366 83.54618495 18.14795443 80.82957422 19.625 76.3984375 C19.7230962 74.58395436 19.76321122 72.76609381 19.77026367 70.94897461 C19.77664352 69.83449448 19.78302338 68.72001434 19.78959656 67.57176208 C19.79070938 66.36858841 19.7918222 65.16541473 19.79296875 63.92578125 C19.79629715 62.69179092 19.79962555 61.4578006 19.80305481 60.18641663 C19.8081205 57.57634861 19.81046325 54.9662741 19.81030273 52.35620117 C19.81022116 49.6741669 19.81721039 46.99230225 19.83081055 44.31030273 C19.84904714 40.45290866 19.85403525 36.595714 19.85546875 32.73828125 C19.86265427 31.53308334 19.86983978 30.32788544 19.87724304 29.08616638 C19.87416641 27.97483841 19.87108978 26.86351044 19.86791992 25.71850586 C19.86934494 24.73716171 19.87076996 23.75581757 19.87223816 22.74473572 C19.85364467 20.20767334 19.85364467 20.20767334 17.625 18.3984375 C14.64532424 17.95550208 11.63388134 18.07429322 8.625 18.0859375 C7.37589844 18.06176758 7.37589844 18.06176758 6.1015625 18.03710938 C5.30492187 18.03646484 4.50828125 18.03582031 3.6875 18.03515625 C2.95660156 18.03217529 2.22570312 18.02919434 1.47265625 18.02612305 C-0.78983504 18.25576772 -0.78983504 18.25576772 -2.375 21.3984375 Z " fill="#E01C2C" transform="translate(179.375,146.6015625)"/>
<path d="M0 0 C2.19548615 -0.01185311 4.38811804 -0.06101582 6.58300781 -0.11157227 C14.23265595 -0.19974306 20.57658557 -0.07026658 26.46582031 5.42553711 C32.95488108 12.08536263 32.77394477 19.42225692 32.76660156 28.21069336 C32.77088669 29.34453964 32.77517181 30.47838593 32.77958679 31.64659119 C32.78531732 34.03782484 32.7858398 36.42907593 32.78149414 38.8203125 C32.77832836 42.47873556 32.80183047 46.13635421 32.82714844 49.79467773 C32.82942096 52.12084859 32.83012515 54.44702162 32.82910156 56.77319336 C32.83831131 57.86600113 32.84752106 58.9588089 32.85700989 60.08473206 C32.79880734 69.62820961 32.79880734 69.62820961 29.46582031 73.42553711 C25.69706156 75.93804294 23.93431897 75.95569797 19.46582031 75.42553711 C16.66237433 73.81229213 15.2698418 72.98616425 13.46582031 70.42553711 C12.5855953 66.71689387 12.65161793 63.08623215 12.69628906 59.28881836 C12.68495438 58.21303024 12.67361969 57.13724213 12.66194153 56.02885437 C12.63123007 52.5980901 12.64106297 49.16889241 12.65332031 45.73803711 C12.63916352 42.29697655 12.61681478 38.85607726 12.59114075 35.41508484 C12.57807371 33.27499348 12.57336496 31.13483209 12.5776825 28.9947052 C12.57710342 28.02997787 12.57652435 27.06525055 12.57592773 26.07128906 C12.57975716 24.79485283 12.57975716 24.79485283 12.58366394 23.49263 C12.5989308 21.36210761 12.5989308 21.36210761 11.46582031 19.42553711 C8.48659438 19.39869724 5.50760736 19.37877674 2.52832031 19.36303711 C1.67818359 19.3546582 0.82804687 19.3462793 -0.04785156 19.33764648 C-0.85673828 19.33442383 -1.665625 19.33120117 -2.49902344 19.32788086 C-3.24788818 19.32264404 -3.99675293 19.31740723 -4.76831055 19.31201172 C-6.56085708 19.23211959 -6.56085708 19.23211959 -7.53417969 20.42553711 C-7.65395009 22.14221059 -7.70434324 23.86377595 -7.72705078 25.58447266 C-7.74311371 26.68619308 -7.75917664 27.78791351 -7.77572632 28.92301941 C-7.8200503 33.98106401 -7.86126152 39.03897456 -7.88427734 44.09716797 C-7.89758986 46.76608444 -7.92808628 49.43318607 -7.96630859 52.10205078 C-8.02106973 55.9431872 -8.04295405 59.78328163 -8.05761719 63.62475586 C-8.08028656 64.81558273 -8.10295593 66.00640961 -8.12631226 67.23332214 C-8.23721576 74.14890851 -8.23721576 74.14890851 -5.15380859 80.09228516 C-2.65466405 82.31822406 -0.17662635 84.49619595 2.46582031 86.55053711 C7.51216847 90.57804262 12.26131509 94.83940645 16.96191406 99.26391602 C19.31745403 101.47407962 21.68090315 103.5962572 24.21191406 105.60522461 C29.16794174 109.60783968 31.00452226 114.38069841 32.46582031 120.42553711 C32.648897 122.77962797 32.74135792 125.14202238 32.75634766 127.50317383 C32.76306488 128.17248932 32.7697821 128.84180481 32.77670288 129.53140259 C32.79554997 131.72275412 32.79960008 133.9137973 32.80175781 136.10522461 C32.80819443 137.64307781 32.81492342 139.18092981 32.82192993 140.71878052 C32.83386907 143.9347009 32.83761418 147.15051412 32.83642578 150.36645508 C32.83622265 154.46740254 32.86353291 158.56765656 32.8979702 162.66843987 C32.92031309 165.84281511 32.9242611 169.01702531 32.92320633 172.1914711 C32.92555087 173.702408 32.93430908 175.21335025 32.94987106 176.72420883 C33.1166093 194.5816965 33.1166093 194.5816965 26.39550781 201.58178711 C25.71746094 202.02522461 25.03941406 202.46866211 24.34082031 202.92553711 C23.65761719 203.38959961 22.97441406 203.85366211 22.27050781 204.33178711 C17.10250474 207.46391018 11.34250126 206.68805679 5.45483398 206.72070312 C3.30353892 206.73783627 1.15381371 206.78170949 -0.99707031 206.82592773 C-9.43385121 206.92226121 -14.81437306 206.64852198 -21.24121094 200.89819336 C-25.11678418 195.95444092 -26.77531483 192.07237698 -26.82470703 185.79663086 C-26.83746674 184.69198486 -26.85022644 183.58733887 -26.8633728 182.44921875 C-26.86559845 181.26577881 -26.8678241 180.08233887 -26.87011719 178.86303711 C-26.87677399 177.6389917 -26.88343079 176.41494629 -26.89028931 175.15380859 C-26.90040507 172.56829327 -26.90510666 169.98275189 -26.90478516 167.3972168 C-26.9091636 163.44007525 -26.94551175 159.48404429 -26.98339844 155.52709961 C-26.98926567 153.01408259 -26.99323569 150.50106027 -26.99511719 147.98803711 C-27.00948822 146.80459717 -27.02385925 145.62115723 -27.03866577 144.40185547 C-26.99308633 136.21933933 -26.99308633 136.21933933 -24.65771484 132.1796875 C-21.38900216 129.47956096 -18.96239795 129.79152103 -14.88183594 129.99584961 C-12.53417969 130.42553711 -12.53417969 130.42553711 -9.97167969 132.23803711 C-7.75773407 135.60708479 -7.40198485 138.31408487 -7.34472656 142.24829102 C-7.32800903 143.22585358 -7.3112915 144.20341614 -7.29406738 145.21060181 C-7.28049194 146.26379608 -7.2669165 147.31699036 -7.25292969 148.40209961 C-7.22531555 150.02358414 -7.22531555 150.02358414 -7.19714355 151.67782593 C-7.11833131 156.31172642 -7.05053411 160.94577281 -6.98193359 165.57983398 C-6.93035962 168.95816584 -6.87306354 172.33636661 -6.81542969 175.71459961 C-6.80185425 176.77184235 -6.78827881 177.82908508 -6.77429199 178.91836548 C-6.75757446 179.88962372 -6.74085693 180.86088196 -6.72363281 181.86157227 C-6.7048407 183.15038803 -6.7048407 183.15038803 -6.68566895 184.46524048 C-6.74773104 186.42882672 -6.74773104 186.42882672 -5.53417969 187.42553711 C-4.19150556 187.51185585 -2.84443647 187.53260184 -1.49902344 187.52319336 C-0.28569336 187.51835937 -0.28569336 187.51835937 0.95214844 187.51342773 C1.80228516 187.50504883 2.65242188 187.49666992 3.52832031 187.48803711 C4.38232422 187.48352539 5.23632812 187.47901367 6.11621094 187.47436523 C8.23277695 187.46254084 10.34930716 187.4446048 12.46582031 187.42553711 C12.53540191 179.29774391 12.58867274 171.17007564 12.62125683 163.04205799 C12.63689742 159.26767755 12.65810592 155.49350125 12.69213867 151.71923828 C12.72479007 148.07526843 12.74268542 144.43149464 12.75045204 140.78738976 C12.75598523 139.39873863 12.76679034 138.01009795 12.78301048 136.62153053 C12.80485887 134.67324966 12.80604635 132.72477053 12.80639648 130.77636719 C12.81305832 129.66828201 12.81972015 128.56019684 12.82658386 127.41853333 C12.26674637 122.7739635 10.09551748 119.62880449 6.53222656 116.69897461 C5.97148437 116.22983643 5.41074219 115.76069824 4.83300781 115.27734375 C4.23746094 114.78999756 3.64191406 114.30265137 3.02832031 113.80053711 C1.76769942 112.74634618 0.50861363 111.69031716 -0.74902344 110.63256836 C-1.38179199 110.10099121 -2.01456055 109.56941406 -2.66650391 109.02172852 C-6.4844584 105.75874989 -10.14052138 102.32019365 -13.81542969 98.89819336 C-15.75708509 97.13229124 -17.69448934 95.47426751 -19.73339844 93.83178711 C-23.97101669 90.19109974 -26.4996455 85.98223231 -27.53417969 80.42553711 C-27.64074384 78.32943294 -27.69276296 76.23032221 -27.71118164 74.1315918 C-27.72401688 72.85636658 -27.73685211 71.58114136 -27.75007629 70.26727295 C-27.7582453 68.87732331 -27.76568872 67.48736925 -27.77246094 66.09741211 C-27.77653646 65.39394905 -27.78061199 64.69048599 -27.78481102 63.96570587 C-27.80563791 60.24121905 -27.81995342 56.5167687 -27.8293457 52.79223633 C-27.84039525 48.9612887 -27.87478721 45.13092427 -27.9145174 41.30018234 C-27.94076431 38.34032166 -27.94904469 35.38059821 -27.95262718 32.42063141 C-27.95747338 31.00933143 -27.96903091 29.59803677 -27.98766518 28.1868515 C-28.18475933 12.26990111 -28.18475933 12.26990111 -22.08662415 5.91766357 C-15.15232101 -0.18887975 -8.83398913 0.02256572 0 0 Z " fill="#E01C2C" transform="translate(312.5341796875,146.574462890625)"/>
<path d="M0 0 C5.06223683 5.09636427 6.84483831 10.75626355 6.89941406 17.80639648 C6.90902161 18.81101425 6.91862915 19.81563202 6.92852783 20.85069275 C6.93277771 21.92992508 6.93702759 23.00915741 6.94140625 24.12109375 C6.94710632 25.23557388 6.9528064 26.35005402 6.9586792 27.49830627 C6.96812048 29.85441134 6.97465972 32.21052956 6.97851562 34.56665039 C6.98823491 38.17031816 7.01927279 41.77341884 7.05078125 45.37695312 C7.0573102 47.66666328 7.0625611 49.95637751 7.06640625 52.24609375 C7.07875305 53.32330185 7.09109985 54.40050995 7.1038208 55.51036072 C7.07601991 64.84590992 7.07601991 64.84590992 3.73828125 68.75 C0.52274679 71.07849047 -2.37193252 71.29457007 -6.26171875 70.75 C-9.02833797 69.14016284 -10.45329293 68.27712868 -12.26171875 65.75 C-13.145188 62.04239653 -13.07591671 58.41031922 -13.03125 54.61328125 C-13.04258469 53.53749313 -13.05391937 52.46170502 -13.06559753 51.35331726 C-13.09630899 47.92255299 -13.0864761 44.4933553 -13.07421875 41.0625 C-13.08837554 37.62143944 -13.11072428 34.18054015 -13.13639832 30.73954773 C-13.14946535 28.59945637 -13.1541741 26.45929498 -13.14985657 24.31916809 C-13.15043564 23.35444077 -13.15101471 22.38971344 -13.15161133 21.39575195 C-13.14778191 20.11931572 -13.14778191 20.11931572 -13.14387512 18.8170929 C-13.12860826 16.6865705 -13.12860826 16.6865705 -14.26171875 14.75 C-19.54171875 14.75 -24.82171875 14.75 -30.26171875 14.75 C-30.15441661 36.50685799 -30.04189054 58.26368179 -29.92237949 80.02047634 C-29.86702505 90.12179324 -29.81353947 100.22311367 -29.7644043 110.32446289 C-29.7215896 119.12546684 -29.67531857 127.92644454 -29.6248402 136.72740799 C-29.59821732 141.39044727 -29.57336379 146.05348127 -29.55264473 150.71655083 C-29.53311204 155.10034917 -29.50897858 159.48409747 -29.48122787 163.86785126 C-29.47183953 165.48159187 -29.46417071 167.09534348 -29.45829964 168.70910072 C-29.4500686 170.90271584 -29.43580076 173.09620849 -29.41993713 175.28977966 C-29.41348458 176.5203733 -29.40703203 177.75096693 -29.40038395 179.01885128 C-29.57205068 181.6631155 -29.57205068 181.6631155 -28.26171875 182.75 C-25.73122473 182.82313567 -23.22867038 182.84247527 -20.69921875 182.8125 C-19.6328418 182.80573242 -19.6328418 182.80573242 -18.54492188 182.79882812 C-16.78381862 182.78700864 -15.02275839 182.76907263 -13.26171875 182.75 C-13.25807312 182.1096431 -13.25442749 181.46928619 -13.25067139 180.80952454 C-13.20884677 174.14193487 -13.13950103 167.47503358 -13.05419922 160.80786133 C-13.02598123 158.31997565 -13.00477088 155.83200018 -12.99072266 153.34399414 C-12.96930554 149.76662193 -12.92265855 146.19033027 -12.87109375 142.61328125 C-12.86986511 141.50165115 -12.86863647 140.39002106 -12.86737061 139.2447052 C-12.72091193 131.51497076 -12.72091193 131.51497076 -10.34643555 127.55932617 C-7.14740872 124.78289008 -4.41255312 124.46117455 -0.26171875 124.75 C2.667685 125.95997111 4.17692626 126.84995866 5.85392761 129.53875732 C6.89747907 132.1480591 6.99869866 134.13425452 7.01293945 136.94238281 C7.02723747 138.49484711 7.02723747 138.49484711 7.04182434 140.07867432 C7.04091293 141.19224304 7.04000153 142.30581177 7.0390625 143.453125 C7.04334763 144.6048822 7.04763275 145.7566394 7.05204773 146.94329834 C7.05779084 149.38097476 7.05829144 151.81866832 7.05395508 154.25634766 C7.050805 157.97198063 7.07422129 161.68680978 7.09960938 165.40234375 C7.10188345 167.7734365 7.10258536 170.14453138 7.1015625 172.515625 C7.11077225 173.6210968 7.11998199 174.7265686 7.12947083 175.86553955 C7.08442377 183.44174779 6.06981228 188.95046794 2.05078125 195.5 C-4.99198664 202.35242281 -12.41198121 202.39897744 -21.76171875 202.3125 C-22.94636719 202.33634766 -24.13101563 202.36019531 -25.3515625 202.38476562 C-32.61186522 202.37262465 -37.70952849 201.62772594 -43.26171875 196.75 C-51.91261766 187.41613539 -50.41480362 175.82805415 -50.42285156 163.85400391 C-50.42748614 162.24345284 -50.43251165 160.63290286 -50.43789673 159.02235413 C-50.45095773 154.66485777 -50.45745285 150.30737677 -50.46190739 145.94986391 C-50.46484721 143.22335259 -50.46895361 140.49684539 -50.47341156 137.77033615 C-50.48706743 129.2273675 -50.49674446 120.68440835 -50.50061345 112.14142954 C-50.50509517 102.30188116 -50.5226564 92.46247163 -50.55161405 82.62296546 C-50.57326339 75.0006274 -50.5833194 67.37832833 -50.58465457 59.75595987 C-50.5856999 55.21062069 -50.5915501 50.66541238 -50.60947418 46.12010574 C-50.62601216 41.84365721 -50.62808274 37.56743716 -50.61933517 33.29096794 C-50.61856796 31.72774962 -50.62286554 30.1645187 -50.63279343 28.60133171 C-50.6896402 19.08762053 -50.50524334 10.27600486 -45.57421875 1.875 C-34.80220367 -8.02360845 -11.44630668 -8.96735137 0 0 Z " fill="#E01C2C" transform="translate(273.26171875,151.25)"/>
</svg>
