<?xml version="1.0" encoding="UTF-8"?>
<!DOCTYPE svg PUBLIC "-//W3C//DTD SVG 1.1//EN" "http://www.w3.org/Graphics/SVG/1.1/DTD/svg11.dtd">
<svg xmlns="http://www.w3.org/2000/svg" version="1.1" width="300px" height="300px" style="shape-rendering:geometricPrecision; text-rendering:geometricPrecision; image-rendering:optimizeQuality; fill-rule:evenodd; clip-rule:evenodd" xmlns:xlink="http://www.w3.org/1999/xlink">
<g><path style="opacity:1" fill="#1f5b89" d="M 160.5,128.5 C 166.113,127.079 168.28,129.079 167,134.5C 160.423,137.088 158.256,135.088 160.5,128.5 Z"/></g>
<g><path style="opacity:1" fill="#245785" d="M 135.5,128.5 C 136.833,128.5 138.167,128.5 139.5,128.5C 139.5,130.5 139.5,132.5 139.5,134.5C 134.74,134.799 133.406,132.799 135.5,128.5 Z"/></g>
<g><path style="opacity:1" fill="#2a74b2" d="M 224.5,128.5 C 227.187,128.336 229.854,128.503 232.5,129C 233.833,131 233.833,133 232.5,135C 229.854,135.497 227.187,135.664 224.5,135.5C 224.5,133.167 224.5,130.833 224.5,128.5 Z"/></g>
<g><path style="opacity:1" fill="#2171b5" d="M 214.5,137.5 C 212.801,137.34 211.134,137.506 209.5,138C 211.382,138.198 213.048,138.698 214.5,139.5C 210.486,139.334 206.486,139.501 202.5,140C 200.875,140.853 200.542,141.853 201.5,143C 203.134,143.494 204.801,143.66 206.5,143.5C 206.389,144.117 206.056,144.617 205.5,145C 202.854,145.497 200.187,145.664 197.5,145.5C 197.64,141.398 199.64,138.564 203.5,137C 207.358,136.19 211.024,136.357 214.5,137.5 Z"/></g>
<g><path style="opacity:1" fill="#364f5d" d="M 70.5,148.5 C 63.8002,148.83 57.1335,148.497 50.5,147.5C 50.9569,146.702 51.6236,146.369 52.5,146.5C 56.97,147.486 61.6367,147.819 66.5,147.5C 65.8749,141.2 62.5416,138.867 56.5,140.5C 56.631,139.761 56.4643,139.094 56,138.5C 55.3292,139.252 54.4959,139.586 53.5,139.5C 57.512,135.696 61.8454,135.529 66.5,139C 68.9021,141.703 70.2354,144.87 70.5,148.5 Z"/></g>
<g><path style="opacity:1" fill="#3c5b6d" d="M 86.5,137.5 C 85.8333,138.167 85.1667,138.833 84.5,139.5C 81.0388,139.146 78.5388,140.479 77,143.5C 75.9684,149.451 75.1351,155.451 74.5,161.5C 73.8,157.959 73.1334,154.459 72.5,151C 73.4861,146.87 73.6527,142.703 73,138.5C 76.1937,138.846 79.3603,138.179 82.5,136.5C 83.8492,136.846 85.1825,137.179 86.5,137.5 Z"/></g>
<g><path style="opacity:1" fill="#385174" d="M 101.5,138.5 C 100.167,138.5 99.5,139.167 99.5,140.5C 96.8303,139.12 94.3303,139.453 92,141.5C 90.7493,147.725 90.0827,154.058 90,160.5C 89.586,160.957 89.086,161.291 88.5,161.5C 86.4165,155.92 86.0832,150.253 87.5,144.5C 86.7401,142.64 85.7401,140.973 84.5,139.5C 85.1667,138.833 85.8333,138.167 86.5,137.5C 87.7942,138.29 88.9609,139.29 90,140.5C 91.4876,137.876 93.8209,136.543 97,136.5C 98.876,136.525 100.376,137.191 101.5,138.5 Z"/></g>
<g><path style="opacity:1" fill="#2269a7" d="M 186.5,136.5 C 191.779,137.776 194.446,141.109 194.5,146.5C 189.999,148.29 186.665,147.29 184.5,143.5C 184.082,142.778 183.416,142.278 182.5,142C 184.829,141.49 186.829,142.156 188.5,144C 189.944,144.781 191.277,144.614 192.5,143.5C 189.837,141.166 186.837,139.333 183.5,138C 184.737,137.768 185.737,137.268 186.5,136.5 Z"/></g>
<g><path style="opacity:1" fill="#2a3f55" d="M 56.5,140.5 C 53.9558,141.708 52.6225,143.708 52.5,146.5C 51.6236,146.369 50.9569,146.702 50.5,147.5C 57.1335,148.497 63.8002,148.83 70.5,148.5C 70.189,149.478 69.5223,150.145 68.5,150.5C 63.5544,149.386 58.5544,149.219 53.5,150C 52.6919,150.308 52.0253,150.808 51.5,151.5C 52.2458,152.736 52.5792,154.07 52.5,155.5C 51.6618,155.842 51.3284,156.508 51.5,157.5C 50.8826,157.389 50.3826,157.056 50,156.5C 48,151.833 48,147.167 50,142.5C 51.0391,141.29 52.2058,140.29 53.5,139.5C 54.4959,139.586 55.3292,139.252 56,138.5C 56.4643,139.094 56.631,139.761 56.5,140.5 Z"/></g>
<g><path style="opacity:1" fill="#1f577e" d="M 118.5,136.5 C 117.942,137.79 116.942,138.623 115.5,139C 116.416,139.278 117.082,139.778 117.5,140.5C 114.482,141.855 113.149,144.188 113.5,147.5C 112.087,150.629 110.92,153.962 110,157.5C 109.722,156.584 109.222,155.918 108.5,155.5C 108.334,149.824 108.501,144.157 109,138.5C 110.714,137.075 112.047,137.408 113,139.5C 114.488,137.84 116.321,136.84 118.5,136.5 Z"/></g>
<g><path style="opacity:1" fill="#275a91" d="M 134.5,159.5 C 135.822,159.67 136.989,159.337 138,158.5C 138.499,153.511 138.666,148.511 138.5,143.5C 137.5,143.5 136.5,143.5 135.5,143.5C 135.5,141.5 135.5,139.5 135.5,137.5C 136.688,136.316 137.855,136.316 139,137.5C 139.5,145.493 139.666,153.493 139.5,161.5C 137.302,161.88 135.635,161.213 134.5,159.5 Z"/></g>
<g><path style="opacity:1" fill="#106fba" d="M 178.5,137.5 C 180.948,136.527 183.615,136.194 186.5,136.5C 185.737,137.268 184.737,137.768 183.5,138C 186.837,139.333 189.837,141.166 192.5,143.5C 191.277,144.614 189.944,144.781 188.5,144C 186.829,142.156 184.829,141.49 182.5,142C 183.416,142.278 184.082,142.778 184.5,143.5C 182.61,143.297 181.11,143.963 180,145.5C 179.503,147.81 179.337,150.143 179.5,152.5C 178.905,155.113 178.071,155.113 177,152.5C 176.667,149.5 176.333,146.5 176,143.5C 175.583,144.756 174.75,145.423 173.5,145.5C 174.499,140.673 177.499,138.173 182.5,138C 181.207,137.51 179.873,137.343 178.5,137.5 Z"/></g>
<g><path style="opacity:1" fill="#1f5893" d="M 158.5,138.5 C 158.5,138.833 158.5,139.167 158.5,139.5C 158.5,140.5 158.5,141.5 158.5,142.5C 156.064,142.317 153.897,142.984 152,144.5C 150.768,149.721 150.101,155.054 150,160.5C 148.301,161.406 146.467,161.739 144.5,161.5C 144.2,153.766 144.2,146.099 144.5,138.5C 146.713,135.92 148.88,135.92 151,138.5C 153.792,136.065 156.292,136.065 158.5,138.5 Z"/></g>
<g><path style="opacity:1" fill="#1764a8" d="M 165.5,137.5 C 165.5,144.5 165.5,151.5 165.5,158.5C 164.167,158.5 162.833,158.5 161.5,158.5C 162.123,151.745 161.456,145.412 159.5,139.5C 159.167,139.5 158.833,139.5 158.5,139.5C 158.5,139.167 158.5,138.833 158.5,138.5C 159.721,137.972 160.887,137.305 162,136.5C 163.335,137.08 164.502,137.413 165.5,137.5 Z"/></g>
<g><path style="opacity:1" fill="#2c71ae" d="M 224.5,137.5 C 227.448,137.223 230.281,137.556 233,138.5C 233.667,145.833 233.667,153.167 233,160.5C 230.281,161.444 227.448,161.777 224.5,161.5C 224.5,153.5 224.5,145.5 224.5,137.5 Z"/></g>
<g><path style="opacity:1" fill="#087cd3" d="M 226.5,139.5 C 227.833,139.5 229.167,139.5 230.5,139.5C 230.5,145.833 230.5,152.167 230.5,158.5C 229.167,158.5 227.833,158.5 226.5,158.5C 226.5,152.167 226.5,145.833 226.5,139.5 Z"/></g>
<g><path style="opacity:1" fill="#175490" d="M 135.5,137.5 C 135.5,139.5 135.5,141.5 135.5,143.5C 136.5,143.5 137.5,143.5 138.5,143.5C 138.666,148.511 138.499,153.511 138,158.5C 136.989,159.337 135.822,159.67 134.5,159.5C 134.175,151.981 134.508,144.648 135.5,137.5 Z"/></g>
<g><path style="opacity:1" fill="#1c5a8d" d="M 165.5,137.5 C 166.823,140.938 167.49,144.771 167.5,149C 167.484,153.082 167.151,157.082 166.5,161C 164.231,161.758 162.064,161.591 160,160.5C 159.5,153.508 159.334,146.508 159.5,139.5C 161.456,145.412 162.123,151.745 161.5,158.5C 162.833,158.5 164.167,158.5 165.5,158.5C 165.5,151.5 165.5,144.5 165.5,137.5 Z"/></g>
<g><path style="opacity:1" fill="#2076bb" d="M 213.5,152.5 C 213.307,155.308 212.64,157.975 211.5,160.5C 209.007,161.774 206.341,162.44 203.5,162.5C 205.1,161.356 206.767,160.189 208.5,159C 207.316,157.855 207.316,156.688 208.5,155.5C 210.912,155.306 211.912,153.973 211.5,151.5C 210.167,151.5 208.833,151.5 207.5,151.5C 204.093,148.703 200.926,149.036 198,152.5C 197.601,152.272 197.435,151.938 197.5,151.5C 197.414,150.504 197.748,149.671 198.5,149C 202.722,147.188 207.056,145.688 211.5,144.5C 210.68,142.889 209.346,142.222 207.5,142.5C 206.761,142.631 206.094,142.464 205.5,142C 208.127,139.983 210.627,140.15 213,142.5C 212.381,145.877 212.547,149.21 213.5,152.5 Z"/></g>
<g><path style="opacity:1" fill="#2072b3" d="M 214.5,137.5 C 217.292,137.452 219.125,138.785 220,141.5C 220.5,148.158 220.666,154.825 220.5,161.5C 217.615,161.806 214.948,161.473 212.5,160.5C 214.218,159.776 216.052,159.109 218,158.5C 218.667,153.167 218.667,147.833 218,142.5C 217.578,140.574 216.411,139.574 214.5,139.5C 213.048,138.698 211.382,138.198 209.5,138C 211.134,137.506 212.801,137.34 214.5,137.5 Z"/></g>
<g><path style="opacity:1" fill="#234e75" d="M 118.5,136.5 C 127.093,136.426 131.426,140.759 131.5,149.5C 131.489,151.045 131.156,152.378 130.5,153.5C 129.09,151.7 128.09,149.7 127.5,147.5C 126.4,142.076 123.067,139.743 117.5,140.5C 117.082,139.778 116.416,139.278 115.5,139C 116.942,138.623 117.942,137.79 118.5,136.5 Z"/></g>
<g><path style="opacity:1" fill="#0b79d4" d="M 214.5,139.5 C 216.6,143.323 217.267,147.323 216.5,151.5C 215.675,152.386 214.675,152.719 213.5,152.5C 212.547,149.21 212.381,145.877 213,142.5C 210.627,140.15 208.127,139.983 205.5,142C 206.094,142.464 206.761,142.631 207.5,142.5C 207.5,143.167 207.167,143.5 206.5,143.5C 204.801,143.66 203.134,143.494 201.5,143C 200.542,141.853 200.875,140.853 202.5,140C 206.486,139.501 210.486,139.334 214.5,139.5 Z"/></g>
<g><path style="opacity:1" fill="#0b7cd0" d="M 214.5,139.5 C 216.411,139.574 217.578,140.574 218,142.5C 218.667,147.833 218.667,153.167 218,158.5C 216.052,159.109 214.218,159.776 212.5,160.5C 212.167,160.5 211.833,160.5 211.5,160.5C 212.64,157.975 213.307,155.308 213.5,152.5C 214.675,152.719 215.675,152.386 216.5,151.5C 217.267,147.323 216.6,143.323 214.5,139.5 Z"/></g>
<g><path style="opacity:1" fill="#2067a6" d="M 178.5,137.5 C 179.873,137.343 181.207,137.51 182.5,138C 177.499,138.173 174.499,140.673 173.5,145.5C 171.719,149.516 172.553,152.849 176,155.5C 176.765,157.066 176.598,158.399 175.5,159.5C 173.496,158.327 171.996,156.66 171,154.5C 168.676,146.495 171.176,140.828 178.5,137.5 Z"/></g>
<g><path style="opacity:1" fill="#1f4d7f" d="M 113.5,147.5 C 112.656,152.138 113.989,155.805 117.5,158.5C 115.007,158.131 114.34,158.797 115.5,160.5C 114.504,160.586 113.671,160.252 113,159.5C 112.251,162.285 112.418,164.952 113.5,167.5C 112.725,169.475 111.391,170.309 109.5,170C 108.531,165.263 108.197,160.43 108.5,155.5C 109.222,155.918 109.722,156.584 110,157.5C 110.92,153.962 112.087,150.629 113.5,147.5 Z"/></g>
<g><path style="opacity:1" fill="#2c4a5f" d="M 101.5,138.5 C 102.79,139.058 103.623,140.058 104,141.5C 104.831,148.192 104.664,154.858 103.5,161.5C 102.914,161.291 102.414,160.957 102,160.5C 101.667,154.5 101.333,148.5 101,142.5C 100.722,141.584 100.222,140.918 99.5,140.5C 99.5,139.167 100.167,138.5 101.5,138.5 Z"/></g>
<g><path style="opacity:1" fill="#156dc0" d="M 179.5,152.5 C 180.467,153.806 181.801,154.473 183.5,154.5C 181.083,156.496 181.75,157.496 185.5,157.5C 185.5,158.833 185.5,160.167 185.5,161.5C 185.083,162.124 184.416,162.457 183.5,162.5C 180.495,162.095 177.829,161.095 175.5,159.5C 176.598,158.399 176.765,157.066 176,155.5C 172.553,152.849 171.719,149.516 173.5,145.5C 174.75,145.423 175.583,144.756 176,143.5C 176.333,146.5 176.667,149.5 177,152.5C 178.071,155.113 178.905,155.113 179.5,152.5 Z"/></g>
<g><path style="opacity:1" fill="#1f6cb1" d="M 185.5,161.5 C 185.5,160.167 185.5,158.833 185.5,157.5C 181.75,157.496 181.083,156.496 183.5,154.5C 185.672,152.363 188.339,151.029 191.5,150.5C 193.623,150.22 194.956,151.053 195.5,153C 193.822,157.849 190.488,160.683 185.5,161.5 Z"/></g>
<g><path style="opacity:1" fill="#324856" d="M 51.5,157.5 C 51.3284,156.508 51.6618,155.842 52.5,155.5C 58.8736,160.202 64.2069,159.202 68.5,152.5C 69.0859,158.585 66.0859,161.585 59.5,161.5C 55.9714,161.736 53.3047,160.403 51.5,157.5 Z"/></g>
<g><path style="opacity:1" fill="#275479" d="M 130.5,153.5 C 127.906,161.462 122.906,163.795 115.5,160.5C 114.34,158.797 115.007,158.131 117.5,158.5C 124.675,158.548 128.008,154.882 127.5,147.5C 128.09,149.7 129.09,151.7 130.5,153.5 Z"/></g>
<g><path style="opacity:1" fill="#1876c8" d="M 207.5,151.5 C 206.859,152.482 206.193,153.482 205.5,154.5C 206.325,155.386 207.325,155.719 208.5,155.5C 207.316,156.688 207.316,157.855 208.5,159C 206.767,160.189 205.1,161.356 203.5,162.5C 197.513,160.854 195.513,157.187 197.5,151.5C 197.435,151.938 197.601,152.272 198,152.5C 200.926,149.036 204.093,148.703 207.5,151.5 Z"/></g>
</svg>
