<?xml version="1.0" standalone="no"?>
<!DOCTYPE svg PUBLIC "-//W3C//DTD SVG 20010904//EN"
 "http://www.w3.org/TR/2001/REC-SVG-20010904/DTD/svg10.dtd">
<svg version="1.0" xmlns="http://www.w3.org/2000/svg"
 width="330.000000pt" height="138.000000pt" viewBox="0 0 330.000000 138.000000"
 preserveAspectRatio="xMidYMid meet">

<g transform="translate(0.000000,138.000000) scale(0.100000,-0.100000)"
fill="#000000" stroke="none">
<path d="M40 1300 l0 -40 310 0 310 0 0 40 0 40 -310 0 -310 0 0 -40z"/>
<path d="M760 1301 l0 -41 437 0 c269 0 433 4 428 9 -6 5 -35 22 -65 38 l-55
28 -372 3 -373 3 0 -40z"/>
<path d="M1830 1300 l0 -40 265 0 265 0 -15 36 c-8 20 -15 38 -15 40 0 2 -112
4 -250 4 l-250 0 0 -40z"/>
<path d="M2742 1307 c-7 -18 -12 -36 -12 -40 0 -4 117 -7 260 -7 l260 0 0 40
0 40 -248 0 -248 0 -12 -33z"/>
<path d="M40 1120 l0 -40 310 0 310 0 0 40 0 40 -310 0 -310 0 0 -40z"/>
<path d="M760 1120 l0 -40 496 0 c450 0 496 1 490 16 -3 9 -9 27 -12 40 l-6
24 -484 0 -484 0 0 -40z"/>
<path d="M1830 1120 l0 -40 296 0 c267 0 296 2 290 16 -3 9 -9 27 -12 40 l-6
24 -284 0 -284 0 0 -40z"/>
<path d="M2679 1133 c-5 -16 -12 -34 -14 -40 -3 -10 59 -13 290 -13 l295 0 0
40 0 40 -280 0 -280 0 -11 -27z"/>
<path d="M220 950 l0 -40 135 0 135 0 0 40 0 40 -135 0 -135 0 0 -40z"/>
<path d="M940 950 l0 -40 130 0 130 0 0 40 0 40 -130 0 -130 0 0 -40z"/>
<path d="M1470 950 l0 -40 135 0 135 0 6 28 c3 15 7 33 10 40 2 9 -30 12 -141
12 l-145 0 0 -40z"/>
<path d="M2010 950 l0 -40 235 0 c129 0 235 2 235 4 0 2 -7 20 -15 40 l-15 36
-220 0 -220 0 0 -40z"/>
<path d="M2619 963 c-5 -16 -12 -34 -14 -40 -3 -10 48 -13 235 -13 l240 0 0
40 0 40 -225 0 -225 0 -11 -27z"/>
<path d="M220 780 l0 -40 135 0 135 0 0 40 0 40 -135 0 -135 0 0 -40z"/>
<path d="M940 780 l0 -40 349 0 349 0 31 35 c17 20 31 38 31 40 0 3 -171 5
-380 5 l-380 0 0 -40z"/>
<path d="M2010 780 l0 -40 129 0 c126 0 130 1 134 23 l4 22 8 -22 7 -23 248 0
c246 0 247 0 258 23 l11 22 0 -22 c1 -23 3 -23 136 -23 l135 0 0 40 0 40 -254
0 -254 0 -12 -35 c-13 -40 -25 -38 -35 5 l-7 30 -254 0 -254 0 0 -40z"/>
<path d="M220 605 l0 -45 135 0 135 0 0 45 0 45 -135 0 -135 0 0 -45z"/>
<path d="M940 605 l0 -45 380 0 c209 0 380 2 380 5 0 3 -16 23 -36 45 l-36 40
-344 0 -344 0 0 -45z"/>
<path d="M2010 605 l0 -45 130 0 130 0 0 45 0 45 -130 0 -130 0 0 -45z"/>
<path d="M2330 645 c0 -2 7 -23 16 -45 l16 -40 183 0 183 0 15 45 16 45 -215
0 c-118 0 -214 -2 -214 -5z"/>
<path d="M2810 605 l0 -45 135 0 135 0 0 45 0 45 -135 0 -135 0 0 -45z"/>
<path d="M220 430 l0 -40 135 0 135 0 0 40 0 40 -135 0 -135 0 0 -40z"/>
<path d="M940 430 l0 -40 130 0 130 0 0 40 0 40 -130 0 -130 0 0 -40z"/>
<path d="M1470 430 l0 -40 145 0 145 0 -6 28 c-3 15 -7 33 -10 40 -2 9 -39 12
-139 12 l-135 0 0 -40z"/>
<path d="M2010 430 l0 -40 130 0 130 0 0 40 0 40 -130 0 -130 0 0 -40z"/>
<path d="M2407 430 l16 -40 122 0 121 0 12 33 c7 18 12 36 12 40 0 4 -67 7
-149 7 l-149 0 15 -40z"/>
<path d="M2810 430 l0 -40 135 0 135 0 0 40 0 40 -135 0 -135 0 0 -40z"/>
<path d="M50 260 l0 -40 310 0 310 0 0 40 0 40 -310 0 -310 0 0 -40z"/>
<path d="M760 260 l0 -40 479 0 c319 0 482 3 486 10 4 6 10 24 15 40 l9 30
-495 0 -494 0 0 -40z"/>
<path d="M1830 260 l0 -40 220 0 220 0 0 40 0 40 -220 0 -220 0 0 -40z"/>
<path d="M2460 291 c0 -4 5 -22 11 -40 11 -30 12 -31 74 -31 62 0 63 1 74 31
6 18 11 36 11 40 0 5 -38 9 -85 9 -47 0 -85 -4 -85 -9z"/>
<path d="M2810 260 l0 -40 225 0 225 0 0 40 0 40 -225 0 -225 0 0 -40z"/>
<path d="M50 90 l0 -40 310 0 310 0 0 40 0 40 -310 0 -310 0 0 -40z"/>
<path d="M760 90 l0 -40 364 0 c392 0 405 2 483 54 l38 26 -443 0 -442 0 0
-40z"/>
<path d="M1830 90 l0 -40 220 0 220 0 0 40 0 40 -220 0 -220 0 0 -40z"/>
<path d="M2520 121 c0 -4 5 -23 12 -42 l12 -34 12 30 c19 44 17 55 -11 55 -14
0 -25 -4 -25 -9z"/>
<path d="M2810 90 l0 -40 225 0 225 0 0 40 0 40 -225 0 -225 0 0 -40z"/>
</g>
</svg>
