<?xml version="1.0" standalone="no"?>
<!DOCTYPE svg PUBLIC "-//W3C//DTD SVG 20010904//EN"
 "http://www.w3.org/TR/2001/REC-SVG-20010904/DTD/svg10.dtd">
<svg version="1.0" xmlns="http://www.w3.org/2000/svg"
 width="309.000000pt" height="163.000000pt" viewBox="0 0 309.000000 163.000000"
 preserveAspectRatio="xMidYMid meet">

<g transform="translate(0.000000,163.000000) scale(0.100000,-0.100000)"
fill="#000000" stroke="none">
<path d="M590 1115 c0 -34 1 -35 40 -35 39 0 40 1 40 35 0 34 -1 35 -40 35
-39 0 -40 -1 -40 -35z"/>
<path d="M760 934 l0 -215 38 3 37 3 3 93 3 92 89 0 90 0 0 30 c0 33 2 33
-117 30 l-63 -1 0 55 0 56 98 0 c54 0 101 2 104 5 2 3 3 18 0 35 l-4 30 -139
0 -139 0 0 -216z"/>
<path d="M1120 1116 c0 -35 1 -36 41 -36 39 0 40 1 37 33 -3 29 -6 32 -40 35
-37 3 -38 3 -38 -32z"/>
<path d="M2970 1128 c-25 -27 -25 -49 -2 -78 50 -62 145 12 97 76 -13 17 -13
16 -2 -14 19 -52 -11 -82 -68 -68 -53 13 -35 90 24 99 l26 4 -27 2 c-17 0 -35
-8 -48 -21z"/>
<path d="M127 1126 c-29 -13 -111 -86 -104 -92 2 -2 37 -1 78 2 l75 7 27 48
27 49 -38 -1 c-20 0 -50 -6 -65 -13z"/>
<path d="M237 1113 c-8 -16 -17 -40 -20 -54 -6 -24 -3 -27 49 -43 31 -10 78
-31 106 -47 28 -17 52 -28 54 -27 9 10 -22 91 -48 122 -28 34 -93 76 -117 76
-6 0 -17 -12 -24 -27z"/>
<path d="M2990 1088 c0 -25 3 -29 10 -18 8 13 11 12 23 -3 12 -17 13 -15 14
17 1 32 -2 36 -23 36 -20 0 -24 -5 -24 -32z m35 12 c-3 -5 -10 -10 -16 -10 -5
0 -9 5 -9 10 0 6 7 10 16 10 8 0 12 -4 9 -10z"/>
<path d="M1398 1016 c-36 -24 -38 -24 -38 -6 0 17 -7 20 -39 20 l-40 0 2 -152
2 -153 36 -3 37 -3 4 112 c3 102 5 113 27 130 26 21 48 24 71 9 11 -7 16 -37
20 -127 l5 -118 38 -2 37 -2 0 129 c0 119 -2 131 -23 155 -33 39 -91 44 -139
11z"/>
<path d="M1704 1026 c-28 -13 -64 -50 -64 -67 0 -4 14 -9 32 -13 24 -5 36 -1
50 14 31 33 98 20 98 -20 0 -20 -10 -25 -75 -36 -81 -14 -115 -44 -115 -104 0
-68 88 -102 162 -64 28 15 32 15 40 0 5 -9 22 -16 41 -16 l32 0 -3 118 c-5
144 -16 177 -69 191 -50 14 -91 13 -129 -3z m116 -185 c0 -49 -50 -83 -90 -61
-15 8 -20 19 -18 38 2 21 11 29 43 38 60 18 65 17 65 -15z"/>
<path d="M2124 1033 c-12 -2 -30 -13 -40 -24 -22 -24 -34 -24 -34 1 0 16 -7
20 -35 20 l-35 0 0 -150 c0 -82 3 -151 8 -151 4 -1 22 -3 40 -5 l32 -2 0 104
c0 98 2 107 25 129 29 29 56 32 78 7 12 -14 17 -43 19 -127 l3 -110 38 -2 37
-3 0 119 c0 132 -9 165 -51 187 -28 14 -44 15 -85 7z"/>
<path d="M2426 1030 c-61 -19 -96 -76 -96 -155 0 -94 57 -155 147 -155 59 0
109 28 128 73 l13 32 -36 6 c-22 4 -39 3 -41 -3 -8 -23 -42 -48 -65 -48 -63 0
-92 125 -40 176 29 30 68 27 92 -7 11 -16 21 -19 45 -13 41 8 40 7 27 35 -24
52 -107 80 -174 59z"/>
<path d="M2745 1026 c-59 -26 -79 -60 -83 -139 -3 -63 -1 -77 20 -107 30 -45
61 -60 123 -60 50 0 86 16 113 48 20 26 14 39 -20 45 -25 4 -37 0 -49 -15 -32
-41 -109 -13 -109 39 0 23 3 25 53 23 28 -2 74 -2 101 -1 l49 1 -7 47 c-8 60
-45 109 -94 123 -47 13 -60 12 -97 -4z m95 -66 c11 -11 20 -29 20 -40 0 -18
-7 -20 -60 -20 -53 0 -60 2 -60 20 0 11 9 29 20 40 11 11 29 20 40 20 11 0 29
-9 40 -20z"/>
<path d="M590 875 c0 -169 -2 -165 58 -149 22 6 22 9 22 155 l0 149 -40 0 -40
0 0 -155z"/>
<path d="M1120 874 l0 -155 38 3 37 3 3 153 3 152 -41 0 -40 0 0 -156z"/>
<path d="M212 934 c7 -49 40 -120 77 -165 l29 -34 45 46 c40 42 74 119 61 140
-8 13 -99 40 -158 46 l-59 6 5 -39z"/>
<path d="M94 922 c-17 -9 -43 -27 -58 -39 -26 -21 -27 -23 -12 -51 18 -35 88
-98 118 -105 17 -5 19 -2 13 16 -4 12 -10 61 -12 110 -3 48 -8 87 -11 87 -4
-1 -21 -9 -38 -18z"/>
<path d="M643 632 c-28 -4 -63 -47 -63 -77 0 -38 37 -75 75 -75 43 0 65 9 65
26 0 17 -1 17 -36 4 -60 -23 -102 51 -49 86 21 14 31 15 51 5 32 -14 34 -14
34 3 0 17 -46 33 -77 28z"/>
<path d="M1056 559 c-14 -38 -26 -72 -26 -75 0 -11 29 -2 34 11 3 9 18 15 36
15 18 0 33 -6 36 -15 4 -8 13 -15 21 -15 10 0 13 6 9 18 -62 163 -71 168 -110
61z m57 1 c4 -15 0 -20 -14 -20 -21 0 -22 1 -13 24 8 22 21 20 27 -4z"/>
<path d="M1480 555 c0 -59 3 -75 14 -75 11 0 16 14 18 47 l3 47 29 -47 c44
-69 56 -62 56 28 0 59 -3 75 -14 75 -10 0 -16 -14 -18 -42 l-3 -43 -29 43
c-43 64 -56 56 -56 -33z"/>
<path d="M1940 563 c-14 -37 -26 -71 -28 -75 -2 -5 3 -8 11 -8 8 0 17 7 21 15
3 9 19 15 41 15 24 0 35 -4 35 -15 0 -8 7 -15 16 -15 17 0 16 6 -18 98 -27 73
-47 70 -78 -15z m59 -15 c1 -5 -6 -8 -14 -8 -15 0 -21 31 -8 44 7 6 20 -17 22
-36z"/>
<path d="M2360 555 l0 -75 40 0 c49 0 80 30 80 77 0 46 -30 73 -80 73 l-40 0
0 -75z m85 0 c0 -36 -3 -40 -27 -43 -27 -3 -28 -2 -28 43 0 45 1 46 28 43 24
-3 27 -7 27 -43z"/>
<path d="M2833 613 c-3 -10 -14 -40 -25 -66 -22 -58 -22 -67 -3 -67 8 0 15 7
15 15 0 21 59 20 75 -1 6 -9 17 -15 22 -13 7 3 0 31 -17 74 -28 71 -54 93 -67
58z m37 -59 c0 -8 -7 -14 -15 -14 -15 0 -21 21 -9 33 10 9 24 -2 24 -19z"/>
</g>
</svg>
