<?xml version="1.0" standalone="no"?>
<!DOCTYPE svg PUBLIC "-//W3C//DTD SVG 20010904//EN"
 "http://www.w3.org/TR/2001/REC-SVG-20010904/DTD/svg10.dtd">
<svg version="1.0" xmlns="http://www.w3.org/2000/svg"
 width="820.000000pt" height="315.000000pt" viewBox="0 0 820.000000 315.000000"
 preserveAspectRatio="xMidYMid meet">

<g transform="translate(0.000000,315.000000) scale(0.100000,-0.100000)"
fill="#000000" stroke="none">
<path d="M1544 3140 c-239 -25 -543 -138 -761 -283 -132 -88 -279 -232 -347
-338 l-19 -30 47 30 c75 47 227 110 334 137 125 33 291 36 402 10 262 -64 476
-251 653 -571 82 -148 82 -146 0 -184 -529 -248 -1273 -606 -1273 -614 0 -24
103 -160 180 -238 101 -102 199 -161 309 -185 173 -39 353 19 495 161 109 107
159 234 160 402 l1 102 155 61 c85 33 163 60 172 60 22 0 33 -99 25 -240 -24
-438 -314 -743 -805 -845 -85 -18 -193 -14 -316 11 -38 7 -71 12 -74 10 -7 -8
101 -65 181 -96 119 -46 231 -70 358 -77 151 -8 260 8 432 61 26 8 47 13 47
10 0 -15 -218 -106 -305 -128 -497 -125 -982 45 -1447 506 -61 61 -107 105
-103 97 85 -140 251 -329 393 -447 183 -152 409 -264 637 -318 l30 -7 -35 -8
c-105 -23 -375 -39 -684 -40 l-331 -1 115 -29 c267 -65 522 -99 816 -106 321
-8 526 16 779 88 531 153 878 461 1024 909 59 182 81 333 81 565 0 397 -72
639 -261 871 -144 177 -340 293 -669 397 -230 72 -291 82 -487 81 -90 0 -161
1 -160 3 2 1 37 10 78 19 99 22 350 30 462 15 410 -55 762 -273 1041 -644 36
-49 78 -109 92 -133 29 -50 39 -58 21 -16 -153 340 -429 654 -721 820 -208
119 -482 177 -722 152z"/>
<path d="M915 2390 c-62 -12 -152 -46 -203 -76 -194 -114 -287 -337 -252 -605
13 -100 24 -139 38 -139 14 0 1015 459 1026 470 11 11 -21 62 -90 142 -146
169 -334 245 -519 208z"/>
<path d="M4405 2331 c-92 -42 -133 -120 -142 -263 l-6 -88 -44 0 -44 0 3 -62
3 -63 43 -3 42 -3 0 -235 0 -234 90 0 90 0 0 235 0 234 81 3 81 3 1 60 1 60
-82 3 -82 3 0 75 c0 125 27 153 134 140 l53 -6 16 57 c9 32 13 61 9 65 -12 12
-125 38 -167 38 -22 0 -58 -9 -80 -19z"/>
<path d="M3097 2334 c-4 -4 -7 -43 -7 -86 l0 -78 85 0 86 0 -3 83 -3 82 -75 3
c-42 1 -79 0 -83 -4z"/>
<path d="M7557 2333 c-4 -3 -7 -220 -7 -480 l0 -474 88 3 87 3 0 207 0 206 31
39 c47 57 90 83 141 83 107 0 117 -26 121 -312 l4 -228 85 0 84 0 -3 273 c-3
259 -4 274 -25 314 -30 56 -78 91 -141 103 -96 18 -214 -23 -264 -90 -11 -16
-25 -27 -30 -24 -4 3 -8 90 -8 195 l0 189 -78 0 c-43 0 -82 -3 -85 -7z"/>
<path d="M5548 2178 l-3 -113 -42 -3 -43 -3 0 -64 0 -64 43 -3 42 -3 0 -220
c0 -202 2 -223 20 -254 42 -71 109 -97 213 -80 88 13 144 37 138 58 -3 9 -10
36 -17 61 -7 25 -13 46 -14 48 -2 1 -23 -2 -48 -8 -48 -10 -94 -1 -109 23 -4
7 -8 94 -8 194 l0 182 73 3 72 3 3 62 3 62 -73 3 -73 3 -5 110 -5 110 -82 3
-82 3 -3 -113z"/>
<path d="M3790 2070 c-68 -12 -116 -36 -166 -82 l-44 -41 0 57 0 56 -80 0 -80
0 0 -340 0 -340 90 0 90 0 0 208 c0 186 2 210 19 238 50 82 165 120 223 75 15
-12 32 -39 38 -59 5 -20 10 -133 10 -249 l0 -213 85 0 85 0 0 253 c0 268 -6
315 -49 375 -37 53 -129 78 -221 62z"/>
<path d="M4969 2070 c-152 -26 -267 -144 -289 -297 -16 -120 23 -236 106 -313
57 -53 109 -77 192 -91 58 -10 82 -9 144 5 172 38 273 168 273 351 0 69 -5 89
-31 145 -55 116 -145 182 -271 200 -37 5 -70 9 -73 9 -3 -1 -26 -5 -51 -9z
m134 -154 c18 -7 47 -29 64 -49 125 -142 13 -386 -161 -353 -76 14 -128 73
-145 162 -31 162 106 297 242 240z"/>
<path d="M6265 2069 c-58 -7 -139 -46 -190 -90 -19 -17 -50 -61 -67 -98 -30
-60 -33 -74 -33 -161 0 -88 3 -101 33 -162 53 -108 141 -170 267 -189 132 -21
280 32 347 125 15 22 25 43 21 47 -5 4 -37 14 -71 23 l-64 16 -28 -30 c-82
-88 -229 -77 -293 22 -15 23 -27 55 -27 70 l0 28 266 0 267 0 -5 78 c-13 218
-188 351 -423 321z m149 -139 c45 -21 96 -89 96 -127 l0 -23 -180 0 c-117 0
-180 4 -180 10 0 21 31 85 53 109 49 52 140 66 211 31z"/>
<path d="M7064 2070 c-236 -34 -368 -281 -268 -500 80 -176 284 -251 481 -178
51 19 129 84 152 126 11 20 7 23 -70 46 l-82 25 -39 -34 c-74 -62 -165 -58
-234 10 -80 80 -83 215 -8 303 63 74 166 82 240 18 l38 -33 74 23 c41 12 76
25 79 28 7 6 -34 66 -61 89 -73 62 -194 93 -302 77z"/>
<path d="M3090 1720 l0 -340 85 0 85 0 0 340 0 340 -85 0 -85 0 0 -340z"/>
<path d="M4470 1012 c0 -193 1 -210 19 -226 26 -24 84 -18 89 8 3 14 0 17 -13
12 -9 -3 -25 -1 -36 4 -17 10 -19 25 -21 208 -3 178 -5 197 -20 200 -17 3 -18
-12 -18 -206z"/>
<path d="M6155 1200 c-8 -24 1 -40 21 -40 9 0 14 11 14 30 0 35 -25 42 -35 10z"/>
<path d="M3153 1191 c-43 -20 -73 -62 -73 -101 0 -45 28 -78 85 -99 31 -12 63
-21 73 -21 9 0 36 -9 59 -20 45 -20 60 -49 49 -93 -14 -55 -128 -68 -216 -25
-27 14 -52 23 -55 20 -24 -24 57 -71 138 -79 111 -11 177 31 177 114 0 72 -25
88 -197 133 -71 18 -95 79 -48 125 20 21 34 25 87 25 45 0 72 -6 95 -19 26
-16 32 -17 37 -5 10 26 -73 64 -139 64 -16 0 -49 -9 -72 -19z"/>
<path d="M5650 1145 c0 -52 -1 -55 -25 -55 -32 0 -34 -27 -2 -32 21 -3 22 -7
25 -128 2 -98 6 -128 19 -142 18 -20 49 -23 87 -8 39 14 31 30 -14 30 -54 0
-61 18 -58 142 l3 103 38 3 c53 5 51 32 -3 32 l-40 0 0 55 c0 42 -3 55 -15 55
-12 0 -15 -13 -15 -55z"/>
<path d="M3860 1084 c-8 -4 -30 -20 -48 -37 -103 -98 -33 -277 108 -277 143 0
210 178 105 280 -30 29 -42 34 -92 37 -32 1 -65 0 -73 -3z m135 -57 c62 -62
55 -158 -15 -205 -126 -86 -247 113 -129 212 46 39 101 36 144 -7z"/>
<path d="M4950 959 l0 -131 29 -29 c46 -46 132 -37 178 19 l23 27 0 -26 c0
-27 16 -49 37 -49 9 0 11 14 7 58 -3 31 -7 102 -7 157 -2 86 -4 100 -19 103
-16 3 -18 -7 -18 -101 0 -103 0 -104 -32 -141 -25 -28 -43 -39 -73 -42 -75
-10 -94 31 -95 194 0 75 -3 92 -15 92 -13 0 -15 -21 -15 -131z"/>
<path d="M6154 1076 c-3 -7 -4 -78 -2 -157 2 -120 6 -144 18 -144 13 0 15 25
18 158 2 137 0 157 -13 157 -9 0 -18 -6 -21 -14z"/>
<path d="M6664 1071 c-103 -63 -105 -210 -4 -278 89 -61 219 1 235 111 9 60
-8 107 -56 150 -34 32 -45 36 -92 36 -33 0 -63 -7 -83 -19z m145 -37 c118 -99
-3 -298 -129 -212 -69 47 -76 144 -15 205 43 43 98 46 144 7z"/>
<path d="M7292 933 c3 -133 5 -158 18 -158 12 0 16 19 18 103 3 114 14 142 63
168 15 7 42 14 58 14 49 0 61 -30 65 -161 5 -139 3 -129 21 -129 24 0 29 45
18 168 -11 132 -23 152 -95 152 -44 0 -107 -26 -115 -47 -9 -24 -23 -14 -23
17 0 20 -5 30 -15 30 -13 0 -15 -22 -13 -157z"/>
<path d="M7979 1061 c-16 -16 -29 -40 -29 -53 0 -44 25 -64 110 -88 84 -24
103 -41 92 -82 -11 -42 -94 -54 -161 -24 -44 20 -62 16 -42 -8 20 -24 79 -39
139 -34 45 4 60 10 79 32 28 32 30 79 5 104 -10 10 -49 26 -87 36 -86 23 -97
31 -93 70 2 23 11 35 32 45 29 13 53 11 134 -14 33 -11 28 12 -8 30 -16 8 -54
15 -85 15 -49 0 -60 -4 -86 -29z"/>
</g>
</svg>
