<svg width="119" height="125" viewBox="0 0 119 125" fill="none" xmlns="http://www.w3.org/2000/svg">
<path d="M61.6641 0.663389C61.6641 1.19099 61.7551 1.35156 62.1191 1.35156C62.6879 1.35156 62.7562 0.319302 62.2101 0.11285C61.6868 -0.0936023 61.6641 -0.0706631 61.6641 0.663389Z" fill="#0055A6"/>
<path d="M57.7266 1.05277C57.6356 1.12159 57.5673 1.44274 57.5673 1.74095C57.5673 2.15385 57.4535 2.26855 56.9985 2.26855C56.6345 2.26855 56.4297 2.40618 56.4297 2.61264C56.4297 2.81909 56.6345 2.95672 56.9757 2.95672C57.499 2.95672 57.5218 3.02554 57.6811 5.41121C57.7721 6.78756 57.9541 8.02627 58.0679 8.1639C58.4091 8.59975 60.0701 8.55387 60.0701 8.11802C60.0701 7.88863 59.8425 7.77394 59.4102 7.77394H58.7504L58.5912 5.61766C58.5002 4.42483 58.5002 3.34669 58.5684 3.20905C58.6594 3.07142 59.0462 2.95672 59.4102 2.95672C60.3431 2.95672 60.1611 2.40618 59.2055 2.31443C58.5684 2.24561 58.4774 2.15385 58.4774 1.55744C58.4774 0.938079 58.0906 0.66281 57.7266 1.05277Z" fill="#0055A6"/>
<path d="M42.4123 2.17926C41.98 2.36277 42.3213 3.41797 42.8219 3.41797C43.1632 3.41797 43.2542 3.28033 43.1859 2.79861C43.1177 2.17926 42.8674 1.99574 42.4123 2.17926Z" fill="#0055A6"/>
<path d="M51.9035 2.70497C51.585 2.79672 51.2892 3.00317 51.2437 3.16375C51.1527 3.41608 51.4029 3.46196 52.5178 3.32432C53.7692 3.18669 53.9285 3.20963 54.247 3.69135C54.8386 4.5401 54.7248 5.02182 53.9285 5.02182C51.6987 5.02182 50.5611 6.71931 51.7215 8.32505C52.0628 8.78383 53.7919 8.92147 54.2242 8.48562C54.338 8.37093 54.7475 8.32505 55.1343 8.39387L55.8169 8.5315L55.6576 6.48992C55.4529 4.05837 55.1798 3.02611 54.611 2.7279C54.1332 2.47557 52.7453 2.45264 51.9035 2.70497ZM54.8158 6.87989C54.8613 7.91215 52.8136 8.46269 52.3358 7.56806C51.8125 6.5358 52.1993 5.8935 53.5189 5.73293C54.5883 5.57236 54.7931 5.75587 54.8158 6.87989Z" fill="#0055A6"/>
<path d="M61.4342 3.71644C61.4342 4.40462 61.3659 5.73509 61.2977 6.69853C61.1384 8.35015 61.1611 8.46484 61.5934 8.46484C62.003 8.46484 62.0712 8.25839 62.2078 6.35444C62.4353 2.8677 62.4125 2.50067 61.8892 2.50067C61.4797 2.50067 61.4342 2.66125 61.4342 3.71644Z" fill="#0055A6"/>
<path d="M65.1449 2.9606C64.3258 3.30469 63.8935 4.2452 63.757 5.94269C63.666 7.45667 63.666 7.54843 64.3486 8.21366C65.0084 8.90184 65.4407 9.03947 66.6693 8.92478C67.8524 8.83302 68.717 7.25022 68.717 5.16276C68.717 3.51114 66.7148 2.27243 65.1449 2.9606ZM67.4884 4.22226C67.9662 4.97925 67.7387 7.15846 67.1016 7.80076C66.5328 8.37424 65.4862 8.3513 64.9629 7.77782C64.4168 7.1814 64.5761 4.79573 65.1904 4.10756C65.8047 3.44233 67.0106 3.4882 67.4884 4.22226Z" fill="#0055A6"/>
<path d="M46.8275 3.4628C45.7581 3.64631 45.5078 3.78395 45.5078 4.12803C45.5078 4.47212 45.6216 4.54094 46.0311 4.44918C48.0788 3.9904 48.4656 3.94452 48.4656 4.17391C48.4656 4.28861 47.9423 5.36675 47.3053 6.55958C45.6671 9.63342 45.8719 9.93163 49.0572 9.33521C50.3541 9.10582 50.7864 8.80761 50.3996 8.41765C50.3313 8.34883 49.626 8.41765 48.8524 8.60116C48.0788 8.76174 47.3963 8.83055 47.328 8.76174C47.2597 8.71586 47.7603 7.59184 48.4429 6.30725C50.1265 3.11871 50.0128 2.91226 46.8275 3.4628Z" fill="#0055A6"/>
<path d="M70.5588 4.49435C69.899 7.01766 69.3984 9.151 69.3984 9.35745C69.3984 9.49508 69.5805 9.60978 69.808 9.60978C70.1493 9.60978 70.3085 9.31157 70.5361 8.30225C70.6953 7.5682 70.9684 6.49006 71.1504 5.89364C71.4462 4.83844 71.5144 4.79256 72.2652 4.79256C74.0399 4.79256 74.2674 5.38898 73.4939 8.11874C72.9251 10.1144 72.9251 10.5273 73.4484 10.5273C73.7896 10.5273 73.9489 10.1144 74.3585 8.39401C74.9955 5.73307 74.9955 5.36604 74.2902 4.67787C73.8807 4.24202 73.4939 4.10439 72.7203 4.10439C72.1515 4.10439 71.6282 3.98969 71.5599 3.875C71.2641 3.37034 70.7636 3.69148 70.5588 4.49435Z" fill="#0055A6"/>
<path d="M42.916 4.51898C42.7795 4.74837 44.1218 9.84086 44.3949 10.162C44.4859 10.2767 44.7134 10.2996 44.8954 10.2308C45.1912 10.1161 45.1685 9.81792 44.7134 8.18924C44.4176 7.13404 44.0763 5.84945 43.9171 5.29891C43.6895 4.40428 43.2117 4.03726 42.916 4.51898Z" fill="#0055A6"/>
<path d="M81.1845 5.18415C80.9798 5.41354 80.7522 5.82644 80.684 6.10171C80.5475 6.53755 80.4337 6.58343 79.9559 6.39992C79.6374 6.26229 79.3416 6.17053 79.2733 6.17053C79.1141 6.17053 79.1823 6.8587 79.3643 6.8587C79.4554 6.8587 79.6601 6.95046 79.8421 7.06515C80.0924 7.22573 79.9787 7.73039 79.1823 9.74903C78.2495 12.0659 78.204 12.4329 78.8865 12.387C79.0003 12.387 79.4781 11.3548 80.0014 10.139C80.9115 7.93684 80.957 7.89096 81.6396 7.93684C82.5497 8.0286 82.7772 7.61569 82.0491 7.27161C81.3666 6.9734 81.3211 6.69813 81.7989 6.00995C82.0946 5.59705 82.2539 5.52823 82.6862 5.71175C83.619 6.05583 83.8238 5.48235 82.9365 5.06945C82.1174 4.67949 81.5941 4.72536 81.1845 5.18415Z" fill="#0055A6"/>
<path d="M38.7959 5.71094C38.5228 5.80269 38.1815 6.05502 38.0223 6.26147C37.8403 6.46793 37.5445 6.58262 37.2942 6.5138C37.0894 6.44499 36.8391 6.49087 36.7481 6.6285C36.5889 6.90377 38.4091 12.3633 38.6593 12.3633C38.7276 12.3633 38.9324 12.2715 39.0916 12.1798C39.3192 12.0192 39.1826 11.4687 38.5683 9.70234L37.7492 7.43137L38.3408 6.92671C38.6593 6.6285 39.2281 6.39911 39.5694 6.39911C40.2975 6.39911 40.525 6.76614 41.4579 9.42707C41.8219 10.5511 42.0949 10.9869 42.368 10.9869C42.9368 10.9869 42.8913 10.6199 42.0722 8.41775C41.0938 5.80269 40.252 5.09158 38.7959 5.71094Z" fill="#0055A6"/>
<path d="M32.3139 8.558C31.7451 8.85621 31.2673 9.26912 31.2218 9.47557C31.1308 9.86553 31.6313 9.98023 31.9954 9.63614C32.1091 9.49851 32.5869 9.24618 33.042 9.03973C33.8611 8.71858 33.9293 8.71858 34.3616 9.15442C35.0442 9.84259 34.9304 10.1179 33.7701 10.7372C33.2013 11.0354 32.6324 11.4942 32.5187 11.7236C32.2001 12.343 32.4732 13.3523 33.1102 13.9716C33.7928 14.6139 34.9532 14.4763 35.704 13.6505C35.9998 13.3293 36.3411 13.1229 36.5003 13.1917C36.6369 13.2376 36.8871 13.1917 37.0464 13.077C37.2967 12.9394 37.1602 12.4806 36.4093 10.9666C34.8394 7.82395 34.2934 7.5028 32.3139 8.558ZM35.6585 11.563C36.0225 12.343 36.0225 12.3888 35.4992 12.9394C34.7939 13.6964 33.7701 13.7193 33.406 12.9623C33.0875 12.2053 33.2695 11.7695 34.1796 11.2189C35.158 10.6225 35.2262 10.6225 35.6585 11.563Z" fill="#0055A6"/>
<path d="M82.958 9.42898C82.0479 10.3465 81.3426 12.1129 81.5474 12.9387C81.7521 13.7645 82.7077 14.6132 83.6178 14.7967C84.8237 15.0261 85.6428 14.4297 86.4846 12.7093C87.3492 10.8971 87.2354 10.0483 86.0296 9.22252C84.892 8.44259 83.8453 8.53435 82.958 9.42898ZM85.8476 10.1171C86.0523 10.3695 86.2343 10.7365 86.2343 10.92C86.2343 11.31 85.3925 13.0304 84.9147 13.558C84.1639 14.4297 82.3664 13.7415 82.3664 12.5946C82.3664 11.9293 83.413 9.9107 83.8908 9.63543C84.4369 9.29134 85.347 9.52073 85.8476 10.1171Z" fill="#0055A6"/>
<path d="M28.0559 11.0107C25.7807 12.4558 25.3484 13.6257 26.5998 14.9103C26.9638 15.2773 27.3051 15.7591 27.3506 15.9885C27.3961 16.1949 27.6464 16.4702 27.9194 16.6078C28.2607 16.7454 28.4427 17.0666 28.4882 17.6171C28.5337 18.1447 28.7612 18.5347 29.1708 18.8558C29.7168 19.2687 29.8988 19.2917 30.6952 19.0394C31.9011 18.6953 33.2207 17.4336 33.2207 16.6307C33.2207 15.8967 32.4926 15.1168 31.7873 15.1168C31.4915 15.1168 30.6497 15.3232 29.8988 15.5755C28.6247 16.0343 27.9876 16.0343 27.9876 15.6214C27.9876 15.5297 28.3972 15.2544 28.8977 15.025C29.9444 14.5662 30.7179 13.6716 30.7179 12.9146C30.7179 12.6393 30.4677 12.0888 30.1491 11.7218C29.8306 11.3318 29.6258 10.873 29.7168 10.6895C29.9671 10.0243 29.421 10.116 28.0559 11.0107ZM29.3528 12.1347C29.9899 12.777 29.9216 13.3734 29.1025 14.0616C28.2379 14.8186 27.6919 14.8186 27.1231 14.0845C26.5315 13.3505 26.7135 12.6623 27.6236 12.1117C28.511 11.5612 28.784 11.5612 29.3528 12.1347ZM32.0376 16.0802C32.6746 16.7225 31.9921 17.8006 30.6497 18.3053C30.1264 18.5118 29.9444 18.4659 29.5803 18.0989C29.33 17.8465 29.1253 17.3877 29.1253 17.0895C29.1253 16.6307 29.3073 16.4931 30.3311 16.1949C31.8328 15.7591 31.719 15.7591 32.0376 16.0802Z" fill="#0055A6"/>
<path d="M87.6217 13.6729C86.7572 15.0264 86.0973 16.2192 86.1428 16.3109C86.4614 16.8156 87.0302 16.3109 88.1678 14.5217C89.3509 12.6866 89.4874 12.5489 90.0563 12.6866C91.1484 12.9618 91.3531 12.9389 91.3531 12.6177C91.3531 12.4342 91.0574 12.1819 90.6706 12.0672C90.3065 11.9296 89.897 11.7002 89.806 11.5396C89.715 11.3561 89.5329 11.2185 89.4192 11.2185C89.3054 11.2185 88.5091 12.3195 87.6217 13.6729Z" fill="#0055A6"/>
<path d="M23.6649 14.1288C23.4146 14.4729 23.0278 14.7711 22.8458 14.7941C22.641 14.817 22.4363 14.9088 22.368 14.9776C22.2543 15.0693 24.211 17.7991 25.8719 19.9095C25.9174 19.9783 26.0994 19.8636 26.2814 19.6801C26.5545 19.4048 26.4179 19.1066 25.1438 17.4321C24.3247 16.3769 23.6649 15.4593 23.6649 15.3676C23.6649 15.2987 23.8697 14.9776 24.12 14.6564C24.5978 14.0371 24.7115 13.5095 24.3702 13.5095C24.2565 13.5095 23.9379 13.7848 23.6649 14.1288Z" fill="#0055A6"/>
<path d="M95.3349 14.589C94.6979 15.1166 94.6296 15.3001 94.7206 16.1259C94.7661 16.6535 94.9936 17.7546 95.2439 18.6033C95.6535 20.0944 95.6535 20.1403 95.2439 20.599C94.5841 21.3331 93.856 21.1955 92.6956 20.1173C91.9221 19.4062 91.6035 19.2456 91.4215 19.4292C91.2167 19.6356 91.3305 19.9109 91.9448 20.5302C93.492 22.1589 94.7206 22.4112 95.8355 21.3102C96.6091 20.5073 96.6318 20.0026 95.9037 17.3417C95.4714 15.8048 95.4714 15.8048 95.9492 15.323C96.518 14.7496 97.0186 14.9331 98.3382 16.2177C99.0208 16.86 99.2711 16.9747 99.4759 16.7682C99.9764 16.2636 97.3599 13.9696 96.2678 13.9696C96.154 13.9696 95.7217 14.2449 95.3349 14.589Z" fill="#0055A6"/>
<path d="M17.5922 16.242C16.5911 16.8843 16.1133 17.7101 16.1133 18.8112C16.136 19.8435 16.4546 20.4399 17.8197 21.9309C18.9573 23.1926 19.7309 23.6055 20.914 23.6055C22.6432 23.6055 24.0994 21.7245 23.6443 20.0958C23.4168 19.2241 21.9606 17.366 20.8458 16.4714C19.9584 15.7603 18.5023 15.6685 17.5922 16.242ZM20.0722 17.1366C20.8913 17.6872 22.4612 19.5223 22.757 20.2564C23.121 21.2657 22.3247 22.5732 21.2781 22.6879C20.2997 22.8026 19.9584 22.642 18.8891 21.6327C17.4557 20.3022 16.7959 18.9718 17.0916 18.123C17.5922 16.8155 18.9118 16.3796 20.0722 17.1366Z" fill="#0055A6"/>
<path d="M98.8636 19.0153C98.7726 19.153 98.8863 19.4741 99.1139 19.7265C99.5006 20.1623 99.4551 20.2311 97.7715 21.9745C96.7931 22.9609 96.0195 23.9014 96.0195 24.039C96.0195 24.4749 97.2937 25.7594 97.5894 25.5759C97.7715 25.4612 97.726 25.2318 97.3847 24.796L96.9069 24.1996L98.4995 22.5938C100.069 21.011 100.092 20.9881 100.547 21.401C100.82 21.6533 101.162 21.768 101.389 21.6763C101.73 21.5386 101.708 21.4698 101.253 20.9652L100.729 20.3917L101.23 19.8412C101.73 19.2906 101.753 19.2906 101.298 19.0383C100.957 18.8548 100.775 18.9006 100.456 19.2447C100.047 19.7035 100.047 19.7035 99.5234 19.2218C99.1821 18.9006 98.9773 18.8318 98.8636 19.0153Z" fill="#0055A6"/>
<path d="M54.1542 22.4809C51.788 22.7562 48.3296 23.5132 45.8724 24.316C43.0056 25.2336 37.8635 27.8716 35.2698 29.7297C32.6532 31.6336 28.8081 35.4415 26.8514 38.0566L25.418 40.0064L26.0778 40.0752C26.6238 40.144 26.8741 39.9835 27.5339 39.1806C30.378 35.648 34.2004 31.863 34.9285 31.863C35.2698 31.863 38.9101 33.9275 38.9101 34.111C38.9101 34.1799 38.3186 35.0057 37.5905 35.9691C36.1116 37.896 34.8147 39.7999 34.8147 39.9835C34.8147 40.0523 35.1105 40.1211 35.4518 40.1211C35.9751 40.1211 36.3164 39.8229 37.4767 38.2171C38.2503 37.1849 39.2514 35.9691 39.6837 35.5333C40.4573 34.7992 40.5483 34.7533 41.2536 35.0286C41.6404 35.1892 43.0511 35.6938 44.3707 36.1297C45.6903 36.5885 46.828 37.0243 46.9417 37.1161C47.0327 37.2078 46.8507 37.8731 46.5322 38.6071C46.2136 39.3182 45.9634 39.9605 45.9634 40.0064C45.9634 40.0752 46.2592 40.1211 46.6004 40.1211C47.1692 40.1211 47.3285 39.9376 47.8973 38.7447C48.4206 37.6207 48.6254 37.3913 49.0122 37.4831C51.0827 37.9189 52.1293 38.0566 54.723 38.286C56.3612 38.4465 57.7491 38.6071 57.8629 38.6759C57.9539 38.7218 58.0221 39.0888 58.0221 39.4559C58.0221 40.0752 58.0904 40.144 58.6592 40.0752C59.1598 40.0293 59.2963 39.8917 59.3418 39.2953L59.41 38.5612L61.5032 38.4007C63.3917 38.263 66.6908 37.7813 67.9649 37.4602C68.3972 37.3455 68.5565 37.529 69.1708 38.7218C69.7169 39.8229 69.9671 40.1211 70.3767 40.1211C71.1958 40.1211 71.2185 39.9605 70.627 38.6071C70.0126 37.2308 69.9671 36.9096 70.3084 36.9096C70.4449 36.9096 71.9466 36.405 73.653 35.7627C77.3162 34.4322 76.7473 34.2257 79.4549 37.7584C80.8655 39.5935 81.3888 40.1211 81.8211 40.1211C82.1397 40.1211 82.3672 39.9835 82.3672 39.777C82.3672 39.4329 79.2729 35.1662 78.6358 34.6386C78.431 34.4551 78.2718 34.2028 78.2718 34.0652C78.2718 33.9275 79.1591 33.3082 80.2057 32.7118C82.0714 31.6566 82.1852 31.6107 82.7085 31.9548C83.7323 32.6429 87.3955 36.3132 88.7834 38.0336C90.0802 39.6853 90.7628 40.167 91.3999 39.9376C92.128 39.6853 87.2589 34.0193 84.0964 31.4272C75.587 24.4766 64.8706 21.2651 54.1542 22.4809ZM65.3029 24.1096C66.122 24.2702 66.7818 24.5225 66.7818 24.6372C66.7818 24.7748 66.0082 25.2565 65.0754 25.7383C60.7297 27.9175 55.1553 27.7569 50.9916 25.2795C49.7858 24.5684 49.945 24.4537 52.334 24.0866C53.2669 23.949 54.2907 23.7884 54.6093 23.7426C55.7696 23.5361 63.8695 23.8114 65.3029 24.1096ZM48.6709 25.463C48.9667 25.7153 49.1715 25.9447 49.126 25.9677C49.0804 26.0135 48.4206 26.4264 47.6698 26.9082C45.7131 28.1927 43.0283 30.2802 41.4584 31.7254L40.1388 32.987L39.2287 32.5741C38.0455 32.0236 36.4074 30.9913 36.4074 30.7619C36.4074 30.4637 39.3879 28.6286 41.7314 27.4816C43.6199 26.5641 47.556 25.0042 48.0111 25.0042C48.0793 25.0042 48.3751 25.2107 48.6709 25.463ZM71.2413 25.6924C72.4244 26.0824 74.3128 26.8623 75.4277 27.3899C77.5437 28.4221 80.7745 30.4178 80.7745 30.6931C80.7745 30.8078 78.158 32.3677 77.3162 32.7347C77.2251 32.7806 76.1103 31.9089 74.8134 30.8307C73.5165 29.7297 71.4688 28.1469 70.2174 27.3211L67.9649 25.8071L68.4882 25.3942C68.7613 25.1648 69.0115 24.9813 69.0343 24.9813C69.0798 24.9813 70.0581 25.3024 71.2413 25.6924ZM52.2885 27.4358C53.0394 27.7569 53.0394 27.7798 52.6981 28.2616C52.2658 28.835 49.1487 33.5834 48.3069 34.9139C47.6926 35.9003 47.8291 35.9232 44.1432 34.6386C42.8235 34.1799 41.7542 33.6981 41.7542 33.5605C41.7542 32.9411 46.828 28.9268 49.4672 27.4587C50.6504 26.8164 50.8096 26.8164 52.2885 27.4358ZM68.9205 28.1239C70.991 29.4085 75.3139 32.8723 75.4732 33.3541C75.5415 33.5834 72.7657 34.7304 70.4677 35.4186L69.3983 35.7397L67.4416 32.7118C66.3495 31.0372 65.1891 29.3168 64.8251 28.858C64.4611 28.3992 64.1653 27.9404 64.1653 27.8716C64.1653 27.6651 65.9855 26.8623 66.4633 26.8393C66.6453 26.8164 67.7602 27.4128 68.9205 28.1239ZM57.1348 28.5598C57.7036 28.6745 57.7491 28.7662 57.8629 30.372C57.9539 31.2895 57.9539 33.2164 57.8629 34.6386L57.7264 37.2078L55.5421 37.0473C53.4034 36.8867 49.6038 36.2903 49.4217 36.1067C49.2397 35.9462 51.5832 32.1153 53.0849 30.0967L54.4955 28.1927L55.5194 28.3304C56.0882 28.3992 56.8163 28.491 57.1348 28.5598ZM63.5282 29.5003C65.6214 32.2071 67.8284 35.8315 67.5326 36.1067C67.3506 36.2903 63.5282 36.8637 61.5032 37.0243L59.3873 37.1849V32.9411V28.6974L60.8207 28.468C61.5943 28.3533 62.2996 28.2386 62.3678 28.2157C62.4361 28.2157 62.9594 28.7892 63.5282 29.5003Z" fill="#0055A6"/>
<path d="M11.1749 23.0082C10.9702 23.2606 11.539 23.8341 14.0872 25.8756C15.8164 27.2749 17.3408 28.4219 17.4773 28.4219C17.5911 28.4219 17.7504 28.2842 17.8186 28.1237C17.8869 27.9402 16.772 26.885 14.9518 25.4168C11.4025 22.5495 11.4935 22.6183 11.1749 23.0082Z" fill="#0055A6"/>
<path d="M102.321 22.8246C102.253 22.9164 102.526 23.421 102.958 23.9486C103.845 25.0268 103.959 25.6461 103.345 26.2196C102.935 26.5637 102.867 26.5407 101.889 25.5544C100.637 24.2927 100.091 24.2698 99.0446 25.325C98.4303 25.9443 98.2938 26.2196 98.4075 26.6325C98.6123 27.2977 99.6589 28.4218 100.068 28.4218C100.25 28.4218 100.342 28.5594 100.273 28.7429C100.205 28.9264 100.273 29.1787 100.433 29.3164C100.637 29.4999 101.161 29.2017 102.412 28.1694C103.345 27.4124 104.232 26.5407 104.414 26.2655C104.846 25.5314 104.596 24.7056 103.618 23.6045C102.799 22.687 102.594 22.5723 102.321 22.8246ZM101.547 26.082C102.321 26.9078 102.321 27.1372 101.479 27.7336C100.728 28.2841 100.182 28.1235 99.5679 27.2289C99.1129 26.5637 99.1129 26.449 99.6589 25.8985C100.273 25.2791 100.819 25.325 101.547 26.082Z" fill="#0055A6"/>
<path d="M10.8798 27.2961C10.3337 27.5943 9.26436 29.4982 9.44638 29.7964C9.69666 30.2093 9.92418 30.0488 10.4475 29.1083C11.1301 27.8925 11.6989 27.5943 12.4269 28.076L12.973 28.443L12.4042 29.4294C11.6534 30.7369 11.6534 31.6775 12.4269 32.2968C13.6101 33.2373 15.089 32.6638 15.4075 31.1499C15.4758 30.7828 15.726 30.3699 15.9536 30.2323C16.2038 30.1176 16.3859 29.9341 16.3859 29.8194C16.3859 29.7276 15.544 29.0624 14.4974 28.3513C12.609 27.0208 11.7444 26.7685 10.8798 27.2961ZM14.3609 29.3606C15.1117 29.8882 15.1572 30.2323 14.6794 31.1728C14.4519 31.6086 14.1561 31.861 13.8376 31.861C13.2688 31.861 12.518 31.2416 12.518 30.7599C12.518 30.4158 13.3825 28.8789 13.5873 28.8789C13.6556 28.8789 13.9969 29.0853 14.3609 29.3606Z" fill="#0055A6"/>
<path d="M103.912 28.9739C101.25 30.7173 101.386 30.6026 101.637 31.0614C101.819 31.3825 102.137 31.2449 103.935 30.0521L106.005 28.6757L106.711 29.2492C107.188 29.6621 107.393 30.0521 107.393 30.5108C107.393 31.1073 107.166 31.3367 105.459 32.4607C103.525 33.7223 103.229 34.0664 103.844 34.2958C104.185 34.4334 106.574 32.9424 107.689 31.9101C108.599 31.0384 108.44 29.7539 107.302 28.8363C107.052 28.6298 106.802 28.3316 106.802 28.2169C106.779 28.0793 106.756 27.8499 106.733 27.7352C106.688 27.2764 106.119 27.5288 103.912 28.9739Z" fill="#0055A6"/>
<path d="M7.42276 32.8012C7.08148 33.2141 6.8312 33.7876 6.8312 34.1775C6.8312 34.5904 6.71744 34.8428 6.51267 34.8428C6.33065 34.8428 6.14863 34.9804 6.08037 35.1639C5.94386 35.508 6.37615 35.8062 9.49323 37.5037C10.8356 38.2148 11.1997 38.3295 11.4272 38.0772C11.7912 37.7102 11.5182 37.5037 9.08368 36.2191C7.40001 35.3245 7.28625 35.2327 7.42276 34.6593C7.65028 33.6958 8.17359 33.0076 8.67414 33.0076C8.94717 33.0076 10.0165 33.4894 11.0859 34.0628C12.6331 34.9345 13.0654 35.0722 13.2246 34.8198C13.3384 34.6363 13.4294 34.4528 13.4294 34.384C13.4294 34.1087 9.17469 32.0901 8.60588 32.0901C8.21909 32.0901 7.80955 32.3424 7.42276 32.8012Z" fill="#0055A6"/>
<path d="M108.261 33.6968C106.463 34.2473 105.121 35.486 105.121 36.5871C105.121 37.023 105.849 38.6058 106.35 39.271C106.646 39.661 106.896 39.5692 110.331 37.8488C113.084 36.4495 113.949 35.8989 113.858 35.6466C113.676 35.1878 113.471 35.2108 112.425 35.7613L111.56 36.1972L111.15 35.3025C110.491 33.8115 109.558 33.2839 108.261 33.6968ZM109.717 34.6373C110.104 34.8437 110.946 36.3807 110.764 36.5642C110.627 36.6789 106.941 38.514 106.828 38.514C106.623 38.514 106.031 37.1377 106.031 36.6101C106.031 35.9448 106.509 35.4631 107.851 34.8667C109.057 34.3161 109.103 34.3161 109.717 34.6373Z" fill="#0055A6"/>
<path d="M5.69283 37.9875C5.05577 38.2169 4.35044 39.0427 4.10017 39.7997C3.69062 41.0384 4.23668 42.0018 5.76109 42.7359C7.92257 43.7452 9.44698 43.3552 10.0158 41.6348C10.5163 40.052 9.60624 38.8133 7.46752 38.171C6.19339 37.8039 6.19339 37.8039 5.69283 37.9875ZM8.2411 39.4556C9.26496 39.9832 9.56074 40.8319 9.08294 41.7036C8.69615 42.3918 7.96807 42.5523 6.8077 42.2083C4.87375 41.6118 4.25943 40.3961 5.35155 39.295C6.01137 38.6298 6.71669 38.6756 8.2411 39.4556Z" fill="#0055A6"/>
<path d="M112.308 39.18C112.217 39.2947 112.331 39.8223 112.536 40.327C112.991 41.4969 112.877 42.208 112.172 42.575C111.626 42.8503 111.58 42.8044 111.102 41.7492C110.534 40.4417 109.828 39.8682 108.941 40.0517C107.417 40.3499 106.984 41.7263 107.94 43.1714C108.236 43.6073 108.44 44.0431 108.372 44.1119C108.304 44.1808 108.304 44.3872 108.372 44.5707C108.486 44.8919 108.782 44.8231 110.352 44.2496C112.9 43.3091 113.514 42.942 113.673 42.2997C113.924 41.2675 112.718 38.4919 112.308 39.18ZM110.534 41.9557L111.057 42.9879L110.42 43.2632C109.396 43.699 109.009 43.6073 108.531 42.8044C107.963 41.9098 108.031 41.4739 108.759 41.1069C109.624 40.6481 109.965 40.8316 110.534 41.9557Z" fill="#0055A6"/>
<path d="M0.457031 43.3084C0.457031 43.859 1.34437 44.2031 1.6174 43.7672C1.91318 43.2855 1.86768 43.1708 1.32162 43.0102C0.525288 42.8038 0.457031 42.8267 0.457031 43.3084Z" fill="#0055A6"/>
<path d="M2.73438 43.9971C2.73438 44.2494 2.91639 44.5017 3.14392 44.5705C3.34869 44.6394 4.60007 45.0064 5.89696 45.4193C7.80816 45.9928 8.28596 46.0845 8.44522 45.8322C8.53623 45.6487 8.55899 45.4422 8.46798 45.3505C8.30871 45.2128 3.18942 43.5612 2.89364 43.5612C2.80263 43.5612 2.73438 43.7677 2.73438 43.9971Z" fill="#0055A6"/>
<path d="M46.373 43.7905C43.5972 44.2952 40.7987 45.6256 39.206 47.1626C36.544 49.8006 35.7477 55.0536 37.4996 58.6551C38.3414 60.3984 40.5257 62.3712 42.8464 63.4952C43.8703 63.9999 47.6244 65.2845 51.1738 66.3626C54.7231 67.4407 57.863 68.4959 58.1588 68.6795C58.7958 69.0924 58.8641 69.7347 58.318 70.2393C57.1804 71.2486 52.3341 71.3175 49.5356 70.3999C47.5334 69.7117 45.3719 68.2436 44.3708 66.8902L43.5745 65.8121H40.2299H36.8625V72.0056V78.1992H40.6167H44.3708V77.0522C44.3708 76.4099 44.4163 75.9053 44.4618 75.9053C44.5073 75.9053 45.3492 76.3182 46.3275 76.7999C51.8563 79.5755 59.2509 79.7591 64.0061 77.2358C67.5327 75.3547 69.626 71.478 69.3529 67.3949C69.1026 63.954 66.5316 60.4443 62.914 58.6321C62.2997 58.311 58.8641 57.2099 55.292 56.1547C48.0794 54.0672 47.3741 53.792 47.1921 53.035C46.9873 52.255 47.2376 51.8421 48.1249 51.4751C50.969 50.2593 57.4307 52.1404 60.0244 54.893L61.2303 56.1776H64.7569H68.2608V50.3282V44.4787H64.6204H60.98V45.3963C60.98 45.9009 60.889 46.3138 60.7753 46.3138C60.6615 46.3138 59.8197 45.9468 58.9096 45.5109C56.2476 44.2493 54.0406 43.7676 50.5139 43.6758C48.8303 43.6299 46.9646 43.6758 46.373 43.7905Z" fill="#0055A6"/>
<path d="M84.2795 43.8805C74.7463 45.7156 70.4461 51.2898 70.4688 61.796C70.4688 65.6727 70.8556 67.6454 72.1298 70.2146C73.5404 73.082 75.1786 74.7336 78.2957 76.4541C86.4865 80.9731 99.0003 79.3673 103.983 73.1279C104.916 71.935 106.327 68.8841 106.85 66.8426C107.51 64.411 107.441 57.6899 106.759 55.1436C105.553 50.6705 103.278 47.8948 99.1823 45.8762C95.8605 44.2475 93.7445 43.7658 89.4216 43.6511C87.0553 43.6052 85.3717 43.674 84.2795 43.8805ZM91.128 52.2992C92.4476 52.6662 93.4943 53.5608 94.0631 54.7766C94.4954 55.763 94.5409 56.2217 94.5181 60.9931C94.5181 66.5902 94.3588 67.5996 93.3577 68.8153C91.5375 70.9945 86.532 71.0404 84.6663 68.8841C83.5515 67.6225 83.3922 66.682 83.3922 61.2225C83.3922 55.7171 83.5515 54.7766 84.7118 53.492C85.8722 52.2303 88.8528 51.6798 91.128 52.2992Z" fill="#0055A6"/>
<path d="M12.6066 44.0887C12.5611 44.2493 12.5384 46.1303 12.5611 48.2637L12.6294 52.1633L15.0866 52.2321L17.5211 52.3009V61.2243V70.1705H15.0184H12.5156V74.1849V78.1992H23.5505H34.5854V74.1849V70.1935L32.1509 70.1246L29.6937 70.0558L29.6254 61.1554L29.5799 52.278H32.0827H34.5854V48.0343V43.7905H23.6643C14.9501 43.7905 12.6976 43.8593 12.6066 44.0887Z" fill="#0055A6"/>
<path d="M111.446 45.4642C109.466 46.0147 108.988 46.2441 108.988 46.5882C108.988 47.1158 109.17 47.1158 111.468 46.4276C112.538 46.1065 113.539 45.8541 113.698 45.8541C113.88 45.8541 114.199 46.1523 114.403 46.5423C114.608 46.9093 114.927 47.2305 115.086 47.2305C115.427 47.2305 115.427 46.8864 115.086 46.2441C114.927 45.9688 114.79 45.533 114.79 45.2806C114.79 44.6154 114.244 44.6613 111.446 45.4642Z" fill="#0055A6"/>
<path d="M1.9375 46.496C1.82374 47.0465 1.70998 47.1383 1.16392 47.0465C0.458597 46.9548 -0.0647083 47.62 0.572359 47.8035C0.754378 47.8724 1.07291 47.9641 1.25493 48.0329C1.50521 48.1017 1.57346 48.3082 1.4597 48.6982C1.27768 49.4552 1.77824 49.6845 2.05126 48.9734C2.30154 48.2623 2.4153 48.2623 4.82705 48.8358C5.87366 49.0881 6.78376 49.2946 6.89752 49.2946C7.30706 49.2946 7.96688 48.3082 7.96688 47.6659C7.96688 46.8401 7.44358 46.8401 7.32982 47.6659C7.28431 47.9412 7.12505 48.2164 6.98853 48.2623C6.82926 48.3311 5.80541 48.1476 4.66779 47.8494L2.62007 47.3448L2.68833 46.5878C2.77934 45.6473 2.14227 45.5555 1.9375 46.496Z" fill="#0055A6"/>
<path d="M112.698 48.607C110.446 49.0658 109.717 50.0292 110.15 52.002C110.537 53.883 110.286 53.8371 114.7 53.0113C116.862 52.6213 118.659 52.2543 118.705 52.2084C118.932 51.979 118.454 51.3597 118.113 51.4514C117.908 51.4973 117.408 51.612 117.021 51.7038C116.316 51.8414 116.27 51.8185 116.27 51.245C116.27 50.5339 115.77 49.2722 115.337 48.9281C114.86 48.5382 113.767 48.4005 112.698 48.607ZM115.064 49.8227C115.224 49.9833 115.406 50.5109 115.497 51.0385L115.633 51.9561L113.426 52.369C112.197 52.5754 111.151 52.7131 111.105 52.6443C111.037 52.5754 110.923 52.0937 110.878 51.5432C110.741 50.3274 111.174 49.8457 112.653 49.5475C113.767 49.3181 114.655 49.4098 115.064 49.8227Z" fill="#0055A6"/>
<path d="M1.39282 51.0632C0.846766 51.522 0.300709 54.0453 0.664747 54.4124C1.05154 54.8023 1.37007 54.3206 1.37007 53.403C1.37007 52.0726 1.6886 51.5908 2.5987 51.5908H3.37228L3.25852 52.9442C3.14476 54.183 3.19026 54.3665 3.71357 54.8941C4.53265 55.7199 5.71578 55.7199 6.37559 54.8482C6.78514 54.3435 6.85339 54.0453 6.73963 53.1278C6.64862 52.4396 6.67138 52.0496 6.83064 52.0496C6.9444 52.0496 7.05817 51.889 7.05817 51.7055C7.05817 51.3385 6.87615 51.2926 4.53265 50.9256C2.48494 50.5815 1.96163 50.6045 1.39282 51.0632ZM5.39724 51.9579C5.76128 52.0496 5.9433 52.3249 6.05706 52.8525C6.23908 53.8848 5.82954 54.5729 5.05596 54.5729C4.14586 54.5729 3.87283 54.183 3.87283 52.9213C3.87283 51.9349 3.91834 51.8202 4.39614 51.8202C4.66917 51.8202 5.12421 51.889 5.39724 51.9579Z" fill="#0055A6"/>
<path d="M118.155 54.5052C117.996 54.5511 117.859 54.8264 117.859 55.0787C117.859 55.3999 117.973 55.4916 118.223 55.3999C118.428 55.3311 118.678 55.2622 118.792 55.2622C118.906 55.2622 118.997 55.0558 118.997 54.8035C118.997 54.3676 118.724 54.2529 118.155 54.5052Z" fill="#0055A6"/>
<path d="M113.766 54.9159C112.447 55.0765 111.241 55.237 111.104 55.237C110.945 55.26 110.809 55.4894 110.809 55.7417C110.809 56.1546 110.9 56.2005 111.559 56.1087C111.946 56.0399 113.016 55.9023 113.88 55.8335C116.36 55.6041 116.724 55.5123 116.724 55.0077C116.724 54.7783 116.588 54.5947 116.451 54.5947C116.292 54.6177 115.086 54.7553 113.766 54.9159Z" fill="#0055A6"/>
<path d="M1.25498 56.8427C0.981956 56.9574 0.64067 57.2098 0.481404 57.4162C0.185623 57.7832 0.0718608 59.4119 0.344889 59.8478C0.413147 59.9625 0.344889 60.2607 0.185623 60.513C0.026356 60.7653 -0.0419012 61.0177 0.026356 61.0865C0.0718608 61.1553 1.48251 61.27 3.14343 61.3618C6.05574 61.5223 6.14675 61.4994 6.14675 61.0635C6.14675 60.6277 5.98748 60.5818 3.73499 60.4901C1.07297 60.3983 0.913699 60.3066 0.913699 58.8843C0.913699 57.6456 1.41425 57.4621 4.03078 57.6456C5.85097 57.7603 6.1695 57.7374 6.28326 57.4392C6.37427 57.2327 6.39702 57.0263 6.35152 56.9804C6.14675 56.7739 1.66453 56.6592 1.25498 56.8427Z" fill="#0055A6"/>
<path d="M111.331 57.4857C111.126 57.5546 111.035 58.2198 111.035 59.642C111.035 61.2936 111.103 61.6836 111.376 61.6836C111.649 61.6836 111.718 61.3624 111.718 60.0779C111.718 59.1832 111.786 58.4721 111.854 58.4721C111.945 58.4721 112.901 59.1374 113.993 59.9632C115.881 61.3854 116.746 61.7295 117.065 61.2248C117.156 61.0872 117.133 60.1696 117.042 59.1374C116.86 56.8893 116.427 56.8205 116.268 58.9768L116.154 60.4908L114.038 58.908C112.855 58.0363 111.831 57.3252 111.763 57.3481C111.672 57.3481 111.467 57.4169 111.331 57.4857Z" fill="#0055A6"/>
<path d="M0.162366 63.3329C0.253375 63.6311 0.321632 64.2046 0.29888 64.5946L0.253375 65.3516H1.57301C2.30109 65.3516 3.68899 65.2827 4.64459 65.191C6.07799 65.0763 6.37377 64.9845 6.32826 64.6863C6.26 64.3652 5.85046 64.3193 3.75724 64.3193H1.25448L1.02696 63.5623C0.890442 63.0806 0.68567 62.8283 0.389889 62.8283C0.0486036 62.8283 0.0030988 62.92 0.162366 63.3329Z" fill="#0055A6"/>
<path d="M111.446 63.0807C110.922 63.3789 110.672 64.7782 111.036 65.5352C111.218 65.971 111.218 66.1775 111.059 66.2234C110.922 66.2692 110.809 66.4986 110.809 66.751C110.809 67.118 110.968 67.1868 111.787 67.1868C112.31 67.1868 113.425 67.2556 114.267 67.3244C115.678 67.4621 115.814 67.4391 116.383 66.8657C116.906 66.3381 116.974 66.1316 116.906 64.8241C116.815 63.0348 116.428 62.966 116.269 64.7323C116.133 66.1087 115.882 66.4986 114.995 66.4986C114.54 66.4986 114.494 66.3381 114.403 64.9847C114.335 63.8377 114.199 63.3789 113.88 63.1495C113.38 62.7825 112.014 62.7366 111.446 63.0807ZM113.63 64.113C113.698 64.3194 113.766 64.8929 113.766 65.3746V66.2922L112.811 66.2234C111.901 66.1545 111.81 66.1087 111.628 65.3058C111.468 64.6864 111.491 64.3653 111.719 64.113C112.105 63.6312 113.448 63.6312 113.63 64.113Z" fill="#0055A6"/>
<path d="M5.84958 68.1978L5.98609 69.8953L5.28077 70.2623C4.89398 70.4687 4.48444 70.6293 4.37068 70.6293C4.25691 70.6293 4.09765 70.0788 4.00664 69.4135C3.6881 66.8214 3.6426 66.7297 2.96003 66.7297C2.11819 66.7297 0.866808 67.6243 0.662037 68.4042C0.434513 69.23 0.798551 70.5146 1.41287 71.0881C1.79966 71.4322 2.23195 71.5469 3.23306 71.5469C5.46279 71.5469 6.82793 70.6522 6.82793 69.1841C6.82793 68.106 6.35013 66.5003 6.00885 66.5003C5.75857 66.5003 5.73582 66.8444 5.84958 68.1978ZM3.18755 68.0831C3.18755 68.3125 3.25581 68.9777 3.32407 69.5741C3.48333 70.6064 3.46058 70.6293 2.84627 70.6293C0.844056 70.6293 0.912313 67.7849 2.91452 67.6702C3.05104 67.6472 3.18755 67.8307 3.18755 68.0831Z" fill="#0055A6"/>
<path d="M115.903 69.1399C115.766 69.7363 115.698 69.7593 114.81 69.6216C114.31 69.5528 113.172 69.4152 112.308 69.3234C110.943 69.2087 110.692 69.2317 110.442 69.5987C110.01 70.1951 110.032 71.3191 110.465 71.3191C110.647 71.3191 110.806 71.1356 110.806 70.8833C110.806 70.1033 111.284 70.0116 113.491 70.3557L115.607 70.6768L115.539 71.4109C115.447 72.3514 116.13 72.4202 116.221 71.4567C116.289 70.8833 116.38 70.8145 116.972 70.9062C117.359 70.975 117.7 70.9291 117.768 70.8145C117.973 70.4933 117.404 69.9428 116.904 69.9428C116.562 69.9428 116.471 69.8051 116.54 69.3234C116.631 68.5205 116.107 68.36 115.903 69.1399Z" fill="#0055A6"/>
<path d="M6.71628 72.4437C6.8983 73.2466 6.78453 73.3154 4.69131 73.8659C2.57534 74.4165 2.34782 74.4165 2.18855 73.7283C2.09754 73.4071 1.87002 73.1548 1.688 73.1548C1.39222 73.1548 1.34671 73.3154 1.46048 73.843C1.55149 74.3476 1.50598 74.577 1.2557 74.6458C1.07369 74.7147 0.755152 74.8064 0.573133 74.8752C0.368362 74.9211 0.300105 75.1276 0.391114 75.357C0.482124 75.6093 0.709648 75.6781 1.1647 75.5864C1.71075 75.4717 1.84727 75.5405 1.96103 76.0222C2.1658 76.8709 2.80287 76.7792 2.62085 75.9534L2.48433 75.3111L4.71407 74.7835C5.9427 74.5082 7.05756 74.1641 7.21683 74.0265C7.78564 73.5677 7.51261 71.7785 6.8983 71.7785C6.64802 71.7785 6.60251 71.939 6.71628 72.4437Z" fill="#0055A6"/>
<path d="M109.762 72.7155C109.511 73.1514 109.921 73.312 112.719 73.9313C114.881 74.413 115.472 74.4818 115.609 74.2525C115.723 74.0919 115.723 73.8854 115.632 73.7937C115.495 73.656 110.558 72.4632 110.103 72.4632C110.012 72.4632 109.853 72.5779 109.762 72.7155Z" fill="#0055A6"/>
<path d="M116.723 74.5295C116.723 74.8506 116.882 74.9883 117.269 74.9883C117.792 74.9883 118.202 74.4836 117.929 74.2084C117.838 74.1395 117.542 74.0707 117.246 74.0707C116.882 74.0707 116.723 74.2084 116.723 74.5295Z" fill="#0055A6"/>
<path d="M110.012 75.1937C108.761 75.7213 108.146 77.6711 108.874 78.7951C109.375 79.575 111.036 80.3091 112.333 80.332C113.675 80.332 114.449 79.598 114.608 78.1528C114.767 76.7306 114.039 75.8818 112.219 75.3542C110.74 74.9413 110.649 74.9413 110.012 75.1937ZM112.128 76.2489C113.493 76.6618 114.085 77.3729 113.857 78.3134C113.789 78.6345 113.47 79.0704 113.175 79.2768C112.72 79.575 112.492 79.575 111.468 79.3227C109.944 78.9327 109.125 78.1758 109.307 77.327C109.466 76.6847 110.217 75.9048 110.672 75.9048C110.831 75.9048 111.491 76.0654 112.128 76.2489Z" fill="#0055A6"/>
<path d="M6.14777 76.6178C3.62226 77.4665 3.28097 77.673 2.96244 78.43C2.75767 78.9347 2.78042 79.2329 3.0307 79.8522C3.21272 80.311 3.48574 80.7468 3.62226 80.8386C3.78153 80.9304 3.82703 81.1597 3.78153 81.3662C3.48574 82.3296 3.96354 82.3296 6.78484 81.3433C9.2876 80.4716 9.92467 80.0587 9.37861 79.7146C9.26485 79.6458 8.17274 79.921 6.96686 80.3339L4.73713 81.068L4.19107 80.4257C3.59951 79.7146 3.48574 78.8429 3.94079 78.4759C4.07731 78.3612 5.16942 77.9024 6.32979 77.5124C7.46741 77.0995 8.42301 76.7096 8.42301 76.6178C8.40026 76.0214 7.96796 76.0214 6.14777 76.6178Z" fill="#0055A6"/>
<path d="M107.484 80.6077C107.302 81.0894 107.211 81.0206 109.555 82.0758C111.125 82.7639 111.625 83.108 111.671 83.475C111.785 84.1632 111.284 85.2643 110.806 85.4249C110.579 85.4937 109.464 85.1267 108.281 84.622C106.688 83.9338 106.119 83.7732 105.983 83.9797C105.892 84.1403 105.801 84.3467 105.801 84.4155C105.801 84.5073 106.825 84.989 108.076 85.5166C109.691 86.2048 110.511 86.4342 110.943 86.3195C111.603 86.1589 112.399 85.012 112.399 84.2091C112.399 83.9109 112.558 83.5209 112.74 83.3374C112.922 83.131 113.082 82.9016 113.082 82.8098C113.082 82.718 112.194 82.2363 111.102 81.7546C107.393 80.1259 107.621 80.2177 107.484 80.6077Z" fill="#0055A6"/>
<path d="M6.48897 83.5217C4.48676 84.3933 2.82583 85.1503 2.80308 85.1733C2.75757 85.1962 2.87134 85.4027 3.0306 85.5862C3.28088 85.9073 3.69042 85.7926 6.92126 84.3704C8.90072 83.5217 10.5616 82.7647 10.6071 82.7188C10.6527 82.6729 10.5616 82.4665 10.4024 82.2829C10.1521 81.9389 9.74256 82.0765 6.48897 83.5217Z" fill="#0055A6"/>
<path d="M25.7148 82.2612C25.7148 82.6282 28.1949 85.748 29.924 87.5831C35.6349 93.5931 43.0294 97.6304 51.425 99.3509C53.6775 99.8097 54.7014 99.8785 58.9333 99.8555C63.3473 99.8555 64.1209 99.7867 66.6919 99.2362C73.8361 97.7222 79.9338 94.6713 85.2351 89.9458C87.1918 88.2254 90.6957 84.234 91.5375 82.7888L91.947 82.1006L91.1962 82.1236C90.5364 82.1236 90.2861 82.353 88.8527 84.211C87.1235 86.4361 83.1874 90.3587 82.6413 90.3587C82.3683 90.3587 78.9327 88.5236 78.5231 88.1566C78.4776 88.1107 78.8872 87.4913 79.4332 86.8032C80.7529 85.1057 82.5731 82.4906 82.5958 82.2612C82.5958 82.1695 82.3 82.1006 81.936 82.1006C81.3899 82.1006 81.0714 82.3759 79.8883 83.9817C79.1374 85.0369 78.2046 86.2526 77.8406 86.6885C77.0897 87.5831 77.6585 87.6519 73.0626 86.0232C71.6519 85.5186 70.446 85.0598 70.4005 85.0139C70.3323 84.9451 70.5598 84.3257 70.8783 83.5917C71.1969 82.8576 71.4471 82.2383 71.4471 82.1924C71.4471 82.1465 71.1514 82.1006 70.8101 82.1006C70.264 82.1006 70.082 82.2842 69.5587 83.3852C68.9671 84.601 68.8989 84.6698 68.1935 84.5781C67.784 84.5093 65.9866 84.2799 64.1664 84.0734C58.9333 83.4311 59.3884 83.5458 59.3884 82.7888C59.3884 82.1695 59.3201 82.1006 58.6831 82.1006C58.0687 82.1006 57.9777 82.1695 58.0915 82.5824C58.319 83.477 58.046 83.7064 56.7491 83.7064C56.0665 83.7064 54.0188 83.9128 52.1986 84.1881C50.3557 84.4404 48.8313 84.624 48.8085 84.5781C48.7858 84.5322 48.49 83.9587 48.1487 83.2935C47.6254 82.2612 47.4661 82.1006 46.8746 82.1006H46.192L46.7608 83.3852C47.0793 84.0964 47.3296 84.8075 47.3296 84.9451C47.3296 85.1057 46.8518 85.358 46.2602 85.5186C45.6459 85.6562 44.1443 86.1838 42.8929 86.6885L40.6177 87.5831L39.571 86.4361C38.9795 85.7938 38.0011 84.5781 37.4096 83.7064C36.4312 82.3071 36.2037 82.1236 35.5439 82.1006H34.8158L35.4074 83.0641C35.7486 83.6146 36.727 84.968 37.5916 86.0691C38.4562 87.1931 39.116 88.1795 39.025 88.2483C38.9567 88.3401 38.0466 88.8906 37.0228 89.487C35.5666 90.3129 35.0888 90.4964 34.7475 90.3358C33.9285 89.877 29.5827 85.4727 28.3086 83.7981C27.2393 82.3759 26.898 82.1006 26.3747 82.1006C26.0106 82.1006 25.7148 82.1695 25.7148 82.2612ZM58.0687 88.5236C58.0915 90.4046 58.1142 92.2856 58.1142 92.6985C58.137 93.5243 57.773 93.6849 55.8162 93.8455L54.7469 93.9143L53.45 92.2168C52.7447 91.2763 51.5616 89.5329 50.8562 88.3401C49.5593 86.1379 49.5138 85.7938 50.5149 85.7709C50.697 85.748 51.7208 85.6103 52.7902 85.4498C53.8595 85.2662 55.475 85.1286 56.3851 85.1057L58.0232 85.0827L58.0687 88.5236ZM66.1686 85.6333C67.0787 85.7938 67.875 86.0003 67.9433 86.0691C68.2163 86.3214 65.1902 91.2304 63.4155 93.4326L62.8922 94.0749L61.2768 93.8225L59.6842 93.5473L59.5249 92.148C59.3429 90.3358 59.3429 87.5143 59.5476 86.115L59.6842 85.0139L62.0959 85.1745C63.4155 85.2662 65.2585 85.4727 66.1686 85.6333ZM48.9905 87.8813C49.4456 88.6842 50.5832 90.4505 51.516 91.8498C53.4045 94.6254 53.4045 94.6025 51.6753 95.1759C50.788 95.4742 50.7197 95.4512 49.0815 94.5107C46.5105 93.0197 41.869 89.3265 41.869 88.753C41.869 88.4089 46.7836 86.5279 47.8302 86.482C48.0577 86.4591 48.49 86.9867 48.9905 87.8813ZM72.7668 87.3537C74.2002 87.8354 75.4516 88.3401 75.5653 88.4548C76.0659 88.9594 70.9921 93.0885 67.6475 94.9466L66.7146 95.4742L65.668 95.0383C65.0992 94.786 64.6214 94.4878 64.6214 94.3731C64.6214 94.2354 65.213 93.3179 65.9411 92.2856C66.6464 91.2763 67.7613 89.5329 68.3756 88.4548C69.0126 87.3537 69.6725 86.4591 69.8545 86.4591C70.0365 86.4591 71.3561 86.872 72.7668 87.3537ZM78.4549 89.7623C79.0464 90.0835 79.911 90.5881 80.4116 90.8863L81.2989 91.4369L80.2296 92.1709C77.7268 93.9143 74.2912 95.5889 71.0831 96.6441C69.4222 97.1946 69.3312 97.1946 68.8079 96.8276C68.5121 96.6211 68.2846 96.3917 68.2846 96.3229C68.2846 96.2541 68.8306 95.8641 69.5132 95.4512C71.4244 94.2813 74.1774 92.1709 75.7928 90.6111C76.5892 89.8541 77.2717 89.2347 77.3173 89.2118C77.34 89.2118 77.8633 89.4641 78.4549 89.7623ZM42.5971 91.4139C43.8712 92.4921 45.919 94.0519 47.1703 94.9007L49.4001 96.4147L48.8768 96.8276C48.2625 97.2863 48.0122 97.2405 45.0544 96.1623C41.8918 94.9924 36.636 92.1021 36.636 91.5286C36.636 91.2534 39.571 89.4641 40.0033 89.4412C40.1626 89.4412 41.323 90.3358 42.5971 91.4139ZM62.0732 95.2906C63.8251 95.6577 67.1924 97.1487 67.2152 97.5846C67.2835 98.3874 57.2724 98.915 53.2907 98.2957C50.1509 97.8139 49.9461 97.6763 51.243 96.9193C54.2236 95.1759 58.3418 94.5566 62.0732 95.2906Z" fill="#0055A6"/>
<path d="M33.4026 111.094C32.1284 111.438 31.1046 112.08 31.2411 112.447C31.2866 112.608 31.4686 113.113 31.6279 113.571L31.9464 114.42L32.7428 113.915C33.3343 113.571 33.9259 113.434 34.8815 113.411C36.5196 113.411 37.0885 113.938 37.0885 115.475C37.0885 116.783 35.8371 118.48 33.0158 120.981C31.0363 122.747 30.9681 122.862 30.9453 123.779V124.766H35.7233H40.5013V123.504V122.242H37.9758H35.4275L37.2932 120.43C39.4092 118.343 40.2738 116.806 40.2738 115.062C40.2738 111.828 37.225 110.062 33.4026 111.094Z" fill="#0055A6"/>
<path d="M46.1224 111.001C45.0076 111.345 43.9609 112.331 43.3011 113.685C42.7096 114.923 42.6641 115.199 42.6641 117.882C42.6641 120.383 42.7323 120.887 43.1874 121.897C43.8472 123.342 44.4843 124.03 45.6219 124.558C48.3067 125.819 51.3327 124.259 52.2656 121.14C52.7661 119.419 52.7661 116.345 52.2656 114.625C51.401 111.712 48.8072 110.198 46.1224 111.001ZM48.7389 113.776C49.649 114.854 49.8538 119.488 49.0802 121.369C48.3522 123.113 46.896 123.113 46.1224 121.369C45.7356 120.497 45.6446 119.855 45.6446 117.997C45.6446 115.405 45.9632 114.212 46.805 113.524C47.4876 112.996 48.1474 113.088 48.7389 113.776Z" fill="#0055A6"/>
<path d="M57.5666 111.118C55.6327 111.99 54.4723 114.077 54.222 116.991C53.949 120.294 55.1549 123.436 57.0888 124.469C59.1365 125.547 61.7986 124.905 63.0727 123.047C64.2558 121.303 64.7336 117.862 64.1421 115.133C63.8463 113.71 62.7086 111.967 61.7075 111.393C60.7064 110.797 58.5905 110.659 57.5666 111.118ZM60.1376 113.527C60.934 114.169 61.207 115.27 61.207 117.885C61.207 120.454 60.9567 121.51 60.1831 122.244C59.7053 122.702 59.5006 122.748 59 122.565C57.8851 122.175 57.4756 121.051 57.3846 118.344C57.3163 115.5 57.7714 113.848 58.7042 113.366C59.4551 112.999 59.4551 112.999 60.1376 113.527Z" fill="#0055A6"/>
<path d="M69.556 111.002C68.4412 111.346 67.3945 112.333 66.7347 113.686C66.1432 114.925 66.0977 115.2 66.0977 117.884C66.0977 120.384 66.1659 120.889 66.621 121.898C67.2808 123.344 67.9178 124.032 69.0555 124.559C71.7858 125.821 74.7436 124.307 75.6992 121.164C76.2225 119.421 76.2225 116.37 75.6992 114.627C74.8346 111.713 72.2408 110.199 69.556 111.002ZM72.1725 113.778C72.7641 114.466 73.1054 116.622 72.9689 118.733C72.8324 120.958 72.3091 122.265 71.399 122.564C69.7153 123.16 68.5549 119.742 69.1692 116.026C69.6243 113.388 70.9667 112.379 72.1725 113.778Z" fill="#0055A6"/>
<path d="M81.0012 111.14C79.7953 111.668 78.7714 112.792 78.2709 114.122C76.8147 118.045 77.9296 123.091 80.5234 124.468C82.2981 125.408 84.8691 125.018 86.166 123.596C86.439 123.298 86.894 122.518 87.1898 121.899C87.6449 120.889 87.7131 120.385 87.7131 117.884C87.7131 115.361 87.6449 114.879 87.1671 113.801C86.0295 111.255 83.3674 110.108 81.0012 111.14ZM83.5722 113.526C84.3685 114.168 84.6416 115.269 84.6416 117.884C84.6416 120.453 84.3913 121.509 83.6177 122.243C83.1399 122.702 82.9351 122.747 82.4346 122.564C81.3425 122.174 80.9329 121.096 80.8419 118.366C80.7509 115.499 81.1832 113.847 82.1388 113.365C82.8896 112.998 82.8896 112.998 83.5722 113.526Z" fill="#0055A6"/>
</svg>
