<svg width="125" height="125" viewBox="0 0 125 125" fill="none" xmlns="http://www.w3.org/2000/svg">
<g clip-path="url(#clip0_4031_43053)">
<circle cx="62.5" cy="62.5" r="60.5" fill="white"/>
<circle cx="62.5" cy="62.5" r="40.5" fill="#CECFC9"/>
<path d="M96.9987 52.4908C96.3507 50.8924 95.0205 49.4648 93.4019 48.4375C88.7289 45.647 81.6074 45.4467 76.7931 47.9695C74.1669 49.2293 72.442 51.7222 71.9039 54.2861C70.9304 58.5014 71.181 63.5168 74.6336 66.676C78.6622 69.996 84.5219 70.7293 89.7337 69.3661C89.9805 69.3216 90.7661 69.1367 91.3079 68.8656L91.4615 68.804C93.0794 68.1713 94.6229 67.1409 95.7748 65.7454C98.4353 62.0899 98.6173 56.6086 96.9987 52.4908ZM88.5127 61.9571C88.3314 62.7554 87.7584 63.5853 86.857 63.8852C85.4204 64.4795 83.4793 64.3151 82.1491 63.6202C81.0343 62.8869 80.8909 61.6599 80.7468 60.4973C80.6376 58.207 80.462 55.7815 81.1443 53.6856C81.6794 52.3878 83.1539 52.0551 84.487 51.9578C85.8893 51.9578 87.2516 52.158 88.1181 53.2207C88.6568 53.9832 88.6226 54.9811 88.7289 55.8787C88.691 57.7715 88.8724 60.029 88.5127 61.9571Z" fill="white"/>
<path d="M45.9106 64.0245C44.7246 63.9567 43.3939 64.0539 42.2454 63.9218L42.2796 52.259L42.3517 52.1618L45.9106 52.1293C45.9485 50.2368 45.9827 48.2056 45.8731 46.4806L32.3224 46.4453L30.0908 46.4806C30.0563 48.2409 30.0563 50.2984 30.0908 52.094C31.3148 52.1293 32.4633 52.094 33.6498 52.1971V63.4918L33.6156 63.9567L30.0563 64.0245C29.9812 65.8814 29.9812 67.6773 30.0563 69.5054H45.9106V64.0245Z" fill="white"/>
<path d="M85.8184 71.9934C84.3098 74.0215 82.4037 75.9818 80.322 77.5066C80.247 77.6093 80.0307 77.5709 79.9623 77.4744C79.0602 76.9444 78.0904 76.5117 77.2261 75.9818C78.3779 74.687 79.4927 73.3915 80.3563 71.9578H79.2393C78.3437 73.1916 77.4082 74.4864 76.2214 75.5812C74.6377 74.9841 73.2012 74.4515 71.5826 74.0509L71.4042 73.9242C71.6547 73.2533 72.1207 72.6233 72.2648 71.9578H71.2943L70.3244 73.7531C68.2049 73.321 65.867 73.0882 63.71 72.956C63.6004 72.6589 63.7442 72.2262 63.6004 71.9578H62.6674C62.5924 72.3583 62.774 72.6589 62.5582 72.9917C60.3843 73.0763 58.2209 73.3213 56.0879 73.7243L55.1144 71.9578C54.7576 71.9578 54.3601 71.8934 54.1096 71.9934L55.0081 73.9537L54.9015 74.0509C53.2905 74.4898 51.7064 75.0116 50.1564 75.6141L50.0122 75.5463C48.998 74.5217 48.0718 73.4232 47.2421 72.2611C47.0634 71.6935 46.3437 72.0256 45.9494 71.9578C46.81 73.421 47.9619 74.7157 49.1109 76.0468C48.1403 76.5795 47.173 77.1738 46.162 77.6093C43.9629 76.0341 42.046 74.1382 40.4839 71.9934C40.0518 71.929 39.7671 71.9578 39.332 71.9934C41.9208 75.7818 45.9494 79.1019 50.1564 81.0628C50.1565 81.0585 50.1577 81.0542 50.1597 81.0502C50.1617 81.0463 50.1645 81.0428 50.1681 81.04C50.1716 81.0372 50.1757 81.035 50.1802 81.0338C50.1846 81.0325 50.1893 81.0322 50.1939 81.0327C50.2252 81.0327 50.2969 81.0944 50.2252 81.13C53.0673 82.4254 56.0879 83.3552 59.2868 83.7558C70.3244 85.1162 80.86 80.7 86.9703 71.9934C86.5873 71.9578 86.2015 71.9578 85.8184 71.9934ZM70.8283 74.9841L70.9345 74.9163C72.4511 75.2311 73.9237 75.7102 75.3229 76.344C74.171 77.5709 72.6966 78.637 71.3322 79.5319C70.5058 79.9967 69.6764 80.5 68.8122 80.8944L67.2693 80.2645L67.3756 80.0351C68.6599 78.4354 69.8141 76.747 70.8283 74.9841ZM63.7442 73.9859C65.7949 74.0215 67.8453 74.2214 69.7485 74.6514L69.7856 74.7513C68.7809 76.5438 67.5198 78.2748 66.1546 79.9002C65.5415 79.9673 64.9685 79.738 64.358 79.703L63.7442 79.6345C63.6725 77.6743 63.6346 75.9468 63.7442 73.9859ZM56.808 74.5836C58.6766 74.2515 60.6174 73.9859 62.6299 73.9859L62.6674 79.6058C61.9101 79.7674 61.0837 79.7674 60.3636 79.9379C58.9248 78.3265 57.672 76.576 56.6263 74.7157L56.808 74.5836ZM51.017 76.3796C52.424 75.7573 53.8929 75.2672 55.4023 74.9163L55.5494 74.9513C56.5888 76.7794 57.8844 78.5048 59.1776 80.2323C58.6766 80.5 58.0632 80.6616 57.5623 80.93C55.1309 79.8005 52.9184 78.2952 51.017 76.4767V76.3796ZM55.6561 82.0604C52.6352 81.3271 49.8306 80.0645 47.2421 78.3391V78.2364C48.106 77.7421 48.9699 77.2094 49.9027 76.8411C51.953 78.7403 54.0721 80.1673 56.3758 81.5271C56.1683 81.7404 55.9252 81.9206 55.6561 82.0604ZM68.9942 82.4897C65.1847 83.258 60.9396 83.2881 57.1301 82.4254C57.0584 82.2604 57.3085 82.2255 57.4181 82.1282C60.7612 80.1002 65.9733 80.1002 69.2476 82.2898C69.3539 82.4897 69.0655 82.4254 68.9942 82.4897ZM72.4461 81.5626L70.7562 82.0604C70.4679 81.9283 70.2174 81.7277 69.964 81.5271L70.0361 81.4271C72.3369 80.1673 74.4215 78.637 76.3997 76.8089C77.3768 77.1863 78.306 77.6651 79.1701 78.2364C77.1577 79.738 74.819 80.7301 72.4461 81.5626Z" fill="white"/>
<path d="M40.4136 43.918C41.3023 42.7602 42.275 41.6616 43.325 40.6301C44.2576 39.7999 45.1215 39.0022 46.1296 38.4018C47.0652 38.967 48.1078 39.4377 49.006 39.9677C47.8916 41.2569 46.743 42.5582 45.9133 43.9505C46.1638 44.0532 46.6335 44.021 46.9935 43.9505C47.8916 42.7229 48.8621 41.4925 50.014 40.3973C51.5572 40.9303 53.0691 41.4925 54.6527 41.8927L54.7936 42.0251L53.8955 43.9505C54.2931 44.021 54.5435 43.9858 54.9378 43.9505C55.2604 43.3881 55.5104 42.7582 55.8705 42.1902C57.9583 42.6257 60.1528 42.8553 62.3815 42.9201C62.6692 43.1556 62.4532 43.653 62.5599 43.9505H63.5302C63.6364 43.6236 63.4956 43.2528 63.6364 42.9584C65.7246 42.8553 67.9155 42.6551 69.9345 42.1902L70.1099 42.2254L71.0805 43.9505C71.406 43.9505 71.8348 44.021 72.0883 43.8828L71.1869 41.9605L71.2619 41.8927C72.9118 41.4925 74.4611 40.8951 76.0418 40.3004C77.1594 41.3952 78.1985 42.6907 79.1377 43.9505C79.5316 43.9505 79.9263 43.9858 80.2146 43.8828C79.7703 43.1408 79.2525 42.44 78.6681 41.7896C78.1919 41.1541 77.6621 40.5557 77.0838 40.0002V39.8294L79.6008 38.4696L79.9641 38.3371C82.1538 39.8946 84.0698 41.766 85.6419 43.8828C86.0736 43.8828 86.434 44.021 86.7937 43.8533C81.9737 37.0772 74.0286 32.7206 65.4399 32.0937L65.4021 32.1584L65.33 32.0937C64.2664 31.9833 63.194 31.9704 62.1278 32.0553C61.684 32.0353 61.2392 32.0481 60.7975 32.0937C52.1706 32.7206 44.2263 36.877 39.2617 43.9505C39.6218 43.918 40.0536 44.0532 40.4136 43.918ZM55.3353 40.9981L55.1912 41.0276C53.7293 40.6802 52.2986 40.2255 50.9125 39.6675L50.9813 39.4672C52.9595 37.7072 55.0441 36.2439 57.3449 35.1166C57.8862 35.3169 58.4247 35.4815 58.9631 35.7171L58.8568 35.9763C57.4887 37.5747 56.4122 39.2994 55.3353 40.9981ZM62.4878 41.8927C61.483 42.0251 60.5846 41.8633 59.5736 41.7896C58.6063 41.6575 57.3824 41.5603 56.4122 41.2569C57.4545 39.4377 58.6784 37.6747 60.1528 36.0499L62.4532 36.3443C62.5599 38.069 62.4878 40.0649 62.4878 41.8927ZM63.6022 41.9283C63.5302 40.1621 63.5676 38.2046 63.6022 36.3765C64.322 36.2796 65.1109 36.1766 65.8309 36.0793C67.2333 37.7366 68.6013 39.4377 69.537 41.2569C67.5935 41.6986 65.6016 41.924 63.6022 41.9283ZM75.0742 39.5997C73.6689 40.1621 72.2295 40.6948 70.6859 40.9981C69.5549 39.1939 68.3176 37.4505 66.9799 35.776C67.4837 35.5171 68.0975 35.3169 68.6356 35.0519C70.9771 36.1471 73.2401 37.7072 75.1433 39.4966L75.0742 39.5997ZM70.4697 33.9187C73.5043 34.6626 76.368 35.9237 78.9186 37.6394L78.8465 37.7718L76.3673 39.067H76.186C74.2827 37.2772 72.054 35.7171 69.7874 34.484C69.8595 34.2512 70.2192 34.0834 70.4697 33.9187ZM69.0331 33.586V33.6538C65.903 35.776 60.835 35.9763 57.5295 34.016C57.3449 33.8835 56.9881 33.8185 56.9506 33.586C60.7629 32.7589 65.255 32.6911 69.0331 33.586ZM47.0997 37.7072C49.3621 36.1626 51.876 34.9736 54.5435 34.1865C54.6527 34.0834 54.7219 33.9865 54.8657 33.9865V34.054C55.1537 34.1187 55.3699 33.8185 55.62 34.016C55.8363 34.1865 56.0897 34.3189 56.268 34.484C54.0393 35.776 51.8452 37.3066 49.8323 39.1642C48.8621 38.8373 47.9636 38.3371 47.0997 37.7718V37.7072Z" fill="white"/>
<path d="M62.5205 64.2815C59.1399 65.1469 55.4714 64.4875 53.0268 62.0919C52.7418 61.759 52.5605 61.3646 52.2721 61.0319L47.4205 61.0648C47.3454 63.7542 47.3109 66.845 47.4205 69.5036L52.8106 69.4714L52.8826 67.8761C53.4961 68.1404 54.1066 68.4732 54.7171 68.7703C58.4574 70.2335 63.2719 70.5663 66.9751 68.7703C69.6734 67.3783 71.1129 64.6882 70.7153 61.7912C70.3214 58.971 67.4447 56.4106 64.5334 55.716L55.8315 53.3551L55.1864 53.0549C54.8984 52.8252 54.7171 52.528 54.7888 52.16C55.4714 51.0648 57.0554 51.3976 58.2415 51.427C60.7581 51.7598 63.3469 52.5575 64.8213 54.718C66.4021 54.718 68.2361 54.7475 69.961 54.6828C70.0331 51.9597 69.9297 49.5698 69.8889 46.8115C68.2711 46.7763 66.2929 46.7763 64.6772 46.8468C64.6051 47.2412 64.7463 47.8036 64.5676 48.2038L62.9148 47.3737C58.9583 45.8136 53.4211 45.6489 49.8276 48.0745C47.4893 49.6667 46.7724 52.528 47.383 55.0504C47.8493 57.4407 50.2939 59.201 52.6322 60.0309C55.8315 61.0935 59.1745 61.8617 62.4142 62.8888C62.7364 63.0244 63.1652 63.3249 63.0965 63.6899C63.0965 63.9843 62.771 64.1555 62.5205 64.2815Z" fill="white"/>
<path d="M59.3829 0.777069C59.0889 0.800583 58.1364 0.87114 57.2662 0.941696C45.4482 1.89419 33.5597 6.64489 24.1641 14.1708C13.4633 22.755 5.98446 34.4083 2.70365 47.6374C-2.57622 69.0038 3.85605 91.4991 19.6486 106.833C33.1011 119.897 51.5395 126.106 70.1072 123.813C78.0564 122.837 86.182 120.133 93.1317 116.146C96.142 114.429 99.8697 111.795 102.657 109.408C104.397 107.927 107.807 104.516 109.289 102.776C111.688 99.9657 114.298 96.2851 116.062 93.1924C117.12 91.358 119.096 87.254 119.86 85.3138C122 79.8928 123.329 74.3777 123.964 68.3218C124.058 67.381 124.117 65.2644 124.117 62.501C124.117 59.7376 124.058 57.6209 123.964 56.6802C123.153 48.9309 121.271 42.2752 118.014 35.5725C114.851 29.0696 111.182 23.9309 106.067 18.8156C102.798 15.5466 99.9755 13.2418 96.2243 10.7724C87.9106 5.32787 78.7267 2.08234 68.555 1.00049C66.9675 0.824104 60.6176 0.671234 59.3829 0.777069ZM68.1434 2.41159C82.2192 3.76389 95.0719 9.81987 105.067 19.8152C118.355 33.103 124.611 51.4121 122.283 70.2032C120.66 83.2794 114.545 95.7089 105.067 105.187C95.8716 114.382 84.0418 120.344 71.2596 122.226C65.8386 123.025 59.277 123.025 53.856 122.226C38.8749 120.027 25.293 112.242 15.6858 100.365C12.7695 96.7437 10.4882 93.1336 8.33629 88.7239C5.32595 82.5504 3.56207 76.4591 2.68013 69.2037C2.45671 67.3575 2.42143 66.5108 2.42143 62.501C2.42143 57.5503 2.55078 55.9393 3.23281 51.9765C4.71447 43.4393 8.23046 35.0315 13.3339 27.7526C19.1783 19.4271 27.2803 12.5598 36.6053 8.05599C43.555 4.69287 51.0338 2.75261 59.0301 2.23521C61.1585 2.09409 65.8151 2.18816 68.1434 2.41159Z" fill="#075392"/>
<path d="M60.8635 8.068C60.8282 8.37374 60.793 9.87892 60.793 11.4194V14.2298H61.2516H61.6984L61.769 13.2538C61.816 12.7246 61.8513 11.5722 61.8631 10.7021L61.8748 9.11457L62.1453 9.93771C62.2981 10.3846 62.6744 11.537 62.9684 12.4895L63.5093 14.2298H63.9562H64.3913L65.0851 12.2543C65.4731 11.1724 65.8729 10.0553 65.9905 9.76132L66.2139 9.23216L66.1669 11.7133L66.1199 14.2063L66.5902 14.2768C66.8489 14.3239 67.0724 14.3356 67.0959 14.3239C67.1194 14.3004 67.1664 12.7834 67.2135 10.9608L67.2958 7.64467H66.5314H65.7553L64.9087 10.1729C64.4383 11.5722 64.0267 12.6776 63.9915 12.6423C63.9562 12.607 63.5799 11.4546 63.1566 10.0788L62.3805 7.58588L61.6631 7.5506L60.9458 7.51532L60.8635 8.068Z" fill="#075392"/>
<path d="M50.9982 9.13771C50.716 9.18474 50.6689 9.23178 50.7277 9.44345C50.7748 9.58456 50.8336 9.92557 50.8688 10.196C50.9394 10.6429 50.9276 10.6899 50.6689 10.7252C50.4455 10.7487 50.3867 10.831 50.3867 11.1132C50.3867 11.4307 50.422 11.466 50.7748 11.4543C50.9747 11.4425 51.1511 11.4543 51.1511 11.4778C51.1511 11.5013 51.3039 12.2421 51.5038 13.1241C51.9272 15.0761 52.0212 15.2172 52.8914 15.1466C53.6205 15.0761 53.7969 14.9467 53.691 14.5234C53.6205 14.2529 53.5617 14.2059 53.256 14.2529C53.0678 14.2882 52.8561 14.2412 52.7973 14.1706C52.7386 14.0883 52.5739 13.5121 52.4446 12.8654C52.3152 12.2304 52.1859 11.5836 52.1506 11.4543C52.1036 11.2426 52.1624 11.1838 52.5034 11.125C52.7973 11.0662 52.9149 10.9839 52.9149 10.8193C52.9149 10.3489 52.8091 10.2548 52.374 10.3489C51.9154 10.4547 51.9272 10.4665 51.7743 9.64335C51.6685 9.09067 51.5979 9.04363 50.9982 9.13771Z" fill="#075392"/>
<path d="M48.6807 9.2779C48.3632 9.37198 48.3514 9.40725 48.4925 9.97169C48.5631 10.2539 48.6336 10.348 48.7748 10.3009C49.5391 10.0893 49.5273 10.1128 49.4333 9.72475C49.3157 9.12503 49.2922 9.11327 48.6807 9.2779Z" fill="#075392"/>
<path d="M56.4891 9.73779C56.4185 9.78483 56.2421 10.5374 56.0893 11.4076C55.9482 12.2778 55.807 13.0892 55.7835 13.195C55.7365 13.3361 55.4307 12.8069 54.9016 11.7486L54.0784 10.0788L53.6081 10.1494C53.3494 10.1846 53.1142 10.2317 53.0789 10.2552C53.0554 10.2787 53.561 11.3018 54.196 12.5365C55.1485 14.3474 55.3484 14.8295 55.3014 15.1117C55.2073 15.6056 54.9369 15.8761 54.5253 15.8761C54.2666 15.8761 54.196 15.9231 54.2548 16.0642C54.2901 16.1701 54.3254 16.3464 54.3254 16.4758C54.3254 16.6522 54.4077 16.6992 54.7252 16.6992C55.3249 16.6992 55.713 16.5111 55.9599 16.0995C56.101 15.8761 56.395 14.6414 56.736 12.8892C57.03 11.337 57.3005 9.96121 57.3357 9.84362C57.3828 9.67899 57.324 9.64372 57.0065 9.64372C56.7948 9.64372 56.5596 9.69075 56.4891 9.73779Z" fill="#075392"/>
<path d="M69.6138 10.0919C69.1905 10.3036 68.7201 10.9621 68.8495 11.1738C68.9906 11.3972 69.6256 11.3031 69.9901 10.9974C70.3899 10.6564 70.6369 10.6328 71.2013 10.868C71.5306 11.0091 71.6129 11.1032 71.6129 11.3737C71.6129 11.9028 71.4247 11.9969 70.4134 11.9969C68.92 11.9969 68.3203 12.4202 68.3203 13.4903C68.3203 14.0195 68.5555 14.3958 69.0259 14.6427C69.4139 14.8426 70.3899 14.8779 70.8485 14.7015C71.119 14.5957 71.2013 14.6192 71.4012 14.8779C71.5776 15.1013 71.7422 15.1719 72.0832 15.1719C72.4713 15.1719 72.5301 15.1366 72.5889 14.8544C72.6477 14.5486 72.5654 14.4193 72.2832 14.3135C72.2244 14.3017 72.2596 13.7137 72.3655 13.0199C72.6477 11.162 72.6242 10.868 72.2008 10.4682C71.6011 9.90377 70.3429 9.71562 69.6138 10.0919ZM71.3777 13.0787C71.2131 13.9607 70.4958 14.337 69.7314 13.9372C69.3316 13.7373 69.2023 13.3962 69.3786 13.0552C69.5197 12.7965 69.7432 12.726 70.6134 12.6672C70.9426 12.6437 71.2601 12.6201 71.3307 12.6084C71.4247 12.5966 71.4365 12.7377 71.3777 13.0787Z" fill="#075392"/>
<path d="M74.1404 10.8447C74.1052 10.927 73.8582 11.9618 73.5642 13.1378L73.0586 15.2897L73.4819 15.4073C73.7053 15.4661 73.9288 15.4778 73.9758 15.4308C74.0228 15.3838 74.1992 14.7135 74.3874 13.9374C74.6696 12.7497 74.7872 12.4675 75.0929 12.1382C75.528 11.7031 75.9161 11.6561 76.3629 12.0089C76.7627 12.3264 76.751 12.5968 76.3041 14.4195C76.0925 15.2662 75.9749 15.9364 76.0337 15.9952C76.0925 16.0423 76.3041 16.1246 76.4923 16.1599L76.8568 16.2422L77.3037 14.4078C77.6094 13.173 77.727 12.4557 77.6799 12.1853C77.5036 11.2445 76.1865 10.7389 75.3046 11.2798L74.9518 11.4915L74.9989 11.174C75.0341 10.9153 74.9871 10.8447 74.7637 10.7859C74.3521 10.6683 74.1992 10.6919 74.1404 10.8447Z" fill="#075392"/>
<path d="M49.1737 11.0682C48.8797 11.1506 48.7974 11.2329 48.8444 11.3857C48.8797 11.4916 49.1501 12.5029 49.4324 13.6317C49.7263 14.7489 49.985 15.6896 50.0203 15.7249C50.1026 15.8072 50.914 15.6308 50.914 15.525C50.914 15.4426 49.938 11.6444 49.7851 11.1388C49.7146 10.9154 49.7146 10.9154 49.1737 11.0682Z" fill="#075392"/>
<path d="M47.7996 11.2796C47.4821 11.409 47.1999 11.7382 47.0235 12.1733L46.8824 12.5261L46.7766 12.138C46.7178 11.9381 46.659 11.7617 46.6355 11.7617C46.4356 11.7617 45.8594 12.044 45.8594 12.1498C45.8594 12.2792 47.1529 16.5007 47.2117 16.5595C47.2822 16.63 48.0936 16.3361 48.0936 16.242C48.0936 16.195 47.9407 15.654 47.7408 15.0543C47.1882 13.2787 47.294 12.5143 48.1407 12.2321L48.5522 12.1028L48.3994 11.6794C48.2347 11.1973 48.1524 11.1385 47.7996 11.2796Z" fill="#075392"/>
<path d="M44.2242 12.5246C44.0008 12.6304 43.8597 12.7597 43.895 12.8421C44.4829 14.2767 45.0356 15.7819 45.0356 15.9347C45.0356 16.7696 43.9538 17.2635 43.4246 16.6638C43.2953 16.5227 42.966 15.8171 42.6838 15.1116C41.9665 13.2889 42.037 13.383 41.649 13.5476C41.4726 13.6299 41.2844 13.724 41.2256 13.771C41.1668 13.8181 41.355 14.4295 41.6255 15.1351C42.6485 17.6868 42.8602 17.9455 43.8597 17.8515C44.5535 17.7809 45.0239 17.4987 45.1885 17.0401C45.3413 16.6403 45.4589 16.605 45.5413 16.9343C45.6001 17.1459 45.6353 17.1577 45.9411 17.0283C46.1175 16.9578 46.3174 16.8519 46.3762 16.8049C46.4702 16.7226 44.8239 12.3482 44.6946 12.3482C44.6593 12.3599 44.4477 12.4305 44.2242 12.5246Z" fill="#075392"/>
<path d="M79.5397 12.5142C79.1987 12.667 78.7871 13.1021 78.7871 13.302C78.7871 13.3491 78.9753 13.4549 79.2104 13.5254C79.5515 13.643 79.6573 13.6313 79.8219 13.5019C80.1629 13.2079 80.4216 13.1727 80.9155 13.3608C81.527 13.6078 81.6916 13.9135 81.4329 14.3133C81.2565 14.5838 81.1742 14.6073 80.7391 14.5367C80.4804 14.5015 79.9042 14.4309 79.4809 14.3956C78.7401 14.3251 78.693 14.3368 78.3167 14.6661C78.011 14.9483 77.9287 15.1129 77.8817 15.5951C77.8346 16.0654 77.8699 16.2301 78.0816 16.5005C78.4814 17.0062 78.987 17.2061 79.8219 17.2061C80.3158 17.2061 80.551 17.2413 80.551 17.3472C80.551 17.5588 80.9273 17.8411 81.3271 17.9234C81.6563 17.9939 81.7034 17.9704 81.7739 17.6882C81.8327 17.4765 81.7975 17.3119 81.6916 17.1943C81.5388 17.0414 81.574 16.8415 82.0209 15.5363C82.3501 14.5838 82.5148 13.937 82.4677 13.7489C82.3501 13.2785 81.7269 12.7141 81.0919 12.5259C80.3746 12.3142 80.0101 12.3142 79.5397 12.5142ZM80.8802 15.207C81.1389 15.2188 80.9743 15.9126 80.6098 16.2653C80.304 16.5828 79.4809 16.524 79.0928 16.1713C78.7166 15.8302 78.7048 15.6068 79.0341 15.2776C79.2575 15.0541 79.3633 15.0306 80.0101 15.1129C80.3981 15.16 80.7979 15.1952 80.8802 15.207Z" fill="#075392"/>
<path d="M84.3839 14.4066C83.3843 14.7594 82.6318 15.9588 82.62 17.1936C82.6082 17.9461 82.8199 18.3342 83.5019 18.7928C83.9017 19.075 84.4897 19.0985 85.0659 18.8634C85.2776 18.781 85.2658 18.8163 85.0071 19.2867C84.8542 19.5689 84.5838 19.8982 84.4074 20.0275C84.1017 20.2627 84.0781 20.2627 83.5607 20.0628C82.9963 19.8511 82.667 19.4983 82.667 19.1456C82.667 18.9104 82.0203 18.5341 81.8321 18.6517C81.644 18.7693 81.7851 19.6159 82.0556 19.9805C82.3378 20.3685 83.2785 20.8859 83.8665 20.98C84.4544 21.0741 85.2423 20.7448 85.5715 20.2745C85.7009 20.0863 86.2653 18.9574 86.818 17.758L87.8293 15.5825L87.453 15.3826C86.9591 15.1239 86.9356 15.1239 86.8298 15.4297C86.7475 15.6884 86.7357 15.6884 86.5946 15.3474C86.4064 14.9005 86.0066 14.536 85.501 14.3596C85.0071 14.195 84.9483 14.2067 84.3839 14.4066ZM85.8538 15.512C86.2771 15.9353 86.3124 16.5115 85.9478 17.2523C85.3952 18.3812 84.3721 18.687 83.7606 17.8873C83.5372 17.6051 83.5842 16.7467 83.8429 16.2411C84.3721 15.1945 85.2305 14.8888 85.8538 15.512Z" fill="#075392"/>
<path d="M38.2027 15.0296C37.0033 15.6528 36.7328 16.8876 37.4737 18.3339C38.2262 19.8156 39.8137 20.1801 40.9779 19.1453C41.4718 18.722 41.6717 18.134 41.5659 17.452C41.4835 16.8876 41.4247 16.8523 40.9191 17.111C40.6251 17.2639 40.5898 17.3344 40.6486 17.6872C40.731 18.1811 40.5428 18.5221 40.0842 18.769C39.4257 19.0983 38.7201 18.6867 38.2615 17.7107C37.8735 16.8876 37.897 16.4172 38.3203 15.9821C38.7201 15.594 39.2258 15.5353 39.7314 15.8292C40.0254 16.0056 40.0842 16.0056 40.4252 15.8292C40.7545 15.6528 40.7897 15.6058 40.6486 15.3941C40.4605 15.0884 39.6491 14.7004 39.1905 14.7004C38.9906 14.7004 38.5437 14.8415 38.2027 15.0296Z" fill="#075392"/>
<path d="M88.8281 17.0387C87.8403 17.4855 87.0407 18.8731 87.17 19.9432C87.2406 20.5664 87.4522 20.9192 88.0402 21.3661C88.4047 21.6483 88.5694 21.6953 89.2396 21.6953C89.8746 21.6953 90.0863 21.6365 90.4038 21.4131L90.8036 21.1309L90.4273 20.8957C90.1216 20.7075 90.0157 20.684 89.7688 20.8016C88.9457 21.1779 88.0755 20.6605 88.0755 19.7903C88.0755 19.5316 88.146 19.2376 88.2283 19.1318C88.3577 18.9672 88.5106 19.026 89.7218 19.7668C91.0741 20.5782 91.0741 20.5782 91.274 20.3312C91.7679 19.7433 91.8502 18.6144 91.4504 17.8736C90.9565 16.9328 89.8394 16.5801 88.8281 17.0387ZM90.4156 17.9441C90.7213 18.1911 90.7801 18.3322 90.7801 18.732C90.7801 19.0025 90.733 19.2847 90.686 19.3552C90.639 19.4376 90.2627 19.2729 89.6277 18.8966C88.6634 18.3322 88.6517 18.3204 88.8633 18.0852C89.3219 17.5678 89.9099 17.5208 90.4156 17.9441Z" fill="#075392"/>
<path d="M34.1845 17.3102C33.1732 17.5806 32.5617 18.7095 32.8086 19.8384C33.2437 21.7669 35.2193 22.7312 36.5598 21.6728C37.0772 21.2495 37.3947 20.6615 37.3947 20.1089C37.3947 19.4503 37.2536 19.3328 36.8185 19.5915C36.5128 19.7678 36.454 19.8854 36.454 20.2382C36.454 20.5792 36.3717 20.7439 36.0894 20.979C35.8895 21.1437 35.5838 21.2848 35.4074 21.2848C35.0782 21.2848 34.3256 20.8614 34.255 20.6263C34.2315 20.5557 34.8195 20.1206 35.572 19.6502C36.3129 19.1799 36.9243 18.7448 36.9243 18.686C36.9243 18.6272 36.7362 18.3803 36.5128 18.1216C35.8425 17.3807 35.0076 17.0867 34.1845 17.3102ZM35.4544 18.392L35.7955 18.6742L34.937 19.2269C33.8082 19.956 33.7023 19.956 33.6553 19.274C33.6318 18.8271 33.6671 18.686 33.9375 18.4273C34.3491 18.0157 34.9606 18.004 35.4544 18.392Z" fill="#075392"/>
<path d="M28.3974 19.0406C26.7629 19.7814 26.3043 21.6041 27.5037 22.6153C28.0682 23.0857 28.7267 23.0504 30.1378 22.4625C30.7492 22.2038 31.349 21.9921 31.4548 21.9921C31.5606 21.9921 31.7723 22.1215 31.9252 22.2861C32.5131 22.8623 32.2074 23.756 31.2549 24.2381C30.7022 24.5203 30.1966 24.4733 29.8085 24.1088L29.5498 23.8736L29.1265 24.2028L28.7031 24.5438L29.0206 24.8378C29.491 25.2847 29.8438 25.4258 30.4435 25.4258C31.1373 25.4258 31.7135 25.1788 32.3367 24.6144C32.9012 24.1205 33.2775 23.415 33.2775 22.874C33.2775 22.3449 32.8894 21.5923 32.4661 21.2866C31.8193 20.8279 31.349 20.8515 29.9967 21.3924C28.6444 21.9333 28.468 21.9568 28.0917 21.6628C27.492 21.169 27.9858 20.1459 28.9501 19.8519C29.3499 19.7343 29.444 19.7461 29.7497 19.9813L30.1025 20.24L30.5141 19.9225C30.9139 19.6168 30.9256 19.605 30.7257 19.3816C30.1966 18.7936 29.2441 18.6525 28.3974 19.0406Z" fill="#075392"/>
<path d="M92.2862 21.0155C91.4866 22.0268 90.8398 22.8852 90.8398 22.9087C90.8398 22.944 91.0045 23.0851 91.2044 23.238L91.5689 23.5202L92.5449 22.2855C93.7444 20.745 94.203 20.4628 94.838 20.8862C95.4494 21.286 95.3436 21.5799 93.9913 23.3085L92.9683 24.6138L93.3093 24.8843C93.5092 25.0371 93.6973 25.1547 93.7444 25.1312C93.7796 25.1195 94.2618 24.555 94.8027 23.873C95.3318 23.2027 95.9198 22.5677 96.0962 22.4736C96.3784 22.309 96.449 22.309 96.8253 22.4972C97.3544 22.7441 97.472 23.1439 97.178 23.6378C97.0487 23.8259 96.543 24.5197 96.0374 25.1547L95.1319 26.3307L95.4965 26.6011C95.6964 26.754 95.8963 26.8481 95.9316 26.8245C95.9786 26.801 96.5195 26.1307 97.1545 25.3311C98.2834 23.8847 98.5186 23.4144 98.3657 22.9087C98.154 22.2267 97.2251 21.6623 96.5313 21.8034C96.2138 21.8622 96.1903 21.8504 96.1903 21.4741C96.1903 20.7215 95.2143 19.9689 94.4734 20.1571C94.1677 20.2394 94.1089 20.1218 94.3323 19.8984C94.4264 19.8043 94.4264 19.722 94.3088 19.5809C93.862 19.04 93.8149 19.0752 92.2862 21.0155Z" fill="#075392"/>
<path d="M59.8515 20.6498C51.62 21.3671 44.7527 23.7895 38.5203 28.1521C28.4427 35.2194 22.0575 46.2025 20.7993 58.6201C20.6346 60.2899 20.6346 64.7114 20.7993 66.3812C21.8223 76.5058 26.1967 85.6192 33.3463 92.5454C40.1901 99.1775 48.5509 103.082 58.264 104.21C59.9338 104.399 65.1784 104.399 66.8482 104.21C72.3397 103.575 77.1374 102.141 81.8058 99.7184C93.0358 93.9094 101.02 83.3732 103.584 71.0026C104.242 67.8393 104.36 66.4988 104.36 62.5007C104.36 58.5026 104.242 57.162 103.584 53.9988C101.514 44.0035 95.9051 35.1606 87.756 29.0223C81.7588 24.5185 75.0208 21.8139 67.3773 20.8615C66.0721 20.6968 60.9451 20.5557 59.8515 20.6498ZM67.3538 22.4019C75.3736 23.4249 82.4643 26.5059 88.485 31.5741C90.2254 33.0322 93.0711 35.972 94.3529 37.63C98.7861 43.3685 101.467 49.6597 102.549 56.9151C102.867 58.9612 102.984 63.8883 102.784 66.0519C102.043 73.9306 99.2094 81.0919 94.3529 87.3713C93.0476 89.0646 90.2019 91.9809 88.4262 93.4743C82.288 98.6131 75.0913 101.682 66.8482 102.67C65.1666 102.882 59.9573 102.882 58.3228 102.682C50.2442 101.682 43.4239 98.8835 37.3914 94.0623C24.1624 83.5026 18.9178 65.9226 24.2212 49.8596C28.5485 36.7246 39.2964 26.7175 52.6784 23.3544C54.9832 22.7664 57.1233 22.4254 59.9691 22.1785C61.1332 22.0726 65.978 22.2255 67.3538 22.4019Z" fill="#075392"/>
<path d="M98.9159 25.2955C97.9869 25.7541 97.2461 26.8713 97.2461 27.8002C97.2461 28.9879 98.6572 30.0698 99.7978 29.764C100.433 29.5876 100.48 29.4936 100.115 29.1525C99.8919 28.9409 99.7155 28.8821 99.351 28.9174C98.9512 28.9409 98.7983 28.8938 98.5278 28.6234C98.1045 28.2236 98.0575 27.471 98.4103 27.0359L98.6454 26.7537L99.8331 27.9296L101.021 29.1055L101.362 28.6939C102.679 27.1182 101.903 25.0486 99.986 25.0486C99.645 25.0486 99.2216 25.1427 98.9159 25.2955ZM100.821 26.1775C101.185 26.542 101.232 27.1888 100.938 27.6239L100.739 27.8943L99.9272 27.0829L99.1158 26.2833L99.3745 26.0716C99.7626 25.7659 100.445 25.8129 100.821 26.1775Z" fill="#075392"/>
<path d="M23.7758 25.5284C23.282 25.8459 23.0468 26.3162 23.0468 26.9395C23.0468 27.4098 23.035 27.4216 22.8351 27.2452C22.5411 26.9747 22.4353 26.9983 22.1766 27.3628L21.9414 27.6685L23.4113 29.0679C24.2109 29.8322 25.0106 30.5613 25.1752 30.6906L25.4809 30.9141L25.7514 30.5495L26.0218 30.185L24.8459 29.0444C23.5524 27.7979 23.3643 27.4451 23.6818 26.8336C23.7758 26.6455 23.9522 26.4573 24.0463 26.4103C24.5402 26.2222 24.8224 26.3515 25.7161 27.1864C26.2217 27.6568 26.8097 28.1977 27.0214 28.3858L27.3977 28.7386L27.7504 28.3976L28.1032 28.0448L26.7039 26.7513C25.9395 26.0458 25.2105 25.4343 25.0929 25.3873C24.6813 25.2226 24.1639 25.2814 23.7758 25.5284Z" fill="#075392"/>
<path d="M101.822 29.5974C100.822 30.4088 99.9991 31.1026 99.9874 31.1378C99.9639 31.1849 100.081 31.373 100.234 31.5612L100.505 31.914L101.751 30.9262C102.433 30.3735 103.139 29.8914 103.315 29.8443C103.774 29.7267 104.35 29.9972 104.526 30.4441C104.738 30.9497 104.573 31.1849 103.068 32.3608C102.398 32.9017 101.845 33.3838 101.845 33.4544C101.845 33.5132 101.963 33.7131 102.104 33.8895L102.374 34.2188L103.739 33.1016C104.491 32.4902 105.22 31.8434 105.35 31.6788C105.973 30.8791 105.338 29.5386 104.232 29.3269C103.844 29.2564 103.833 29.2446 104.021 29.033C104.197 28.833 104.197 28.7978 103.927 28.4803L103.633 28.1393L101.822 29.5974Z" fill="#075392"/>
<path d="M20.5184 29.4935C18.9427 30.2461 18.731 32.0806 20.0716 33.2918C21.4121 34.503 23.1642 34.3148 23.9168 32.8684C24.1991 32.3275 24.2108 31.4808 23.9521 30.9752C23.2818 29.6817 21.6238 28.9761 20.5184 29.4935ZM22.3293 30.6224C22.9173 31.034 23.3524 31.8219 23.2348 32.2687C23.1878 32.4451 23.0231 32.7273 22.8585 32.8919C22.0589 33.6916 20.1069 32.5744 20.1069 31.3045C20.1069 31.0222 20.2127 30.8106 20.4596 30.5519C20.7889 30.2344 20.883 30.1991 21.3533 30.2579C21.6473 30.2814 22.0706 30.446 22.3293 30.6224Z" fill="#075392"/>
<path d="M107.373 31.9019L106.867 32.2782L106.691 32.0078C106.467 31.6903 106.279 31.6785 106.009 31.9842C105.809 32.2077 105.809 32.2312 106.009 32.4546C106.268 32.7368 106.326 32.6663 104.892 33.6658C103.41 34.6888 103.198 34.9123 103.293 35.4179C103.328 35.6413 103.504 35.9824 103.692 36.194L104.01 36.5703L104.304 36.3469C104.563 36.1352 104.574 36.0882 104.433 35.8295C104.339 35.6649 104.304 35.4532 104.339 35.3591C104.398 35.2062 106.55 33.6305 106.714 33.6305C106.75 33.6305 106.903 33.7716 107.055 33.9363C107.314 34.242 107.326 34.242 107.632 34.0421L107.949 33.8422L107.69 33.4777L107.432 33.1131L107.761 32.8779C107.949 32.7368 108.208 32.5487 108.337 32.4428L108.572 32.2547L108.314 31.8784C108.173 31.6785 108.02 31.5139 107.973 31.5256C107.926 31.5256 107.655 31.702 107.373 31.9019Z" fill="#075392"/>
<path d="M16.0633 32.2449L15.8398 32.6094L16.1809 32.8916C16.5924 33.2209 16.6395 33.2091 16.9452 32.727L17.1804 32.3625L16.7806 32.1155C16.5572 31.9744 16.3572 31.8686 16.322 31.8686C16.2985 31.8686 16.1809 32.0332 16.0633 32.2449Z" fill="#075392"/>
<path d="M17.5905 33.22C17.4847 33.3729 17.4023 33.5493 17.4023 33.6198C17.4023 33.6786 18.2843 34.2901 19.3544 34.9956L21.3181 36.2656L21.5886 35.9128C21.7415 35.7247 21.8708 35.5483 21.8708 35.513C21.8591 35.419 18.0491 32.926 17.908 32.926C17.8374 32.926 17.6963 33.0554 17.5905 33.22Z" fill="#075392"/>
<path d="M15.0051 34.6303C14.8757 34.8537 14.8052 35.0654 14.8287 35.0771C14.8522 35.1007 15.1227 35.2653 15.4284 35.4652C15.9811 35.7944 15.9811 35.8062 15.793 36.0884C15.6166 36.3589 15.6166 36.3942 15.8753 36.5941C16.1457 36.8175 16.3456 36.8645 16.3456 36.7117C16.3456 36.6646 16.4279 36.5353 16.5103 36.4177C16.6631 36.2178 16.7572 36.2531 18.0154 37.0292C18.7445 37.476 19.4853 37.8876 19.6735 37.9229C20.0968 38.0287 20.5084 37.7582 20.8141 37.1585L21.0493 36.6999L20.7553 36.5C20.4731 36.3118 20.4496 36.3118 20.1674 36.6176C19.8263 36.9821 19.8381 36.9821 18.3094 36.0531L17.1688 35.3594L17.4157 34.9713L17.6509 34.5833L17.2981 34.3951C16.9454 34.2187 16.9336 34.2305 16.7337 34.5362C16.6279 34.7244 16.522 34.889 16.4985 34.9125C16.4867 34.936 16.2163 34.7832 15.8988 34.5833C15.5813 34.3833 15.2991 34.2187 15.2755 34.2187C15.252 34.2187 15.1227 34.4069 15.0051 34.6303Z" fill="#075392"/>
<path d="M109.877 36.23C109.313 36.3947 108.807 36.9356 108.701 37.4648C108.642 37.7705 108.689 38.2879 108.83 38.9817C109.113 40.381 109.101 40.675 108.783 40.9455C108.478 41.1924 107.866 41.2159 107.584 41.0043C107.208 40.7221 106.89 40.0518 106.89 39.5461C106.89 39.1581 106.972 38.9582 107.231 38.6642L107.572 38.2761L107.337 37.8293C107.125 37.406 107.102 37.3824 106.855 37.5471C106.714 37.6411 106.443 37.9116 106.243 38.1586C105.926 38.5466 105.891 38.676 105.891 39.3697C105.902 41.2277 107.431 42.6035 108.924 42.1096C109.454 41.9332 110.03 41.2865 110.124 40.7808C110.171 40.5574 110.1 39.9224 109.959 39.2757C109.654 37.8763 109.654 37.794 110.006 37.453C110.383 37.0649 110.771 37.0767 111.147 37.4765C111.77 38.135 111.853 38.7348 111.394 39.2757C111.1 39.6402 111.088 39.652 111.276 40.0518C111.523 40.5574 111.711 40.5574 112.158 40.04C113.511 38.5113 111.794 35.6538 109.877 36.23Z" fill="#075392"/>
<path d="M15.0856 37.8054C14.4035 38.0993 13.7685 39.4281 13.9214 40.2513C13.992 40.6393 14.4623 41.2743 14.674 41.2743C14.721 41.2743 14.8621 41.0979 14.968 40.8745C15.1326 40.5217 15.1326 40.4512 14.9797 40.3336C14.8857 40.2513 14.8151 39.9808 14.8151 39.7221C14.8151 39.3693 14.8974 39.1812 15.1561 38.9107C15.5677 38.5109 15.7558 38.4874 16.0498 38.8049C16.2497 39.0165 16.238 39.0753 15.9322 40.1572C15.6265 41.2625 15.6147 41.2743 15.8382 41.7094C16.1086 42.2621 16.7789 42.6266 17.3316 42.5208C18.1194 42.3679 18.8015 41.2508 18.6721 40.3336C18.6251 40.0278 18.6604 39.9808 18.8955 39.9808C19.166 39.9808 19.4247 39.6751 19.5658 39.2047C19.6599 38.8754 19.1542 38.6167 18.8132 38.8284C18.6251 38.946 18.3781 38.8754 17.2022 38.2992C16.4379 37.9347 15.7323 37.629 15.6383 37.629C15.5442 37.6407 15.2972 37.7113 15.0856 37.8054ZM17.4844 39.4987C17.9078 39.7691 18.0371 40.0866 17.943 40.6158C17.7902 41.4507 16.9435 41.7682 16.5907 41.145C16.4379 40.8627 16.4379 40.7451 16.626 40.0514C16.7436 39.628 16.8965 39.2752 16.9788 39.2752C17.0494 39.2752 17.2728 39.3811 17.4844 39.4987Z" fill="#075392"/>
<path d="M110.065 43.0399C108.207 44.698 107.866 44.8979 107.278 44.6744C107.137 44.6156 106.984 44.4393 106.937 44.2746C106.855 43.9571 106.702 43.9101 106.267 44.11C105.996 44.2276 105.985 44.2746 106.102 44.6392C106.267 45.1801 106.702 45.6034 107.184 45.6975C107.631 45.7798 113.44 45.4623 113.557 45.3447C113.605 45.3094 113.546 45.086 113.44 44.8626C113.24 44.451 113.24 44.451 112.629 44.5098C111.311 44.6509 109.653 44.7803 109.618 44.745C109.595 44.7215 110.218 44.1688 110.994 43.5103L112.417 42.3108L112.24 41.8993C112.146 41.6641 112.064 41.4642 112.064 41.4407C112.064 41.276 111.688 41.5818 110.065 43.0399Z" fill="#075392"/>
<path d="M12.4047 42.9569C11.9108 43.4508 11.7815 44.0623 12.0284 44.6973L12.2166 45.1559L11.8285 45.3205C11.1582 45.6028 10.8525 46.6023 11.2288 47.3196C11.4522 47.7547 11.4522 47.7547 11.1112 47.6253C10.8525 47.5195 10.7937 47.543 10.6996 47.8135C10.6291 47.9781 10.582 48.178 10.582 48.2486C10.582 48.3897 14.5566 49.8008 14.9212 49.8008C15.0152 49.8008 15.1563 49.6126 15.2269 49.3775L15.3798 48.9659L13.8746 48.4602C12.2518 47.9311 11.7579 47.6018 11.7579 47.0491C11.7579 46.5905 12.0637 46.2142 12.44 46.2142C12.6281 46.2142 13.4748 46.4494 14.345 46.7434C15.2151 47.0374 15.9325 47.2726 15.9442 47.2726C15.956 47.2726 16.003 47.1432 16.0383 46.9903C16.0736 46.8375 16.1324 46.6258 16.1794 46.5317C16.2264 46.3906 15.9089 46.2495 14.733 45.8497C12.7928 45.2147 12.3341 44.7914 12.7104 44.0623C13.0162 43.4861 13.2984 43.4861 15.2622 44.1446L16.8262 44.6738L16.9437 44.3563C17.0025 44.1799 17.0731 43.98 17.1084 43.8977C17.1672 43.7213 13.757 42.5689 13.1808 42.5689C12.8986 42.5689 12.6869 42.6747 12.4047 42.9569Z" fill="#075392"/>
<path d="M112.265 46.5191C111.818 46.766 111.712 47.107 111.712 48.377C111.712 49.2825 111.677 49.5059 111.501 49.6588C111.195 49.941 111.066 49.9057 110.725 49.4941C110.337 49.0355 110.301 48.33 110.666 48.0007C110.866 47.8126 110.889 47.7067 110.807 47.3775C110.666 46.8483 110.49 46.8248 110.019 47.2952C109.502 47.8126 109.396 48.3417 109.643 49.2002C110.007 50.4349 110.936 51.0346 111.877 50.6348C112.489 50.3761 112.7 49.8234 112.618 48.718C112.547 47.695 112.606 47.4245 112.924 47.3187C113.488 47.1423 113.958 48.33 113.523 48.8121C113.359 49.0003 113.359 49.0826 113.5 49.5177L113.664 49.9998L114.041 49.6823C114.676 49.1531 114.758 48.1536 114.241 47.1541C113.841 46.3897 113.006 46.1193 112.265 46.5191Z" fill="#075392"/>
<path d="M10.1942 49.3528C9.98257 49.5527 10.1237 50.3288 10.4294 50.6934L10.7469 51.0697L10.3236 50.9873C9.91201 50.9168 9.90026 50.9168 9.8297 51.3401C9.78266 51.5753 9.75915 51.7752 9.78266 51.7987C9.8885 51.881 14.357 52.8335 14.404 52.7747C14.4393 52.7395 14.4981 52.5278 14.5334 52.3044L14.6039 51.9046L13.3927 51.6223C11.9816 51.3166 11.6406 51.1637 11.2878 50.7169C11.0879 50.4582 11.0409 50.2818 11.0879 49.8937C11.135 49.4351 11.1232 49.4116 10.7822 49.3411C10.3471 49.247 10.2883 49.247 10.1942 49.3528Z" fill="#075392"/>
<path d="M114.558 50.1754C114.311 50.2225 114.287 50.293 114.323 50.6223L114.37 50.9986L112.735 51.3866C111.677 51.6336 111.018 51.8452 110.877 51.9863C110.63 52.2333 110.583 52.7977 110.772 53.3504C110.877 53.6444 110.948 53.6914 111.242 53.6444C111.559 53.5973 111.595 53.5503 111.595 53.1505C111.595 52.7389 111.63 52.6801 111.983 52.5743C112.312 52.4685 114.452 51.9746 114.581 51.9746C114.605 51.9746 114.664 52.1627 114.711 52.3979C114.77 52.7624 114.817 52.8095 115.04 52.7507C115.181 52.7154 115.358 52.6801 115.44 52.6801C115.522 52.6801 115.569 52.6096 115.546 52.5273C115.311 51.7864 115.311 51.7747 116.075 51.6218L116.78 51.4689L116.698 51.1044C116.592 50.5752 116.498 50.5164 115.899 50.6693C115.169 50.8457 115.146 50.8457 115.064 50.4459C115.017 50.246 114.946 50.1049 114.911 50.1049C114.864 50.1166 114.699 50.1519 114.558 50.1754Z" fill="#075392"/>
<path d="M10.1102 53.4226C8.64028 54.1987 8.68732 56.5505 10.1925 57.2796C11.0156 57.6794 12.168 57.7265 12.8736 57.3854C14.0495 56.8092 14.4376 55.0806 13.6144 54.0341C12.9559 53.1874 11.145 52.8699 10.1102 53.4226ZM12.2621 54.2575C13.3792 54.7279 13.5321 56.0214 12.5208 56.5035C11.4154 57.0209 9.87499 56.3153 9.87499 55.3041C9.87499 55.0571 9.95731 54.7631 10.0396 54.6573C10.4394 54.1281 11.4978 53.9282 12.2621 54.2575Z" fill="#075392"/>
<path d="M112.85 53.5519C111.721 53.8577 111.121 54.575 111.121 55.5863C111.121 56.3624 111.333 56.8915 111.803 57.2914C112.144 57.5736 112.838 57.8323 112.944 57.7147C113.061 57.5971 112.838 56.7975 112.685 56.7975C112.591 56.7975 112.391 56.6681 112.238 56.5035C111.662 55.939 111.956 54.869 112.756 54.5867C113.179 54.4339 113.155 54.3633 113.414 56.2448L113.626 57.7617L114.049 57.6794C116.236 57.2678 116.871 54.7984 115.049 53.7754C114.449 53.4461 113.567 53.352 112.85 53.5519ZM114.59 54.4927C115.049 54.6926 115.237 54.9866 115.237 55.5392C115.237 55.9743 114.837 56.48 114.414 56.5976C114.178 56.6564 114.143 56.5858 114.002 55.504C113.967 55.21 113.908 54.8337 113.873 54.6455C113.802 54.2692 113.967 54.234 114.59 54.4927Z" fill="#075392"/>
<path d="M7.01981 57.5862C6.97278 57.6215 6.9375 57.9155 6.9375 58.233C6.9375 58.9973 7.26676 59.3384 8.10166 59.4559C8.6661 59.5265 8.70138 59.55 8.70138 59.8675C8.70138 60.0792 8.76017 60.2085 8.866 60.2085C8.96008 60.2085 9.11295 60.2438 9.21878 60.2791C9.35989 60.3379 9.40693 60.2791 9.40693 60.0792C9.40693 59.5853 9.51276 59.55 10.818 59.6323C11.5001 59.6794 12.382 59.7146 12.7936 59.7264L13.5226 59.7382V59.2796V58.8209L12.5584 58.7504C12.0175 58.7151 11.1238 58.6563 10.5593 58.6093L9.52452 58.5387V58.1389C9.52452 57.7744 9.48924 57.7391 9.17174 57.7391C8.88952 57.7391 8.81897 57.7861 8.81897 57.9978C8.81897 58.4211 8.67786 58.5387 8.25453 58.4799C7.86647 58.4211 7.65481 58.0566 7.80768 57.6803C7.85472 57.551 7.78416 57.5039 7.47842 57.5039C7.26676 57.5039 7.05509 57.5392 7.01981 57.5862Z" fill="#075392"/>
<path d="M113.099 58.9971L111.711 59.0441V59.5027V59.9731H113.428H115.145L115.486 60.3141C115.815 60.6434 115.921 61.0667 115.733 61.3372C115.521 61.6547 115.074 61.737 113.428 61.737H111.711V62.1956V62.6542L113.463 62.7012C115.133 62.7365 115.239 62.7483 115.521 63.0187C115.897 63.3715 115.921 63.8772 115.591 64.2064C115.38 64.4181 115.203 64.4416 113.534 64.4416H111.711V64.9825V65.5234L113.686 65.4764C115.897 65.4294 116.285 65.3235 116.52 64.665C116.767 63.9359 116.662 63.395 116.144 62.8188L115.897 62.5601L116.144 62.3837C116.473 62.1603 116.697 61.4783 116.603 60.9962C116.567 60.7845 116.403 60.4788 116.238 60.3024C115.874 59.9026 115.874 59.8555 116.25 59.8555C116.52 59.8555 116.544 59.8202 116.509 59.4087L116.473 58.9736L115.474 58.9618C114.921 58.9618 113.851 58.9736 113.099 58.9971Z" fill="#075392"/>
<path d="M9.40578 60.8305C8.35922 61.1951 8.14755 62.9001 9.06477 63.5469L9.33523 63.735H8.95893C8.5944 63.735 8.58264 63.7586 8.58264 64.2054V64.6758H10.9933H13.4039V64.1466V63.6175H11.6871H9.97022L9.62921 63.2764C9.21764 62.8649 9.1706 62.3239 9.52337 61.9712C9.73504 61.7595 9.91143 61.736 11.5812 61.736H13.4039V61.2068V60.6777L11.6165 60.6894C10.5464 60.6894 9.65273 60.7482 9.40578 60.8305Z" fill="#075392"/>
<path d="M10.2893 65.6301C8.80769 65.7477 7.40835 65.8418 7.19669 65.8418L6.79688 65.8535L6.87919 66.3474C6.92623 66.6296 6.98502 66.8766 6.99678 66.8883C7.04382 66.9471 12.8881 66.5708 13.2644 66.4885C13.4878 66.4415 13.5231 66.3592 13.5231 65.9123C13.5231 65.4419 13.4996 65.3832 13.2644 65.3949C13.1116 65.4067 11.7828 65.5125 10.2893 65.6301Z" fill="#075392"/>
<path d="M81.0543 105.809C80.7838 105.915 80.5251 106.044 80.4899 106.091C80.4428 106.138 80.5957 106.655 80.8309 107.243C81.0661 107.82 81.2542 108.325 81.2542 108.349C81.2542 108.372 81.0543 108.337 80.7956 108.266C79.9254 108.031 78.9377 108.513 78.4673 109.395C78.1851 109.924 78.2086 111.03 78.5143 111.724C78.8436 112.453 79.5256 113.193 80.043 113.37C80.972 113.676 82.4419 113.17 82.6183 112.476C82.7006 112.123 82.8299 112.1 82.9711 112.406C83.0769 112.617 83.0886 112.617 83.6766 112.394L84.2763 112.159L82.9828 108.878C82.2655 107.079 81.654 105.597 81.6187 105.609C81.5835 105.609 81.3248 105.703 81.0543 105.809ZM81.4659 109.36C82.0421 109.901 82.3949 110.947 82.1949 111.535C81.9598 112.241 81.2542 112.488 80.5369 112.112C80.1018 111.888 79.6079 110.912 79.6079 110.265C79.6079 109.325 80.8074 108.748 81.4659 109.36Z" fill="#075392"/>
<path d="M45.6587 106.304C43.6243 106.786 42.2955 109.585 43.1657 111.584C43.8242 113.136 46.0232 114.042 47.4461 113.36C48.0223 113.089 48.3162 112.842 48.7396 112.278L49.0571 111.831L48.7866 111.725C48.6337 111.666 48.3045 111.537 48.0693 111.443C47.6342 111.255 47.6224 111.255 47.3755 111.608C46.8816 112.301 46.1761 112.466 45.3882 112.066C44.2946 111.502 44.0594 110.291 44.8002 108.903C45.2941 107.974 45.8703 107.562 46.6229 107.574C47.5401 107.586 48.328 108.315 48.328 109.15C48.328 109.385 48.4338 109.467 48.9395 109.667C49.2805 109.785 49.598 109.903 49.645 109.926C49.8567 110.02 49.7391 108.491 49.4921 107.986C48.8924 106.739 47.105 105.951 45.6587 106.304Z" fill="#075392"/>
<path d="M70.5663 108.903C70.284 108.962 70.0253 109.021 70.0018 109.056C69.9665 109.08 69.9901 109.35 70.0253 109.644C70.0959 110.079 70.1547 110.185 70.3076 110.138C70.4134 110.115 70.7191 110.044 71.0014 110.009L71.507 109.926L71.4364 109.503C71.3306 108.915 71.2836 108.774 71.1777 108.786C71.1307 108.798 70.8485 108.845 70.5663 108.903Z" fill="#075392"/>
<path d="M67.6381 109.445C67.1443 109.68 66.9091 110.138 66.9091 110.832C66.9091 111.361 66.9091 111.361 66.4975 111.361C66.0977 111.361 66.0859 111.373 66.0859 111.832C66.0859 112.302 66.0859 112.302 66.5445 112.302H66.9914L67.1325 113.913C67.2031 114.807 67.2971 115.736 67.3324 115.995L67.403 116.441L68.0732 116.359C68.4378 116.312 68.7435 116.265 68.7435 116.265C68.7553 116.253 68.6965 115.501 68.6024 114.595C68.5201 113.69 68.4495 112.749 68.4378 112.502C68.4378 112.067 68.4378 112.067 68.9199 112.067C69.3667 112.067 69.402 112.043 69.3315 111.797C69.2962 111.655 69.2609 111.444 69.2609 111.314C69.2609 111.138 69.1904 111.115 68.7905 111.15L68.3084 111.197L68.3437 110.785C68.379 110.409 68.426 110.362 68.8258 110.268C69.2727 110.162 69.3785 109.915 69.1904 109.433C69.0963 109.174 68.1556 109.186 67.6381 109.445Z" fill="#075392"/>
<path d="M63.8516 110.068V110.656H64.5571H65.2627V110.068V109.48H64.5571H63.8516V110.068Z" fill="#075392"/>
<path d="M60.5579 110.232C60.5579 110.443 60.5226 110.796 60.4874 110.996C60.4168 111.314 60.3698 111.361 60.017 111.361C59.6289 111.361 59.6172 111.372 59.6172 111.831C59.6172 112.29 59.6289 112.301 60.017 112.301H60.4286L60.358 113.924C60.3227 114.83 60.3227 115.7 60.3698 115.864C60.4638 116.276 60.9813 116.523 61.9102 116.617L62.6746 116.688V116.088V115.488L62.2395 115.453L61.7926 115.418L61.7574 114.771C61.7338 114.418 61.7456 113.736 61.7926 113.266L61.8749 112.419H62.3924H62.9098V111.96C62.9098 111.49 62.9098 111.49 62.4159 111.455L61.9102 111.419L61.9455 110.726C61.9925 109.914 61.922 109.832 61.1224 109.832C60.5579 109.832 60.5579 109.832 60.5579 110.232Z" fill="#075392"/>
<path d="M74.2096 110.137C73.1631 110.666 72.7397 111.63 72.9514 113.041C73.1278 114.182 74.1391 115.134 75.2327 115.158C76.5615 115.205 77.6786 114.499 77.9373 113.465C78.0079 113.182 78.0549 112.935 78.0314 112.912C78.0079 112.9 77.7492 112.935 77.4434 113.018C77.0554 113.112 76.8437 113.241 76.7026 113.476C76.5968 113.665 76.3851 113.864 76.2322 113.935C75.9265 114.076 75.268 114.111 74.9622 113.994C74.727 113.9 74.386 113.241 74.5154 113.124C74.5624 113.077 75.3268 112.865 76.1969 112.653C77.0671 112.442 77.8197 112.23 77.8667 112.195C78.0196 112.065 77.7492 111.301 77.3729 110.795C76.6555 109.808 75.3973 109.549 74.2096 110.137ZM76.0441 111.148C76.4321 111.513 76.3851 111.689 75.8206 111.83C75.5384 111.901 75.1269 112.006 74.9034 112.077C74.2802 112.242 74.1979 112.218 74.1979 111.854C74.2096 111.019 75.4091 110.548 76.0441 111.148Z" fill="#075392"/>
<path d="M51.233 110.233C50.3746 110.621 49.7513 111.585 49.6573 112.667C49.5632 113.596 49.9983 114.525 50.7156 114.937C51.915 115.642 53.1145 115.583 53.9023 114.807C54.1375 114.572 54.3256 114.349 54.3256 114.302C54.3256 114.254 54.0787 114.172 53.7847 114.102C53.3144 113.996 53.185 114.008 52.844 114.207C52.1267 114.631 51.1036 114.196 50.9743 113.42C50.8567 112.761 50.9625 112.761 52.8205 113.22C53.773 113.455 54.5843 113.608 54.6431 113.561C54.6902 113.514 54.7255 113.079 54.7372 112.608C54.7372 111.856 54.6902 111.691 54.3844 111.185C53.9258 110.445 53.3379 110.139 52.3266 110.103C51.8797 110.092 51.4211 110.139 51.233 110.233ZM53.0674 111.385C53.3732 111.667 53.5966 112.42 53.3732 112.42C53.0557 112.42 51.2683 111.903 51.2683 111.809C51.2683 111.75 51.3976 111.573 51.5622 111.421C51.9385 111.032 52.6676 111.021 53.0674 111.385Z" fill="#075392"/>
<path d="M70.6496 110.854C70.4379 110.889 70.3203 110.983 70.3203 111.1C70.3203 111.206 70.4849 112.347 70.6966 113.629L71.0847 115.969L71.7314 115.886C72.0842 115.839 72.4017 115.792 72.4134 115.769C72.4605 115.722 71.7667 111.359 71.6609 110.971C71.6021 110.771 71.3786 110.748 70.6496 110.854Z" fill="#075392"/>
<path d="M55.9139 111.135C55.8198 111.547 55.2906 115.874 55.3259 115.921C55.3494 115.945 55.6552 116.003 56.0079 116.05L56.6547 116.133L56.7252 115.78C56.7605 115.58 56.8193 115.098 56.8546 114.71C56.9722 113.628 57.1368 113.099 57.4778 112.734C57.7365 112.464 57.8776 112.417 58.395 112.417C59.0771 112.417 59.1476 112.346 59.1476 111.57V111.088L58.5597 111.147C58.1716 111.182 57.8424 111.312 57.5601 111.523L57.1368 111.852L57.2074 111.429C57.2897 111.041 57.2662 111.006 56.9957 111.006C56.8428 111.006 56.5489 110.971 56.349 110.935C56.0315 110.876 55.9727 110.9 55.9139 111.135Z" fill="#075392"/>
<path d="M64.5102 111.455L63.8164 111.49L63.887 112.807C63.934 113.537 63.9693 114.665 63.9693 115.324V116.535H64.6748H65.3804L65.3686 115.089C65.3569 114.301 65.3216 113.149 65.2745 112.537L65.204 111.42L64.5102 111.455Z" fill="#075392"/>
<path d="M43.4957 79.4234C41.8376 79.8702 40.744 81.3048 40.5088 83.3509L40.4265 84.08H41.6024H42.7783L42.9077 83.3627C43.1194 82.1045 43.7896 81.3754 44.7068 81.3754C45.9768 81.3754 46.7882 82.4572 46.459 83.7037C46.2591 84.4093 45.6476 85.009 43.919 86.1967C42.1786 87.3961 41.3202 88.1604 40.8734 88.9365C40.5559 89.4657 40.2148 90.6299 40.2148 91.159V91.4883H44.6245H49.0342V90.43V89.3716H46.1885H43.3428L43.8602 88.8307C44.1542 88.5367 45.0831 87.8312 45.918 87.255C48.2934 85.6557 48.9166 84.7973 48.9166 83.1275C48.9166 82.0457 48.6932 81.3284 48.1405 80.6816C47.1175 79.4939 45.1772 78.9648 43.4957 79.4234Z" fill="#075392"/>
<path d="M62.0886 79.4228C60.6304 79.8108 59.725 80.9044 59.1958 82.9035C58.8901 84.0441 58.9136 86.9957 59.2428 88.2186C59.6897 89.8649 60.3364 90.7704 61.4771 91.3348C62.0768 91.6288 62.2767 91.6641 63.3233 91.6641C64.3463 91.6641 64.5815 91.617 65.1577 91.3583C67.0392 90.4764 67.8153 88.5008 67.6977 84.9613C67.6389 82.9976 67.392 82.0215 66.6746 80.9044C65.8162 79.5639 63.8642 78.9406 62.0886 79.4228ZM64.2758 81.5512C65.0754 82.0686 65.487 84.197 65.2753 86.6547C65.0754 88.9007 64.4639 89.7944 63.2174 89.6885C62.7353 89.6415 62.5707 89.5709 62.2532 89.2182C61.6064 88.5244 61.4418 87.7365 61.4418 85.4317C61.4418 83.7972 61.4771 83.3151 61.6535 82.8094C61.8887 82.1391 62.3355 81.5277 62.7236 81.363C63.0763 81.2102 63.9112 81.316 64.2758 81.5512Z" fill="#075392"/>
<path d="M71.294 79.4816C70.4356 79.7755 69.9064 80.1636 69.4361 80.8456C68.6012 82.0568 68.2484 83.7501 68.3542 86.0549C68.4836 88.983 69.2597 90.5822 70.8942 91.3583C71.4704 91.617 71.7056 91.6641 72.7286 91.6641C73.7752 91.6641 73.9751 91.6288 74.5748 91.3348C76.3269 90.4764 77.0678 88.7478 77.0678 85.4317C77.0795 83.7854 77.0442 83.4444 76.8091 82.6683C76.4328 81.4689 76.0094 80.728 75.3862 80.1871C74.422 79.3405 72.611 79.023 71.294 79.4816ZM73.5047 81.5159C73.7517 81.6805 74.0339 82.0568 74.2456 82.4684C74.5748 83.1151 74.5983 83.2563 74.6454 84.9731C74.7394 88.1363 74.2103 89.5357 72.8697 89.6885C71.4234 89.8532 70.7884 88.5832 70.7884 85.5258C70.7884 83.7501 70.9177 82.88 71.2823 82.1627C71.7173 81.2925 72.7286 81.0103 73.5047 81.5159Z" fill="#075392"/>
<path d="M49.8594 80.611V81.7282H52.6816C54.2338 81.7282 55.5038 81.7634 55.5038 81.7987C55.5038 81.834 55.2686 82.1633 54.9981 82.5278C53.2225 84.8443 51.976 87.89 51.6468 90.6887L51.5527 91.4883H52.8815H54.2103V90.9121C54.2103 89.4775 54.9158 86.7023 55.7272 84.9502C56.2799 83.7743 56.8443 82.9041 57.5381 82.128L58.0908 81.5165V80.5052V79.4939H53.9751H49.8594V80.611Z" fill="#075392"/>
<path d="M81.9727 79.9643C81.667 80.9991 80.7028 81.6694 79.3387 81.8222L78.6096 81.9046L78.5743 82.81L78.5391 83.7272H80.0795H81.6082V87.6078V91.4883H82.8429H84.0776V85.4911V79.4939H83.1016H82.1139L81.9727 79.9643Z" fill="#075392"/>
</g>
<defs>
<clipPath id="clip0_4031_43053">
<rect width="125" height="125" fill="white"/>
</clipPath>
</defs>
</svg>
