<svg width="125" height="125" viewBox="0 0 125 125" fill="none" xmlns="http://www.w3.org/2000/svg">
<path d="M111.275 51.7119C110.325 49.3692 108.375 47.2767 106.003 45.7709C99.1536 41.6809 88.7156 41.3874 81.6594 45.085C77.8101 46.9316 75.2819 50.5854 74.4933 54.3433C73.0664 60.5217 73.4336 67.8727 78.4941 72.5031C84.3989 77.3693 92.9875 78.4441 100.626 76.4461C100.988 76.3808 102.14 76.1099 102.934 75.7125L103.159 75.6221C105.53 74.6949 107.792 73.1846 109.481 71.1393C113.38 65.7814 113.647 57.7474 111.275 51.7119ZM98.8367 65.5866C98.571 66.7568 97.7312 67.9731 96.41 68.4126C94.3044 69.2838 91.4593 69.0429 89.5095 68.0243C87.8757 66.9495 87.6655 65.1511 87.4542 63.4471C87.2941 60.0902 87.0369 56.5351 88.0369 53.4631C88.8212 51.561 90.9823 51.0733 92.9363 50.9307C94.9916 50.9307 96.9884 51.2242 98.2583 52.7818C99.048 53.8993 98.9978 55.3619 99.1536 56.6776C99.0981 59.4519 99.3639 62.7606 98.8367 65.5866Z" fill="#0055A6"/>
<path d="M36.3905 68.6135C34.6521 68.5141 32.7018 68.6566 31.0184 68.4629L31.0685 51.3688L31.1742 51.2263L36.3905 51.1786C36.446 48.4048 36.4962 45.4277 36.3356 42.8993L16.4743 42.8477L13.2035 42.8993C13.1528 45.4794 13.1528 48.4952 13.2035 51.1269C14.9974 51.1786 16.6808 51.1269 18.4198 51.278V67.8327L18.3696 68.5141L13.1528 68.6135C13.0428 71.3351 13.0428 73.9674 13.1528 76.6468H36.3905V68.6135Z" fill="#0055A6"/>
<path d="M94.8812 80.2962C92.67 83.2688 89.8762 86.142 86.8251 88.3769C86.7152 88.5274 86.3982 88.4712 86.2979 88.3297C84.9757 87.5529 83.5542 86.9187 82.2874 86.142C83.9757 84.2442 85.6096 82.3455 86.8753 80.244H85.2382C83.9255 82.0525 82.5543 83.9502 80.8148 85.5549C78.4936 84.6797 76.3881 83.899 74.0158 83.312L73.7542 83.1263C74.1214 82.1428 74.8044 81.2195 75.0157 80.244H73.5932L72.1717 82.8754C69.0651 82.2422 65.6384 81.9009 62.4769 81.7072C62.3162 81.2717 62.527 80.6374 62.3162 80.244H60.9487C60.8388 80.8311 61.105 81.2717 60.7886 81.7594C57.6024 81.8834 54.4316 82.2425 51.3052 82.8333L49.8783 80.244C49.3554 80.244 48.7727 80.1497 48.4055 80.2962L49.7225 83.1694L49.5662 83.312C47.205 83.9552 44.8832 84.72 42.6113 85.6031L42.4 85.5037C40.9135 84.002 39.5559 82.3919 38.34 80.6886C38.078 79.8567 37.023 80.3434 36.4452 80.244C37.7066 82.3886 39.3948 84.2864 41.0789 86.2373C39.6563 87.018 38.2385 87.8892 36.7568 88.5274C33.5335 86.2187 30.7239 83.4399 28.4345 80.2962C27.8011 80.2019 27.3837 80.244 26.7461 80.2962C30.5405 85.8489 36.4452 90.7152 42.6113 93.5893C42.6116 93.5829 42.6132 93.5766 42.6162 93.5708C42.6191 93.5651 42.6233 93.56 42.6285 93.5558C42.6336 93.5517 42.6397 93.5486 42.6462 93.5467C42.6527 93.5449 42.6596 93.5444 42.6663 93.5452C42.7122 93.5452 42.8173 93.6355 42.7122 93.6877C46.8779 95.5864 51.3052 96.9492 55.9938 97.5363C72.1717 99.5304 87.6137 93.0575 96.5695 80.2962C96.0081 80.244 95.4426 80.244 94.8812 80.2962ZM72.9102 84.6797L73.0659 84.5804C75.2887 85.0418 77.4471 85.744 79.4979 86.6728C77.8096 88.4712 75.6485 90.0337 73.6487 91.3454C72.4374 92.0267 71.2218 92.7644 69.9552 93.3424L67.6937 92.4192L67.8496 92.083C69.7319 89.7383 71.4236 87.2636 72.9102 84.6797ZM62.527 83.2166C65.5327 83.2688 68.5379 83.5618 71.3275 84.192L71.3819 84.3386C69.9093 86.9658 68.0609 89.5029 66.0599 91.8852C65.1613 91.9836 64.3215 91.6474 63.4266 91.5963L62.527 91.4959C62.4219 88.6227 62.3664 86.0908 62.527 83.2166ZM52.3606 84.0926C55.0994 83.606 57.9441 83.2166 60.8937 83.2166L60.9487 91.4537C59.8388 91.6906 58.6275 91.6906 57.5721 91.9405C55.4632 89.5787 53.6269 87.0129 52.0943 84.2864L52.3606 84.0926ZM43.8728 86.725C45.935 85.813 48.088 85.0946 50.3003 84.5804L50.5159 84.6316C52.0393 87.3111 53.9383 89.84 55.8337 92.372C55.0994 92.7644 54.2004 93.0013 53.4662 93.3946C49.9024 91.7391 46.6596 89.5328 43.8728 86.8675V86.725ZM50.6723 95.0515C46.2445 93.9767 42.1338 92.1261 38.34 89.5972V89.4466C39.6062 88.7221 40.8724 87.9414 42.2395 87.4014C45.2446 90.1852 48.3506 92.2767 51.7272 94.2698C51.423 94.5825 51.0667 94.8465 50.6723 95.0515ZM70.2219 95.6807C64.6384 96.8067 58.4163 96.8509 52.8328 95.5864C52.7276 95.3446 53.0943 95.2934 53.2548 95.1509C58.1548 92.1783 65.7942 92.1783 70.5933 95.3876C70.7491 95.6807 70.3265 95.5864 70.2219 95.6807ZM75.2814 94.3219L72.8045 95.0515C72.3819 94.8578 72.0147 94.5638 71.6434 94.2698L71.7491 94.1232C75.1213 92.2767 78.1767 90.0337 81.0762 87.3543C82.5083 87.9075 83.8702 88.6093 85.1368 89.4466C82.1871 91.6474 78.7593 93.1016 75.2814 94.3219Z" fill="#0055A6"/>
<path d="M28.3329 39.1441C29.6354 37.4471 31.0612 35.8368 32.6 34.3249C33.967 33.1081 35.2332 31.939 36.7108 31.0589C38.0821 31.8873 39.6103 32.5772 40.9267 33.354C39.2934 35.2436 37.6098 37.1509 36.3938 39.1916C36.7609 39.3422 37.4493 39.295 37.977 39.1916C39.2934 37.3923 40.7159 35.5889 42.4041 33.9838C44.6661 34.765 46.882 35.5889 49.2031 36.1755L49.4097 36.3696L48.0933 39.1916C48.676 39.295 49.043 39.2433 49.6209 39.1916C50.0938 38.3673 50.4603 37.444 50.988 36.6115C54.0481 37.2498 57.2646 37.5865 60.5312 37.6813C60.9528 38.0266 60.6363 38.7556 60.7927 39.1916H62.2148C62.3705 38.7124 62.1641 38.169 62.3705 37.7375C65.4312 37.5865 68.6424 37.293 71.6016 36.6115L71.8588 36.6632L73.2814 39.1916C73.7584 39.1916 74.3869 39.295 74.7584 39.0924L73.4372 36.2749L73.5471 36.1755C75.9654 35.5889 78.2363 34.7133 80.5531 33.8417C82.1912 35.4464 83.7141 37.3452 85.0907 39.1916C85.6682 39.1916 86.2466 39.2433 86.6692 39.0924C86.018 38.0049 85.259 36.9777 84.4025 36.0244C83.7045 35.093 82.928 34.2159 82.0803 33.4017V33.1513L85.7695 31.1583L86.302 30.964C89.5115 33.2469 92.3197 35.9898 94.6239 39.0924C95.2567 39.0924 95.785 39.295 96.3122 39.0492C89.2475 29.1175 77.6024 22.7319 65.014 21.8131L64.9584 21.908L64.8528 21.8131C63.2939 21.6512 61.7221 21.6324 60.1593 21.7569C59.5089 21.7275 58.8569 21.7463 58.2096 21.8131C45.5651 22.7319 33.9211 28.824 26.6445 39.1916C27.1723 39.1441 27.8052 39.3422 28.3329 39.1441ZM50.2036 34.8643L49.9923 34.9075C47.8496 34.3984 45.7527 33.7319 43.721 32.914L43.8219 32.6204C46.7214 30.0408 49.7767 27.8961 53.1491 26.2438C53.9425 26.5374 54.7317 26.7787 55.5209 27.124L55.365 27.5038C53.3598 29.8466 51.782 32.3746 50.2036 34.8643ZM60.6871 36.1755C59.2143 36.3696 57.8975 36.1323 56.4157 36.0244C54.9979 35.8307 53.2039 35.6883 51.782 35.2436C53.3096 32.5772 55.1035 29.9931 57.2646 27.6117L60.6363 28.0432C60.7927 30.5712 60.6871 33.4965 60.6871 36.1755ZM62.3203 36.2277C62.2148 33.639 62.2696 30.7698 62.3203 28.0903C63.3753 27.9483 64.5316 27.7974 65.587 27.6548C67.6425 30.0839 69.6476 32.5772 71.0189 35.2436C68.1704 35.891 65.2509 36.2213 62.3203 36.2277ZM79.1349 32.8146C77.0752 33.639 74.9654 34.4198 72.7029 34.8643C71.0453 32.2199 69.2318 29.6645 67.271 27.2103C68.0095 26.8309 68.9091 26.5374 69.6978 26.1489C73.1298 27.7542 76.4466 30.0408 79.2362 32.6635L79.1349 32.8146ZM72.386 24.4881C76.8338 25.5783 81.0311 27.4267 84.7696 29.9414L84.6639 30.1356L81.0301 32.0338H80.7645C77.9748 29.4106 74.7082 27.124 71.386 25.3165C71.4917 24.9754 72.0189 24.7294 72.386 24.4881ZM70.2804 24.0003V24.0997C65.6927 27.2103 58.2646 27.5038 53.4196 24.6306C53.1491 24.4364 52.6261 24.3411 52.5711 24.0003C58.1589 22.788 64.7428 22.6888 70.2804 24.0003ZM38.1327 30.0408C41.4487 27.777 45.1333 26.0342 49.043 24.8805C49.2031 24.7295 49.3045 24.5874 49.5153 24.5874V24.6863C49.9374 24.7811 50.2543 24.3411 50.6209 24.6306C50.9378 24.8805 51.3093 25.0746 51.5707 25.3165C48.3041 27.2103 45.0881 29.4537 42.1379 32.1764C40.7159 31.6972 39.3989 30.964 38.1327 30.1356V30.0408Z" fill="#0055A6"/>
<path d="M60.7408 68.9922C55.7859 70.2608 50.4089 69.2943 46.8259 65.7829C46.4081 65.2951 46.1423 64.7171 45.7197 64.2293L38.6086 64.2775C38.4987 68.2195 38.448 72.7496 38.6086 76.6463L46.5089 76.5991L46.6145 74.2609C47.5137 74.6483 48.4084 75.136 49.3033 75.5715C54.7854 77.7162 61.8421 78.2039 67.2698 75.5715C71.2247 73.5313 73.3346 69.5884 72.7519 65.3423C72.1746 61.2087 67.9581 57.4559 63.691 56.4378L50.9366 52.9775L49.9911 52.5375C49.5691 52.2008 49.3033 51.7652 49.4085 51.2258C50.4089 49.6206 52.7305 50.1083 54.469 50.1515C58.1577 50.6392 61.9521 51.8084 64.1131 54.9751C66.43 54.9751 69.1181 55.0183 71.6463 54.9234C71.752 50.9323 71.6004 47.4294 71.5407 43.3865C69.1694 43.3348 66.2699 43.3348 63.9018 43.4382C63.7961 44.0163 64.0031 44.8406 63.7412 45.4272L61.3187 44.2105C55.5197 41.9239 47.4037 41.6825 42.1367 45.2376C38.7095 47.5714 37.6588 51.7652 38.5537 55.4623C39.2372 58.9658 42.8202 61.5459 46.2475 62.7622C50.9366 64.3197 55.8366 65.4456 60.585 66.951C61.0572 67.1497 61.6858 67.5902 61.585 68.1252C61.585 68.5567 61.1079 68.8076 60.7408 68.9922Z" fill="#0055A6"/>
<path d="M10.9234 80.2103L11.1801 80.7663C11.2006 80.8191 11.1982 80.8773 11.1733 80.9285C11.1484 80.9796 11.1031 81.0194 11.0472 81.0393L3.45427 84.1232C3.42846 84.1352 3.40034 84.1421 3.37159 84.1436C3.34284 84.1451 3.31408 84.141 3.28703 84.1318C3.25999 84.1225 3.23523 84.1081 3.21426 84.0896C3.19328 84.0711 3.17653 84.0487 3.16501 84.0239L2.90842 83.4678C2.8969 83.443 2.89085 83.4162 2.89063 83.389C2.89041 83.3619 2.89603 83.335 2.90715 83.31C2.91827 83.285 2.93465 83.2623 2.95532 83.2434C2.97599 83.2245 3.00052 83.2097 3.02742 83.1999L10.6252 80.116C10.6513 80.1036 10.6798 80.0962 10.709 80.0943C10.7382 80.0923 10.7675 80.0958 10.7952 80.1046C10.8229 80.1134 10.8486 80.1272 10.8706 80.1454C10.8926 80.1635 10.9105 80.1856 10.9234 80.2103Z" fill="#0055A6"/>
<path d="M8.67614 74.4427L8.85547 74.9425C8.86555 74.97 8.86975 74.9991 8.86783 75.0282C8.8659 75.0572 8.85789 75.0856 8.84425 75.1117C8.83061 75.1378 8.81161 75.1611 8.78835 75.1803C8.76509 75.1995 8.73802 75.2142 8.70871 75.2235L5.03813 76.3886C3.91441 76.7468 3.69837 77.2125 3.98271 78.0113C4.13909 78.4509 4.49654 78.8865 4.92339 79.2879L9.6308 77.7946C9.6899 77.7772 9.75388 77.7818 9.80943 77.8076C9.86497 77.8334 9.90781 77.8783 9.92902 77.933L10.1126 78.4469C10.1291 78.5012 10.1225 78.5594 10.0943 78.6092C10.066 78.659 10.0182 78.6965 9.96105 78.7138L4.27678 80.5223C4.2484 80.5323 4.21815 80.537 4.18784 80.5358C4.15753 80.5347 4.12777 80.5278 4.10034 80.5156C4.07291 80.5034 4.04836 80.4862 4.02815 80.4649C4.00794 80.4437 3.99249 80.4188 3.98271 80.3918L3.79486 79.8699C3.78529 79.8428 3.78163 79.8141 3.78412 79.7856C3.78661 79.7571 3.79519 79.7294 3.80934 79.7041C3.82349 79.6788 3.84293 79.6565 3.86648 79.6384C3.89004 79.6203 3.91723 79.6069 3.94643 79.599L4.15723 79.5288C3.60231 79.063 3.26715 78.6456 3.04684 78.0274C2.59268 76.7679 3.22606 75.94 4.70789 75.4654L8.37847 74.3042C8.43747 74.2859 8.5018 74.2901 8.55752 74.316C8.61324 74.3419 8.65585 74.3874 8.67614 74.4427Z" fill="#0055A6"/>
<path d="M7.63466 70.3127C7.72858 70.5364 7.80666 70.7657 7.8684 70.999C8.11592 71.9906 7.96489 72.5215 6.70775 72.8054L2.71601 73.6986L2.8537 74.7684C2.86195 74.7945 2.86443 74.8219 2.86097 74.849C2.85751 74.876 2.84819 74.9021 2.83358 74.9256C2.81898 74.9491 2.7994 74.9695 2.77605 74.9857C2.75271 75.0018 2.7261 75.0132 2.69787 75.0193L2.39058 75.0885C2.36277 75.0955 2.3337 75.097 2.30525 75.0928C2.27681 75.0887 2.2496 75.0789 2.22538 75.0643C2.20116 75.0497 2.18046 75.0304 2.16461 75.0078C2.14876 74.9852 2.1381 74.9597 2.13333 74.933L1.86767 73.8893L0.748107 74.1392C0.691611 74.1515 0.632273 74.1437 0.581473 74.1174C0.530674 74.0911 0.491988 74.0481 0.472832 73.9967L0.238537 73.4578C0.234279 73.4487 0.234279 73.4357 0.229468 73.4277C0.225091 73.4044 0.225665 73.3806 0.23115 73.3576C0.236635 73.3346 0.246923 73.3129 0.261421 73.2936C0.275918 73.2744 0.294336 73.2581 0.315601 73.2456C0.336867 73.2331 0.360557 73.2247 0.385299 73.2209L1.62912 72.9439L1.33504 71.7798C1.32185 71.7231 1.3327 71.6638 1.36529 71.6145C1.39789 71.5653 1.44965 71.5299 1.50956 71.5159L1.89958 71.4296C1.92968 71.4228 1.96093 71.4215 1.99153 71.4261C2.02213 71.4306 2.05148 71.4407 2.07791 71.4559C2.10433 71.4711 2.1273 71.4911 2.14552 71.5146C2.16373 71.5382 2.17682 71.5649 2.18404 71.5932L2.47756 72.7542L6.4645 71.8571C7.09307 71.7196 7.14804 71.547 7.0381 71.1155L6.88654 70.5153C6.84971 70.3648 6.87747 70.2786 6.99221 70.2525L7.3913 70.1621C7.49216 70.14 7.57488 70.1782 7.63466 70.3127Z" fill="#0055A6"/>
<path d="M3.8715 65.3404L4.40828 69.0084L4.57373 68.9863C5.95895 68.8057 6.39486 68.2276 6.2481 67.2181C6.15405 66.5662 6.01612 65.9206 5.83514 65.2852C5.83011 65.2668 5.82707 65.2479 5.82606 65.229C5.81942 65.2076 5.81783 65.1851 5.8214 65.1631C5.82497 65.1411 5.83362 65.1201 5.84674 65.1015C5.85986 65.083 5.87713 65.0674 5.89734 65.0557C5.91755 65.0441 5.94022 65.0368 5.96376 65.0343L6.35804 64.9821C6.50961 64.9611 6.5966 64.9952 6.65637 65.1638C6.88695 65.7928 7.05136 66.4415 7.14724 67.1006C7.33083 68.3601 6.88148 69.6678 4.71568 69.9527L3.66507 70.0862C1.99965 70.3071 0.81616 69.5774 0.581974 68.0109C0.348226 66.4112 1.29797 65.4618 2.95377 65.2451L3.58234 65.1638C3.61374 65.1559 3.64655 65.1543 3.67865 65.1591C3.71075 65.1639 3.74142 65.175 3.76868 65.1916C3.79594 65.2082 3.81918 65.2301 3.83689 65.2557C3.85461 65.2813 3.86639 65.3102 3.8715 65.3404ZM3.09627 66.2205C1.77935 66.3932 1.33907 66.9281 1.48102 67.8945C1.61871 68.8358 2.26597 69.2884 3.52312 69.1249L3.62824 69.1108L3.20184 66.2085L3.09627 66.2205Z" fill="#0055A6"/>
<path d="M0.894981 61.5281C0.922195 62.0379 1.08764 62.4915 1.46859 63.0255L6.38189 62.7846C6.44316 62.7847 6.50217 62.8064 6.54723 62.8454C6.5923 62.8845 6.62014 62.938 6.62525 62.9954L6.65727 63.5353C6.65775 63.5923 6.63451 63.6472 6.59252 63.6882C6.55054 63.7293 6.49314 63.7532 6.43259 63.755L0.454259 64.0491C0.424355 64.0515 0.394258 64.0481 0.365746 64.0393C0.337234 64.0305 0.310885 64.0165 0.288251 63.9979C0.265618 63.9794 0.24716 63.9568 0.233968 63.9315C0.220775 63.9061 0.213116 63.8786 0.21144 63.8504L0.183682 63.3326C0.181951 63.3043 0.186362 63.2759 0.19664 63.2493C0.206918 63.2227 0.222851 63.1983 0.24347 63.1776C0.26409 63.157 0.288962 63.1405 0.316576 63.1291C0.344191 63.1178 0.373971 63.1119 0.4041 63.1117L0.651723 63.0997C0.211437 62.5688 0.0279559 62.0681 0.000198807 61.5723C-0.00405925 61.4167 0.059978 61.3395 0.202364 61.3304L0.679368 61.3093C0.807992 61.3003 0.885908 61.3736 0.894981 61.5281Z" fill="#0055A6"/>
<path d="M6.67202 55.7736L6.64907 56.3045C6.64638 56.3628 6.61928 56.4177 6.57369 56.4573C6.5281 56.4968 6.46772 56.5179 6.40571 56.5157L2.54728 56.3692C1.36379 56.326 0.982839 56.6884 0.95082 57.5253C0.927871 57.9869 1.09332 58.5133 1.34565 59.0312L6.29096 59.2168C6.35214 59.2215 6.40919 59.2477 6.45089 59.29C6.49258 59.3324 6.51588 59.3879 6.51619 59.4456L6.49324 59.9845C6.49117 60.0126 6.48324 60.04 6.46988 60.0652C6.45652 60.0904 6.43801 60.1129 6.4154 60.1314C6.39279 60.1498 6.36653 60.1639 6.33813 60.1728C6.30973 60.1817 6.27973 60.1852 6.24987 60.1832L0.272091 59.963C0.241864 59.9627 0.21199 59.9568 0.184221 59.9456C0.156451 59.9344 0.131347 59.918 0.110378 59.8976C0.0894101 59.8771 0.0729992 59.8529 0.0621119 59.8264C0.0512246 59.7999 0.0460783 59.7716 0.0469749 59.7431L0.0699253 59.1907C0.0716117 59.1625 0.0792988 59.1349 0.0925325 59.1096C0.105766 59.0843 0.124276 59.0617 0.146963 59.0432C0.169651 59.0247 0.196055 59.0107 0.224607 59.002C0.25316 58.9933 0.283279 58.9901 0.31318 58.9926L0.533594 59.0011C0.198435 58.3799 0.0427185 57.8791 0.0699253 57.2278C0.124783 55.9031 1.02874 55.3426 2.58892 55.4028L6.44254 55.5453C6.47357 55.5461 6.50413 55.5526 6.53248 55.5645C6.56083 55.5764 6.5864 55.5934 6.60772 55.6146C6.62905 55.6358 6.64571 55.6608 6.65674 55.6881C6.66778 55.7153 6.67296 55.7444 6.67202 55.7736Z" fill="#0055A6"/>
<path d="M7.4384 50.3655L7.35568 50.8702C7.35124 50.8989 7.34082 50.9264 7.32502 50.9513C7.30922 50.9762 7.28835 50.9979 7.26362 51.0151C7.23888 51.0324 7.21076 51.0449 7.18088 51.0519C7.15099 51.0589 7.11993 51.0602 7.08947 51.0559L6.83278 51.0213C7.07614 51.5908 7.23678 52.1689 7.14019 52.7815C6.99342 53.7093 6.42888 54.4985 4.97907 54.2999L4.83723 54.2788C3.58435 54.1062 3.06626 53.3295 3.36874 51.3835L3.49735 50.5766L3.03423 50.512C2.05662 50.3785 1.67141 50.6459 1.53853 51.496C1.44934 52.055 1.39269 52.6181 1.36882 53.1829C1.36401 53.2045 1.36401 53.213 1.3592 53.2346C1.34106 53.3335 1.29047 53.4288 1.1437 53.4072L0.735432 53.3511C0.60692 53.3335 0.551956 53.2472 0.551956 53.0921C0.53209 52.5176 0.57051 51.9426 0.666698 51.375C0.905149 49.8607 1.81391 49.3603 3.18514 49.55L7.23677 50.115C7.29865 50.1234 7.35451 50.1544 7.39225 50.2013C7.42999 50.2482 7.44658 50.3072 7.4384 50.3655ZM4.2316 50.6805L4.10299 51.4869C3.89645 52.8075 4.15369 53.2 4.97907 53.3164L5.11677 53.3335C5.95188 53.4503 6.23196 53.1137 6.33282 52.4794C6.41074 51.9746 6.31895 51.5045 6.09864 50.939L4.2316 50.6805Z" fill="#0055A6"/>
<path d="M8.46797 46.2902C8.44485 46.5296 8.40491 46.7673 8.34841 47.0017C8.09598 47.9897 7.7017 48.3996 6.44455 48.1192L2.4528 47.2259L2.06267 48.2401C2.05749 48.2667 2.04665 48.292 2.03081 48.3145C2.01498 48.3371 1.99446 48.3563 1.9705 48.3712C1.94654 48.3861 1.91962 48.3963 1.89137 48.4012C1.86312 48.4061 1.83411 48.4055 1.80609 48.3996L1.49869 48.3309C1.47033 48.3251 1.44355 48.3139 1.42004 48.2979C1.39654 48.2819 1.37684 48.2615 1.36218 48.2379C1.34753 48.2144 1.33824 48.1882 1.33491 48.1611C1.33159 48.134 1.33429 48.1066 1.34286 48.0805L1.60863 47.0363L0.489174 46.7859C0.43266 46.7724 0.383317 46.74 0.350402 46.6948C0.317487 46.6495 0.303261 46.5945 0.310392 46.5401L0.356289 45.962C0.361555 45.9511 0.364629 45.9394 0.365359 45.9274C0.372589 45.9053 0.38439 45.8847 0.400084 45.8669C0.415779 45.8491 0.435061 45.8343 0.456824 45.8235C0.478587 45.8127 0.502406 45.806 0.526915 45.8039C0.551424 45.8017 0.576141 45.8041 0.599654 45.811L1.84719 46.0869L2.14115 44.9268C2.15718 44.8704 2.19563 44.8219 2.24856 44.7914C2.3015 44.7609 2.36487 44.7507 2.4256 44.7628L2.81562 44.8531C2.8755 44.8669 2.92726 44.9022 2.95978 44.9514C2.99231 45.0007 3.00301 45.0599 2.98959 45.1165L2.69606 46.2771L6.68311 47.1742C7.31157 47.3123 7.44446 47.1828 7.55013 46.7518L7.70596 46.1516C7.74279 46.0011 7.80683 45.9365 7.92157 45.962L8.32066 46.0528C8.42633 46.0744 8.4813 46.1431 8.46797 46.2902Z" fill="#0055A6"/>
<path d="M1.88459 42.4037L1.71007 42.9425C1.69135 42.9983 1.65012 43.0449 1.59524 43.0724C1.54036 43.0999 1.47621 43.1061 1.41655 43.0896L0.517514 42.8306C0.458048 42.8133 0.408287 42.7745 0.379092 42.7228C0.349898 42.6711 0.343637 42.6107 0.361679 42.5546L0.535653 42.0152C0.554704 41.9596 0.596059 41.9131 0.650942 41.8857C0.705824 41.8582 0.769914 41.852 0.829614 41.8683L1.72876 42.1271C1.78796 42.145 1.8374 42.1839 1.86652 42.2356C1.89563 42.2872 1.90212 42.3476 1.88459 42.4037ZM9.03254 44.4915L8.86764 44.9963C8.84907 45.0522 8.80776 45.099 8.75268 45.1265C8.69761 45.1539 8.63323 45.1598 8.57357 45.1428L2.85248 43.495C2.7933 43.4773 2.74385 43.4385 2.71472 43.3869C2.6856 43.3353 2.67911 43.275 2.69665 43.219L2.8621 42.7097C2.88094 42.6541 2.92221 42.6076 2.97705 42.5802C3.03189 42.5528 3.09595 42.5467 3.15551 42.5632L8.87671 44.2156C8.90644 44.2238 8.93412 44.2374 8.95814 44.2558C8.98215 44.2742 9.00201 44.2969 9.01653 44.3226C9.03106 44.3484 9.03996 44.3765 9.04271 44.4056C9.04546 44.4346 9.042 44.4638 9.03254 44.4915Z" fill="#0055A6"/>
<path d="M10.4786 40.8952C9.8404 42.4011 8.45956 42.7719 6.85873 42.1722L6.0328 41.8657C4.42716 41.2661 3.69728 40.1015 4.33537 38.5957C4.97301 37.0897 6.35823 36.7059 7.9595 37.3056L8.7898 37.6161C10.3911 38.2157 11.1162 39.3894 10.4786 40.8952ZM7.57855 38.2072C6.46871 37.7887 5.5829 37.9443 5.17474 38.9062C4.77084 39.8595 5.28948 40.5415 6.41375 40.964L7.23924 41.2706C8.34962 41.689 9.23479 41.5425 9.6436 40.5801C10.0427 39.6268 9.52885 38.9363 8.40459 38.5179L7.57855 38.2072Z" fill="#0055A6"/>
<path d="M14.0716 33.7425L13.8054 34.2087C13.776 34.2599 13.7262 34.2982 13.667 34.3151C13.6077 34.332 13.5437 34.3262 13.4889 34.299L10.0804 32.5819C9.03408 32.0511 8.52495 32.2237 8.10291 32.9617C7.86873 33.3718 7.77266 33.9152 7.75398 34.4802L12.1262 36.685C12.179 36.7153 12.2181 36.7629 12.2359 36.8186C12.2537 36.8744 12.249 36.9343 12.2227 36.987L11.9475 37.4617C11.9169 37.5108 11.8672 37.5468 11.809 37.562C11.7507 37.5773 11.6884 37.5707 11.6353 37.5435L6.35488 34.8771C6.32734 34.8651 6.30271 34.8479 6.28253 34.8266C6.26235 34.8053 6.24705 34.7803 6.23759 34.7532C6.22812 34.7261 6.2247 34.6974 6.22752 34.669C6.23035 34.6406 6.23937 34.6131 6.25402 34.5881L6.5294 34.1008C6.54419 34.0762 6.56405 34.0547 6.58781 34.0374C6.61158 34.0201 6.63877 34.0075 6.66779 34.0003C6.69682 33.993 6.72709 33.9913 6.75683 33.9953C6.78657 33.9992 6.81517 34.0086 6.84096 34.0231L7.03842 34.1224C7.02455 33.4235 7.12115 32.9056 7.44658 32.3316C8.11198 31.1625 9.1898 31.029 10.5665 31.7234L13.9751 33.4405C14.0299 33.4691 14.0706 33.5167 14.0886 33.5731C14.1066 33.6295 14.1005 33.6903 14.0716 33.7425Z" fill="#0055A6"/>
<path d="M17.2434 29.2501L16.9362 29.6686C16.9007 29.7164 16.8466 29.749 16.7856 29.7595C16.7246 29.7699 16.6617 29.7572 16.6106 29.7243L16.3993 29.5908C16.3535 30.1989 16.2254 30.786 15.8534 31.2948C15.2889 32.0716 14.4128 32.5503 13.2015 31.7696L13.0868 31.6963C12.041 31.0234 11.9353 30.1127 13.1194 28.4904L13.6102 27.8176L13.2202 27.5671C12.4081 27.0453 11.9353 27.1271 11.4172 27.8391C11.0776 28.3031 10.7651 28.7842 10.4812 29.2802C10.4674 29.2973 10.4626 29.3058 10.4487 29.3234C10.4376 29.3469 10.421 29.3678 10.4001 29.3844C10.3791 29.4009 10.3544 29.4128 10.3279 29.4191C10.3013 29.4253 10.2736 29.4258 10.2468 29.4204C10.2201 29.415 10.195 29.404 10.1734 29.3881L9.83399 29.1723C9.72842 29.1031 9.71498 28.9997 9.78809 28.8618C10.0426 28.3403 10.3451 27.8408 10.692 27.3689C11.614 26.1049 12.6605 26.0312 13.8029 26.7693L17.1842 28.9436C17.235 28.977 17.2698 29.028 17.2808 29.0854C17.2919 29.1428 17.2785 29.202 17.2434 29.2501ZM14.2159 28.2099L13.725 28.8833C12.9262 29.9832 12.9721 30.4448 13.6604 30.8894L13.7751 30.9627C14.4726 31.4112 14.8807 31.2216 15.2665 30.6908C15.5739 30.2722 15.7116 29.8151 15.7755 29.2155L14.2159 28.2099Z" fill="#0055A6"/>
<path d="M18.8054 27.4015L18.4201 27.8501C18.401 27.8708 18.3777 27.8878 18.3516 27.8999C18.3254 27.912 18.2969 27.9191 18.2679 27.9206C18.2388 27.9222 18.2096 27.9183 18.1822 27.9091C18.1547 27.8999 18.1295 27.8857 18.108 27.8672L11.5657 22.9402C11.5425 22.9246 11.5229 22.9048 11.508 22.8819C11.4931 22.859 11.4833 22.8336 11.479 22.8071C11.4747 22.7806 11.4761 22.7536 11.4831 22.7276C11.4901 22.7016 11.5026 22.6772 11.5198 22.6558L11.9055 22.2066C11.9233 22.1859 11.9454 22.1688 11.9704 22.1562C11.9954 22.1437 12.0228 22.136 12.051 22.1336C12.0792 22.1312 12.1076 22.1342 12.1346 22.1423C12.1616 22.1505 12.1865 22.1636 12.208 22.181L18.7504 27.108C18.7986 27.1405 18.8313 27.1894 18.8415 27.2443C18.8518 27.2991 18.8388 27.3556 18.8054 27.4015Z" fill="#0055A6"/>
<path d="M23.9328 22.3468C22.5881 23.5285 20.8726 23.6494 19.0921 21.8636L18.0553 20.8234C16.271 19.0331 16.5095 17.4324 17.8536 16.2462C19.2025 15.0595 20.9089 14.9476 22.689 16.7379L23.7263 17.7776C25.5063 19.5639 25.2769 21.1601 23.9328 22.3468ZM21.9003 17.4324C20.5515 16.0776 19.4549 16.0776 18.5142 16.906C17.5783 17.7299 17.4956 18.7741 18.8444 20.1289L19.877 21.1686C21.2258 22.5189 22.3315 22.5149 23.2765 21.6819C24.2076 20.8626 24.286 19.8229 22.9371 18.4721L21.9003 17.4324Z" fill="#0055A6"/>
<path d="M25.8563 13.8375C25.4251 14.1482 25.1221 14.532 24.8696 15.1316L27.8567 18.8031C27.8927 18.8502 27.9084 18.9084 27.9007 18.9661C27.893 19.0237 27.8625 19.0764 27.8151 19.1137L27.3562 19.4418C27.3065 19.4742 27.2454 19.4873 27.1857 19.4785C27.126 19.4696 27.0722 19.4394 27.0355 19.3942L23.4018 14.9249C23.382 14.9034 23.3672 14.8783 23.358 14.8512C23.3489 14.8242 23.3458 14.7956 23.3488 14.7674C23.3517 14.7391 23.3608 14.7117 23.3755 14.6869C23.3901 14.662 23.4099 14.6402 23.4338 14.6228L23.8697 14.3077C23.8939 14.2903 23.9215 14.2777 23.951 14.2707C23.9805 14.2637 24.0111 14.2624 24.0412 14.2668C24.0712 14.2713 24.0999 14.2814 24.1257 14.2967C24.1514 14.3119 24.1736 14.3318 24.1909 14.3553L24.3419 14.5365C24.5575 13.8977 24.8926 13.4753 25.3147 13.1731C25.4432 13.0783 25.5532 13.0824 25.6359 13.1902L25.9294 13.5485C26.0078 13.6433 25.9849 13.7427 25.8563 13.8375Z" fill="#0055A6"/>
<path d="M31.1824 10.5093L30.8707 10.7853C31.169 10.8585 31.5126 11.0396 31.8568 11.5444L31.9076 11.6177C32.6002 12.6403 32.3109 13.6113 30.7881 14.526C30.4044 14.774 29.9701 14.9443 29.5128 15.0263C29.3981 15.2029 29.3885 15.354 29.4802 15.4924C29.5907 15.652 29.7235 15.6861 29.9898 15.6043L31.7058 15.078C32.8295 14.7288 33.9399 14.4306 34.5317 15.3068L34.5824 15.38C35.188 16.2732 34.9261 17.2004 33.3023 18.1715C31.7421 19.1117 30.6413 18.9697 30.0266 18.059L29.9669 17.9732C29.8141 17.7438 29.7189 17.4847 29.6887 17.2155C29.6584 16.9463 29.6939 16.6741 29.7923 16.4197L29.7006 16.4328C29.2967 16.493 28.9531 16.2687 28.7556 15.9796L28.7508 15.9711C28.6569 15.8365 28.6027 15.6809 28.5939 15.5201C28.5851 15.3594 28.6219 15.1993 28.7007 15.0564C28.2098 14.9746 27.8335 14.7288 27.5124 14.254L27.4616 14.1763C26.9019 13.3478 26.8421 12.2349 28.5443 11.2123L30.7102 9.91365C30.7693 9.87919 30.8401 9.86717 30.9083 9.88003C30.9765 9.8929 31.0369 9.92968 31.0773 9.98292L31.2373 10.2243C31.3201 10.3452 31.279 10.4229 31.1824 10.5093ZM30.9945 12.0577C30.6184 11.5013 30.0539 11.2253 28.9851 11.8636C27.8746 12.5284 27.9712 13.1411 28.3245 13.6629L28.3747 13.7362C28.6499 14.1462 29.2145 14.5646 30.3521 13.8827C31.4209 13.2444 31.4257 12.692 31.0447 12.1355L30.9945 12.0577ZM33.6598 15.8286C33.4122 15.4618 32.995 15.5049 31.9625 15.8246L30.6595 16.2255C30.5309 16.6309 30.4898 16.9807 30.8201 17.4639L30.875 17.5503C31.2283 18.0681 31.7741 18.1975 32.8754 17.5417C34.004 16.8643 34.0589 16.4112 33.7105 15.9019L33.6598 15.8286Z" fill="#0055A6"/>
<path d="M39.0154 12.7509L38.5293 12.9753C38.5016 12.9879 38.4716 12.9952 38.4408 12.9968C38.4101 12.9984 38.3794 12.9943 38.3503 12.9847C38.3213 12.9751 38.2946 12.9602 38.2717 12.9408C38.2489 12.9214 38.2303 12.898 38.2171 12.8719L38.1025 12.6561C37.7401 13.1649 37.3229 13.618 36.7311 13.8945C35.8363 14.3084 34.8225 14.3215 34.1752 13.0832L34.1112 12.9667C33.5515 11.897 33.9324 11.0509 35.8085 10.1839L36.5887 9.82153L36.3821 9.42466C35.9419 8.59165 35.4873 8.44521 34.6661 8.82904C34.128 9.07746 33.6044 9.35264 33.0974 9.65341C33.08 9.66356 33.0616 9.67216 33.0424 9.6791C32.9458 9.72216 32.8359 9.73973 32.7713 9.61035L32.5878 9.26054C32.5286 9.15264 32.5745 9.05789 32.7121 8.97157C33.2032 8.63036 33.7269 8.33285 34.2766 8.08287C35.7397 7.40545 36.6943 7.824 37.309 8.99315L39.1211 12.4534C39.1487 12.5061 39.1531 12.5669 39.1333 12.6226C39.1135 12.6783 39.0711 12.7244 39.0154 12.7509ZM36.9142 10.4473L36.1346 10.8051C34.8588 11.3961 34.6661 11.8232 35.0333 12.5266L35.0978 12.643C35.4692 13.3591 35.9281 13.3807 36.5379 13.0961C37.0246 12.8719 37.3827 12.5311 37.754 12.0389L36.9142 10.4473Z" fill="#0055A6"/>
<path d="M44.8456 10.6438L44.3131 10.8249C44.2842 10.8346 44.2536 10.8388 44.2229 10.8373C44.1923 10.8359 44.1623 10.8287 44.1346 10.8163C44.1069 10.804 44.0821 10.7866 44.0615 10.7651C44.041 10.7437 44.0251 10.7187 44.0149 10.6915L42.6937 7.27894C42.2902 6.23023 41.7897 6.03601 40.9505 6.32097C40.4868 6.48056 40.0326 6.82575 39.6154 7.23578L41.3085 11.6188C41.328 11.6732 41.3246 11.7326 41.299 11.7848C41.2734 11.837 41.2275 11.878 41.1708 11.8993L40.6292 12.0849C40.5719 12.1023 40.5097 12.0981 40.4557 12.0731C40.4018 12.0481 40.3603 12.0043 40.34 11.951L38.2894 6.65321C38.2784 6.62716 38.273 6.59931 38.2735 6.57128C38.274 6.54325 38.2804 6.51559 38.2924 6.48991C38.3043 6.46423 38.3216 6.44104 38.3432 6.42169C38.3647 6.40234 38.3902 6.38721 38.418 6.37718L38.973 6.18707C39.0013 6.17767 39.0313 6.17369 39.0613 6.17536C39.0913 6.17703 39.1206 6.18431 39.1476 6.19678C39.1745 6.20926 39.1985 6.22667 39.2182 6.24799C39.2379 6.26932 39.2529 6.29413 39.2622 6.32097L39.34 6.5192C39.822 5.98884 40.2579 5.66523 40.9094 5.4409C42.2348 4.98781 43.1296 5.56586 43.6664 6.94619L44.9876 10.3593C45.0074 10.4148 45.0036 10.4753 44.9772 10.5283C44.9508 10.5813 44.9036 10.6227 44.8456 10.6438Z" fill="#0055A6"/>
<path d="M45.3259 3.22624L44.7474 3.37278C44.6873 3.38755 44.6235 3.37959 44.5695 3.35061C44.5156 3.32162 44.4758 3.27391 44.4588 3.21771L44.2107 2.36313C44.1951 2.30705 44.2038 2.24746 44.2348 2.19737C44.2658 2.14727 44.3166 2.11074 44.3761 2.09574L44.954 1.94467C45.0143 1.92999 45.0782 1.93804 45.1323 1.96711C45.1863 1.99618 45.2262 2.04396 45.2433 2.10026L45.4908 2.95423C45.5059 3.01081 45.4972 3.07071 45.4665 3.1214C45.4357 3.17209 45.3853 3.20966 45.3259 3.22624ZM47.2708 10.0258L46.725 10.1638C46.6647 10.179 46.6005 10.1711 46.5464 10.142C46.4922 10.1128 46.4525 10.0648 46.4358 10.0083L44.867 4.57646C44.8585 4.54842 44.8561 4.51908 44.8598 4.49015C44.8636 4.46121 44.8734 4.43327 44.8888 4.40795C44.9041 4.38264 44.9247 4.36045 44.9493 4.3427C44.9738 4.32494 45.0019 4.31197 45.0319 4.30455L45.5735 4.16653C45.6337 4.15241 45.6975 4.16071 45.7513 4.1897C45.8052 4.21869 45.8451 4.26613 45.8627 4.32212L47.4315 9.75381C47.4402 9.78159 47.4429 9.81072 47.4395 9.8395C47.4361 9.86828 47.4266 9.89614 47.4117 9.92145C47.3967 9.94676 47.3766 9.96903 47.3524 9.98695C47.3282 10.0049 47.3005 10.0181 47.2708 10.0258Z" fill="#0055A6"/>
<path d="M52.8857 8.87388L49.3987 9.51667C48.9035 9.60751 48.6324 9.35255 48.5684 9.04652L48.5273 8.83925C48.4597 8.58407 48.5025 8.3141 48.6463 8.08856L50.8991 4.05476C50.9163 4.02252 50.9256 3.98705 50.9263 3.95097C50.9172 3.9038 50.8852 3.8777 50.7934 3.89527L47.9905 4.40858C47.96 4.41462 47.9286 4.41494 47.898 4.40953C47.8675 4.40411 47.8383 4.39307 47.8123 4.37702C47.7863 4.36098 47.7639 4.34025 47.7464 4.31604C47.7289 4.29183 47.7167 4.2646 47.7104 4.23594L47.6368 3.86465C47.6255 3.80752 47.6384 3.74854 47.6727 3.70019C47.7069 3.65185 47.7599 3.61795 47.8202 3.60568L51.2155 2.98448C51.6883 2.89415 51.9039 3.0708 51.9726 3.3945L52.0276 3.65789C52.0711 3.88141 52.02 4.11206 51.8852 4.30068L49.5912 8.42932C49.5763 8.44832 49.5657 8.47005 49.5602 8.49311C49.5547 8.51617 49.5544 8.54005 49.5593 8.56323C49.5684 8.61492 49.587 8.64502 49.6697 8.63197L52.7159 8.0715C52.7461 8.06555 52.7772 8.06532 52.8075 8.07081C52.8377 8.0763 52.8665 8.08741 52.8922 8.10348C52.9178 8.11955 52.9398 8.14027 52.9568 8.16442C52.9738 8.18858 52.9856 8.21567 52.9913 8.24414L53.0692 8.61492C53.0802 8.67203 53.0672 8.73094 53.033 8.77923C52.9988 8.82753 52.9459 8.86145 52.8857 8.87388Z" fill="#0055A6"/>
<path d="M58.3843 8.33313L57.8427 8.38081C57.7807 8.38517 57.7194 8.36631 57.6721 8.32833C57.6248 8.29035 57.5954 8.23633 57.5903 8.17805L57.5673 7.93625C57.0353 8.29449 56.4756 8.57493 55.8193 8.63114C54.8236 8.71746 53.8743 8.38934 53.741 7.01744L53.7271 6.88343C53.6124 5.69733 54.2869 5.04149 56.3699 4.86032L57.2323 4.78705L57.1912 4.34701C57.0994 3.42368 56.7323 3.13471 55.8193 3.21199C55.2219 3.26395 54.6278 3.34466 54.0392 3.45379C54.0163 3.45831 54.0024 3.45831 53.9795 3.46232C53.8743 3.47085 53.7687 3.44526 53.7549 3.30283L53.7181 2.9189C53.7042 2.79805 53.7778 2.72478 53.9426 2.69015C54.5293 2.53726 55.1299 2.43611 55.7366 2.38802C57.3609 2.25011 58.0902 2.96206 58.2188 4.25617L58.5951 8.09173C58.6001 8.14982 58.5809 8.20748 58.5416 8.25253C58.5023 8.29757 58.4459 8.32647 58.3843 8.33313ZM57.3011 5.47701L56.4388 5.5548C55.021 5.67575 54.6769 6.00336 54.7548 6.78468L54.7687 6.91807C54.8466 7.70791 55.2644 7.88055 55.9388 7.82434C56.4756 7.77666 56.9435 7.58244 57.4755 7.2463L57.3011 5.47701Z" fill="#0055A6"/>
<path d="M62.885 8.28499C62.6315 8.32316 62.3755 8.3448 62.1188 8.34973C61.0362 8.36679 60.518 8.10782 60.495 6.89151L60.4352 3.03437L59.2928 2.93098C59.2347 2.93235 59.1782 2.91238 59.1354 2.87531C59.0926 2.83824 59.0668 2.78697 59.0635 2.73234L59.0587 2.43474C59.058 2.40756 59.0632 2.38053 59.0741 2.35535C59.085 2.33016 59.1013 2.30735 59.1219 2.28834C59.1426 2.26933 59.1672 2.25452 59.1942 2.24485C59.2212 2.23517 59.2501 2.23082 59.279 2.23209L60.4215 2.21451L60.4033 1.13169C60.4039 1.07735 60.4249 1.02497 60.4628 0.983883C60.5006 0.942794 60.5527 0.91567 60.6098 0.907351L61.2197 0.8125H61.2565C61.2815 0.812688 61.3062 0.817759 61.3291 0.827391C61.3519 0.837023 61.3724 0.851007 61.3892 0.868459C61.406 0.885911 61.4188 0.906453 61.4267 0.928784C61.4346 0.951115 61.4375 0.97475 61.4353 0.998195L61.4539 2.20146L62.7244 2.1844C62.7552 2.18355 62.7859 2.18849 62.8147 2.19892C62.8435 2.20935 62.8698 2.22506 62.892 2.24514C62.9143 2.26521 62.932 2.28926 62.9443 2.31586C62.9566 2.34247 62.963 2.37111 62.9634 2.4001L62.9725 2.7755C62.9724 2.83424 62.9478 2.89061 62.904 2.93252C62.8603 2.97444 62.8008 2.99856 62.7383 2.99973L61.4678 3.02131L61.5319 6.87846C61.5409 7.48662 61.7063 7.57294 62.1786 7.56441L62.8348 7.55588C62.9997 7.55136 63.0824 7.59452 63.0872 7.70694L63.0915 8.09529C63.0915 8.19414 63.0365 8.25888 62.885 8.28499Z" fill="#0055A6"/>
<path d="M64.9293 8.3875L64.3658 8.35286C64.3038 8.34933 64.2457 8.32287 64.2043 8.27925C64.1629 8.23563 64.1416 8.17838 64.1449 8.12L64.4939 2.49861C64.4986 2.44065 64.527 2.38667 64.5732 2.34802C64.6193 2.30938 64.6797 2.28909 64.7414 2.29144L65.306 2.32144C65.3683 2.32615 65.4263 2.35362 65.4674 2.39799C65.5084 2.44236 65.5294 2.50009 65.5258 2.55883L65.1779 8.17622C65.1741 8.23502 65.1459 8.29007 65.0994 8.32957C65.053 8.36907 64.9919 8.38987 64.9293 8.3875ZM65.3881 1.35504L64.7873 1.32041C64.7254 1.31684 64.6675 1.29034 64.6263 1.24671C64.5851 1.20309 64.564 1.1459 64.5676 1.08766L64.622 0.207483C64.6259 0.149253 64.6541 0.0948317 64.7004 0.0560399C64.7468 0.0172481 64.8075 -0.0027793 64.8695 0.000311171L65.4714 0.0308326C65.533 0.0352995 65.5903 0.0620719 65.6313 0.105508C65.6724 0.148945 65.6938 0.205655 65.6913 0.263692L65.6358 1.14787C65.6321 1.20622 65.604 1.26082 65.5576 1.29967C65.5111 1.33852 65.4502 1.35844 65.3881 1.35504Z" fill="#0055A6"/>
<path d="M68.9713 8.83431C67.2553 8.6145 66.535 7.44083 66.7698 5.83165L66.8883 4.99926C67.1176 3.39008 68.1454 2.43612 69.8572 2.65645C71.5732 2.87626 72.3021 4.04982 72.0726 5.65911L71.9541 6.49201C71.7194 8.10119 70.6831 9.05464 68.9713 8.83431ZM71.0449 5.52963C71.2061 4.41217 70.8347 3.6399 69.7376 3.49736C68.6555 3.36398 68.0771 4.00224 67.9117 5.12864L67.7921 5.96113C67.632 7.07859 67.9938 7.85086 69.0909 7.99329C70.1741 8.12678 70.7653 7.48851 70.9264 6.36253L71.0449 5.52963Z" fill="#0055A6"/>
<path d="M77.2161 10.3925L76.6707 10.2632C76.6404 10.2561 76.6119 10.2434 76.587 10.2259C76.562 10.2083 76.541 10.1862 76.5252 10.1609C76.5094 10.1357 76.4991 10.1077 76.495 10.0786C76.4908 10.0495 76.4929 10.02 76.5011 9.99165L77.4551 6.46664C77.7486 5.38381 77.4508 4.96084 76.5833 4.74956C76.1062 4.63713 75.5235 4.6803 74.9312 4.80125L73.7071 9.32276C73.6902 9.37847 73.6513 9.426 73.5983 9.45566C73.5454 9.48532 73.4824 9.49486 73.4223 9.48235L72.8631 9.34886C72.8054 9.33274 72.7566 9.29643 72.7266 9.24742C72.6966 9.19841 72.6878 9.14044 72.7019 9.08548L74.1843 3.61905C74.1903 3.59101 74.2023 3.56442 74.2196 3.54087C74.2369 3.51732 74.2591 3.49731 74.2848 3.48202C74.3105 3.46674 74.3392 3.4565 74.3693 3.45194C74.3993 3.44737 74.43 3.44857 74.4595 3.45545L75.0283 3.59346C75.0578 3.59994 75.0855 3.61205 75.1097 3.62904C75.1339 3.64603 75.1542 3.66753 75.1692 3.6922C75.1842 3.71687 75.1937 3.74418 75.197 3.77244C75.2003 3.80069 75.1974 3.82929 75.1884 3.85644L75.134 4.05909C75.849 3.87802 76.4039 3.83938 77.0784 4.00298C78.4465 4.3311 78.8457 5.28044 78.4594 6.70855L77.501 10.233C77.4853 10.2895 77.4466 10.3379 77.3933 10.3677C77.34 10.3975 77.2763 10.4065 77.2161 10.3925Z" fill="#0055A6"/>
<path d="M87.1731 5.75556L86.6502 5.55291C86.1412 5.35467 85.9255 5.43648 85.6823 5.99746L85.3567 6.7351L86.4986 7.17514C86.5258 7.18462 86.5506 7.19914 86.5717 7.21784C86.5928 7.23653 86.6096 7.25902 86.6213 7.28396C86.6329 7.3089 86.6391 7.33579 86.6395 7.36303C86.6399 7.39027 86.6344 7.41731 86.6235 7.44253L86.4484 7.83951C86.4375 7.86361 86.4214 7.88534 86.4011 7.90333C86.3808 7.92132 86.3568 7.9352 86.3306 7.9441C86.3044 7.953 86.2765 7.95672 86.2487 7.95505C86.2209 7.95337 86.1937 7.94633 86.1689 7.93436L85.026 7.49021L82.9844 12.1497C82.9592 12.2007 82.9149 12.2412 82.86 12.2635C82.8052 12.2858 82.7435 12.2883 82.6867 12.2707L82.1541 12.0634C82.0986 12.0398 82.0545 11.9973 82.0308 11.9445C82.0071 11.8917 82.0054 11.8324 82.0261 11.7784L84.0718 7.11893L83.0677 6.59709C83.0146 6.57697 82.9717 6.53855 82.9477 6.48968C82.9237 6.44082 82.9204 6.38518 82.9385 6.33412L83.0623 6.05768C83.0856 6.00854 83.1287 5.97008 83.1821 5.9507C83.2355 5.93133 83.2948 5.93262 83.3472 5.9543L84.4027 6.36423L84.7239 5.6307C85.2052 4.53482 85.9117 4.42692 86.8658 4.79821C87.072 4.87513 87.2676 4.97504 87.4485 5.09581C87.5541 5.1735 87.6234 5.24677 87.5861 5.34162L87.4346 5.67828C87.3887 5.79019 87.2926 5.79872 87.1731 5.75556Z" fill="#0055A6"/>
<path d="M86.8811 14.2199C85.3529 13.4648 85.1011 12.132 85.9036 10.695L86.3166 9.95281C87.1191 8.51627 88.4264 7.95127 89.9546 8.70638C91.4828 9.45707 91.7442 10.7943 90.9407 12.2309L90.5278 12.9776C89.7252 14.4141 88.4083 14.9706 86.8811 14.2199ZM90.0282 11.7823C90.5832 10.7858 90.5096 9.94027 89.532 9.45707C88.5695 8.98241 87.7936 9.39634 87.2291 10.4019L86.8161 11.1481C86.2612 12.1446 86.3252 12.9861 87.3027 13.4648C88.2663 13.944 89.0507 13.5295 89.6153 12.5244L90.0282 11.7823Z" fill="#0055A6"/>
<path d="M95.4548 12.7598C95.0013 12.4883 94.5147 12.3459 93.8306 12.3283L91.1701 16.2116C91.1355 16.2589 91.0829 16.292 91.0232 16.304C90.9635 16.316 90.9011 16.3061 90.8489 16.2763L90.3623 15.9872C90.3138 15.9531 90.2808 15.9031 90.2697 15.8472C90.2586 15.7912 90.2703 15.7334 90.3025 15.6852L93.5372 10.9609C93.5526 10.9363 93.5732 10.9149 93.5976 10.8978C93.622 10.8808 93.6497 10.8685 93.6792 10.8617C93.7088 10.8549 93.7394 10.8536 93.7694 10.8581C93.7995 10.8626 93.8282 10.8726 93.8541 10.8877L94.3172 11.1682C94.3424 11.1837 94.364 11.2037 94.3807 11.2272C94.3975 11.2507 94.409 11.2772 94.4146 11.305C94.4202 11.3328 94.4197 11.3613 94.4132 11.389C94.4068 11.4166 94.3944 11.4427 94.377 11.4657L94.2436 11.6599C94.9597 11.6338 95.4964 11.7894 95.9373 12.0568C96.0749 12.1386 96.1069 12.238 96.0332 12.3499L95.7718 12.7297C95.7024 12.8331 95.5925 12.8461 95.4548 12.7598Z" fill="#0055A6"/>
<path d="M97.048 20.6847C96.5555 20.2813 96.0983 19.8414 95.6809 19.369C95.5529 19.222 95.5667 19.1748 95.6489 19.08L95.9563 18.7478C95.9726 18.7287 95.9931 18.713 96.0162 18.7019C96.0394 18.6908 96.0649 18.6844 96.0909 18.6832C96.1169 18.6819 96.1429 18.6859 96.1671 18.6948C96.1914 18.7037 96.2133 18.7173 96.2316 18.7348C96.2397 18.7432 96.2491 18.7504 96.2594 18.7563C96.6351 19.1232 97.2689 19.6666 97.6766 19.9987C98.7459 20.8658 99.398 20.6932 99.9347 20.1066C100.32 19.6927 100.274 19.2481 99.8974 18.1221L99.4844 16.9314C99.0991 15.7964 99.0809 15.0417 99.6956 14.3728C100.622 13.3587 101.825 13.5188 103.178 14.6142C103.692 15.0374 104.177 15.4898 104.632 15.9689C104.671 16.0029 104.695 16.0495 104.698 16.0993C104.701 16.149 104.684 16.1981 104.651 16.2364L104.32 16.5947C104.304 16.6133 104.284 16.6285 104.261 16.6394C104.238 16.6503 104.213 16.6565 104.188 16.6578C104.162 16.659 104.137 16.6552 104.113 16.6466C104.089 16.6379 104.068 16.6247 104.05 16.6077C104.043 16.6022 104.037 16.5964 104.032 16.5901C103.659 16.2495 103.064 15.7191 102.549 15.3007C101.632 14.5585 101.072 14.4245 100.512 15.0332C100.15 15.43 100.228 15.9002 100.554 16.832L100.949 17.958C101.448 19.369 101.394 20.1237 100.779 20.7926C100.045 21.5949 98.8014 22.1042 97.048 20.6847Z" fill="#0055A6"/>
<path d="M101.993 25.0485C101.791 24.9025 101.599 24.7439 101.419 24.5738C100.662 23.8488 100.506 23.3184 101.428 22.4684L104.356 19.7719L103.649 18.9218C103.628 18.9034 103.611 18.8812 103.6 18.8565C103.588 18.8318 103.582 18.8052 103.582 18.7782C103.581 18.7512 103.587 18.7244 103.597 18.6994C103.608 18.6744 103.625 18.6518 103.645 18.6328L103.873 18.4256C103.893 18.406 103.917 18.3908 103.944 18.3807C103.971 18.3707 103.999 18.3661 104.028 18.3674C104.057 18.3686 104.085 18.3756 104.11 18.3879C104.136 18.4002 104.159 18.4175 104.176 18.4386L104.975 19.2023L105.796 18.4471C105.838 18.4087 105.893 18.3862 105.952 18.3839C106.01 18.3816 106.067 18.3997 106.112 18.4346L106.609 18.7838C106.613 18.7883 106.622 18.7968 106.631 18.8054C106.663 18.841 106.68 18.8872 106.676 18.9341C106.673 18.9809 106.65 19.0246 106.613 19.0558L105.695 19.8968L106.585 20.7468C106.628 20.7897 106.651 20.8464 106.65 20.9051C106.649 20.9638 106.625 21.02 106.581 21.0619L106.296 21.3248C106.25 21.3649 106.19 21.3868 106.128 21.3861C106.066 21.3853 106.006 21.3619 105.962 21.3208L105.076 20.4663L102.149 23.1629C101.69 23.5859 101.736 23.7585 102.067 24.0731L102.526 24.5131C102.64 24.6255 102.663 24.7118 102.58 24.7896L102.286 25.061C102.209 25.1303 102.117 25.1348 101.993 25.0485Z" fill="#0055A6"/>
<path d="M105.406 28.8546L105.066 28.4576C105.047 28.4353 105.032 28.4095 105.023 28.3818C105.014 28.3541 105.011 28.3249 105.014 28.296C105.017 28.2672 105.026 28.2391 105.04 28.2136C105.055 28.188 105.075 28.1654 105.098 28.147L105.3 27.996C104.69 27.7803 104.126 27.4957 103.713 27.0165C103.079 26.2919 102.837 25.3642 103.975 24.4926L104.085 24.4063C105.071 23.6556 106.03 23.8152 107.347 25.3426L107.898 25.9769L108.264 25.6963C109.026 25.1098 109.076 24.6612 108.499 23.9923C108.119 23.5538 107.715 23.1347 107.287 22.7368C107.276 22.7213 107.264 22.7068 107.25 22.6938C107.186 22.616 107.144 22.5211 107.264 22.4303L107.581 22.1844C107.681 22.1072 107.787 22.1242 107.911 22.232C108.372 22.6076 108.797 23.0204 109.182 23.4659C110.209 24.6567 109.989 25.6276 108.916 26.447L105.737 28.8847C105.688 28.9212 105.627 28.9385 105.565 28.9329C105.503 28.9273 105.446 28.8992 105.406 28.8546ZM107.324 26.4129L106.773 25.7826C105.879 24.743 105.392 24.6612 104.75 25.1529L104.64 25.2392C103.983 25.7395 104.061 26.1625 104.493 26.6628C104.833 27.0557 105.264 27.31 105.86 27.5389L107.324 26.4129Z" fill="#0055A6"/>
<path d="M108.836 33.6719L108.533 33.2274C108.515 33.2031 108.504 33.1759 108.498 33.1472C108.492 33.1186 108.492 33.0891 108.499 33.0606C108.505 33.032 108.518 33.005 108.535 32.9811C108.553 32.9571 108.576 32.9368 108.602 32.9213L111.845 30.9493C112.841 30.3412 112.928 29.8409 112.442 29.1374C112.176 28.749 111.717 28.4083 111.198 28.1193L107.038 30.6518C106.984 30.6819 106.921 30.6919 106.861 30.6799C106.8 30.6678 106.747 30.6347 106.711 30.5871L106.399 30.1339C106.369 30.0845 106.359 30.0258 106.374 29.9702C106.389 29.9147 106.426 29.8666 106.477 29.8364L111.502 26.7775C111.526 26.761 111.555 26.7493 111.584 26.7432C111.614 26.7371 111.645 26.7367 111.675 26.7419C111.705 26.7471 111.733 26.758 111.759 26.7737C111.784 26.7895 111.806 26.8099 111.823 26.8337L112.139 27.2953C112.155 27.3193 112.166 27.3461 112.172 27.3742C112.177 27.4023 112.176 27.4311 112.169 27.4588C112.162 27.4866 112.149 27.5128 112.132 27.5358C112.114 27.5589 112.091 27.5783 112.065 27.5929L111.877 27.7048C112.533 28.0284 112.969 28.3567 113.346 28.9046C114.112 30.0175 113.717 30.9669 112.405 31.7647L109.161 33.7407C109.108 33.7715 109.044 33.7816 108.984 33.7688C108.923 33.7559 108.87 33.7212 108.836 33.6719Z" fill="#0055A6"/>
<path d="M111.717 38.6584C111.278 38.1161 110.895 37.5354 110.574 36.9242C109.794 35.4531 110.455 34.297 112.029 33.5548L112.785 33.2011C114.433 32.4288 115.736 32.7089 116.497 34.1499C116.703 34.5369 116.874 34.9396 117.007 35.3537L118.961 34.439C119.014 34.4151 119.075 34.4116 119.131 34.4294C119.186 34.4471 119.232 34.4846 119.259 34.5338L119.526 35.0386C119.538 35.0626 119.545 35.0887 119.547 35.1154C119.548 35.1421 119.544 35.1689 119.534 35.1939C119.524 35.219 119.509 35.2419 119.489 35.2613C119.47 35.2806 119.446 35.296 119.42 35.3065L112.07 38.7537C111.933 38.818 111.845 38.8225 111.717 38.6584ZM116.231 35.7206C116.085 35.3108 115.904 34.9126 115.69 34.5298C115.176 33.5588 114.369 33.5458 113.244 34.0722L112.492 34.4265C111.345 34.9613 110.868 35.5695 111.386 36.5444C111.56 36.8812 111.849 37.3513 112.061 37.6704L116.231 35.7206Z" fill="#0055A6"/>
<path d="M113.726 43.8075L113.537 43.3328C113.515 43.2779 113.518 43.2171 113.544 43.1638C113.569 43.1105 113.616 43.0689 113.674 43.0479L113.918 42.9615C113.413 42.5736 112.978 42.1376 112.748 41.5595C112.404 40.6795 112.491 39.7301 113.868 39.2468L114.001 39.2037C115.189 38.7852 116.037 39.2298 116.767 41.0718L117.07 41.8401L117.51 41.6845C118.433 41.3609 118.635 40.9514 118.313 40.1446C118.104 39.6158 117.867 39.0973 117.602 38.5911C117.593 38.5695 117.589 38.561 117.579 38.5394C117.566 38.5173 117.558 38.4925 117.556 38.467C117.554 38.4415 117.558 38.416 117.568 38.3923C117.579 38.3686 117.594 38.3474 117.615 38.3303C117.635 38.3132 117.659 38.3006 117.685 38.2935L118.07 38.16C118.19 38.1168 118.286 38.164 118.364 38.302C118.672 38.7965 118.932 39.3165 119.139 39.8555C119.708 41.2961 119.166 42.1421 117.868 42.5952L114.028 43.937C113.969 43.9567 113.905 43.9542 113.849 43.93C113.792 43.9058 113.748 43.8619 113.726 43.8075ZM116.378 42.0814L116.075 41.3137C115.579 40.0623 115.153 39.8379 114.368 40.1099L114.239 40.1531C113.445 40.4335 113.377 40.8561 113.61 41.4562C113.798 41.9349 114.12 42.3017 114.602 42.6986L116.378 42.0814Z" fill="#0055A6"/>
<path d="M120.301 46.1659C120.155 45.6787 119.888 45.2642 119.393 44.8202L114.649 46.0494C114.589 46.0632 114.526 46.0549 114.472 46.026C114.418 45.9972 114.378 45.9502 114.36 45.8945L114.204 45.3721C114.192 45.3167 114.202 45.2589 114.234 45.2107C114.266 45.1625 114.316 45.1276 114.374 45.1132L120.15 43.6164C120.178 43.6073 120.208 43.6039 120.239 43.6062C120.269 43.6085 120.298 43.6165 120.325 43.6298C120.351 43.643 120.375 43.6613 120.394 43.6834C120.413 43.7055 120.426 43.731 120.435 43.7583L120.582 44.2592C120.59 44.2867 120.592 44.3154 120.588 44.3436C120.583 44.3717 120.573 44.3989 120.558 44.4234C120.543 44.4479 120.522 44.4692 120.498 44.4862C120.473 44.5031 120.446 44.5153 120.416 44.5221L120.177 44.5828C120.728 45.0143 121.021 45.4629 121.159 45.9416C121.205 46.0926 121.159 46.1834 121.021 46.2221L120.558 46.3385C120.435 46.3731 120.343 46.3169 120.301 46.1659Z" fill="#0055A6"/>
<path d="M116.004 52.4337C115.741 51.7986 115.543 51.1413 115.412 50.4708C115.092 48.853 116.064 47.9082 117.794 47.6062L118.629 47.4596C120.441 47.1445 121.611 47.7486 121.923 49.3318C122.006 49.7576 122.052 50.189 122.061 50.6218L124.208 50.2465C124.237 50.2413 124.266 50.2416 124.295 50.2473C124.323 50.2531 124.35 50.2641 124.374 50.2798C124.398 50.2955 124.419 50.3156 124.434 50.3388C124.45 50.3621 124.46 50.388 124.465 50.4151L124.575 50.9671C124.58 50.9935 124.58 51.0207 124.574 51.047C124.567 51.0733 124.555 51.0981 124.539 51.1199C124.522 51.1417 124.501 51.16 124.476 51.1737C124.451 51.1875 124.424 51.1964 124.396 51.1998L116.316 52.6154C116.164 52.641 116.078 52.624 116.004 52.4337ZM121.207 50.7729C121.182 50.3409 121.124 49.9113 121.033 49.4873C120.822 48.4215 120.051 48.1973 118.816 48.4175L117.986 48.5595C116.725 48.7799 116.092 49.2415 116.302 50.3158C116.376 50.6865 116.514 51.2129 116.623 51.5752L121.207 50.7729Z" fill="#0055A6"/>
<path d="M116.139 54.7622L116.083 54.2319C116.08 54.2032 116.083 54.1742 116.091 54.1465C116.1 54.1188 116.114 54.093 116.134 54.0706C116.153 54.0481 116.177 54.0294 116.204 54.0156C116.23 54.0018 116.26 53.993 116.29 53.99L122.25 53.4079C122.28 53.4047 122.311 53.4071 122.34 53.4151C122.37 53.4231 122.397 53.4366 122.421 53.4546C122.445 53.4727 122.465 53.495 122.48 53.5203C122.494 53.5457 122.504 53.5735 122.507 53.6021L122.566 54.1325C122.572 54.1909 122.554 54.2492 122.514 54.2945C122.474 54.3398 122.417 54.3686 122.355 54.3744L116.4 54.9565C116.338 54.963 116.276 54.9463 116.227 54.9099C116.178 54.8735 116.147 54.8205 116.139 54.7622ZM123.599 54.0507L123.534 53.4897C123.529 53.4314 123.548 53.3733 123.587 53.328C123.627 53.2827 123.684 53.2539 123.746 53.2479L124.682 53.1576C124.712 53.1544 124.743 53.1569 124.772 53.165C124.802 53.173 124.829 53.1864 124.853 53.2045C124.877 53.2225 124.897 53.2448 124.912 53.2701C124.926 53.2954 124.936 53.3232 124.939 53.3518L124.999 53.9127C125.005 53.971 124.987 54.0294 124.948 54.0754C124.91 54.1213 124.853 54.1512 124.792 54.1586L123.856 54.2489C123.794 54.2545 123.732 54.2367 123.684 54.1996C123.636 54.1625 123.605 54.109 123.599 54.0507Z" fill="#0055A6"/>
<path d="M116.442 60.1766L116.337 56.8417C116.319 56.3625 116.63 56.1558 116.961 56.1468L117.185 56.1428C117.464 56.1216 117.74 56.2037 117.956 56.3715L121.824 59.1152C121.854 59.1384 121.89 59.1534 121.929 59.1584C121.975 59.1584 122.012 59.1323 122.008 59.0461L121.92 56.3585C121.919 56.2997 121.942 56.2428 121.985 56.2001C122.028 56.1573 122.087 56.1321 122.15 56.1297L122.549 56.1212C122.611 56.1193 122.671 56.1404 122.716 56.1799C122.762 56.2194 122.789 56.2742 122.792 56.3324L122.898 59.5855C122.91 60.0386 122.695 60.2111 122.342 60.2196L122.058 60.2282C121.81 60.2372 121.631 60.1635 121.406 59.9914L117.442 57.1955C117.425 57.179 117.404 57.166 117.381 57.1571C117.358 57.1483 117.334 57.1437 117.309 57.1438C117.254 57.1438 117.217 57.1564 117.217 57.2341L117.314 60.155C117.316 60.214 117.293 60.2711 117.25 60.3141C117.207 60.357 117.147 60.3823 117.085 60.3843L116.686 60.3923C116.655 60.3933 116.624 60.3885 116.595 60.3781C116.565 60.3678 116.539 60.3522 116.516 60.3321C116.494 60.3121 116.475 60.288 116.463 60.2613C116.45 60.2346 116.443 60.2058 116.442 60.1766Z" fill="#0055A6"/>
<path d="M116.137 65.4458L116.178 64.9371C116.18 64.9083 116.188 64.8803 116.201 64.8545C116.215 64.8287 116.234 64.8057 116.257 64.7869C116.28 64.768 116.307 64.7537 116.336 64.7447C116.365 64.7356 116.396 64.7321 116.426 64.7343L116.682 64.7514C116.399 64.1994 116.192 63.6335 116.237 63.0172C116.307 62.0759 116.806 61.249 118.27 61.3433L118.412 61.3514C119.679 61.4376 120.256 62.1723 120.11 64.1352L120.05 64.9501L120.518 64.9802C121.505 65.0444 121.867 64.7514 121.931 63.8883C121.974 63.3256 121.985 62.7612 121.964 62.1974C121.967 62.1788 121.969 62.16 121.968 62.1412C121.977 62.0418 122.018 61.9474 122.17 61.9555L122.583 61.9816C122.711 61.9896 122.776 62.0719 122.785 62.2325C122.849 62.8025 122.859 63.3769 122.812 63.9486C122.697 65.48 121.831 66.042 120.445 65.9516L116.357 65.6837C116.295 65.6788 116.237 65.6512 116.196 65.6068C116.155 65.5624 116.134 65.5046 116.137 65.4458ZM119.312 64.9019L119.372 64.0871C119.472 62.7543 119.183 62.379 118.353 62.3228L118.211 62.3138C117.366 62.2586 117.114 62.6198 117.068 63.2581C117.031 63.7639 117.16 64.2295 117.426 64.7775L119.312 64.9019Z" fill="#0055A6"/>
<path d="M115.449 69.6106C115.454 69.3693 115.475 69.1286 115.513 68.89C115.679 67.8855 116.042 67.4449 117.317 67.6345L121.368 68.2347L121.675 67.195C121.679 67.1683 121.688 67.1425 121.702 67.119C121.716 67.0956 121.735 67.075 121.757 67.0585C121.78 67.042 121.806 67.0299 121.834 67.0228C121.861 67.0157 121.89 67.0139 121.918 67.0173L122.23 67.0645C122.259 67.0675 122.287 67.0763 122.312 67.0903C122.337 67.1044 122.359 67.1233 122.375 67.1459C122.392 67.1684 122.403 67.1941 122.408 67.2211C122.414 67.2481 122.412 67.2758 122.405 67.3024L122.23 68.3631L123.368 68.5318C123.425 68.5407 123.476 68.5689 123.512 68.611C123.549 68.6531 123.568 68.7063 123.565 68.7605V69.3426C123.562 69.354 123.56 69.3659 123.561 69.3777C123.55 69.4234 123.52 69.4631 123.478 69.4881C123.435 69.5131 123.384 69.5214 123.336 69.5112L122.07 69.3265L121.873 70.5037C121.862 70.5617 121.828 70.6136 121.777 70.6482C121.726 70.6829 121.664 70.6977 121.602 70.6894L121.208 70.6292C121.146 70.6197 121.09 70.5877 121.053 70.5399C121.016 70.4922 121.001 70.4327 121.01 70.3743L121.208 69.1961L117.156 68.596C116.519 68.5017 116.399 68.6402 116.325 69.0797L116.225 69.6879C116.197 69.8433 116.138 69.9126 116.023 69.8946L115.615 69.8344C115.513 69.8183 115.449 69.7531 115.449 69.6106Z" fill="#0055A6"/>
<path d="M115.045 71.4759L115.163 70.9581C115.177 70.9008 115.214 70.851 115.267 70.8196C115.319 70.7882 115.383 70.7777 115.444 70.7905L121.293 72.0118C121.323 72.0179 121.352 72.0296 121.377 72.0461C121.403 72.0626 121.424 72.0837 121.441 72.1082C121.458 72.1326 121.469 72.1599 121.474 72.1885C121.48 72.217 121.479 72.2463 121.472 72.2747L121.353 72.7925C121.338 72.8492 121.301 72.8984 121.249 72.9298C121.197 72.9613 121.134 72.9725 121.073 72.9611L115.223 71.7388C115.193 71.7326 115.164 71.7208 115.139 71.7043C115.114 71.6877 115.092 71.6666 115.076 71.6421C115.059 71.6177 115.048 71.5905 115.043 71.5619C115.037 71.5334 115.038 71.5042 115.045 71.4759ZM122.357 73.0254L122.486 72.4734C122.5 72.4163 122.537 72.3666 122.589 72.335C122.641 72.3034 122.705 72.2925 122.766 72.3048L123.684 72.4995C123.744 72.5123 123.797 72.5472 123.83 72.5964C123.864 72.6457 123.875 72.7053 123.862 72.7624L123.734 73.3103C123.72 73.3674 123.683 73.4171 123.631 73.4487C123.578 73.4803 123.515 73.4912 123.454 73.479L122.536 73.2882C122.475 73.2756 122.422 73.2409 122.389 73.1916C122.355 73.1424 122.344 73.0826 122.357 73.0254Z" fill="#0055A6"/>
<path d="M113.923 75.1314C114.427 73.5779 115.771 73.1043 117.423 73.5779L118.276 73.8238C119.924 74.2985 120.754 75.4024 120.249 76.9559C119.744 78.5054 118.391 78.9931 116.743 78.5174L115.891 78.2726C114.243 77.7969 113.413 76.6799 113.923 75.1314ZM117.047 77.5902C118.189 77.9183 119.061 77.6986 119.387 76.706C119.703 75.7225 119.13 75.0832 117.974 74.7521L117.12 74.5052C115.973 74.1741 115.106 74.3889 114.785 75.3773C114.464 76.3608 115.037 77.0081 116.194 77.3453L117.047 77.5902Z" fill="#0055A6"/>
<path d="M110.968 82.484L111.193 82.0003C111.205 81.9734 111.223 81.9492 111.246 81.929C111.268 81.9088 111.295 81.893 111.324 81.8825C111.353 81.8721 111.384 81.8672 111.415 81.8681C111.446 81.869 111.476 81.8757 111.505 81.8878L115.042 83.337C116.129 83.7866 116.62 83.5798 116.978 82.8112C117.176 82.3837 117.222 81.8407 117.194 81.2717L112.652 79.4071C112.597 79.382 112.554 79.3382 112.532 79.2846C112.51 79.231 112.51 79.1715 112.532 79.118L112.762 78.6223C112.79 78.5717 112.837 78.5328 112.894 78.5135C112.951 78.4941 113.013 78.4957 113.069 78.5179L118.551 80.7709C118.58 80.7807 118.606 80.7959 118.628 80.8156C118.649 80.8353 118.667 80.8591 118.678 80.8854C118.69 80.9117 118.696 80.94 118.695 80.9685C118.695 80.997 118.688 81.025 118.675 81.0509L118.441 81.5557C118.43 81.582 118.412 81.6057 118.39 81.6253C118.368 81.6449 118.342 81.6601 118.314 81.6698C118.285 81.6795 118.255 81.6836 118.225 81.6817C118.195 81.6799 118.165 81.6722 118.138 81.6591L117.932 81.5768C118.01 82.2672 117.96 82.7891 117.68 83.3892C117.12 84.6015 116.056 84.8182 114.629 84.2301L111.092 82.777C111.034 82.7532 110.989 82.7091 110.966 82.6543C110.943 82.5995 110.944 82.5383 110.968 82.484Z" fill="#0055A6"/>
<path d="M48.2527 117.717C47.2611 117.73 46.2713 117.636 45.3025 117.437C45.0639 117.381 44.9721 117.295 44.9721 117.127V115.901C44.9721 115.702 45.0778 115.604 45.2427 115.604H45.3163C46.22 115.732 47.1323 115.798 48.0461 115.802C49.3625 115.802 49.918 115.311 49.918 113.744V113.645C49.3341 113.751 48.7415 113.808 48.147 113.817C46.1284 113.817 44.4492 113.01 44.4492 110.672V110.573C44.4492 108.432 45.8254 106.996 48.4036 106.996C50.817 106.996 52.4184 108.334 52.4184 111.138V113.295C52.4184 116.479 50.7989 117.717 48.2527 117.717ZM49.918 111.138C49.918 109.223 49.2713 108.83 48.4036 108.83C47.5782 108.83 46.9496 109.193 46.9496 110.573V110.672C46.9496 111.828 47.67 112.139 48.5552 112.139C49.0124 112.122 49.4678 112.074 49.918 111.997V111.138Z" fill="#0055A6"/>
<path d="M57.9314 117.717C55.3851 117.717 53.8984 116.35 53.8984 112.972V111.76C53.8984 108.377 55.3851 106.996 57.9314 106.996C60.4776 106.996 61.9733 108.377 61.9733 111.76V112.972C61.9733 116.35 60.4776 117.717 57.9314 117.717ZM59.4131 111.76C59.4131 109.533 58.7707 108.998 57.9314 108.998C57.0915 108.998 56.4634 109.533 56.4634 111.76V112.972C56.4634 115.198 57.0915 115.716 57.9314 115.716C58.7707 115.716 59.4131 115.198 59.4131 112.972V111.76Z" fill="#0055A6"/>
<path d="M67.4421 117.717C64.8958 117.717 63.4141 116.35 63.4141 112.972V111.76C63.4141 108.377 64.8958 106.996 67.4421 106.996C69.9937 106.996 71.4888 108.377 71.4888 111.76V112.972C71.4888 116.35 69.9937 117.717 67.4421 117.717ZM68.9286 111.76C68.9286 109.533 68.2819 108.998 67.4421 108.998C66.6075 108.998 65.9747 109.533 65.9747 111.76V112.972C65.9747 115.198 66.6075 115.716 67.4421 115.716C68.2819 115.716 68.9286 115.198 68.9286 112.972V111.76Z" fill="#0055A6"/>
<path d="M75.9421 115.591V109.533L73.9923 110.323C73.9354 110.345 73.8747 110.358 73.813 110.361C73.7084 110.361 73.6486 110.293 73.6486 110.18V108.575C73.6465 108.531 73.6603 108.487 73.6879 108.451C73.7154 108.415 73.755 108.389 73.8002 108.377L76.5109 107.178C76.6203 107.137 76.7377 107.117 76.8555 107.122H78.2045C78.242 107.121 78.2793 107.127 78.3142 107.14C78.349 107.153 78.3807 107.173 78.4073 107.198C78.4338 107.223 78.4547 107.253 78.4686 107.285C78.4826 107.318 78.4893 107.353 78.4884 107.389V115.591H80.4797C80.5184 115.589 80.5572 115.595 80.5935 115.607C80.6299 115.62 80.6632 115.639 80.6915 115.664C80.7198 115.689 80.7424 115.719 80.7581 115.753C80.7738 115.786 80.7822 115.822 80.7828 115.859V117.308C80.782 117.383 80.7498 117.455 80.6931 117.508C80.6364 117.562 80.5598 117.592 80.4797 117.593H73.9507C73.8707 117.592 73.7944 117.561 73.7379 117.508C73.6815 117.455 73.6494 117.383 73.6486 117.308V115.859C73.6492 115.822 73.6576 115.786 73.6732 115.753C73.6888 115.72 73.7113 115.69 73.7395 115.665C73.7676 115.64 73.8008 115.62 73.8371 115.608C73.8734 115.595 73.912 115.589 73.9507 115.591L75.9421 115.591Z" fill="#0055A6"/>
</svg>
