<?xml version="1.0" standalone="no"?>
<!DOCTYPE svg PUBLIC "-//W3C//DTD SVG 20010904//EN"
 "http://www.w3.org/TR/2001/REC-SVG-20010904/DTD/svg10.dtd">
<svg version="1.0" xmlns="http://www.w3.org/2000/svg"
 width="900.000000pt" height="500.000000pt" viewBox="0 0 900.000000 500.000000"
 preserveAspectRatio="xMidYMid meet">

<g transform="translate(0.000000,500.000000) scale(0.100000,-0.100000)"
fill="#000000" stroke="none">
<path d="M8649 2911 c-16 -17 -29 -40 -29 -54 0 -30 45 -87 68 -87 12 0 9 4
-8 13 -75 38 -51 147 33 147 82 0 107 -113 33 -146 -19 -8 -24 -13 -13 -14 31
0 67 45 67 85 0 80 -92 114 -151 56z"/>
<path d="M8677 2904 c-10 -11 -9 -104 2 -104 5 0 12 10 15 23 l6 22 20 -24
c11 -13 23 -21 27 -17 4 3 2 11 -4 17 -9 9 -8 17 0 30 9 14 9 24 1 37 -11 18
-54 28 -67 16z m56 -20 c11 -11 -5 -34 -24 -34 -12 0 -19 7 -19 20 0 19 28 28
43 14z"/>
<path d="M4063 2860 c-45 -19 -56 -80 -22 -124 33 -43 99 -35 125 15 34 66
-34 138 -103 109z"/>
<path d="M6710 2857 c-37 -19 -52 -57 -39 -96 29 -81 149 -60 149 26 0 59 -59
97 -110 70z"/>
<path d="M3050 2445 l0 -415 70 0 70 0 2 318 3 317 126 -315 c124 -311 126
-315 156 -318 l30 -3 122 306 c66 169 121 311 121 316 0 5 5 9 11 9 8 0 10
-90 8 -312 l-4 -313 73 -3 72 -3 0 416 0 415 -102 0 -103 0 -110 -276 c-60
-151 -112 -277 -116 -280 -4 -2 -56 121 -116 274 l-110 277 -102 3 -101 3 0
-416z"/>
<path d="M5320 2710 l0 -150 -44 34 c-140 106 -326 48 -397 -124 -23 -57 -19
-234 7 -290 48 -104 131 -160 237 -160 68 0 110 16 160 60 l37 32 0 -41 0 -41
65 0 65 0 0 415 0 415 -65 0 -65 0 0 -150z m-43 -216 l38 -31 3 -131 3 -131
-42 -30 c-79 -58 -183 -51 -238 16 -77 93 -61 254 32 321 27 20 42 23 99 20
57 -3 72 -8 105 -34z"/>
<path d="M5560 2444 l0 -416 248 4 c218 3 251 5 282 22 97 52 141 143 118 250
-12 55 -74 132 -114 142 -32 8 -30 19 6 34 60 25 100 98 100 180 -1 78 -70
168 -147 189 -21 6 -138 11 -265 11 l-228 0 0 -416z m424 282 c44 -18 66 -52
66 -101 0 -42 -20 -75 -57 -94 -13 -6 -77 -11 -157 -11 l-136 0 0 110 0 110
125 0 c85 0 136 -5 159 -14z m46 -365 c53 -52 52 -131 -1 -175 -30 -25 -34
-26 -180 -26 l-149 0 0 115 0 115 151 0 151 0 28 -29z"/>
<path d="M7330 2709 l0 -151 -35 31 c-46 40 -131 65 -195 56 -27 -4 -73 -21
-102 -38 -109 -66 -157 -238 -110 -394 26 -84 70 -138 136 -169 90 -42 192
-30 264 32 l42 36 0 -41 0 -41 65 0 65 0 0 415 0 415 -65 0 -65 0 0 -151z
m-43 -216 l38 -30 0 -134 0 -133 -43 -30 c-37 -26 -52 -31 -106 -31 -53 0 -68
4 -98 27 -51 39 -72 89 -72 173 0 130 64 199 181 192 52 -2 69 -8 100 -34z"/>
<path d="M4530 2634 c-30 -8 -74 -28 -97 -44 l-43 -30 0 35 0 35 -65 0 -65 0
0 -300 0 -301 63 3 62 3 5 214 5 214 38 30 c31 26 49 32 101 35 54 4 66 1 90
-19 38 -34 45 -78 46 -291 l0 -188 60 0 60 0 0 242 c0 221 -2 245 -20 283 -36
75 -135 107 -240 79z"/>
<path d="M6567 2639 c-47 -11 -71 -23 -119 -61 l-38 -30 0 42 0 41 -62 -3 -63
-3 0 -295 0 -295 63 -3 62 -3 0 209 c0 204 1 209 23 230 32 30 90 52 137 52
l40 0 0 65 c0 36 -1 65 -2 64 -2 -1 -20 -5 -41 -10z"/>
<path d="M7717 2639 c-81 -19 -141 -71 -178 -154 -18 -40 -23 -69 -23 -145 -1
-88 2 -101 32 -162 36 -73 74 -108 145 -132 86 -29 158 -17 232 39 l45 35 0
-58 c0 -67 -23 -112 -72 -142 -69 -42 -187 -34 -261 17 -42 29 -41 29 -81 -38
-15 -26 -15 -27 22 -51 68 -45 134 -61 240 -56 135 6 207 44 255 133 21 38 22
54 25 373 l3 332 -65 0 -66 0 0 -35 0 -35 -45 34 c-25 20 -65 39 -95 45 -57
12 -61 12 -113 0z m210 -146 l38 -30 3 -121 c2 -114 1 -122 -20 -143 -56 -53
-163 -66 -226 -27 -89 55 -101 241 -21 318 36 33 58 40 126 37 52 -2 68 -8
100 -34z"/>
<path d="M8415 2641 c-102 -27 -180 -96 -214 -187 -26 -68 -27 -162 -4 -235
13 -40 32 -68 73 -109 74 -74 130 -94 248 -88 75 3 96 9 150 37 34 19 62 38
62 43 0 8 -25 49 -47 77 -1 2 -27 -9 -55 -25 -44 -24 -64 -29 -124 -29 -59 0
-76 4 -107 25 -35 24 -67 71 -82 118 l-6 22 231 0 c194 0 232 2 236 15 11 28
-17 151 -46 203 -48 83 -123 129 -228 137 -31 2 -70 0 -87 -4z m163 -128 c37
-27 72 -81 72 -109 l0 -24 -170 0 c-129 0 -170 3 -170 13 1 46 57 119 110 140
32 13 130 1 158 -20z"/>
<path d="M4030 2330 l0 -300 65 0 65 0 0 300 0 300 -65 0 -65 0 0 -300z"/>
<path d="M6680 2330 l0 -300 65 0 65 0 0 300 0 300 -65 0 -65 0 0 -300z"/>
</g>
</svg>
