<?xml version="1.0" standalone="no"?>
<!DOCTYPE svg PUBLIC "-//W3C//DTD SVG 20010904//EN"
 "http://www.w3.org/TR/2001/REC-SVG-20010904/DTD/svg10.dtd">
<svg version="1.0" xmlns="http://www.w3.org/2000/svg"
 width="600.000000pt" height="600.000000pt" viewBox="0 0 600.000000 600.000000"
 preserveAspectRatio="xMidYMid meet">

<g transform="translate(0.000000,600.000000) scale(0.100000,-0.100000)"
fill="#000000" stroke="none">
<path d="M3795 3843 c-63 -5 -196 -24 -211 -30 -19 -7 -44 -56 -44 -85 0 -21
7 -25 70 -35 101 -16 114 -27 139 -125 53 -204 85 -275 138 -301 16 -8 66 -17
112 -20 49 -4 94 -13 107 -22 23 -15 24 -20 24 -142 0 -139 -16 -377 -30 -461
-6 -33 -22 -70 -39 -94 -17 -23 -28 -45 -25 -50 3 -4 27 -8 54 -8 l49 0 6 48
c13 109 58 406 65 430 10 38 25 -139 25 -294 -1 -110 -3 -123 -24 -150 l-23
-29 57 -3 c32 -2 60 -1 63 2 2 3 -1 69 -8 146 -11 113 -11 163 -1 263 7 68 11
150 10 182 l-3 57 85 3 c99 3 189 29 273 80 45 27 61 33 67 23 23 -37 149
-393 149 -421 0 -41 -23 -120 -62 -215 -22 -53 -38 -76 -58 -87 -50 -26 -45
-35 18 -35 l59 0 6 45 c4 25 25 89 48 143 23 53 52 128 65 167 12 38 27 71 33
73 13 4 61 -93 61 -123 0 -46 -63 -221 -91 -253 -16 -18 -29 -37 -29 -42 0 -6
26 -10 59 -10 l58 0 7 78 c5 61 14 94 46 159 22 46 40 92 40 103 0 11 -14 61
-31 112 -21 62 -33 120 -36 173 -5 74 -2 85 26 145 41 86 40 107 -10 172 -54
68 -233 243 -329 321 -77 61 -179 117 -215 117 -44 -1 -112 -44 -194 -124 -47
-46 -96 -87 -109 -91 -13 -3 -59 -40 -102 -81 -44 -41 -87 -74 -95 -74 -31 0
-71 29 -87 62 -27 54 -78 233 -78 272 0 39 7 37 -85 29z m1276 -566 c-8 -8
-11 4 -11 39 0 66 14 80 18 19 2 -26 -2 -53 -7 -58z"/>
<path d="M860 3110 l0 -320 80 0 80 0 2 230 3 229 185 -229 185 -229 108 0
107 -1 -2 318 -3 317 -77 3 -78 3 -2 -243 -3 -243 -185 242 -185 242 -107 1
-108 0 0 -320z"/>
<path d="M1770 3110 l0 -321 323 3 324 3 42 28 c56 37 81 80 81 139 0 39 -6
54 -31 82 -16 19 -39 38 -51 42 -19 6 -17 8 16 36 46 38 66 76 66 128 0 83
-50 146 -135 169 -25 7 -154 11 -337 11 l-298 0 0 -320z m557 195 c41 -29 38
-98 -6 -132 -11 -9 -72 -12 -203 -13 l-188 0 0 80 0 80 188 0 c151 0 192 -3
209 -15z m8 -280 c33 -33 32 -70 -4 -106 l-29 -29 -186 0 -186 0 0 80 0 80
190 0 c189 0 191 0 215 -25z"/>
<path d="M2730 3110 l0 -320 80 0 80 0 0 150 c0 83 3 150 8 150 4 0 92 -68
196 -150 l189 -150 94 0 c51 0 93 1 93 3 0 1 -78 70 -174 152 -96 83 -175 153
-175 157 -1 4 77 76 173 160 96 84 175 156 175 161 1 4 -39 7 -89 7 l-89 0
-198 -160 -198 -161 -3 161 -2 160 -80 0 -80 0 0 -320z"/>
<path d="M4300 2449 c-1091 -37 -2083 -149 -2869 -325 -199 -45 -466 -117
-546 -149 -49 -19 -43 -18 235 38 860 175 2196 288 3817 323 l302 7 -73 58
-74 59 -283 -2 c-156 0 -385 -5 -509 -9z"/>
</g>
</svg>
