<?xml version="1.0" standalone="no"?>
<!DOCTYPE svg PUBLIC "-//W3C//DTD SVG 20010904//EN"
 "http://www.w3.org/TR/2001/REC-SVG-20010904/DTD/svg10.dtd">
<svg version="1.0" xmlns="http://www.w3.org/2000/svg"
 width="700.000000pt" height="400.000000pt" viewBox="0 0 700.000000 400.000000"
 preserveAspectRatio="xMidYMid meet">

<g transform="translate(0.000000,400.000000) scale(0.100000,-0.100000)"
fill="#000000" stroke="none">
<path d="M2032 3408 c3 -504 4 -525 25 -579 29 -78 45 -106 96 -174 76 -100
-85 -3 1777 -1078 404 -233 685 -396 896 -519 84 -48 159 -91 169 -94 15 -6
16 32 13 507 -4 462 -6 520 -22 569 -31 96 -79 173 -151 245 -60 60 -106 91
-330 219 -231 133 -393 227 -1135 656 -102 58 -293 169 -425 245 -132 76 -377
218 -545 315 -168 97 -320 185 -338 194 l-33 17 3 -523z"/>
<path d="M4880 3861 c-63 -37 -266 -155 -450 -261 -184 -106 -341 -198 -348
-205 -11 -10 47 -47 295 -190 169 -97 339 -197 376 -222 112 -75 195 -187 238
-323 18 -54 18 -41 18 608 1 364 -2 662 -6 661 -5 0 -60 -31 -123 -68z"/>
<path d="M2031 1623 c-1 -365 1 -663 4 -663 2 0 68 37 147 83 79 46 217 126
308 179 91 52 234 135 318 183 84 49 155 91 157 95 2 3 -152 96 -343 206 -316
181 -354 206 -422 274 -81 80 -130 160 -154 251 -13 49 -15 -11 -15 -608z"/>
<path d="M3648 636 c-80 -29 -118 -77 -118 -151 0 -82 43 -119 190 -160 102
-28 130 -46 130 -79 0 -43 -36 -66 -105 -66 -62 0 -102 22 -113 63 -8 30 -11
32 -60 35 -64 4 -72 -9 -47 -74 29 -77 105 -117 220 -117 132 0 215 63 215
165 0 96 -37 130 -189 171 -55 15 -103 35 -115 47 -19 19 -20 22 -6 47 33 58
151 52 173 -8 11 -27 14 -29 69 -29 l58 0 -6 28 c-11 45 -32 79 -61 100 -58
41 -164 53 -235 28z"/>
<path d="M4200 641 c-136 -42 -213 -188 -180 -344 27 -130 125 -210 257 -210
78 0 124 17 177 63 58 52 79 101 84 203 4 82 3 91 -27 151 -35 72 -80 112
-149 132 -49 15 -122 17 -162 5z m170 -126 c40 -38 53 -83 48 -169 -3 -61 -8
-79 -31 -109 -46 -61 -133 -72 -193 -25 -86 68 -83 256 6 316 49 34 128 27
170 -13z"/>
<path d="M2030 370 l0 -270 55 0 55 0 2 176 3 177 110 -177 110 -176 57 0 58
0 0 271 0 270 -52 -3 -53 -3 -3 -179 -2 -179 -112 182 -112 181 -58 0 -58 0 0
-270z"/>
<path d="M2590 370 l0 -270 205 0 205 0 0 50 0 50 -145 0 -145 0 0 65 0 65
130 0 130 0 0 45 0 45 -130 0 -130 0 0 60 0 60 140 0 140 0 0 50 0 50 -200 0
-200 0 0 -270z"/>
<path d="M3040 590 l0 -50 80 0 80 0 0 -220 0 -220 60 0 60 0 0 220 0 220 80
0 80 0 0 50 0 50 -220 0 -220 0 0 -50z"/>
<path d="M4630 370 l0 -270 191 0 190 0 -3 48 -3 47 -132 3 -133 3 0 219 0
220 -55 0 -55 0 0 -270z"/>
<path d="M5080 200 c-11 -11 -20 -29 -20 -40 0 -50 79 -79 113 -42 55 61 -35
140 -93 82z m78 -2 c7 -7 12 -24 12 -38 0 -31 -17 -50 -45 -50 -28 0 -45 19
-45 50 0 31 17 50 45 50 12 0 26 -5 33 -12z"/>
<path d="M5100 160 c0 -30 14 -41 23 -17 4 9 8 8 16 -3 8 -12 11 -8 11 18 0
28 -3 32 -25 32 -21 0 -25 -5 -25 -30z m40 16 c0 -3 -4 -8 -10 -11 -5 -3 -10
-1 -10 4 0 6 5 11 10 11 6 0 10 -2 10 -4z"/>
</g>
</svg>
