<?xml version="1.0" standalone="no"?>
<!DOCTYPE svg PUBLIC "-//W3C//DTD SVG 20010904//EN"
 "http://www.w3.org/TR/2001/REC-SVG-20010904/DTD/svg10.dtd">
<svg version="1.0" xmlns="http://www.w3.org/2000/svg"
 width="1280.000000pt" height="800.000000pt" viewBox="0 0 1280.000000 800.000000"
 preserveAspectRatio="xMidYMid meet">

<g transform="translate(0.000000,800.000000) scale(0.100000,-0.100000)"
fill="#000000" stroke="none">
<path d="M4327 7503 c-3 -5 -10 -224 -16 -488 -17 -759 -31 -1376 -35 -1560
-8 -381 34 -578 179 -838 281 -503 865 -989 1693 -1409 155 -78 244 -118 266
-118 47 0 422 189 661 333 648 391 1082 797 1313 1227 62 116 95 202 128 334
36 142 39 329 20 1071 -9 336 -19 790 -22 1010 -4 220 -11 410 -15 423 l-9 22
-2079 0 c-1144 0 -2082 -3 -2084 -7z m3877 -291 c5 -9 17 -469 37 -1417 11
-512 10 -568 -5 -648 -19 -101 -62 -222 -113 -322 -223 -436 -812 -929 -1548
-1297 l-160 -80 -50 22 c-42 18 -301 153 -345 180 -8 5 -58 34 -110 64 -308
176 -604 401 -841 636 -243 241 -378 447 -457 700 -34 108 -35 160 -18 1137 9
527 20 975 23 996 l6 37 1788 0 c983 0 1790 -4 1793 -8z"/>
<path d="M4670 7130 c0 -25 16 -44 25 -30 4 7 0 19 -9 28 -13 14 -16 14 -16 2z"/>
<path d="M6023 6630 c-181 -15 -300 -79 -392 -210 -84 -119 -119 -299 -86
-445 22 -102 42 -147 99 -222 68 -90 157 -141 306 -174 25 -6 212 -14 415 -18
442 -8 445 -9 517 -120 23 -38 28 -56 28 -110 0 -73 -25 -138 -67 -171 -66
-52 -86 -54 -703 -60 l-575 -5 0 -160 0 -160 625 1 c693 1 734 4 856 64 149
73 254 275 254 484 -1 225 -97 414 -250 491 -125 62 -223 75 -583 75 -308 0
-399 9 -461 43 -58 31 -92 101 -89 183 2 105 50 164 150 185 41 8 218 12 616
13 l557 1 -2 160 -3 160 -560 1 c-308 1 -601 -2 -652 -6z"/>
<path d="M1615 2160 c-226 -25 -374 -179 -405 -422 -24 -192 65 -390 211 -468
105 -56 143 -61 499 -70 194 -5 344 -13 371 -20 92 -24 159 -107 159 -200 0
-87 -52 -157 -140 -191 -27 -10 -147 -14 -547 -17 l-512 -3 -7 -44 c-3 -25 -4
-84 0 -132 3 -49 5 -91 6 -95 0 -13 1091 -10 1173 3 40 6 96 22 125 36 153 72
252 273 238 483 -16 242 -123 386 -326 438 -39 10 -156 16 -395 22 -204 4
-357 12 -383 19 -158 44 -192 267 -54 353 l37 23 515 3 c283 1 525 4 538 7 21
5 22 9 22 129 0 69 -3 131 -6 140 -6 14 -61 16 -528 15 -286 -1 -552 -5 -591
-9z"/>
<path d="M10235 2160 c-118 -13 -207 -59 -285 -147 -72 -82 -108 -174 -117
-298 -10 -149 34 -281 127 -379 102 -108 212 -135 555 -136 397 -1 473 -17
528 -112 64 -112 30 -230 -83 -286 l-55 -27 -517 -3 -518 -3 0 -140 0 -139
558 0 c610 1 668 5 762 56 94 51 172 160 205 285 19 71 19 229 0 304 -34 134
-107 235 -205 285 -89 45 -141 52 -500 60 -352 9 -400 14 -453 52 -60 43 -87
162 -53 241 17 42 67 84 115 97 23 6 234 10 543 10 428 1 508 3 518 15 14 16
11 241 -3 263 -6 9 -122 12 -530 11 -287 -1 -553 -5 -592 -9z"/>
<path d="M3565 2153 c-69 -10 -195 -46 -260 -76 -231 -104 -346 -300 -376
-644 -19 -211 10 -409 81 -558 133 -275 392 -398 812 -382 181 7 250 22 374
82 122 59 208 148 271 282 66 138 87 249 87 448 -1 512 -186 766 -611 840 -79
14 -302 18 -378 8z m320 -275 c98 -24 181 -92 229 -186 50 -99 60 -162 61
-367 0 -169 -3 -199 -23 -270 -61 -212 -188 -306 -412 -306 -304 0 -440 180
-440 581 0 241 41 374 143 465 98 89 281 123 442 83z"/>
<path d="M8665 2146 c-327 -64 -492 -212 -572 -512 -24 -91 -26 -115 -27 -309
0 -188 2 -219 22 -295 47 -175 141 -318 261 -399 150 -100 310 -141 554 -141
443 0 673 168 763 559 45 192 32 457 -32 656 -72 222 -214 351 -468 422 -77
21 -117 26 -261 29 -117 2 -192 -1 -240 -10z m285 -257 c188 -23 289 -118 341
-317 31 -116 30 -373 -1 -497 -56 -225 -185 -327 -415 -327 -128 0 -220 31
-295 98 -50 46 -82 101 -111 194 -22 69 -24 92 -24 290 0 194 2 222 22 285 51
161 164 255 331 275 37 4 67 8 67 9 0 0 38 -4 85 -10z"/>
<path d="M4794 2128 c-9 -13 -15 -1368 -7 -1540 l4 -98 170 0 169 0 2 288 3
287 380 5 c409 6 411 6 510 64 53 31 137 121 165 176 61 119 85 279 61 405
-25 136 -135 302 -238 357 -107 59 -131 61 -694 65 -421 4 -518 2 -525 -9z
m926 -278 c107 -20 162 -95 163 -224 1 -105 -18 -171 -63 -216 -55 -55 -89
-60 -409 -60 l-281 0 0 248 c0 137 3 252 7 255 10 11 525 8 583 -3z"/>
<path d="M6493 2128 c-10 -17 -17 -1173 -8 -1436 l7 -202 163 0 162 0 6 68 c4
37 7 190 7 340 l0 272 325 0 325 0 0 -317 c0 -175 3 -328 6 -341 6 -22 9 -22
170 -22 l164 0 1 548 c1 861 -1 1084 -7 1093 -3 5 -74 9 -158 9 -116 0 -156
-3 -165 -13 -7 -9 -12 -120 -13 -343 l-3 -329 -320 0 -320 0 -5 330 c-3 182
-9 336 -13 343 -6 9 -50 12 -162 12 -112 0 -156 -3 -162 -12z"/>
</g>
</svg>
