<?xml version="1.0" encoding="UTF-8"?>
<svg version="1.1" xmlns="http://www.w3.org/2000/svg" width="1582" height="420">
<path d="M0 0 C0.33 16.17 0.66 32.34 1 49 C3.64 45.7 6.28 42.4 9 39 C24.55871823 21.2991394 45.44650966 11.07077343 69 9 C92.52859839 7.76243478 115.30895059 10.09079216 134.0859375 25.73828125 C140.66899111 31.82949752 146.69349916 39.95372201 148 49 C151.36552887 45.74019455 154.3279363 42.39473925 157.1875 38.6875 C171.41310924 21.26695885 193.00523154 11.71078816 215 9 C219.21333523 8.72177961 223.403334 8.66586022 227.625 8.6875 C228.75437988 8.69168945 229.88375977 8.69587891 231.04736328 8.70019531 C254.00191333 9.00673427 276.19008003 14.43874749 293 31 C307.47464454 48.12683096 309.31696964 67.58769324 309.22705078 89.07910156 C309.22648569 90.98232517 309.22680514 92.88554922 309.22793579 94.78877258 C309.22850647 99.92223459 309.21679853 105.05560195 309.20278788 110.18904209 C309.19023278 115.5661883 309.18910626 120.943337 309.18673706 126.32049561 C309.18053629 136.48804097 309.16414454 146.655543 309.14403808 156.82306933 C309.1216353 168.4047415 309.11067466 179.9864158 309.10064721 191.56810427 C309.079777 215.37876569 309.04311838 239.18936776 309 263 C295.14 263 281.28 263 267 263 C266.97812622 255.02175049 266.97812622 255.02175049 266.95581055 246.88232422 C266.90542276 229.28829662 266.83896891 211.69435662 266.76428509 194.10041618 C266.71940508 183.43560655 266.67997257 172.77082973 266.65356445 162.10595703 C266.6305211 152.8056105 266.5970527 143.50536848 266.55129844 134.20510495 C266.52745144 129.28508612 266.50866698 124.36517027 266.50238609 119.44509506 C266.49629647 114.80426453 266.47615821 110.16369718 266.44572449 105.52296448 C266.43700596 103.82922831 266.43320868 102.13545765 266.43499184 100.44169998 C266.44591813 85.26013329 265.54700365 70.07666873 255.25390625 57.94140625 C245.53683553 48.5475645 232.02422036 46.05455471 219 46 C201.04061873 46.58375825 184.68195655 51.45836471 171.62109375 64.34765625 C158.72015972 79.40282594 156.54564941 97.65315015 156.56762695 116.66577148 C156.55858396 118.27388244 156.54825064 119.88198657 156.53674316 121.49008179 C156.50944451 125.80519045 156.49992608 130.1201674 156.49388909 134.43535113 C156.48443385 138.96371229 156.45822538 143.49197774 156.43388367 148.02027893 C156.39040998 156.57271626 156.36174604 165.12513482 156.33856028 173.6776486 C156.31140535 183.42393686 156.26750068 193.17012791 156.22227156 202.91634643 C156.12969961 222.94419213 156.06010417 242.97202873 156 263 C142.14 263 128.28 263 114 263 C113.97812622 255.11262939 113.97812622 255.11262939 113.95581055 247.06591797 C113.90542066 229.67145942 113.83896641 212.27708945 113.76428509 194.88271904 C113.71940691 184.33897784 113.67997399 173.79526982 113.65356445 163.25146484 C113.63051961 154.05659303 113.59704958 144.86182691 113.55129844 135.66703904 C113.52745343 130.8029114 113.50866768 125.93888787 113.50238609 121.07470322 C113.49629555 116.48640101 113.47615409 111.89836488 113.44572449 107.31016159 C113.4370074 105.63577632 113.43320837 103.96135617 113.43499184 102.28694916 C113.44686531 85.98031535 112.05703916 68.29040121 100 56 C86.48565822 45.5020403 69.70345832 45.48378078 53.3671875 47.43359375 C40.97414811 50.09396621 30.78651407 57.12001238 22 66 C21.37609375 66.59039062 20.7521875 67.18078125 20.109375 67.7890625 C16.03490451 71.95530034 13.38043702 76.66439343 10.75 81.8125 C10.2557251 82.77168335 10.2557251 82.77168335 9.75146484 83.75024414 C4.44481731 94.62819298 3.55387877 105.18284172 3.56762695 117.11987305 C3.55859347 118.71754201 3.5482624 120.31520408 3.53674316 121.91285706 C3.50933316 126.21787219 3.49991057 130.52275525 3.49388909 134.82784629 C3.48446347 139.33888138 3.4582569 143.84981943 3.43388367 148.36079407 C3.39032969 156.88857327 3.3617147 165.41633351 3.33856028 173.94418985 C3.31144888 183.65894751 3.26754118 193.37360701 3.22227156 203.08829439 C3.12958434 223.05882382 3.06004766 243.02934391 3 263 C-10.86 263 -24.72 263 -39 263 C-39 182.15 -39 101.3 -39 18 C-3 0 -3 0 0 0 Z " fill="#61697D" transform="translate(1045,59)"/>
<path d="M0 0 C0.92941406 0.45246094 1.85882812 0.90492187 2.81640625 1.37109375 C9.55444668 4.82914232 15.26745014 9.07588666 21 14 C21.86625 14.7321875 22.7325 15.464375 23.625 16.21875 C28.30127856 20.25204026 28.30127856 20.25204026 30 22 C30 22.66 30 23.32 30 24 C30.66 24 31.32 24 32 24 C40.41350505 33.73377815 46.89346414 44.22489473 52 56 C52.27537598 56.62277832 52.55075195 57.24555664 52.83447266 57.88720703 C63.17374702 81.71303337 65 107.33962761 65 133 C3.95 133 -57.1 133 -120 133 C-117.43500049 159.93249485 -113.1319337 180.23180023 -92.6328125 198.05859375 C-83.56682094 204.91150656 -71.3455989 210.58180014 -60 212 C-58.7315625 212.16242188 -58.7315625 212.16242188 -57.4375 212.328125 C-37.10103599 214.52353873 -16.96781423 212.31112422 0 200 C9.83612788 191.85308192 14.35974585 181.94439465 18.01953125 170.02734375 C19 167 19 167 20 166 C23.02977804 165.91128727 26.03667022 165.8848065 29.06640625 165.90234375 C29.97502914 165.9037587 30.88365204 165.90517365 31.81980896 165.90663147 C34.73407221 165.91224807 37.64825981 165.92480335 40.5625 165.9375 C42.53320202 165.94251286 44.50390524 165.94707614 46.47460938 165.95117188 C51.31643559 165.96222289 56.15820495 165.97949862 61 166 C60.3962631 168.67325911 59.78593038 171.34473372 59.171875 174.015625 C59.00413574 174.76150879 58.83639648 175.50739258 58.66357422 176.27587891 C54.6597733 193.58808851 46.39222877 208.29736859 34 221 C33.13375 221.9075 32.2675 222.815 31.375 223.75 C30.59125 224.4925 29.8075 225.235 29 226 C28.55011719 226.44472656 28.10023438 226.88945312 27.63671875 227.34765625 C8.39699634 245.25062375 -19.62254048 250.22783191 -44.875 250.25 C-45.56530304 250.25067474 -46.25560608 250.25134949 -46.96682739 250.25204468 C-57.88647577 250.23511106 -68.3757847 249.6786642 -79 247 C-79.66418945 246.83902832 -80.32837891 246.67805664 -81.01269531 246.51220703 C-106.06909215 240.22697592 -128.66066496 224.2266806 -142.4375 202.3125 C-143.6466915 200.22072336 -144.83635506 198.11745226 -146 196 C-146.45761719 195.19433594 -146.91523437 194.38867188 -147.38671875 193.55859375 C-166.0714163 158.72371597 -168.99447578 113.09784439 -158.15234375 75.5390625 C-152.51388682 58.22231003 -144.6064117 43.03877851 -133 29 C-132.10667969 27.87658203 -132.10667969 27.87658203 -131.1953125 26.73046875 C-101.55103213 -9.22563208 -41.32207474 -20.81273368 0 0 Z M-92 41 C-92.83015625 41.66902344 -93.6603125 42.33804688 -94.515625 43.02734375 C-110.96708751 57.04064041 -118.08012179 75.88133969 -120 97 C-73.47 97 -26.94 97 21 97 C18.00604507 74.54533806 11.12744897 56.54136465 -6.58203125 41.859375 C-31.25332109 23.98725953 -67.40685035 21.07585056 -92 41 Z " fill="#61697D" transform="translate(920,77)"/>
<path d="M0 0 C18.35039927 15.67304593 24.49495496 35.69450456 26.625 59.125 C12.765 59.125 -1.095 59.125 -15.375 59.125 C-17.355 51.7 -17.355 51.7 -19.375 44.125 C-26.27447638 31.58049748 -36.04549124 25.62073706 -49.4453125 21.0859375 C-67.1481934 16.43186316 -90.78081088 16.75391028 -107.3828125 24.9609375 C-113.81467622 28.71916375 -119.35943498 32.89231346 -122.625 39.75 C-124.30092962 47.29168328 -124.26174734 54.28968572 -120.375 61.125 C-112.52100804 72.90598794 -97.33224966 77.86736833 -84.296875 81.46875 C-83.51926315 81.68403351 -82.74165131 81.89931702 -81.94047546 82.12112427 C-73.33680823 84.46362854 -64.64992755 86.4189559 -55.95205688 88.37530518 C1.03964314 101.25347029 1.03964314 101.25347029 18.625 117.125 C18.625 117.785 18.625 118.445 18.625 119.125 C19.615 119.455 20.605 119.785 21.625 120.125 C26.47440958 125.79094261 30.93148112 132.13746552 33.625 139.125 C33.92277344 139.88941406 34.22054687 140.65382812 34.52734375 141.44140625 C40.01656826 158.81973453 38.11118269 180.82017663 29.875 197 C18.22848819 216.44967472 0.2641382 229.06750868 -21.375 235.125 C-36.5959334 238.7471467 -51.50261949 240.36108415 -67.125 240.375 C-67.90612152 240.37600708 -68.68724304 240.37701416 -69.49203491 240.37805176 C-99.15646152 240.35218416 -129.66207153 234.83098587 -152.03125 213.66015625 C-161.95407491 202.9269673 -168.45698626 190.20251174 -171.75 176 C-172.00197144 174.92649292 -172.00197144 174.92649292 -172.2590332 173.83129883 C-173.50191357 167.91368421 -173.5394862 162.15475483 -173.375 156.125 C-167.55428378 156.10035362 -161.73359766 156.0821657 -155.9128418 156.07006836 C-153.93106559 156.06502733 -151.94929311 156.05819462 -149.9675293 156.04956055 C-147.12547891 156.03748485 -144.28347753 156.03176955 -141.44140625 156.02734375 C-140.54974258 156.02218246 -139.65807892 156.01702118 -138.73939514 156.01170349 C-136.61759399 156.01150823 -134.4958922 156.0628997 -132.375 156.125 C-130.65971148 157.84028852 -130.87885268 160.28339884 -130.5625 162.625 C-128.72651712 173.93572665 -123.45788271 183.42336354 -114.4765625 190.68359375 C-93.47387524 205.08878259 -65.61744789 205.00885756 -41.375 201.125 C-33.58696689 199.44110095 -27.05851532 196.76451586 -20.3984375 192.39453125 C-18.375 191.125 -18.375 191.125 -15.375 190.125 C-14.34848627 188.40980253 -14.34848627 188.40980253 -13.375 186.125 C-12.35799153 184.37574542 -11.32126912 182.63956005 -10.27734375 180.90625 C-6.76439214 173.97159228 -7.15072297 163.42918472 -9.24609375 156.0625 C-14.74687682 144.23130757 -26.08919914 139.48953732 -37.59765625 134.81640625 C-53.01445701 129.31684575 -69.33646583 126.1105038 -85.29296875 122.58984375 C-107.56879285 117.65529469 -130.68831804 112.38275658 -148.375 97.125 C-149.07238281 96.57070312 -149.76976562 96.01640625 -150.48828125 95.4453125 C-161.41120259 86.51772707 -166.95939743 74.01887708 -168.375 60.125 C-169.50875159 40.9705652 -165.47863905 23.38832661 -152.70703125 8.4921875 C-116.99944522 -27.75370385 -39.91160123 -30.60295033 0 0 Z " fill="#61697D" transform="translate(589.375,86.875)"/>
<path d="M0 0 C1.15822266 0.80050781 1.15822266 0.80050781 2.33984375 1.6171875 C2.88769531 2.07351562 3.43554688 2.52984375 4 3 C4 3.66 4 4.32 4 5 C4.66 5 5.32 5 6 5 C19.54772194 20.28183035 26 38.65977917 26 59 C12.47 59 -1.06 59 -15 59 C-15.99 55.535 -15.99 55.535 -17 52 C-20.45949517 40.35904468 -25.52827723 32.74458229 -36.109375 26.5 C-47.73314952 20.46820349 -59.76460448 18.61484412 -72.75 18.6875 C-74.32152832 18.69487183 -74.32152832 18.69487183 -75.92480469 18.70239258 C-90.14371499 18.91600487 -106.91476466 20.97161084 -117.59765625 31.3671875 C-123.21722573 37.9103074 -123.44237054 43.90057661 -123.43359375 52.4140625 C-122.97071987 56.24215462 -121.87808404 58.66436983 -120 62 C-119.67 62.99 -119.34 63.98 -119 65 C-117.15659247 66.06532813 -117.15659247 66.06532813 -115 67 C-113.63502667 67.92169486 -112.28145895 68.8604244 -110.9375 69.8125 C-94.61454853 80.72979871 -74.46734411 84.22607782 -55.625 88.5 C11.57533645 103.79615814 11.57533645 103.79615814 29 130 C38.94590303 145.93512528 38.87561471 165.65851236 34.90625 183.48046875 C30.4662895 200.72359122 18.61226588 214.37982495 4 224 C-27.31054986 242.35953511 -69.99705192 244.6589784 -105 237 C-105.65871094 236.86609863 -106.31742188 236.73219727 -106.99609375 236.59423828 C-128.08957502 232.21744702 -148.70653062 220.87189434 -160.75 202.625 C-169.78513503 187.5386198 -172.74427712 173.58012027 -174 156 C-160.14 156 -146.28 156 -132 156 C-131.01 160.62 -130.02 165.24 -129 170 C-127.6710473 173.70083516 -127.6710473 173.70083516 -126.0625 176.5625 C-125.33740234 177.95662109 -125.33740234 177.95662109 -124.59765625 179.37890625 C-121.7466069 184.05630018 -118.77025755 187.46022133 -114.25 190.5625 C-113.45078125 191.12066406 -112.6515625 191.67882812 -111.828125 192.25390625 C-105.45125834 196.19100487 -99.47332929 198.69233769 -92.125 200.1875 C-91.33270996 200.35475586 -90.54041992 200.52201172 -89.72412109 200.69433594 C-84.16484007 201.83698201 -78.68061175 202.77930056 -73 203 C-72.154375 203.03996094 -71.30875 203.07992187 -70.4375 203.12109375 C-51.1545959 203.57638454 -30.17755721 201.81034929 -15.23046875 188.4140625 C-9.56322325 182.53998322 -7.8934209 175.43420601 -7.625 167.4375 C-7.89550728 159.09881903 -10.46780336 152.26398778 -16 146 C-18.27288987 144.17774294 -20.67877289 142.7974201 -23.25 141.4375 C-23.95616455 141.05674316 -24.6623291 140.67598633 -25.38989258 140.28369141 C-44.44948786 130.31444606 -66.03092281 126.63395175 -86.85571289 122.03808594 C-110.03650246 116.89469798 -132.80701493 110.9582976 -151 95 C-152.05960938 94.08927734 -152.05960938 94.08927734 -153.140625 93.16015625 C-162.20915006 84.78162766 -167.46610326 72.93027275 -168.1262207 60.65234375 C-168.66602903 42.19946738 -166.73545473 26.0884418 -155 11 C-154.34 11 -153.68 11 -153 11 C-152.73832031 10.40703125 -152.47664063 9.8140625 -152.20703125 9.203125 C-145.63525181 -2.79196758 -127.45333569 -10.13829661 -115 -14 C-78.46557691 -23.97455157 -31.44863759 -22.95030346 0 0 Z " fill="#61697D" transform="translate(1545,87)"/>
<path d="M0 0 C0.85464844 0.31839844 1.70929688 0.63679688 2.58984375 0.96484375 C20.18146806 8.16844386 32.25472083 20.95270878 40 38 C44.07887121 48.25511652 46 58.98492914 46 70 C32.14 70 18.28 70 4 70 C3.01 65.71 2.02 61.42 1 57 C-1.54544862 51.71329902 -3.70647387 47.97548716 -8 44 C-8 43.34 -8 42.68 -8 42 C-8.54398438 41.73058594 -9.08796875 41.46117187 -9.6484375 41.18359375 C-11.32861943 40.33792078 -12.99958119 39.4738275 -14.6640625 38.59765625 C-34.26666627 28.434301 -58.77920948 26.27286505 -80 33 C-80.91652344 33.29003906 -81.83304687 33.58007812 -82.77734375 33.87890625 C-90.84966144 36.78008509 -98.01105979 41.17554036 -102 49 C-104.52595254 56.28799421 -104.51923039 63.05000099 -101.75 70.25 C-88.01195181 91.83836143 -54.27242323 95.22719644 -31.71179199 100.3895874 C29.58528254 114.41982356 29.58528254 114.41982356 47 138 C57.69002199 155.16307278 59.2194149 173.50256953 54.97265625 193.13671875 C52.486798 203.01026819 48.2102184 210.98367781 42 219 C41.36449219 219.83789062 40.72898438 220.67578125 40.07421875 221.5390625 C34.11761281 228.60622209 26.00667342 233.55629625 18 238 C17.3915625 238.35707031 16.783125 238.71414063 16.15625 239.08203125 C-13.96308769 255.66087722 -59.85813812 255.28858765 -92.3137207 246.40722656 C-113.90389254 239.9831813 -132.76492315 227.87976064 -144 208 C-144.38800781 207.33484375 -144.77601563 206.6696875 -145.17578125 205.984375 C-151.61029608 194.15878018 -154 180.32309611 -154 167 C-140.14 167 -126.28 167 -112 167 C-111.01 171.95 -110.02 176.9 -109 182 C-104.2699079 193.43105591 -97.96114985 200.30699969 -87 206 C-85.95392578 206.57041016 -85.95392578 206.57041016 -84.88671875 207.15234375 C-64.79186383 217.1808495 -33.92115855 216.71922515 -12.8125 209.75 C-2.55744726 205.93494242 5.21541893 200.92755049 10.03125 190.83984375 C13.45260852 181.85877764 12.74576311 172.78635791 9 164 C8.00697206 162.66146599 7.00811408 161.32720902 6 160 C6 159.34 6 158.68 6 158 C5.46761719 157.74734375 4.93523437 157.4946875 4.38671875 157.234375 C2.6030032 156.31186418 0.86088698 155.3081174 -0.85546875 154.265625 C-21.03600125 142.05794063 -44.06563486 138.0676752 -66.85571289 133.03808594 C-88.51995767 128.23119118 -111.77908655 122.80779182 -129 108 C-129.87140625 107.26265625 -130.7428125 106.5253125 -131.640625 105.765625 C-141.33092022 96.88768986 -147.21061113 85.33019756 -148.21777344 72.15014648 C-149.1515236 48.12151358 -149.1515236 48.12151358 -144 37 C-143.57589844 36.05511719 -143.15179688 35.11023438 -142.71484375 34.13671875 C-133.52624817 15.63155271 -116.10401489 4.37528195 -97.09179688 -2.18212891 C-93.75862288 -3.25043269 -90.39680872 -4.15813963 -87 -5 C-86.34966797 -5.16371094 -85.69933594 -5.32742187 -85.02929688 -5.49609375 C-58.04427545 -11.92996093 -25.95521254 -9.77533979 0 0 Z " fill="#61697D" transform="translate(154,76)"/>
<path d="M0 0 C15.51 0 31.02 0 47 0 C51.5002651 11.25066274 51.5002651 11.25066274 52.94091797 15.29199219 C53.27090286 16.21476456 53.60088776 17.13753693 53.94087219 18.08827209 C54.28780624 19.06461105 54.6347403 20.04095001 54.9921875 21.046875 C55.5594178 22.63603981 55.5594178 22.63603981 56.1381073 24.25730896 C57.38564377 27.75419651 58.63035345 31.25208291 59.875 34.75 C60.53684398 36.60664612 61.19869008 38.46329149 61.86072636 40.31986904 C68.84833745 59.91625158 75.80090565 79.52507266 82.75263596 99.13420486 C89.616873 118.49635888 96.50705929 137.84891917 103.4375 157.1875 C103.82487335 158.26921478 104.2122467 159.35092957 104.61135864 160.46542358 C109.34080165 173.6686371 114.12576254 186.84952209 119 200 C126.98241031 177.37133503 134.8280936 154.70021805 142.52624512 131.97323608 C147.62295877 116.93121936 152.80267884 101.9216772 158.06570435 86.93713379 C165.25757119 66.43980643 172.18783076 45.85349563 179.12229252 25.26799583 C180.06367113 22.473945 181.00601696 19.68022082 181.94843483 16.88652039 C182.60526587 14.937715 183.26039967 12.9883446 183.91545105 11.03894043 C184.30799576 9.87487671 184.70054047 8.71081299 185.10498047 7.51147461 C185.44834442 6.49089462 185.79170837 5.47031464 186.14547729 4.41880798 C187 2 187 2 188 0 C202.52 0 217.04 0 232 0 C231.31136592 3.44317041 230.67961173 6.13690612 229.4597168 9.33227539 C229.14314117 10.16720016 228.82656555 11.00212494 228.50039673 11.86235046 C228.153508 12.76500137 227.80661926 13.66765228 227.44921875 14.59765625 C226.90084854 16.03834221 226.90084854 16.03834221 226.34140015 17.50813293 C225.12733942 20.69442739 223.9075026 23.87847637 222.6875 27.0625 C221.82777834 29.31451463 220.96832663 31.56663233 220.10913086 33.81884766 C217.41268466 40.88176453 214.70756345 47.94133849 212 55 C211.36499573 56.65566986 211.36499573 56.65566986 210.71716309 58.3447876 C205.74714031 71.30039337 200.7642429 84.25102718 195.77537537 97.1993866 C191.17833393 109.1309058 186.58919786 121.06546226 182 133 C180.33211036 137.33727001 178.6641402 141.67450904 176.99609375 146.01171875 C176.58338226 147.08484818 176.17067078 148.1579776 175.74545288 149.2636261 C173.25688355 155.73381523 170.76690941 162.20346175 168.27578735 168.67266846 C166.20422143 174.05243135 164.13333619 179.43245618 162.0625 184.8125 C161.65427002 185.87285461 161.24604004 186.93320923 160.82543945 188.0256958 C155.56188762 201.69987182 150.32453067 215.38375053 145.11203003 229.07746887 C140.42442137 241.39127464 135.72122177 253.69904217 131 266 C130.6713092 266.85734741 130.34261841 267.71469482 130.00396729 268.59802246 C113.81632363 310.78413205 113.81632363 310.78413205 100 327 C99.36707031 327.74507813 98.73414063 328.49015625 98.08203125 329.2578125 C88.81449806 339.30878664 75.76027589 345.3940976 62.13842773 346.16113281 C33.14630031 346.57315016 33.14630031 346.57315016 24 342 C24 329.46 24 316.92 24 304 C33 306 33 306 36.5 307.0625 C46.45609731 309.72931178 56.42613216 309.60815993 65.8125 304.875 C78.98208025 296.6737271 83.95427038 280.38858948 89.59887695 266.69042969 C90.24496217 265.13799183 90.90367389 263.59075275 91.57446289 262.04882812 C92.55989884 259.78081822 93.50410681 257.49919161 94.44140625 255.2109375 C94.74430069 254.53461273 95.04719513 253.85828796 95.35926819 253.16146851 C98.87890064 244.24969915 93.29269076 234.8710106 89.90258789 226.53442383 C89.50202179 225.53912659 89.10145569 224.54382935 88.68875122 223.51837158 C87.3707684 220.24627578 86.04666096 216.97669445 84.72265625 213.70703125 C83.79117477 211.39680153 82.86014783 209.08638849 81.92955017 206.77580261 C79.72646358 201.30817009 77.51977184 195.84200512 75.31099361 190.37666959 C70.69205842 178.94760686 66.08077439 167.51545907 61.47265625 156.08203125 C61.00173931 154.91405817 60.53082237 153.74608509 60.04563522 152.54271889 C54.44406226 138.64440753 48.91155825 124.72749839 43.55207825 110.73403931 C38.92925438 98.71240431 34.11319512 86.76941649 29.296875 74.82421875 C28.86874449 73.76209986 28.44061398 72.69998096 27.99950981 71.60567665 C24.00543756 61.69887266 20.00562091 51.79439088 16.00341797 41.89086914 C13.78867094 36.40984578 11.57723945 30.92749434 9.367836 25.44431496 C8.53184671 23.3716508 7.69452989 21.29952158 6.85585785 19.22794151 C5.69735565 16.36633494 4.54302773 13.5030787 3.38964844 10.6394043 C3.04382217 9.7882756 2.69799591 8.93714691 2.34169006 8.06022644 C0 2.22787223 0 2.22787223 0 0 Z " fill="#61697D" transform="translate(193,74)"/>
<path d="M0 0 C0 24.42 0 48.84 0 74 C22.11 74 44.22 74 67 74 C65.60804933 78.175852 64.35007511 81.51843893 62.35546875 85.3359375 C61.84306641 86.31820312 61.33066406 87.30046875 60.80273438 88.3125 C60.26970703 89.323125 59.73667969 90.33375 59.1875 91.375 C58.66607422 92.37789063 58.14464844 93.38078125 57.60742188 94.4140625 C56.09776012 97.29391663 54.58866496 100.16281066 53 103 C52.57066146 103.99401542 52.57066146 103.99401542 52.13264942 105.00811195 C50.96280654 107.38059168 49.8766346 109.12546242 48 111 C44.33341098 112.11990315 40.81617875 111.93463528 37.01171875 111.78125 C35.95338333 111.76993042 34.89504791 111.75861084 33.80464172 111.74694824 C30.43040526 111.70222853 27.06044758 111.60186835 23.6875 111.5 C21.39784791 111.45986757 19.10812908 111.4233664 16.81835938 111.390625 C11.21078427 111.30250896 5.60569773 111.16871754 0 111 C-0.0468274 130.72419249 -0.08204131 150.44837363 -0.10362434 170.17261028 C-0.11391437 179.33197074 -0.12793099 188.49129655 -0.15087891 197.65063477 C-0.17088265 205.63869257 -0.18373294 213.62672527 -0.18817699 221.61480743 C-0.19077259 225.84008094 -0.19682544 230.06528267 -0.21146011 234.29053307 C-0.22515469 238.27710823 -0.22919895 242.26358284 -0.22621536 246.25017929 C-0.22676026 247.70408871 -0.23066637 249.1580019 -0.23841095 250.61189079 C-0.82190827 266.08676453 -0.82190827 266.08676453 4.1875 280.1875 C10.76810262 284.4283328 17.58271112 284.32745932 25.18359375 284.4140625 C26.23909927 284.43342865 27.2946048 284.4527948 28.38209534 284.4727478 C31.7338162 284.53224553 35.08557197 284.57880965 38.4375 284.625 C40.71811345 284.6632072 42.99871289 284.70226051 45.27929688 284.7421875 C50.8527397 284.83792242 56.42626777 284.92305617 62 285 C59.2629437 291.48419872 56.2085856 297.76649678 53.0625 304.0625 C52.53720703 305.12533203 52.01191406 306.18816406 51.47070312 307.28320312 C50.95572266 308.31509766 50.44074219 309.34699219 49.91015625 310.41015625 C49.21611694 311.80439819 49.21611694 311.80439819 48.50805664 313.22680664 C48.01039795 314.14196045 47.51273926 315.05711426 47 316 C46.4426416 317.09175537 45.8852832 318.18351074 45.31103516 319.30834961 C43 322 43 322 39.41918945 322.71289062 C37.98381755 322.72545692 36.54789951 322.70442524 35.11328125 322.65625 C34.33800583 322.65250366 33.56273041 322.64875732 32.76396179 322.64489746 C31.11712521 322.63145583 29.47035254 322.6036233 27.82397461 322.5625 C25.36573458 322.50132478 22.91009081 322.4806588 20.45117188 322.46875 C-16.88554979 322.10071505 -16.88554979 322.10071505 -30 311 C-42.29936469 298.2623506 -42.30575364 280.5530623 -42.22705078 263.94042969 C-42.22648549 262.2539521 -42.22680553 260.56747401 -42.22793579 258.8809967 C-42.2285057 254.33841977 -42.21681043 249.79595012 -42.20278788 245.25339794 C-42.19021977 240.49285118 -42.18910525 235.73230151 -42.18673706 230.97174072 C-42.18054007 221.97291955 -42.16415352 212.97414741 -42.14403808 203.97534776 C-42.12162343 193.72375993 -42.1106717 183.47216967 -42.10064721 173.22056341 C-42.07978558 152.14701424 -42.04423794 131.07351195 -42 110 C-49.92 110 -57.84 110 -66 110 C-66.02290956 105.03371566 -66.04283643 100.06761337 -66.05493164 95.10131836 C-66.0599719 93.41055684 -66.06680405 91.71979971 -66.07543945 90.02905273 C-66.08751857 87.60399293 -66.09323123 85.17899056 -66.09765625 82.75390625 C-66.10281754 81.99348526 -66.10797882 81.23306427 -66.11329651 80.44960022 C-66.11349238 78.6326743 -66.06197277 76.81586873 -66 75 C-65.505 74.505 -65.505 74.505 -65 74 C-57.41 74 -49.82 74 -42 74 C-42 55.52 -42 37.04 -42 18 C-35.626875 15.03 -29.25375 12.06 -22.6875 9 C-19.67435669 7.59041016 -19.67435669 7.59041016 -16.6003418 6.15234375 C-15.00851104 5.41360926 -13.41648339 4.67529884 -11.82421875 3.9375 C-10.99748657 3.54884766 -10.17075439 3.16019531 -9.31896973 2.75976562 C-8.52752563 2.39431641 -7.73608154 2.02886719 -6.9206543 1.65234375 C-6.23448532 1.33257568 -5.54831635 1.01280762 -4.84135437 0.68334961 C-3 0 -3 0 0 0 Z " fill="#61697D" transform="translate(697,0)"/>
<path d="M0 0 C22.44 0 44.88 0 68 0 C66.60804933 4.175852 65.35007511 7.51843893 63.35546875 11.3359375 C62.84306641 12.31820312 62.33066406 13.30046875 61.80273438 14.3125 C61.26970703 15.323125 60.73667969 16.33375 60.1875 17.375 C59.66607422 18.37789062 59.14464844 19.38078125 58.60742188 20.4140625 C57.09776012 23.29391663 55.58866496 26.16281066 54 29 C53.70000595 29.69373718 53.4000119 30.38747437 53.09092712 31.10223389 C51.92786694 33.46891677 50.90211407 35.16520605 49 37 C45.2570535 38.11017425 41.66844985 37.93423124 37.79296875 37.78125 C36.71243729 37.76993042 35.63190582 37.75861084 34.51863098 37.74694824 C31.07310414 37.70222318 27.63176502 37.60186011 24.1875 37.5 C21.84966955 37.45986835 19.51177375 37.42336704 17.17382812 37.390625 C11.44631487 37.30929716 5.72783256 37.15279879 0 37 C0 24.79 0 12.58 0 0 Z " fill="#F16223" transform="translate(696,74)"/>
</svg>
