<?xml version="1.0" encoding="UTF-8"?>
<svg version="1.1" xmlns="http://www.w3.org/2000/svg" width="2659" height="823">
<path d="M0 0 C0.84509125 -0.00111786 1.6901825 -0.00223572 2.56088257 -0.00338745 C44.06986689 0.02328896 44.06986689 0.02328896 60.125 5.375 C60.06441406 6.09913086 60.00382813 6.82326172 59.94140625 7.56933594 C59.66842009 10.83782026 59.39660812 14.10640088 59.125 17.375 C59.04121094 18.37853516 58.95742188 19.38207031 58.87109375 20.41601562 C58.61716955 23.48527403 58.37059483 26.55506468 58.125 29.625 C58.0425 30.60984375 57.96 31.5946875 57.875 32.609375 C56.0285095 55.92131754 55.87819289 79.3106604 55.59893799 102.68109131 C55.54737758 106.98392119 55.49247812 111.28668304 55.43312073 115.58941269 C55.4072387 117.55762588 55.38608165 119.52589948 55.3651123 121.49417114 C55.25121269 129.82551636 54.80666903 138.07136684 54.125 146.375 C51.92231661 147.24702123 49.71486134 148.09745702 47.5 148.9375 C46.27023437 149.41316406 45.04046875 149.88882813 43.7734375 150.37890625 C37.88755213 151.98586639 33.52035843 150.30967551 28.0390625 147.96875 C26.87342773 147.47648926 25.70779297 146.98422852 24.50683594 146.47705078 C23.89481323 146.2157135 23.28279053 145.95437622 22.65222168 145.68511963 C19.39859255 144.29946156 16.13253666 142.94369282 12.8671875 141.5859375 C12.20883911 141.31192108 11.55049072 141.03790466 10.87219238 140.75558472 C-20.8378273 127.57712051 -50.53549236 120.57325356 -84.875 121.375 C-85.77105957 121.39433594 -86.66711914 121.41367188 -87.59033203 121.43359375 C-111.26860897 122.0309311 -126.18877377 125.71422651 -143.12890625 142.625 C-147.92042585 147.74662429 -149.901394 152.0658526 -149.84375 159.29296875 C-149.70831721 160.7182775 -149.55090807 162.14161879 -149.375 163.5625 C-149.280979 164.34222168 -149.18695801 165.12194336 -149.09008789 165.92529297 C-147.79101631 175.40653435 -144.98612395 184.35124242 -141.875 193.375 C-141.57770996 194.24205566 -141.28041992 195.10911133 -140.97412109 196.00244141 C-134.56239306 214.41052267 -126.59645457 232.20195695 -118.77392578 250.04101562 C-116.56789392 255.07201894 -114.37988589 260.11074117 -112.19311523 265.15014648 C-110.42403075 269.22667548 -108.64997784 273.30103432 -106.875 277.375 C-102.54515419 276.67793985 -98.62040301 275.23296116 -94.55859375 273.63671875 C-93.07633919 273.06369461 -91.5939092 272.49112412 -90.11132812 271.91894531 C-89.33088135 271.61653931 -88.55043457 271.3141333 -87.74633789 271.00256348 C-28.31327529 248.04669954 33.23572711 231.70818206 96.5625 224.125 C97.81434082 223.97385742 99.06618164 223.82271484 100.35595703 223.66699219 C125.06812914 220.87390831 149.71831676 219.99756756 174.5625 220.0625 C176.07200107 220.06472428 177.58150221 220.06690071 179.09100342 220.06903076 C201.54708773 220.11289469 223.82239948 220.54197182 246.125 223.375 C247.36845184 223.53125854 247.36845184 223.53125854 248.63702393 223.69067383 C267.58310061 226.08850182 286.46717331 228.81398134 305.18579102 232.62280273 C312.51223231 234.10983791 319.85084174 235.25227808 327.25 236.3125 C362.19762082 241.46110361 393.66346916 253.80473535 423.91796875 271.8984375 C428.74610515 274.78054495 433.72243766 277.33372373 438.75390625 279.83984375 C441.125 281.375 441.125 281.375 442.07080078 283.29516602 C443.23825456 285.59844039 444.33607484 286.616224 446.36328125 288.1875 C447.01192139 288.69925781 447.66056152 289.21101563 448.32885742 289.73828125 C449.02470947 290.27839844 449.72056152 290.81851562 450.4375 291.375 C458.00093116 297.38706685 465.16801581 303.67370895 472.125 310.375 C472.67816895 310.90625488 473.23133789 311.43750977 473.80126953 311.98486328 C480.27370223 318.23455669 486.376729 324.59134322 491.96484375 331.66015625 C494.19716068 334.46569019 496.53105484 337.16234436 498.875 339.875 C544.54845926 394.64053202 570.32510128 471.15396268 570.375 542 C570.37601212 543.29490356 570.37601212 543.29490356 570.37704468 544.6159668 C570.35918867 559.05163261 569.61968712 573.12928668 567.125 587.375 C566.9693457 588.29458496 566.81369141 589.21416992 566.65332031 590.16162109 C559.60018825 630.34758012 542.21005732 669.91921062 516.125 701.375 C515.39676025 702.25551025 515.39676025 702.25551025 514.65380859 703.15380859 C503.6021451 716.41510774 491.80577642 728.79945818 478.125 739.375 C476.86028809 740.37971887 475.5959947 741.38496471 474.33203125 742.390625 C400.90347343 800.27686267 292.91045247 829.49737064 199.84375 819.125 C179.47209469 816.5605342 159.71334848 812.53694249 140.125 806.375 C139.25617188 806.10461914 138.38734375 805.83423828 137.4921875 805.55566406 C96.68880518 792.65459465 60.88212398 769.84924081 30.125 740.375 C29.30386719 739.59511719 28.48273437 738.81523438 27.63671875 738.01171875 C21.97362055 732.50511376 17.04401645 726.54541423 12.125 720.375 C11.17750839 719.22773808 10.22820686 718.08196914 9.27734375 716.9375 C1.79093977 707.86454909 -4.76558487 698.42287457 -10.875 688.375 C-11.34905273 687.59979004 -11.82310547 686.82458008 -12.31152344 686.02587891 C-36.53271473 646.05363235 -51.95825245 601.33356064 -59.875 555.375 C-60.03871094 554.48828613 -60.20242188 553.60157227 -60.37109375 552.68798828 C-65.75253732 522.83987824 -65.38800043 488.99081248 -58.875 459.375 C-58.66069336 458.39031738 -58.44638672 457.40563477 -58.22558594 456.39111328 C-50.06626247 420.13735073 -34.08882929 387.34912364 -10.875 358.375 C-10.20645996 357.53291992 -10.20645996 357.53291992 -9.52441406 356.67382812 C-2.96198185 348.48645862 4.29971648 341.00495481 11.6875 333.5625 C12.54980225 332.69085205 13.41210449 331.8192041 14.30053711 330.92114258 C20.26741255 324.98364669 26.53405319 319.60517113 33.125 314.375 C34.52609794 313.23704846 35.9271442 312.09903326 37.328125 310.9609375 C54.4162727 297.31217702 72.75423981 285.51459735 92.125 275.375 C92.77952148 275.02920898 93.43404297 274.68341797 94.10839844 274.32714844 C118.66809823 261.42498804 144.48296369 252.87381128 171.125 245.375 C89.78049346 253.70001427 11.70449187 275.32005386 -75.875 317 C-76.60662354 317.35405914 -77.33824707 317.70811829 -78.09204102 318.07290649 C-80.16712293 319.07922271 -82.2402603 320.0894083 -84.3125 321.1015625 C-84.93306274 321.40310745 -85.55362549 321.7046524 -86.19299316 322.01533508 C-88.89064253 323.33935233 -91.3682909 324.7038606 -93.875 326.375 C-94.73170505 332.45352628 -93.85713211 338.89443176 -93.3671608 344.98972321 C-92.87379179 351.76805106 -92.73555678 358.49543187 -92.75042725 365.28942871 C-92.7490171 366.51202062 -92.74760695 367.73461253 -92.74615407 368.99425268 C-92.74378237 371.65296599 -92.74317853 374.31160614 -92.74571037 376.97031212 C-92.74981825 381.30698158 -92.74697424 385.64363195 -92.74336243 389.9803009 C-92.73927965 395.48820092 -92.73703296 400.99609662 -92.73694643 406.50399816 C-92.73674034 417.49564491 -92.72407794 428.48724903 -92.70733643 439.47888184 C-92.70473041 441.23015864 -92.7021316 442.98143545 -92.6995399 444.73271227 C-92.69559985 447.38929636 -92.69165323 450.04588045 -92.68767868 452.70246449 C-92.67273081 462.72725977 -92.65913026 472.75205642 -92.64697266 482.77685547 C-92.64530231 484.14908883 -92.64530231 484.14908883 -92.64359823 485.54904407 C-92.62853587 498.24270504 -92.62291722 510.93634151 -92.62425321 523.63001072 C-92.62639966 545.6804934 -92.6043229 567.73083808 -92.546875 589.78125 C-92.5446809 590.65139693 -92.54248681 591.52154386 -92.54022622 592.41805887 C-92.36465848 660.71179218 -90.51973133 728.88989362 -87.61811066 797.11978149 C-87.56798805 798.30573583 -87.51786543 799.49169017 -87.46622396 800.71358252 C-87.37375864 802.88952245 -87.27980747 805.06540005 -87.18397403 807.24119425 C-87.12249427 808.68399956 -87.12249427 808.68399956 -87.05977249 810.15595245 C-87.02387489 810.97688401 -86.98797728 811.79781556 -86.95099187 812.64362383 C-86.85150571 816.21945523 -86.875 819.79778492 -86.875 823.375 C-146.275 823.375 -205.675 823.375 -266.875 823.375 C-266.34179522 814.31051881 -265.80486949 805.2793785 -265.12496948 796.23114014 C-264.2142642 783.77612521 -263.65351109 771.34613418 -263.3671875 758.86328125 C-263.34704464 758.0237365 -263.32690178 757.18419174 -263.30614853 756.31920624 C-262.76181793 733.55999648 -262.448212 710.7964893 -262.11590576 688.03341675 C-261.91171448 674.05994284 -261.69889737 660.08659989 -261.484375 646.11328125 C-261.47295896 645.36858747 -261.46154292 644.62389369 -261.44978094 643.85663342 C-260.79727763 601.32042234 -260.04923502 558.78583473 -259.30164623 516.25120735 C-259.24983243 513.30296496 -259.19805123 510.35472199 -259.14627838 507.40647888 C-258.72459895 483.39594906 -258.30099603 459.38545362 -257.875 435.375 C-259.47264698 436.65032007 -261.06990204 437.92613111 -262.66699219 439.20214844 C-263.55650574 439.91256287 -264.44601929 440.62297729 -265.36248779 441.35491943 C-268.32317433 443.73533586 -271.23079697 446.16415358 -274.125 448.625 C-274.66237793 449.08189209 -275.19975586 449.53878418 -275.75341797 450.00952148 C-276.88476022 450.97222355 -278.01545346 451.93568882 -279.14550781 452.89990234 C-280.90488878 454.40049238 -282.66723299 455.89755308 -284.4296875 457.39453125 C-290.8678085 462.87511144 -297.20596405 468.43708331 -303.4375 474.15234375 C-305.51772725 476.04921764 -307.62056898 477.90892943 -309.75 479.75 C-316.92486143 485.99286912 -324.01500017 492.40787288 -330.6875 499.1875 C-335.80470687 504.38488245 -341.28220016 508.95561916 -347.19287109 513.22412109 C-355.32482617 519.55766561 -362.60545391 526.11521774 -364.3889122 536.62243557 C-365.62852222 547.03377542 -365.07262028 557.57188236 -364.6164856 568.01797104 C-364.41746355 573.11293155 -364.34421247 578.21006017 -364.25195312 583.30786133 C-363.9916701 596.04278129 -363.51383211 608.76662588 -363.02198792 621.49434662 C-362.79082142 627.59741326 -362.57871146 633.7011216 -362.36613488 639.80485916 C-361.56507108 662.76752889 -360.75158883 685.72984728 -359.74815774 708.68468535 C-359.6586442 710.73985334 -359.57031767 712.79506882 -359.48241997 714.85030651 C-359.45363656 715.52279723 -359.42485315 716.19528796 -359.39519751 716.88815719 C-359.36662834 717.55577439 -359.33805917 718.2233916 -359.30862427 718.91123962 C-359.09536285 723.8893057 -358.87031296 728.86660748 -358.63693237 733.84376526 C-357.67714054 756.07894282 -357.875 778.03715795 -357.875 800.375 C-415.955 800.375 -474.035 800.375 -533.875 800.375 C-533.875 783.55518652 -533.77394107 767.01424334 -533.09765625 750.25 C-532.70983937 739.62837999 -532.78387394 729.0017001 -532.875 718.375 C-533.37837891 718.88361572 -533.88175781 719.39223145 -534.40039062 719.91625977 C-536.72251978 722.25940728 -539.0487277 724.59846602 -541.375 726.9375 C-542.16648437 727.73736328 -542.95796875 728.53722656 -543.7734375 729.36132812 C-548.09885073 733.70446846 -552.49172252 737.89023141 -557.14160156 741.88452148 C-559.30840467 743.74766697 -561.40089482 745.68619013 -563.5 747.625 C-569.09022951 752.66216266 -574.96440505 757.28012342 -580.92285156 761.86865234 C-582.96246929 763.44249444 -584.9930559 765.02754662 -587.0234375 766.61328125 C-617.71935999 790.48124983 -649.67692528 805.64571057 -688.875 809.375 C-689.75067627 809.46040039 -690.62635254 809.54580078 -691.52856445 809.63378906 C-701.32919752 810.49834574 -711.10584435 810.61815764 -720.9375 810.625 C-722.2536731 810.62601212 -722.2536731 810.62601212 -723.59643555 810.62704468 C-754.56150784 810.58946571 -784.45197333 806.18054345 -813.875 796.375 C-814.90947266 796.033479 -814.90947266 796.033479 -815.96484375 795.68505859 C-839.39338222 787.81274998 -860.19337347 775.61523498 -877.875 758.375 C-879.02162109 757.33859375 -879.02162109 757.33859375 -880.19140625 756.28125 C-895.68347968 741.8700189 -907.00896615 721.23998308 -913.875 701.375 C-914.09639648 700.73546387 -914.31779297 700.09592773 -914.54589844 699.43701172 C-925.65476373 666.4937614 -926.34531408 631.03780215 -926.22319686 596.62913191 C-926.21001238 591.94998101 -926.21464145 587.2708391 -926.21690369 582.5916748 C-926.21846254 574.52068238 -926.20920052 566.44976376 -926.19219017 558.3787899 C-926.16761357 546.71010843 -926.15997603 535.04146196 -926.1562262 523.37275741 C-926.14969065 504.43248546 -926.12980895 485.49225268 -926.10131836 466.55200195 C-926.07370221 448.17374871 -926.05250582 429.79550618 -926.03979492 411.41723633 C-926.03900675 410.280836 -926.03821858 409.14443568 -926.03740653 407.97359898 C-926.03349088 402.27154815 -926.02969989 396.56949725 -926.02597082 390.8674463 C-925.99496532 343.70327043 -925.94220946 296.53913726 -925.875 249.375 C-914.40188499 248.59427443 -902.92825534 247.82161474 -891.45395811 247.05845013 C-886.12242678 246.70360835 -880.79108928 246.34628449 -875.46014786 245.98267937 C-844.45098062 243.87015088 -813.68336265 242.52711145 -782.59234619 242.9630127 C-777.34950967 243.02836348 -772.10642026 243.05257287 -766.86328125 243.08203125 C-756.86664789 243.14337849 -746.87093975 243.24325698 -736.875 243.375 C-737.87958358 261.37697818 -737.87958358 261.37697818 -738.7421875 270.19140625 C-738.90619507 271.93607585 -739.06974921 273.68078813 -739.23291016 275.42553711 C-739.35946991 276.76864456 -739.35946991 276.76864456 -739.48858643 278.1388855 C-743.50565016 321.14435243 -745.55327637 364.21003642 -746.875 407.375 C-746.9029364 408.2864679 -746.9308728 409.19793579 -746.95965576 410.13702393 C-747.31513535 421.89149408 -747.58704541 433.64692134 -747.81640625 445.40447998 C-747.87952679 448.60449423 -747.94556392 451.80444163 -748.01171875 455.00439453 C-748.63335936 485.47072242 -748.97703607 515.9298896 -748.99793625 546.40220261 C-748.99996795 548.71354286 -749.00371266 551.0248748 -749.00784302 553.33621216 C-749.08564178 603.13581628 -748.321163 650.38566173 -711.8125 688.875 C-691.34470972 708.92164233 -665.64515774 713.77458117 -638.0043335 713.60848999 C-628.64227518 713.51059044 -619.93918946 712.84112958 -610.875 710.375 C-610.1418457 710.17632324 -609.40869141 709.97764648 -608.65332031 709.77294922 C-588.57020616 704.16161448 -571.7828544 693.2805731 -560.9140625 675.09375 C-526.74377317 613.44759101 -534.10174927 523.90991573 -536.12626487 456.23227461 C-536.3340645 449.27077662 -536.52916294 442.30893662 -536.72378028 435.34705969 C-537.07106097 422.93498847 -537.42753981 410.52320056 -537.7902832 398.11157227 C-538.14132197 386.09965906 -538.4881703 374.08763705 -538.8293457 362.07543945 C-538.8505174 361.33007853 -538.87168909 360.58471761 -538.89350235 359.81676999 C-539.02081891 355.33321269 -539.14797267 350.84965077 -539.27507298 346.36608733 C-539.46002918 339.84233402 -539.64522526 333.31858753 -539.83058167 326.79484558 C-539.85050883 326.09334817 -539.870436 325.39185075 -539.89096702 324.66909584 C-540.1660148 314.98992436 -540.44393865 305.3108394 -540.72443913 295.63182445 C-540.81803722 292.40091111 -540.91138763 289.16999062 -541.00479126 285.93907166 C-541.14229739 281.18333656 -541.28071763 276.42762928 -541.41966248 271.67193604 C-541.48065162 269.56460165 -541.54160748 267.4572663 -541.6025238 265.34992981 C-541.63044256 264.40347794 -541.65836132 263.45702607 -541.6871261 262.48189384 C-541.75519281 260.11302679 -541.81697227 257.74413061 -541.875 255.375 C-541.91436723 253.85983811 -541.91436723 253.85983811 -541.95452976 252.31406689 C-541.875 250.375 -541.875 250.375 -540.875 249.375 C-538.86870797 249.10156185 -536.85346421 248.8937279 -534.83691406 248.71069336 C-534.19715448 248.6520429 -533.55739491 248.59339245 -532.89824867 248.53296471 C-530.72955954 248.3371092 -528.56026357 248.14987641 -526.390625 247.96484375 C-525.2467098 247.86673936 -525.2467098 247.86673936 -524.07968521 247.76665306 C-518.09665075 247.25791621 -512.11135778 246.78032702 -506.125 246.3125 C-505.23891304 246.24262627 -504.35282608 246.17275253 -503.439888 246.10076141 C-454.96277429 242.30557928 -406.46318617 242.77737656 -357.875 243.375 C-357.54251322 261.64284667 -357.96041499 279.80461326 -358.96875 298.046875 C-359.02379007 299.04582479 -359.07883015 300.04477459 -359.1355381 301.07399559 C-359.42379724 306.27819241 -359.71726876 311.48208307 -360.01260376 316.68588257 C-362.23371478 355.96441095 -363.66797888 395.03104776 -362.875 434.375 C-362.44268066 434.02079483 -362.01036133 433.66658966 -361.56494141 433.301651 C-353.44379138 426.65529049 -345.31727521 420.04998459 -336.875 413.8125 C-335.16655764 412.54181324 -333.45822563 411.2709781 -331.75 410 C-330.925 409.38769531 -330.1 408.77539062 -329.25 408.14453125 C-327.07482316 406.5238814 -324.90985642 404.89098466 -322.75 403.25 C-312.32394068 395.33481257 -301.66181799 387.78979311 -290.875 380.375 C-290.2551825 379.94890442 -289.63536499 379.52280884 -288.99676514 379.08380127 C-284.79592522 376.19777383 -280.58947469 373.32012048 -276.37747192 370.45040894 C-274.96136122 369.48497217 -273.54621598 368.51811771 -272.13204956 367.54983521 C-270.14064521 366.18740644 -268.14516397 364.83117515 -266.1484375 363.4765625 C-265.54414413 363.06165054 -264.93985077 362.64673859 -264.31724548 362.21925354 C-260.10371017 359.375 -260.10371017 359.375 -257.875 359.375 C-257.89054428 358.81014389 -257.90608856 358.24528778 -257.92210388 357.66331482 C-258.70511932 327.7666165 -257.99113156 299.6096081 -251.33062744 270.40527344 C-250.63128453 267.28900516 -249.99558579 264.16013864 -249.35546875 261.03125 C-239.04406226 211.51811087 -222.67828695 164.47732799 -195.875 121.375 C-195.34261719 120.50891113 -194.81023438 119.64282227 -194.26171875 118.75048828 C-187.06892116 107.07436961 -179.62607753 95.93381185 -170.875 85.375 C-170.16472656 84.47394531 -169.45445312 83.57289062 -168.72265625 82.64453125 C-164.16839717 76.90294206 -159.30318866 71.4862356 -154.3125 66.125 C-153.69922852 65.46322754 -153.08595703 64.80145508 -152.45410156 64.11962891 C-148.1681806 59.56540975 -143.63827338 55.42306152 -138.875 51.375 C-137.94816406 50.56675781 -137.02132812 49.75851563 -136.06640625 48.92578125 C-110.09273567 26.81149709 -80.34463838 11.02461695 -46.8125 4.125 C-46.08305176 3.97385742 -45.35360352 3.82271484 -44.60205078 3.66699219 C-29.84791495 0.84545876 -14.99216726 -0.02829793 0 0 Z M135.125 318.375 C134.29226563 319.11363281 133.45953125 319.85226562 132.6015625 320.61328125 C119.36451288 333.05610789 111.90060129 348.71219787 107.875 366.25 C107.72377686 366.90774414 107.57255371 367.56548828 107.41674805 368.24316406 C104.31489472 383.03257651 103.74891134 397.88007983 103.8125 412.9375 C103.81465515 413.85975372 103.8168103 414.78200745 103.81903076 415.73220825 C103.9460883 449.6980677 111.30131279 481.08375112 121.75 513.3125 C122.55556004 515.82181984 123.36048366 518.33134407 124.16479492 520.84106445 C125.74981457 525.77752507 127.34307827 530.71120304 128.94384766 535.64257812 C130.55722616 540.61362738 132.15224323 545.59008336 133.73413086 550.57122803 C140.04716116 570.41664016 147.38377741 589.46782124 156.125 608.375 C156.6303125 609.47908203 157.135625 610.58316406 157.65625 611.72070312 C164.70840672 627.06465349 172.58184143 641.81362613 181.125 656.375 C181.64094727 657.2609082 182.15689453 658.14681641 182.68847656 659.05957031 C191.91364827 674.86829313 201.98055901 689.8528774 213.125 704.375 C213.92786044 705.45906032 214.7299179 706.5437157 215.53125 707.62890625 C232.18968249 729.87529394 252.86875572 747.87293553 280.125 755.375 C280.92292969 755.60058594 281.72085937 755.82617188 282.54296875 756.05859375 C309.56660183 762.2882071 340.72698963 754.2560523 364.125 740.375 C367.70109857 737.93567449 370.93693051 735.2988331 374.125 732.375 C374.83011719 731.74980469 375.53523438 731.12460937 376.26171875 730.48046875 C397.11133677 710.98111171 400.94964598 678.73688337 402.25390625 651.703125 C403.72651212 583.76690748 379.47312628 499.46897443 349.125 439.375 C348.5666748 438.26189453 348.00834961 437.14878906 347.43310547 436.00195312 C344.84284422 430.83833045 342.25220291 425.67498344 339.6418457 420.52148438 C335.93869515 413.18406132 332.49279193 405.79546068 329.375 398.1875 C319.31615568 373.84816276 303.48846802 352.89471973 285.50585938 333.83935547 C284.1890722 332.44294644 282.88330084 331.03617406 281.578125 329.62890625 C266.01370739 313.38059756 247.82828127 301.42546329 226.125 295.375 C225.25101563 295.12878906 224.37703125 294.88257813 223.4765625 294.62890625 C193.6179459 287.80004283 157.687233 298.20127701 135.125 318.375 Z " fill="#FF6601" transform="translate(925.875,-0.375)"/>
<path d="M0 0 C5.24283652 0.06535078 10.48592593 0.08956018 15.72906494 0.11901855 C25.7256983 0.1803658 35.72140644 0.28024428 45.71734619 0.4119873 C44.71276261 18.41396548 44.71276261 18.41396548 43.85015869 27.22839355 C43.68615112 28.97306316 43.52259698 30.71777543 43.35943604 32.46252441 C43.23287628 33.80563187 43.23287628 33.80563187 43.10375977 35.1758728 C39.08669603 78.18133973 37.03906982 121.24702372 35.71734619 164.4119873 C35.68940979 165.3234552 35.66147339 166.2349231 35.63269043 167.17401123 C35.27721084 178.92848139 35.00530078 190.68390864 34.77593994 202.44146729 C34.7128194 205.64148154 34.64678227 208.84142893 34.58062744 212.04138184 C33.95898683 242.50770973 33.61531012 272.96687691 33.59440994 303.43918991 C33.59237824 305.75053016 33.58863353 308.06186211 33.58450317 310.37319946 C33.50670441 360.17280359 34.27118319 407.42264903 70.77984619 445.9119873 C91.24763647 465.95862963 116.94718845 470.81156847 144.5880127 470.64547729 C153.95007101 470.54757775 162.65315673 469.87811688 171.71734619 467.4119873 C172.45050049 467.21331055 173.18365479 467.01463379 173.93902588 466.80993652 C194.02214003 461.19860178 210.80949179 450.3175604 221.67828369 432.1307373 C255.84857302 370.48457831 248.49059692 280.94690303 246.46608132 213.26926192 C246.25828169 206.30776392 246.06318325 199.34592392 245.86856591 192.38404699 C245.52128522 179.97197577 245.16480639 167.56018786 244.80206299 155.14855957 C244.45102423 143.13664637 244.10417589 131.12462435 243.76300049 119.11242676 C243.7418288 118.36706584 243.7206571 117.62170492 243.69884384 116.8537573 C243.57152728 112.37019999 243.44437352 107.88663808 243.31727321 103.40307464 C243.13231702 96.87932133 242.94712093 90.35557484 242.76176453 83.83183289 C242.74183736 83.13033547 242.72191019 82.42883805 242.70137917 81.70608314 C242.42633139 72.02691167 242.14840754 62.34782671 241.86790706 52.66881175 C241.77430897 49.43789842 241.68095856 46.20697792 241.58755493 42.97605896 C241.4500488 38.22032387 241.31162856 33.46461659 241.17268372 28.70892334 C241.11169458 26.60158895 241.05073872 24.49425361 240.98982239 22.38691711 C240.96190363 21.44046524 240.93398487 20.49401337 240.90522009 19.51888114 C240.83715338 17.15001409 240.77537392 14.78111791 240.71734619 12.4119873 C240.67797896 10.89682541 240.67797896 10.89682541 240.63781643 9.35105419 C240.71734619 7.4119873 240.71734619 7.4119873 241.71734619 6.4119873 C243.72363822 6.13854916 245.73888199 5.9307152 247.75543213 5.74768066 C248.39519171 5.68903021 249.03495129 5.63037975 249.69409752 5.56995201 C251.86278665 5.3740965 254.03208262 5.18686371 256.20172119 5.00183105 C257.34563639 4.90372666 257.34563639 4.90372666 258.51266098 4.80364037 C264.49569544 4.29490352 270.48098841 3.81731433 276.46734619 3.3494873 C277.35343315 3.27961357 278.23952011 3.20973984 279.15245819 3.13774872 C327.62957191 -0.65743342 376.12916002 -0.18563614 424.71734619 0.4119873 C425.02256146 17.9398552 424.70113414 35.35256493 423.64556885 52.85144043 C423.5351302 54.7001873 423.424698 56.54893456 423.31427193 58.39768219 C423.14106124 61.28988158 422.96768414 64.18207045 422.79375708 67.07422686 C419.29445955 125.61660591 418.91782495 184.08503216 419.0644834 242.71590215 C419.08668854 251.63730371 419.09905133 260.55866449 419.10446307 269.4800917 C419.14748602 338.26351824 419.51975497 407.00353329 422.93756104 475.7166748 C422.99548388 476.88959611 423.05340672 478.06251741 423.11308479 479.27098179 C423.37239483 484.46946336 423.6431564 489.66632932 423.95516968 494.86192322 C425.10529574 515.77378495 424.71734619 536.34352793 424.71734619 557.4119873 C366.63734619 557.4119873 308.55734619 557.4119873 248.71734619 557.4119873 C248.71734619 540.59217383 248.81840512 524.05123064 249.49468994 507.2869873 C249.88250682 496.6653673 249.80847225 486.0386874 249.71734619 475.4119873 C249.21396729 475.92060303 248.71058838 476.42921875 248.19195557 476.95324707 C245.86982641 479.29639458 243.54361849 481.63545332 241.21734619 483.9744873 C240.42586182 484.77435059 239.63437744 485.57421387 238.81890869 486.39831543 C234.49349546 490.74145577 230.10062367 494.92721872 225.45074463 498.92150879 C223.28394153 500.78465427 221.19145137 502.72317743 219.09234619 504.6619873 C213.50211668 509.69914997 207.62794114 514.31711073 201.66949463 518.90563965 C199.6298769 520.47948174 197.59929029 522.06453392 195.56890869 523.65026855 C164.8729862 547.51823713 132.91542091 562.68269788 93.71734619 566.4119873 C92.84166992 566.4973877 91.96599365 566.58278809 91.06378174 566.67077637 C81.26314868 567.53533304 71.48650184 567.65514495 61.65484619 567.6619873 C60.3386731 567.66299942 60.3386731 567.66299942 58.99591064 567.66403198 C28.03083835 567.62645301 -1.85962714 563.21753076 -31.28265381 553.4119873 C-32.31712646 553.07046631 -32.31712646 553.07046631 -33.37249756 552.7220459 C-56.80103603 544.84973729 -77.60102727 532.65222228 -95.28265381 515.4119873 C-96.4292749 514.37558105 -96.4292749 514.37558105 -97.59906006 513.3182373 C-113.09113349 498.90700621 -124.41661995 478.27697038 -131.28265381 458.4119873 C-131.50405029 457.77245117 -131.72544678 457.13291504 -131.95355225 456.47399902 C-143.06241754 423.53074871 -143.75296789 388.07478945 -143.63085067 353.66611922 C-143.61766619 348.98696832 -143.62229526 344.30782641 -143.6245575 339.62866211 C-143.62611635 331.55766969 -143.61685433 323.48675107 -143.59984398 315.41577721 C-143.57526738 303.74709573 -143.56762983 292.07844926 -143.56388 280.40974472 C-143.55734446 261.46947277 -143.53746276 242.52923999 -143.50897217 223.58898926 C-143.48135602 205.21073602 -143.46015962 186.83249349 -143.44744873 168.45422363 C-143.44666056 167.31782331 -143.44587239 166.18142298 -143.44506034 165.01058628 C-143.44114469 159.30853546 -143.43735369 153.60648456 -143.43362463 147.90443361 C-143.40261913 100.74025774 -143.34986327 53.57612456 -143.28265381 6.4119873 C-131.8095388 5.63126173 -120.33590915 4.85860204 -108.86161192 4.09543743 C-103.53008059 3.74059565 -98.19874309 3.3832718 -92.86780167 3.01966667 C-61.85863443 0.90713819 -31.09101646 -0.43590125 0 0 Z " fill="#8CB517" transform="translate(143.28265380859375,242.5880126953125)"/>
<path d="M0 0 C1.44758194 0.00273422 1.44758194 0.00273422 2.92440796 0.00552368 C18.3142437 0.05434597 33.36961674 0.65020794 48.5625 3.3125 C49.52768555 3.47878906 50.49287109 3.64507812 51.48730469 3.81640625 C79.25297741 8.79266356 107.88575145 18.70289075 129.5625 37.3125 C130.32175781 37.94671875 131.08101562 38.5809375 131.86328125 39.234375 C144.41228767 50.11721082 156.46982239 62.11286085 166.5625 75.3125 C167.34367187 76.26511719 168.12484375 77.21773438 168.9296875 78.19921875 C191.64618675 106.40023106 197.24331184 135.86064658 199.5625 171.3125 C199.68787722 173.02846107 199.68787722 173.02846107 199.81578732 174.77908802 C200.91028051 191.15311187 200.69832167 207.56642503 200.67856562 223.96773899 C200.67420327 228.51891309 200.67571161 233.07008599 200.6764679 237.6212616 C200.6769895 245.48559601 200.6738809 253.34992207 200.66823006 261.21425438 C200.66006548 272.58443232 200.65749478 283.95460626 200.65624207 295.32478682 C200.6540593 313.77699233 200.64742032 332.22919339 200.63793945 350.68139648 C200.62874522 368.5944822 200.62168573 386.5075667 200.61743164 404.4206543 C200.61716364 405.53807347 200.61689565 406.65549265 200.61661953 407.80677301 C200.61453982 416.54713072 200.612583 425.28748846 200.61066496 434.02784622 C200.60124974 476.78940156 200.58112707 519.55094576 200.5625 562.3125 C138.1925 562.3125 75.8225 562.3125 11.5625 562.3125 C11.5625 555.05037148 11.73214201 548.22793512 12.5222168 541.0715332 C12.73110987 539.06600993 12.9392268 537.06040571 13.14668274 535.05473328 C13.25714746 533.99995977 13.36761219 532.94518627 13.48142433 531.85844994 C16.69727297 500.82830105 18.60463481 469.73943868 20.26301956 438.59434557 C20.37612518 436.47895596 20.49056736 434.36364269 20.60543823 432.24834824 C22.63363465 394.87792283 24.22781238 357.56241436 24.0625 320.125 C24.05887577 319.27182064 24.05525154 318.41864128 24.05151749 317.539608 C23.9944461 305.79491802 23.8106854 294.05455037 23.5625 282.3125 C23.5278518 280.61072837 23.49322509 278.90895631 23.45861816 277.20718384 C23.36851319 272.84631254 23.27131979 268.48564625 23.16871643 264.1250515 C23.13013547 262.4843995 23.0924769 260.84372547 23.05589294 259.20302773 C22.26944855 186.58172531 22.26944855 186.58172531 -7.28125 123.31640625 C-28.40324157 103.68672931 -58.01579805 99.73558275 -85.73999023 100.38500977 C-111.68779688 101.35611957 -138.18243289 106.4970463 -157.4375 125.3125 C-182.39059906 153.77401268 -185.70848217 198.69024524 -189.125 234.8125 C-189.24439941 236.07433105 -189.36379883 237.33616211 -189.48681641 238.63623047 C-191.11547791 256.83434255 -191.6751655 274.99866987 -191.6875 293.265625 C-191.68883942 294.47577522 -191.69017883 295.68592545 -191.69155884 296.93274689 C-191.68174014 339.711728 -190.06172353 382.48291188 -188.76520824 425.23725367 C-188.18359373 444.41854492 -187.61528501 463.60023219 -187.05169773 482.78206086 C-186.85479998 489.47198545 -186.65395879 496.16177546 -186.4495697 502.85147524 C-186.3229632 507.01413254 -186.19913899 511.17686974 -186.07590866 515.33962822 C-186.01907376 517.23932196 -185.96109143 519.13898185 -185.90175247 521.03859901 C-185.87420254 521.92210722 -185.8466526 522.80561543 -185.81826782 523.71589661 C-185.79421686 524.47504647 -185.7701659 525.23419634 -185.74538612 526.01635075 C-185.41245847 538.13986959 -185.4375 550.16060764 -185.4375 562.3125 C-246.4875 562.3125 -307.5375 562.3125 -370.4375 562.3125 C-370.4375 532.02114287 -370.4375 532.02114287 -369.45678711 520.45214844 C-368.21346699 503.50962309 -368.13709354 486.60962736 -368.1312871 469.62827539 C-368.12718577 465.2353025 -368.11063846 460.84237657 -368.09494019 456.44943237 C-368.06927045 448.99479824 -368.04821505 441.54016732 -368.03048706 434.08551025 C-367.98308263 414.74696787 -367.89775181 395.40860331 -367.7890625 376.0703125 C-367.78378595 375.12277713 -367.7785094 374.17524177 -367.77307296 373.19899321 C-367.60461146 343.48337791 -367.14339146 313.80594222 -365.97945404 284.11008453 C-365.80575809 279.66586106 -365.63987742 275.22134469 -365.47314453 270.77685547 C-365.44108351 269.92439051 -365.40902248 269.07192554 -365.37598991 268.19362831 C-365.28172716 265.68638403 -365.18773557 263.17912968 -365.09375 260.671875 C-365.06365719 259.87341785 -365.03356438 259.07496071 -365.00255966 258.25230789 C-362.9606479 203.839055 -365.27623557 149.76503984 -368.30249023 95.43115234 C-368.57965242 90.4073861 -368.85381257 85.38346728 -369.125 80.359375 C-369.19049105 79.14681156 -369.25598209 77.93424812 -369.32345772 76.68494034 C-370.4806769 54.88172154 -370.80453301 33.14108242 -370.4375 11.3125 C-359.63169287 10.52340924 -348.82544823 9.74062643 -338.01862335 8.96559143 C-332.99900725 8.60540603 -327.9795586 8.24316074 -322.96044922 7.87597656 C-318.10432279 7.52079581 -313.24781413 7.17132798 -308.39100647 6.82559204 C-306.5508038 6.69363059 -304.7107402 6.55971282 -302.87083435 6.42367554 C-285.78300816 5.16259943 -269.34742264 5.00670938 -252.3359375 7.24609375 C-250.75902717 7.44631591 -249.1820083 7.64568479 -247.60488892 7.84425354 C-243.50613161 8.36273444 -239.40901742 8.89321402 -235.31213379 9.42626953 C-231.96354826 9.85994872 -228.61391674 10.28519419 -225.2641964 10.71000576 C-218.33307354 11.58901693 -211.40264306 12.47350701 -204.47412109 13.37280273 C-203.25663177 13.53046616 -202.03914246 13.68812958 -200.78475952 13.85057068 C-197.65740865 14.28215211 -194.54844493 14.77630856 -191.4375 15.3125 C-192.27159178 42.3187643 -193.36029114 69.31505679 -194.4375 96.3125 C-193.77225311 95.54189491 -193.77225311 95.54189491 -193.09356689 94.75572205 C-188.16534816 89.0796248 -183.00125392 83.69008426 -177.68701172 78.37670898 C-176.19856763 76.88608385 -174.71832723 75.38762983 -173.23828125 73.88867188 C-166.96740264 67.58052855 -160.43881996 61.8159479 -153.4375 56.3125 C-152.72819336 55.74394287 -152.01888672 55.17538574 -151.28808594 54.58959961 C-140.51034589 45.98152572 -129.24810203 38.42354162 -117.4375 31.3125 C-116.77459961 30.90547852 -116.11169922 30.49845703 -115.42871094 30.07910156 C-94.67150919 17.38646103 -71.4431323 9.23537436 -47.75 4.0625 C-47.06317139 3.91119629 -46.37634277 3.75989258 -45.66870117 3.60400391 C-30.52186582 0.51352568 -15.40926758 -0.06052735 0 0 Z " fill="#FF6601" transform="translate(1880.4375,237.6875)"/>
<path d="M0 0 C0.94686676 0.00093658 1.89373352 0.00187317 2.86929321 0.00283813 C70.98844891 0.14838116 141.21938677 14.55875563 191.125 64.1875 C203.16538225 77.31420626 213.33931297 91.71830124 222.125 107.1875 C222.57584961 107.97543945 223.02669922 108.76337891 223.49121094 109.57519531 C245.04249104 147.67614545 255.50118624 190.36508673 260.4375 233.5625 C260.55973938 234.6307048 260.55973938 234.6307048 260.68444824 235.7204895 C262.80469799 254.58682645 263.125 273.11601222 263.125 292.1875 C141.355 292.1875 19.585 292.1875 -105.875 292.1875 C-105.215 297.4675 -104.555 302.7475 -103.875 308.1875 C-103.51680563 312.44919709 -103.18671627 316.69868406 -102.91015625 320.96484375 C-102.74830257 323.29624172 -102.58618516 325.6276214 -102.42382812 327.95898438 C-102.17915796 331.54331654 -101.93731561 335.12779049 -101.70043945 338.71264648 C-100.18902201 364.1087723 -100.18902201 364.1087723 -94 388.6875 C-93.7110083 389.49662842 -93.4220166 390.30575684 -93.12426758 391.1394043 C-85.2503403 412.13061008 -73.4275573 432.14267403 -58.875 449.1875 C-58.17890625 450.00605469 -57.4828125 450.82460938 -56.765625 451.66796875 C-47.65711319 462.08461789 -37.58082925 470.80048348 -25.875 478.1875 C-25.28122559 478.56261719 -24.68745117 478.93773437 -24.07568359 479.32421875 C18.50291199 505.73444052 74.76135504 508.85707793 122.69384766 498.1875 C156.53960476 490.2079017 190.37816847 476.70115867 218.06713867 455.31225586 C219.875 453.9765625 219.875 453.9765625 223.125 452.1875 C225.66796875 452.640625 225.66796875 452.640625 228.125 454.1875 C229.15238281 454.82945312 230.17976563 455.47140625 231.23828125 456.1328125 C232.29402344 456.85210938 233.34976563 457.57140625 234.4375 458.3125 C235.50613281 459.03695313 236.57476563 459.76140625 237.67578125 460.5078125 C238.48402344 461.06210937 239.29226563 461.61640625 240.125 462.1875 C239.45781258 467.09644104 237.45542102 471.23240273 235.40625 475.6875 C235.03297073 476.51207199 234.65969147 477.33664398 234.27510071 478.186203 C232.23336558 482.69135807 230.1660336 487.18459617 228.09643555 491.67700195 C222.99005902 502.68620718 222.99005902 502.68620718 218.73828125 514.04296875 C214.82312039 525.90536812 209.82454182 531.08337781 198.60058594 536.78686523 C196.51432175 537.7832385 194.41913948 538.76113036 192.31591797 539.72119141 C189.13807785 541.18149039 186.02526395 542.73499832 182.91015625 544.32421875 C145.52727622 563.19050991 104.78474783 574.29182974 63.125 578.1875 C62.13669189 578.28248779 61.14838379 578.37747559 60.13012695 578.4753418 C48.82937648 579.42658342 37.52083141 579.38689654 26.1875 579.375 C24.59471725 579.37409363 24.59471725 579.37409363 22.96975708 579.37316895 C-51.75168322 579.25805847 -131.26184423 567.96190018 -190.875 519.1875 C-191.79023438 518.46304688 -192.70546875 517.73859375 -193.6484375 516.9921875 C-208.77437131 504.90010861 -222.85962792 491.37421564 -234.875 476.1875 C-235.82246094 475.05828125 -235.82246094 475.05828125 -236.7890625 473.90625 C-271.45016663 432.25586973 -285.67989347 380.07822204 -291.875 327.1875 C-291.99359375 326.18235352 -292.1121875 325.17720703 -292.234375 324.14160156 C-300.97924915 245.61991906 -287.09510641 163.87064367 -236.90942383 101.00830078 C-231.84111936 94.81175571 -226.43490509 88.94334888 -220.875 83.1875 C-220.27606934 82.56665527 -219.67713867 81.94581055 -219.06005859 81.30615234 C-211.39553772 73.40427857 -203.65256268 65.864243 -194.875 59.1875 C-194.34535645 58.77612793 -193.81571289 58.36475586 -193.27001953 57.94091797 C-137.95904518 15.09036948 -68.77209722 -0.0883698 0 0 Z M-59.296875 73.5390625 C-60.14765625 74.41304687 -60.9984375 75.28703125 -61.875 76.1875 C-62.54015625 76.85523438 -63.2053125 77.52296875 -63.890625 78.2109375 C-100.03885438 116.80161482 -104.12285861 187.1275412 -105.875 236.1875 C-40.535 236.1875 24.805 236.1875 92.125 236.1875 C90.48369407 145.00169903 90.48369407 145.00169903 48.125 66.1875 C17.83763641 40.94803034 -31.98310748 46.43108364 -59.296875 73.5390625 Z " fill="#FF6601" transform="translate(2395.875,234.8125)"/>
</svg>
