<?xml version="1.0" encoding="UTF-8"?>
<svg version="1.1" xmlns="http://www.w3.org/2000/svg" width="2659" height="849">
<path d="M0 0 C1.30130859 1.10214844 1.30130859 1.10214844 2.62890625 2.2265625 C15.14375174 13.19558105 26.93673277 25.0235014 36.82519531 38.42382812 C37.92690105 39.9019271 39.06769992 41.35065926 40.2109375 42.796875 C51.30244731 56.97158429 60.4269633 72.69967194 68 89 C68.48412354 90.01247803 68.48412354 90.01247803 68.97802734 91.04541016 C79.17719702 112.40256089 85.65088798 134.77299054 90 158 C90.26901123 159.41176514 90.26901123 159.41176514 90.54345703 160.85205078 C95.65875842 189.09034313 95.02351443 220.81194306 90 249 C89.76651855 250.37285156 89.76651855 250.37285156 89.52832031 251.7734375 C85.42051555 275.1903844 77.55328469 298.70444625 67 320 C66.6400293 320.7415332 66.28005859 321.48306641 65.90917969 322.24707031 C55.54535461 343.44701861 42.07444078 363.36958707 26.08203125 380.734375 C24.1755956 382.80892036 22.3323439 384.92265931 20.5 387.0625 C14.21089281 394.2666505 7.34303045 400.88080796 0 407 C-0.75313477 407.63180176 -0.75313477 407.63180176 -1.52148438 408.27636719 C-42.29934951 442.30528252 -98.79087662 470 -153 470 C-153 438.65 -153 407.3 -153 375 C-144.16165719 372.7904143 -144.16165719 372.7904143 -140.29296875 371.95703125 C-110.59420919 365.37635326 -82.66041892 353.00786643 -60.23046875 332.078125 C-58.18217378 330.16973109 -56.07964403 328.36375274 -53.9375 326.5625 C-21.8695591 298.33503107 -5.12126726 253.935522 -2.140625 212.23193359 C0.69392471 167.24329917 -15.92947941 122.72942124 -45.27929688 88.93164062 C-75.91845135 54.53649445 -118.89015139 34.11430327 -164.81640625 31.12451172 C-211.46332628 28.46463591 -256.17111638 45.49273971 -290.92382812 76.26293945 C-322.87300075 105.25614721 -343.86693793 147.54089105 -346.20507812 190.79370117 C-346.30263049 194.73884825 -346.33461457 198.67908642 -346.3125 202.625 C-346.31034485 203.32243317 -346.3081897 204.01986633 -346.30596924 204.73843384 C-346.08966347 248.57161096 -329.20644033 291.1827364 -298.38769531 322.57714844 C-297.09922881 323.8982573 -295.84116954 325.24883671 -294.5859375 326.6015625 C-270.3380578 352.1469876 -236.01219622 367.1637199 -201.83203125 373.2734375 C-198 374 -198 374 -196 375 C-196 406.35 -196 437.7 -196 470 C-249.2358816 466.19743703 -299.27382714 446.20994758 -341 413 C-341.56428711 412.55285645 -342.12857422 412.10571289 -342.70996094 411.64501953 C-350.89377997 405.08397899 -358.37270716 397.8226411 -365.8125 390.4375 C-366.68414795 389.57519775 -367.5557959 388.71289551 -368.45385742 387.82446289 C-374.38891507 381.86003775 -379.79926093 375.61215668 -385 369 C-385.50313721 368.36151123 -386.00627441 367.72302246 -386.5246582 367.06518555 C-415.37005171 329.83469169 -433.58733446 285.60260458 -440 239 C-440.11714355 238.15083008 -440.23428711 237.30166016 -440.35498047 236.42675781 C-446.74399276 187.57407242 -438.3152813 138.98713196 -419 94 C-418.68981934 93.27506348 -418.37963867 92.55012695 -418.06005859 91.80322266 C-408.78700207 70.43743352 -395.87529314 50.86637542 -381 33 C-380.35490479 32.21955322 -380.35490479 32.21955322 -379.69677734 31.42333984 C-369.15405826 18.70973739 -357.98037518 7.24766461 -345 -3 C-343.20749368 -4.49899651 -341.41583694 -5.9990095 -339.625 -7.5 C-301.15446748 -38.82832395 -253.82654539 -56.54468312 -205 -63 C-203.87984497 -63.15686279 -203.87984497 -63.15686279 -202.73706055 -63.31689453 C-129.58463504 -72.21133844 -55.64782134 -47.15378869 0 0 Z " fill="#8BC53F" transform="translate(889,64)"/>
<path d="M0 0 C45.705 -0.061875 91.41 -0.12375 138.5 -0.1875 C152.89947266 -0.21481201 167.29894531 -0.24212402 182.13476562 -0.27026367 C199.79980469 -0.28381348 199.79980469 -0.28381348 208.08532715 -0.28633118 C213.83764381 -0.2891115 219.58987154 -0.30004194 225.34216309 -0.31672668 C231.99697895 -0.33600025 238.65171051 -0.344467 245.30655441 -0.34033485 C248.7013335 -0.33854929 252.09577612 -0.34285674 255.49054432 -0.35764539 C292.55061512 -0.51144168 328.15860871 5.07988474 361 23 C362.05574219 23.56460938 363.11148437 24.12921875 364.19921875 24.7109375 C398.63857008 43.88892922 422.05902906 76.87560564 433.03295898 114.33422852 C441.14886539 143.80170071 441.1561581 173.7502679 441.11606562 204.06592894 C441.11169312 208.22376206 441.1132123 212.38159393 441.1139679 216.53942871 C441.11448887 223.72002794 441.11138693 230.90061799 441.10573006 238.0812149 C441.09755683 248.46278602 441.09499391 258.84435275 441.09374207 269.22592673 C441.09156064 286.07477397 441.08492533 302.92361634 441.07543945 319.77246094 C441.06624173 336.12662736 441.05917247 352.48079245 441.05493164 368.83496094 C441.05453756 370.35044698 441.05453756 370.35044698 441.05413551 371.8965489 C441.05283035 376.96572043 441.05156667 382.03489197 441.05032361 387.10406351 C441.03997933 429.06938001 441.02155639 471.03468747 441 513 C408.66 513 376.32 513 343 513 C343.01047363 502.88029541 343.02094727 492.76059082 343.03173828 482.33422852 C343.06387339 449.91371814 343.08609999 417.49320769 343.10213066 385.07268551 C343.10463192 380.03242507 343.10722058 374.99216467 343.10986328 369.9519043 C343.1103879 368.9485264 343.11091252 367.9451485 343.11145304 366.9113652 C343.12014335 350.68862759 343.13590573 334.46590422 343.15430559 318.24317504 C343.17304292 301.58332102 343.18412482 284.92347443 343.18817699 268.2636103 C343.19091411 257.99286143 343.19954285 247.72215284 343.21583293 237.45141637 C343.22644717 230.39770774 343.22959062 223.34401979 343.22700275 216.29030377 C343.22572834 212.22751056 343.22760992 208.16478749 343.23841095 204.10200691 C343.31703788 172.98074106 343.20901727 141.80507549 320 118 C310.05728804 109.28668055 298.36143816 103.62434636 285.6875 100.1875 C284.97851562 99.99260986 284.26953125 99.79771973 283.5390625 99.59692383 C224.49224493 84.82871075 161.86442631 95.38521789 101 95 C101 232.94 101 370.88 101 513 C67.67 513 34.34 513 0 513 C0 343.71 0 174.42 0 0 Z " fill="#8BC53F" transform="translate(1027,9)"/>
<path d="M0 0 C-1.594003 5.66654246 -4.32709495 10.46400061 -7.1875 15.5625 C-12.17398959 24.57047619 -16.97797984 33.65797267 -21.6875 42.8125 C-27.0576304 53.24478901 -32.47293384 63.64985713 -38 74 C-41.83316603 72.60926648 -44.97561315 70.80236996 -48.375 68.5625 C-74.59212095 52.00983611 -105.25140153 42.30134765 -136 39 C-137.00160156 38.88914062 -138.00320313 38.77828125 -139.03515625 38.6640625 C-193.72002008 33.54815868 -250.14888548 49.52911227 -292.72705078 84.41503906 C-304.96548565 94.56140553 -315.45023798 105.29106113 -325 118 C-325.639375 118.84433594 -326.27875 119.68867188 -326.9375 120.55859375 C-340.53811426 139.22795545 -349.6823905 160.6125621 -355 183 C-355.17934082 183.75265137 -355.35868164 184.50530273 -355.54345703 185.28076172 C-363.9738796 222.72791182 -356.49017939 263.77018471 -338 297 C-337.43667969 298.03898437 -336.87335938 299.07796875 -336.29296875 300.1484375 C-329.19025409 312.82353953 -320.62864729 324.01674104 -310.52783203 334.42529297 C-309.01657879 335.98291256 -307.52198676 337.55536424 -306.02734375 339.12890625 C-299.22535387 346.20127046 -291.98770039 352.30981869 -284 358 C-283.42942871 358.40959961 -282.85885742 358.81919922 -282.27099609 359.24121094 C-238.92673249 390.06219438 -182.80872106 403.2567982 -130.125 395.8125 C-119.67057951 393.94102967 -109.33179323 391.45995077 -99 389 C-98.67 336.86 -98.34 284.72 -98 231 C-65.66 231 -33.32 231 0 231 C0.36272731 283.42081317 0.36272731 283.42081317 0.43945312 305.35546875 C0.49289633 320.51248517 0.55578723 335.66905197 0.67895508 350.82568359 C0.76860781 361.86330857 0.82671157 372.90056949 0.84679645 383.93854845 C0.85853894 389.78431598 0.88616862 395.62904191 0.95157051 401.47447586 C1.01262325 406.9757224 1.03151201 412.47549764 1.01796913 417.97705078 C1.02044685 419.99675873 1.03837388 422.01651543 1.07284927 424.03593063 C1.32109651 439.32610798 1.32109651 439.32610798 -1.9713335 443.49777317 C-4.29008404 445.07696679 -6.36296724 446.07444155 -9 447 C-9.94786377 447.56098389 -10.89572754 448.12196777 -11.87231445 448.69995117 C-50.40999964 469.47774263 -93.13195862 483.6769488 -137 487 C-138.08603516 487.0839502 -139.17207031 487.16790039 -140.29101562 487.25439453 C-196.42944476 491.31723527 -253.02607692 482.36279918 -304 458 C-304.69174316 457.67 -305.38348633 457.34 -306.09619141 457 C-330.92040506 445.06292802 -353.22192824 430.07083114 -374 412 C-374.85335938 411.26007813 -375.70671875 410.52015625 -376.5859375 409.7578125 C-387.28939237 400.30136208 -397.24294043 390.29617404 -406 379 C-407.02980447 377.69910518 -408.05976326 376.39833252 -409.08984375 375.09765625 C-416.41269876 365.7722642 -422.9914681 356.21767818 -429 346 C-429.61222412 344.9788208 -429.61222412 344.9788208 -430.23681641 343.93701172 C-462.46443643 289.93091418 -471.48440689 223.07798448 -456.375 162.203125 C-446.96993572 125.95332012 -430.49730052 93.15614004 -407 64 C-406.24332031 63.03835937 -405.48664063 62.07671875 -404.70703125 61.0859375 C-398.58025478 53.54678808 -391.84475657 46.63433079 -385 39.75 C-384.08637695 38.82711182 -383.17275391 37.90422363 -382.23144531 36.95336914 C-376.12863325 30.87837647 -369.76681065 25.32219593 -363 20 C-362.32066406 19.46133301 -361.64132812 18.92266602 -360.94140625 18.36767578 C-315.17945017 -17.53804504 -259.57754055 -38.46942338 -202 -45 C-201.16855469 -45.09571289 -200.33710937 -45.19142578 -199.48046875 -45.29003906 C-130.3935377 -52.14468123 -59.06263917 -36.54748545 0 0 Z " fill="#8BC53F" transform="translate(1969,46)"/>
<path d="M0 0 C132 0 264 0 400 0 C400 49 400 49 388 65 C385.80201394 68.15363217 383.62961052 71.30286372 381.5 74.5 C376.99362874 81.17494775 372.31919758 87.67478569 367.44702148 94.08642578 C363.36296067 99.47413866 359.45002337 104.96849275 355.57006836 110.50439453 C351.92453568 115.70248968 348.22681573 120.85990837 344.5 126 C340.29295925 131.80552884 336.12390955 137.635126 332 143.5 C327.33863251 150.12922712 322.61055569 156.70728537 317.85546875 163.26953125 C314.20004412 168.32082208 310.58642038 173.39952352 307 178.5 C302.33863251 185.12922712 297.61055569 191.70728537 292.85546875 198.26953125 C289.20004412 203.32082208 285.58642038 208.39952352 282 213.5 C277.33863251 220.12922712 272.61055569 226.70728537 267.85546875 233.26953125 C264.20004412 238.32082208 260.58642038 243.39952352 257 248.5 C252.33863251 255.12922712 247.61055569 261.70728537 242.85546875 268.26953125 C239.20004412 273.32082208 235.58642038 278.39952352 232 283.5 C227.33863251 290.12922712 222.61055569 296.70728537 217.85546875 303.26953125 C214.20004412 308.32082208 210.58642038 313.39952352 207 318.5 C202.33863251 325.12922712 197.61055569 331.70728537 192.85546875 338.26953125 C189.20004363 343.32082276 185.58646398 348.39955362 182 353.5 C177.28962914 360.19782638 172.51683279 366.84807447 167.71484375 373.48046875 C164.46049295 377.97568712 161.22002572 382.48013532 158 387 C154.23243896 392.28842547 150.43304181 397.55316117 146.625 402.8125 C141.59219135 409.76367399 136.61982785 416.75518205 131.69384766 423.7824707 C128.10112795 428.89887205 128.10112795 428.89887205 127 430 C222.04 430.33 317.08 430.66 415 431 C415 458.06 415 485.12 415 513 C272.77 513 130.54 513 -16 513 C-16 464.50231481 -16 464.50231481 3.9375 437.5625 C5.11330575 435.97007017 6.28908625 434.3776217 7.46484375 432.78515625 C8.34052002 431.60010498 8.34052002 431.60010498 9.23388672 430.39111328 C12.15956103 426.43008838 15.07950306 422.46484283 18 418.5 C19.1666389 416.91664621 20.33330558 415.33331288 21.5 413.75 C22.36625 412.574375 22.36625 412.574375 23.25 411.375 C98.5 309.25 98.5 309.25 100.25024414 306.87475586 C101.41620806 305.29231815 102.58206104 303.70979869 103.74780273 302.12719727 C106.67431443 298.15448113 109.60277534 294.18323006 112.53515625 290.21484375 C118.27423642 282.44399909 123.98413928 274.65500166 129.625 266.8125 C134.15111241 260.52222468 138.74982873 254.2935626 143.4128418 248.10424805 C151.94805014 236.77001601 160.3390516 225.33001802 168.625 213.8125 C173.15118421 207.52227499 177.74982745 201.29356429 182.4128418 195.10424805 C190.94805014 183.77001601 199.3390516 172.33001802 207.625 160.8125 C212.15118421 154.52227499 216.74982745 148.29356429 221.4128418 142.10424805 C230.49724897 130.04071372 239.44262711 117.87217676 248.21069336 105.57666016 C252.98679805 98.916448 257.99119357 92.51144836 263 86 C132.815 85.505 132.815 85.505 0 85 C0 56.95 0 28.9 0 0 Z " fill="#8BC53F" transform="translate(16,9)"/>
<path d="M0 0 C46.95379695 -1.14193784 92.96510519 16.39803645 127.26953125 48.37109375 C129.11672368 50.17333783 129.11672368 50.17333783 131.23046875 51.12109375 C130.66473327 54.93340116 129.05453847 56.66238246 126.35327148 59.33886719 C125.53249619 60.15941589 124.71172089 60.9799646 123.86607361 61.82537842 C122.97440994 62.70155823 122.08274628 63.57773804 121.1640625 64.48046875 C120.25543961 65.3848468 119.34681671 66.28922485 118.41065979 67.2210083 C115.99893111 69.62130128 113.57832873 72.01244744 111.15576172 74.40179443 C108.68370043 76.84312736 106.2201457 79.29301114 103.75585938 81.7421875 C98.9223498 86.54355549 94.07941102 91.33531324 89.23046875 96.12109375 C85.52939199 94.36295876 82.53067807 92.05462224 79.35546875 89.49609375 C62.65173865 76.36628478 42.30590819 67.2460727 21.23046875 64.12109375 C20.4828125 64.01023438 19.73515625 63.899375 18.96484375 63.78515625 C-13.49272358 59.80856688 -46.0414803 69.0382898 -71.76953125 89.12109375 C-98.82800863 111.62148153 -113.46925826 141.37414063 -116.76953125 176.12109375 C-119.01144721 208.66390516 -106.63144684 239.89323675 -85.45703125 264.20239258 C-64.60060112 287.40449218 -34.19136334 300.95223255 -3.26953125 302.87109375 C23.21055446 304.13429118 48.48493361 297.81204246 70.46484375 282.87890625 C73.23046875 281.12109375 73.23046875 281.12109375 75.23046875 281.12109375 C75.23046875 258.68109375 75.23046875 236.24109375 75.23046875 213.12109375 C51.47046875 213.12109375 27.71046875 213.12109375 3.23046875 213.12109375 C3.23046875 192.99109375 3.23046875 172.86109375 3.23046875 152.12109375 C45.80046875 152.12109375 88.37046875 152.12109375 132.23046875 152.12109375 C132.55289302 192.17335353 132.55289302 192.17335353 132.62109375 208.9609375 C132.6685583 220.55123215 132.72434726 232.14106145 132.83398438 243.73095703 C132.9137961 252.17200161 132.96535188 260.61266859 132.98317671 269.05408001 C132.99359435 273.52276551 133.01802357 277.9903709 133.0763092 282.45870972 C133.13076987 286.66807374 133.14733043 290.87591702 133.1353302 295.0855999 C133.13752415 296.62715368 133.15334691 298.16876032 133.18411255 299.71000862 C133.4042249 311.30961373 133.4042249 311.30961373 130.52807617 315.74842834 C128.53085391 317.78383722 126.53857515 319.45350044 124.23046875 321.12109375 C122.90338336 322.22050721 121.57874638 323.32289065 120.2578125 324.4296875 C118.90144815 325.48163585 117.53794603 326.52443621 116.16796875 327.55859375 C115.42756348 328.11788574 114.6871582 328.67717773 113.92431641 329.25341797 C85.46184189 350.43748335 49.78998511 364.97916447 13.98046875 365.359375 C13.21314423 365.36916885 12.4458197 365.37896271 11.65524292 365.38905334 C-5.82175849 365.56604149 -22.69089181 365.3026368 -39.76953125 361.12109375 C-41.06165527 360.80760986 -41.06165527 360.80760986 -42.37988281 360.48779297 C-90.84294711 348.26675201 -130.64153573 315.90433072 -156.23535156 273.56835938 C-166.4002996 256.09876926 -172.92537967 236.89165471 -176.76953125 217.12109375 C-177.0015625 216.03957031 -177.23359375 214.95804688 -177.47265625 213.84375 C-186.02214416 168.34826074 -174.72600878 119.07265681 -149.02685547 80.94384766 C-131.10400173 54.96092998 -107.77395601 34.62119288 -79.76953125 20.12109375 C-79.11049805 19.77594727 -78.45146484 19.43080078 -77.77246094 19.07519531 C-53.37830656 6.45752926 -27.26219326 1.19199999 0 0 Z " fill="#EC0080" transform="translate(2526.76953125,3.87890625)"/>
<path d="M0 0 C10.23 0 20.46 0 31 0 C31 76.89 31 153.78 31 233 C43.87 233 56.74 233 70 233 C70 253.13 70 273.26 70 294 C57.13 294 44.26 294 31 294 C31 314.46 31 334.92 31 356 C11.86 356 -7.28 356 -27 356 C-27 335.54 -27 315.08 -27 294 C-79.14 294 -131.28 294 -185 294 C-184.13000532 290.5200213 -183.39181589 288.72799811 -181.55078125 285.7890625 C-181.03974854 284.96801025 -180.52871582 284.14695801 -180.00219727 283.30102539 C-179.44459717 282.41793701 -178.88699707 281.53484863 -178.3125 280.625 C-177.44226196 279.23365845 -177.44226196 279.23365845 -176.55444336 277.81420898 C-174.71016739 274.87153123 -172.85682335 271.93477458 -171 269 C-170.41927734 268.08202637 -169.83855469 267.16405273 -169.24023438 266.21826172 C-165.76377964 260.73093579 -162.27206051 255.25344558 -158.77490234 249.77929688 C-155.80364434 245.12664198 -152.8390946 240.46972074 -149.875 235.8125 C-149.29387451 234.89952148 -148.71274902 233.98654297 -148.11401367 233.04589844 C-142.87947497 224.81820009 -137.67000093 216.57481444 -132.46777344 208.32666016 C-129.47901427 203.58898968 -126.48671078 198.85355675 -123.49511719 194.11767578 C-121.01905673 190.19764894 -118.5437665 186.27714081 -116.0703125 182.35546875 C-110.14046007 172.95602182 -104.186155 163.5725154 -98.21582031 154.19873047 C-92.94553363 145.9212118 -87.70266097 137.62659707 -82.46777344 129.32666016 C-79.47901427 124.58898968 -76.48671078 119.85355675 -73.49511719 115.11767578 C-71.01905673 111.19764894 -68.5437665 107.27714081 -66.0703125 103.35546875 C-60.14046007 93.95602182 -54.186155 84.5725154 -48.21582031 75.19873047 C-42.45304413 66.1477072 -36.72362451 57.07581423 -31 48 C-27.00422226 41.66399099 -23.00430335 35.33062437 -19 29 C-18.40300293 28.05527832 -17.80600586 27.11055664 -17.19091797 26.13720703 C-15.31697311 23.1734089 -13.44006892 20.21150333 -11.5625 17.25 C-10.98322754 16.33307373 -10.40395508 15.41614746 -9.80712891 14.47143555 C-9.25331543 13.59914307 -8.69950195 12.72685059 -8.12890625 11.828125 C-7.64494385 11.0640332 -7.16098145 10.29994141 -6.66235352 9.51269531 C-4.52635628 6.28407385 -2.25011116 3.15015563 0 0 Z M-28 137 C-28.49886719 137.89976562 -28.99773438 138.79953125 -29.51171875 139.7265625 C-34.42454752 148.54509015 -39.48720074 157.26596899 -44.63745117 165.94775391 C-49.28520252 173.78289576 -53.8974133 181.63828783 -58.5 189.5 C-64.79727944 200.25324187 -71.1160671 210.99349477 -77.4609375 221.71875 C-77.9053418 222.4715625 -78.34974609 223.224375 -78.80761719 224 C-79.80226565 225.66833748 -80.82368545 227.3206771 -81.8515625 228.96875 C-83.16405586 230.90126219 -83.16405586 230.90126219 -83 233 C-64.52 233 -46.04 233 -27 233 C-27 201.32 -27 169.64 -27 137 C-27.33 137 -27.66 137 -28 137 Z " fill="#EC0080" transform="translate(2255,9)"/>
<path d="M0 0 C10.23 0 20.46 0 31 0 C32.794375 4.145625 34.58875 8.29125 36.4375 12.5625 C40.3556218 21.61052862 44.28227226 30.65475097 48.2265625 39.69140625 C48.58261566 40.50716125 48.93866882 41.32291626 49.30551147 42.16339111 C50.0287984 43.82041867 50.75209555 45.47744178 51.47540283 47.13446045 C58.71816482 63.72762776 65.90078461 80.34486979 73 97 C78.32709796 86.42771939 78.32709796 86.42771939 83.4375 75.75 C83.80037109 75.01265625 84.16324219 74.2753125 84.53710938 73.515625 C84.87419922 72.7834375 85.21128906 72.05125 85.55859375 71.296875 C85.86079834 70.66104492 86.16300293 70.02521484 86.47436523 69.37011719 C87.9760763 62.59881621 85.2757535 56.58374565 82.46484375 50.57421875 C81.92942711 49.39361626 81.92942711 49.39361626 81.38319397 48.18916321 C80.24478377 45.6838258 79.09189772 43.18550523 77.9375 40.6875 C76.44233422 37.42251968 74.95289639 34.15494631 73.46484375 30.88671875 C73.09749115 30.08128632 72.73013855 29.27585388 72.35165405 28.4460144 C69.63404303 22.46271338 67.00600728 16.44496419 64.44140625 10.39453125 C64.0944017 9.58126877 63.74739716 8.76800629 63.38987732 7.93009949 C61 2.24231607 61 2.24231607 61 0 C71.23 0 81.46 0 92 0 C95.96 8.91 99.92 17.82 104 27 C105.60875 23.473125 107.2175 19.94625 108.875 16.3125 C109.63079346 14.657948 109.63079346 14.657948 110.40185547 12.9699707 C110.80291504 12.08913818 111.20397461 11.20830566 111.6171875 10.30078125 C112.02565918 9.40528564 112.43413086 8.50979004 112.85498047 7.5871582 C113.96297181 5.08366477 114.98323541 2.54191147 116 0 C126.23 0 136.46 0 147 0 C146.29127629 3.54361855 145.7467696 5.91433562 144.34521484 9.07739258 C144.00751068 9.84622269 143.66980652 10.6150528 143.3218689 11.40718079 C142.77195786 12.63841927 142.77195786 12.63841927 142.2109375 13.89453125 C141.82942535 14.75954758 141.44791321 15.6245639 141.05484009 16.51579285 C139.83293129 19.28347021 138.60413749 22.04802645 137.375 24.8125 C136.57114695 26.62935046 135.76775708 28.44640593 134.96484375 30.26367188 C134.57073303 31.15472626 134.17662231 32.04578064 133.77056885 32.96383667 C132.98296747 34.74609471 132.19662387 36.52890912 131.41156006 38.31228638 C129.58519973 42.45428457 127.7378904 46.58186352 125.81738281 50.68115234 C125.31738266 51.76755257 125.31738266 51.76755257 124.80728149 52.87590027 C124.19209048 54.21048388 123.56517165 55.53975561 122.92391968 56.86201477 C120.410166 62.371137 121.15326901 65.71544669 123.19921875 71.2355957 C123.69035156 72.37085693 124.18148438 73.50611816 124.6875 74.67578125 C124.95006592 75.28640915 125.21263184 75.89703705 125.4831543 76.52616882 C126.03480042 77.805662 126.58961704 79.0837925 127.14746094 80.3605957 C128.00387581 82.32137374 128.85036793 84.28620867 129.6953125 86.25195312 C131.75370315 92.02627572 131.75370315 92.02627572 135 97 C135.51159668 95.82123291 136.02319336 94.64246582 136.55029297 93.42797852 C145.60352551 72.57208801 154.66226085 51.71843457 163.78155518 30.8913269 C164.54528011 29.14622006 165.30811427 27.40072307 166.07000732 25.65481567 C167.13656004 23.21145592 168.20651268 20.76961219 169.27734375 18.328125 C169.58180923 17.62886398 169.88627472 16.92960297 170.19996643 16.20915222 C172.62600042 10.69393116 175.29484419 5.41031162 178 0 C187.9 0 197.8 0 208 0 C207.19208724 4.03956382 206.31262277 6.90883223 204.69140625 10.609375 C204.20124023 11.734646 203.71107422 12.85991699 203.20605469 14.01928711 C202.65829577 15.26289888 202.1104408 16.50646836 201.5625 17.75 C200.98428825 19.07216679 200.40650085 20.39451922 199.82910156 21.71704102 C198.23378575 25.36710104 196.63190793 29.01424636 195.02838135 32.66070557 C193.62404173 35.85520522 192.22223298 39.05081323 190.82029724 42.24636841 C188.19464568 48.23114675 185.56772286 54.21536402 182.93774414 60.19824219 C177.42059773 72.75049384 171.93280327 85.31528035 166.4609375 97.8873291 C162.35913412 107.31058628 158.24544327 116.72844376 154.109375 126.13671875 C153.70203125 127.06344391 153.2946875 127.99016907 152.875 128.94497681 C150.90997284 133.4146203 148.94338808 137.88357026 146.97460938 142.3515625 C143.22679321 150.86565505 139.52399619 159.39018792 136 168 C133 167 133 167 131.16577148 163.48779297 C130.47316393 161.91073061 129.79248179 160.32839966 129.12109375 158.7421875 C128.75233627 157.8946843 128.3835788 157.04718109 128.00364685 156.17399597 C126.80468566 153.41197028 125.62094983 150.6437029 124.4375 147.875 C123.62416308 145.99234497 122.80987235 144.11010172 121.99462891 142.22827148 C120.38847457 138.51720772 118.7878816 134.80382601 117.19189453 131.08837891 C115.34504262 126.79314954 113.47511797 122.50896972 111.58984375 118.23046875 C111.1194165 117.16135254 110.64898926 116.09223633 110.16430664 114.99072266 C109.32512222 113.08479992 108.48453736 111.17949297 107.64233398 109.27490234 C107.28341064 108.45328613 106.9244873 107.63166992 106.5546875 106.78515625 C106.25030762 106.09301025 105.94592773 105.40086426 105.63232422 104.68774414 C105 103 105 103 105 101 C104.34 101 103.68 101 103 101 C102.74449371 101.81294777 102.74449371 101.81294777 102.48382568 102.64231873 C100.64218555 108.35007992 98.45393696 113.808948 96.015625 119.28515625 C95.63694275 120.14451279 95.2582605 121.00386932 94.86810303 121.88926697 C93.66584787 124.61536557 92.45808489 127.33898063 91.25 130.0625 C90.06144866 132.75274956 88.87402188 135.44349286 87.68688965 138.1343689 C86.91029919 139.89193596 86.13175547 141.64864136 85.35119629 143.40444946 C83.51705288 147.53390936 81.70845749 151.66994817 79.96679688 155.83935547 C79.65160095 156.5859996 79.33640503 157.33264374 79.01165771 158.10191345 C78.42595806 159.49376728 77.84880828 160.88926154 77.28179932 162.28883362 C76.60173318 163.89573842 75.80968443 165.45434671 75 167 C74.01 167.33 73.02 167.66 72 168 C71.7004541 167.30592041 71.4009082 166.61184082 71.09228516 165.89672852 C63.81851966 149.05315127 56.48165642 132.23818921 49.09820557 115.44241333 C43.19347032 102.0094435 37.31642089 88.56472397 31.45993042 75.11065674 C25.02694574 60.33406054 18.55377446 45.57529711 12.0625 30.82421875 C10.35175088 26.93580195 8.64620767 23.04513807 6.94390869 19.15301514 C6.01707993 17.0389586 5.08368809 14.92788533 4.14990234 12.81689453 C3.59310275 11.54603935 3.03660591 10.27505146 2.48046875 9.00390625 C1.99860107 7.91021729 1.5167334 6.81652832 1.02026367 5.68969727 C0 3 0 3 0 0 Z " fill="#EC0080" transform="translate(1575,680)"/>
<path d="M0 0 C5.62585034 5.62585034 5.62585034 5.62585034 8.09375 9.01171875 C8.91649414 10.13416992 8.91649414 10.13416992 9.75585938 11.27929688 C10.33142578 12.07400391 10.90699219 12.86871094 11.5 13.6875 C12.11166016 14.52474609 12.72332031 15.36199219 13.35351562 16.22460938 C17.9614491 22.54094249 22.53538649 28.88213017 27.10351562 35.22729492 C31.03215729 40.67905718 35.00631677 46.09574433 39 51.5 C43.53751054 57.64016327 48.03963081 63.80357117 52.5 70 C57.15388799 76.46241968 61.8420991 82.89848247 66.5625 89.3125 C67.14644531 90.10720703 67.73039062 90.90191406 68.33203125 91.72070312 C71.14975332 95.54240327 73.99637696 99.32074537 77 103 C83.20878741 94.78873882 89.36412005 86.54505549 95.375 78.1875 C102.75337246 67.92881808 110.25982366 57.76649342 117.77050781 47.60449219 C124.16159103 38.95482627 130.52850186 30.29037766 136.8125 21.5625 C140.58001244 16.33633933 144.35046753 11.11294008 148.1875 5.9375 C148.88230469 4.99777344 149.57710937 4.05804687 150.29296875 3.08984375 C152 1 152 1 154 0 C154 55.44 154 110.88 154 168 C144.76 168 135.52 168 126 168 C125.67 141.27 125.34 114.54 125 87 C116.97604796 97.31650977 108.95682777 107.6324115 101 118 C99.33390746 120.16710848 97.66693275 122.33353778 96 124.5 C95.17577342 125.57160856 94.35155468 126.64322315 93.52734375 127.71484375 C91.77019328 129.99920819 90.01225955 132.28296756 88.25390625 134.56640625 C87.80337891 135.15164063 87.35285156 135.736875 86.88867188 136.33984375 C85.63557887 137.9675728 84.38224986 139.59512016 83.12890625 141.22265625 C81.40501307 143.47162515 79.69406402 145.72853796 78 148 C74.8575237 146.64629844 73.15183277 145.28065344 71.1171875 142.54296875 C70.59487549 141.84913086 70.07256348 141.15529297 69.53442383 140.44042969 C68.98681396 139.69696289 68.4392041 138.95349609 67.875 138.1875 C66.70984374 136.63395832 65.54447718 135.08057434 64.37890625 133.52734375 C63.80543457 132.7576123 63.23196289 131.98788086 62.64111328 131.19482422 C60.39446456 128.19015716 58.10704971 125.21814086 55.8125 122.25 C55.01457031 121.21359375 54.21664062 120.1771875 53.39453125 119.109375 C52.60433594 118.08328125 51.81414063 117.0571875 51 116 C48.92177951 113.29905178 46.84397396 110.59778438 44.7668457 107.89599609 C42.58711043 105.06117738 40.40478159 102.22840457 38.21875 99.3984375 C37.76371094 98.80869141 37.30867188 98.21894531 36.83984375 97.61132812 C35.96824454 96.48180671 35.09588879 95.35286854 34.22265625 94.22460938 C32.39768643 91.85813212 30.65882404 89.48823606 29 87 C28.67 113.73 28.34 140.46 28 168 C18.76 168 9.52 168 0 168 C0 112.56 0 57.12 0 0 Z " fill="#EC0080" transform="translate(2505,674)"/>
<path d="M0 0 C82.84304933 0 82.84304933 0 97.91015625 13.7421875 C108.24609827 24.69147113 111.63690372 37.8679786 111.3125 52.4765625 C110.75790859 63.55452589 105.90732012 72.589365 98.5625 80.6875 C97.716875 81.450625 96.87125 82.21375 96 83 C95.48824219 83.49242187 94.97648437 83.98484375 94.44921875 84.4921875 C89.60847032 88.96570674 83.78838846 93 77 93 C86.54659155 111.46208721 86.54659155 111.46208721 96.1875 129.875 C96.76709473 130.97569824 96.76709473 130.97569824 97.35839844 132.09863281 C99.58448043 136.32357017 101.81944588 140.54369168 104.05859375 144.76171875 C105.08082207 146.69526338 106.1029593 148.62885618 107.125 150.5625 C107.61121826 151.47435059 108.09743652 152.38620117 108.59838867 153.32568359 C109.26511597 154.58952881 109.26511597 154.58952881 109.9453125 155.87890625 C110.34250488 156.6272876 110.73969727 157.37566895 111.14892578 158.14672852 C112 160 112 160 112 162 C101.44 162 90.88 162 80 162 C72.97295213 148.75472654 66.12392402 135.43422323 59.41894531 122.02319336 C57.84613219 118.87980546 56.26688309 115.73970042 54.6875 112.59960938 C53.68450689 110.59654888 52.68188783 108.59330102 51.6796875 106.58984375 C51.20796112 105.65357651 50.73623474 104.71730927 50.25021362 103.75267029 C49.82201324 102.8931929 49.39381287 102.03371552 48.95263672 101.14819336 C48.57420624 100.39275742 48.19577576 99.63732147 47.80587769 98.85899353 C47 97 47 97 47 95 C40.73 95 34.46 95 28 95 C28 117.11 28 139.22 28 162 C18.76 162 9.52 162 0 162 C0 108.54 0 55.08 0 0 Z M28 28 C28 40.87 28 53.74 28 67 C33.55097386 67.09217484 39.09925927 67.1717064 44.65039062 67.21972656 C46.53589916 67.23975767 48.42134623 67.26699073 50.30664062 67.30175781 C53.02749862 67.35065272 55.74753056 67.37305382 58.46875 67.390625 C59.71924133 67.42159271 59.71924133 67.42159271 60.99499512 67.45318604 C67.38106397 67.45559709 72.74191641 66.01001342 77.52868652 61.58770752 C81.73579455 56.82157176 83.51321352 52.50463998 83.30859375 46.11328125 C82.38292965 39.77423976 78.84584266 35.36834573 74.171875 31.2265625 C68.32768928 27.92606912 61.88032511 27.713862 55.34375 27.8046875 C54.29429199 27.80770874 54.29429199 27.80770874 53.22363281 27.81079102 C50.64902035 27.82113195 48.07450248 27.84905291 45.5 27.875 C36.8375 27.936875 36.8375 27.936875 28 28 Z " fill="#EC0080" transform="translate(2056,680)"/>
<path d="M0 0 C7.82189055 6.70447761 7.82189055 6.70447761 11.0625 10.4375 C14.96843527 14.86422664 18.96107403 19.19522068 23 23.5 C26.87207933 27.63325648 30.72657172 31.77601312 34.5 36 C38.82898161 40.8439534 43.26354516 45.58493644 47.70263672 50.32763672 C52.26462323 55.20415826 56.78697078 60.11473963 61.29296875 65.04296875 C64.16490709 68.18333215 67.05016112 71.31129902 69.9375 74.4375 C70.43290283 74.97415283 70.92830566 75.51080566 71.4387207 76.0637207 C74.01618592 78.85503492 76.59632387 81.64383119 79.1796875 84.4296875 C79.7044165 84.99631104 80.22914551 85.56293457 80.76977539 86.14672852 C81.75502726 87.21056354 82.74110962 88.27363043 83.72827148 89.33569336 C87.57319814 93.48967811 91.26766405 97.7344732 95 102 C95.33 70.32 95.66 38.64 96 6 C105.57 6 115.14 6 125 6 C125 61.77 125 117.54 125 175 C120.84839198 172.92419599 119.05097146 171.11530276 116 167.6875 C115.02121743 166.59731128 114.04203689 165.50747976 113.0625 164.41796875 C112.55847656 163.85384277 112.05445313 163.2897168 111.53515625 162.70849609 C109.05246374 159.94547412 106.5251228 157.22419376 104 154.5 C100.15691277 150.34221982 96.32338089 146.17590584 92.5 142 C87.18800184 136.19892738 81.85405644 130.41830859 76.51611328 124.64111328 C74.00985896 121.92822414 71.50499554 119.21405141 69 116.5 C68.00000676 115.41666043 67.00000676 114.33332709 66 113.25 C64 111.08333333 62 108.91666667 60 106.75 C59.2572583 105.9453833 59.2572583 105.9453833 58.49951172 105.12451172 C57.50108522 104.04285592 56.50271269 102.96115032 55.50439453 101.87939453 C52.98076354 99.14498066 50.45615518 96.41148081 47.9296875 93.6796875 C47.16205078 92.84920898 47.16205078 92.84920898 46.37890625 92.00195312 C44.97946166 90.48800852 43.57959171 88.97445712 42.1796875 87.4609375 C37.76724556 82.65820586 33.38714056 77.82585462 29 73 C28.67 104.35 28.34 135.7 28 168 C18.76 168 9.52 168 0 168 C0 112.56 0 57.12 0 0 Z " fill="#EC0080" transform="translate(1284,674)"/>
<path d="M0 0 C66.81661891 0 66.81661891 0 83 8 C84.36511719 8.62841797 84.36511719 8.62841797 85.7578125 9.26953125 C93.71914568 13.20483412 99.78316187 18.79188114 106 25 C106.74378906 25.7321875 107.48757813 26.464375 108.25390625 27.21875 C124.30926438 44.05959532 128.5558318 65.10324296 128.26953125 87.64453125 C127.70428682 106.52592283 119.68796884 123.21783935 107 137 C106.20916016 137.928125 106.20916016 137.928125 105.40234375 138.875 C93.24664401 152.30533833 76.28575452 158.5428491 59 162 C39.53 162 20.06 162 0 162 C0 108.54 0 55.08 0 0 Z M28 28 C28 62.98 28 97.96 28 134 C56.68481029 134.72014022 56.68481029 134.72014022 80 123 C80.63292969 122.57332031 81.26585937 122.14664063 81.91796875 121.70703125 C90.22987825 115.52540519 96.77383534 103.99786451 99 94 C99.17917969 93.24847656 99.35835937 92.49695313 99.54296875 91.72265625 C101.93830283 77.4530165 99.37400452 62.94150134 91 51 C82.10398213 39.57991357 72.05754367 32.70176885 58 29 C48.05564261 27.8950714 38.00555401 28 28 28 Z " fill="#EC0080" transform="translate(1893,680)"/>
<path d="M0 0 C33.66 0 67.32 0 102 0 C102 9.24 102 18.48 102 28 C77.91 28 53.82 28 29 28 C29 40.87 29 53.74 29 67 C50.12 67 71.24 67 93 67 C93 76.24 93 85.48 93 95 C71.88 95 50.76 95 29 95 C29 107.87 29 120.74 29 134 C53.09 134 77.18 134 102 134 C102 143.24 102 152.48 102 162 C68.34 162 34.68 162 0 162 C0 108.54 0 55.08 0 0 Z " fill="#EC0080" transform="translate(1449,680)"/>
<path d="M0 0 C33.33 0 66.66 0 101 0 C101 9.24 101 18.48 101 28 C76.91 28 52.82 28 28 28 C28 40.87 28 53.74 28 67 C49.45 67 70.9 67 93 67 C93 76.24 93 85.48 93 95 C71.55 95 50.1 95 28 95 C28 107.87 28 120.74 28 134 C52.09 134 76.18 134 101 134 C101 143.24 101 152.48 101 162 C67.67 162 34.34 162 0 162 C0 108.54 0 55.08 0 0 Z " fill="#EC0080" transform="translate(2203,680)"/>
<path d="M0 0 C0.66 0 1.32 0 2 0 C2.42071777 0.96671631 2.84143555 1.93343262 3.27490234 2.92944336 C11.48815672 21.79882459 19.71951752 40.66001354 28 59.5 C34.20482454 73.6175757 40.38515084 87.74552993 46.53814697 101.88577271 C50.66005734 111.3580601 54.79728545 120.82332023 58.9609375 130.27734375 C59.37301453 131.21353546 59.78509155 132.14972717 60.20965576 133.11428833 C62.20410748 137.64510783 64.20071791 142.17495243 66.20117188 146.703125 C66.92326686 148.34240837 67.64527647 149.98172936 68.3671875 151.62109375 C68.69141693 152.35271225 69.01564636 153.08433075 69.34970093 153.83811951 C69.65566193 154.53405716 69.96162292 155.22999481 70.27685547 155.94702148 C70.53868622 156.5399852 70.80051697 157.13294891 71.07028198 157.74388123 C72.46516601 161.12880438 73.71451381 164.57203683 75 168 C64.77 168 54.54 168 44 168 C42.14375 164.349375 42.14375 164.349375 40.25 160.625 C39.86875977 159.88072754 39.48751953 159.13645508 39.09472656 158.36962891 C36.37597466 152.97525781 34.26740199 147.66850498 32 142 C11.54 142 -8.92 142 -30 142 C-33.63 150.25 -37.26 158.5 -41 167 C-42 168 -42 168 -44.95922852 168.11352539 C-46.25272217 168.10828857 -47.54621582 168.10305176 -48.87890625 168.09765625 C-49.90889992 168.09553383 -49.90889992 168.09553383 -50.95970154 168.09336853 C-53.16067801 168.08775479 -55.36155409 168.07520007 -57.5625 168.0625 C-59.05143083 168.05748676 -60.54036324 168.05292355 -62.02929688 168.04882812 C-65.68623075 168.03778093 -69.34310558 168.02050713 -73 168 C-69.24823682 157.76304618 -64.91394556 147.82843718 -60.4760437 137.87518311 C-58.34820523 133.10215143 -56.23138117 128.32423425 -54.11328125 123.546875 C-53.6820546 122.5749118 -53.25082794 121.60294861 -52.80653381 120.60153198 C-48.64288956 111.21030943 -44.53371039 101.79578843 -40.4375 92.375 C-34.58734374 78.92652072 -28.71223597 65.48930675 -22.8125 52.0625 C-21.32157651 48.66928756 -19.83066539 45.27606969 -18.33984375 41.8828125 C-17.97816605 41.05961014 -17.61648834 40.23640778 -17.24385071 39.38825989 C-13.44580814 30.74169314 -9.65906127 22.090193 -5.875 13.4375 C-5.57050934 12.74125519 -5.26601868 12.04501038 -4.95230103 11.32766724 C-3.30115421 7.55194414 -1.65038658 3.77605548 0 0 Z M0 71 C-2.56603707 76.81959376 -5.12923739 82.64043066 -7.69042969 88.4621582 C-8.56281648 90.4442197 -9.43586245 92.42599119 -10.30957031 94.4074707 C-11.56226521 97.24875884 -12.81261818 100.09106723 -14.0625 102.93359375 C-14.45622803 103.82525742 -14.84995605 104.71692108 -15.25561523 105.63560486 C-15.61598877 106.45638016 -15.9763623 107.27715546 -16.34765625 108.12280273 C-16.66742432 108.84894272 -16.98719238 109.5750827 -17.31665039 110.32322693 C-18.06290017 111.85256292 -18.06290017 111.85256292 -18 113 C-5.79 113 6.42 113 19 113 C18.06662794 108.33313968 16.59270201 104.46962753 14.65625 100.1796875 C14.32709595 99.43921173 13.99794189 98.69873596 13.65881348 97.93582153 C12.61064578 95.58005315 11.55563359 93.22743108 10.5 90.875 C9.4456596 88.51487367 8.39275778 86.15411653 7.34118652 83.79275513 C6.68756613 82.32614886 6.03211436 80.8603571 5.37463379 79.39547729 C4.1331843 76.61863278 2.96261897 73.8878569 2 71 C1.34 71 0.68 71 0 71 Z " fill="#EC0080" transform="translate(2401,674)"/>
<path d="M0 0 C0.66 0 1.32 0 2 0 C9.91702731 17.51456557 17.6828487 35.09063538 25.34741211 52.71704102 C26.07923086 54.3999169 26.8110833 56.08277813 27.54296875 57.765625 C27.90845322 58.60600815 28.27393768 59.4463913 28.65049744 60.3122406 C32.7437612 69.71836661 36.87157335 79.10926808 41 88.5 C47.75424888 103.86520548 54.47649881 119.24406518 61.16796875 134.63671875 C61.82285978 136.14195184 62.47780666 137.64716062 63.1328125 139.15234375 C63.44688049 139.87501434 63.76094849 140.59768494 64.08453369 141.34225464 C65.78978946 145.2570367 67.51661691 149.16104098 69.26855469 153.05517578 C69.64027802 153.88320206 70.01200134 154.71122833 70.39498901 155.56434631 C71.11217183 157.1589625 71.83252048 158.75215963 72.556427 160.34373474 C75 165.77881927 75 165.77881927 75 168 C64.77 168 54.54 168 44 168 C42.948125 165.751875 41.89625 163.50375 40.8125 161.1875 C40.4925708 160.50453857 40.1726416 159.82157715 39.84301758 159.11791992 C37.18553812 153.43029933 34.59833597 147.71633913 32 142 C11.54 141.67 -8.92 141.34 -30 141 C-30.66 142.98 -31.32 144.96 -32 147 C-32.70048389 148.73513464 -33.4218473 150.46198948 -34.1640625 152.1796875 C-34.5245166 153.01741699 -34.8849707 153.85514648 -35.25634766 154.71826172 C-35.93383057 156.28084717 -35.93383057 156.28084717 -36.625 157.875 C-38.06875 161.21625 -39.5125 164.5575 -41 168 C-51.23 168 -61.46 168 -72 168 C-71.31617127 164.58085634 -70.84816772 162.3147789 -69.50390625 159.28759766 C-69.19779419 158.59143341 -68.89168213 157.89526917 -68.57629395 157.17800903 C-68.07446594 156.0573555 -68.07446594 156.0573555 -67.5625 154.9140625 C-67.03505188 153.71956985 -67.03505188 153.71956985 -66.49694824 152.50094604 C-65.3357746 149.87362457 -64.16778743 147.24938759 -63 144.625 C-61.76356735 141.83095441 -60.52895019 139.03611068 -59.29431152 136.24127197 C-58.44733507 134.32446284 -57.59975319 132.40792113 -56.75158691 130.49163818 C-52.98001593 121.96868215 -49.25140217 113.42742152 -45.53503418 104.88027954 C-39.68557357 91.42821033 -33.80606871 77.98958245 -27.90316772 64.56088257 C-22.1388989 51.44754091 -16.38573493 38.32969263 -10.6875 25.1875 C-10.17864258 24.01501709 -9.66978516 22.84253418 -9.14550781 21.63452148 C-6.03515465 14.44826158 -2.99238722 7.23616609 0 0 Z M1 71 C-3.81533844 80.03903119 -7.94084203 89.32307916 -11.9375 98.75 C-12.43419189 99.91708496 -12.93088379 101.08416992 -13.44262695 102.28662109 C-13.9037085 103.38312988 -14.36479004 104.47963867 -14.83984375 105.609375 C-15.46427368 107.0938916 -15.46427368 107.0938916 -16.10131836 108.60839844 C-17.11725056 110.8862186 -17.11725056 110.8862186 -17 113 C-4.79 113 7.42 113 20 113 C15.78139118 102.75480714 11.55448989 92.55845647 7.0625 82.4375 C6.56943359 81.32181641 6.07636719 80.20613281 5.56835938 79.05664062 C4.38081053 76.37024372 3.19136807 73.68470474 2 71 C1.67 71 1.34 71 1 71 Z " fill="#EC0080" transform="translate(1099,674)"/>
</svg>
